<svg xmlns="http://www.w3.org/2000/svg" xml:space="preserve" width="1.99999in" height="1.99999in" version="1.1" style="shape-rendering:geometricPrecision; text-rendering:geometricPrecision; image-rendering:optimizeQuality; fill-rule:evenodd; clip-rule:evenodd" viewBox="0 0 2000 2000" xmlns:xlink="http://www.w3.org/1999/xlink">
 <defs>
  <style type="text/css">
   
    .fil0 {fill:#000002}
   
  </style>
 </defs>
 <g id="Layer_x0020_1">
  <metadata id="CorelCorpID_0Corel-Layer"></metadata>
  <path class="fil0" d="M1085 1853l-170 0c-11,0 -20,-8 -22,-19l-31 -189c-42,-15 -81,-37 -115,-66l-179 68c-10,4 -22,-1 -28,-10l-84 -147c-6,-10 -4,-22 5,-29l148 -121c-7,-44 -7,-89 0,-133l-84 -69 -152 0c-121,0 -219,-98 -219,-219 0,-112 84,-204 192,-217 -48,-139 51,-285 198,-291 0,-146 119,-264 265,-264 110,0 207,67 247,166 119,-74 277,-18 323,115 175,-73 355,97 291,276 101,20 176,109 176,215 0,121 -98,219 -219,219l-152 0 -84 69c7,44 7,89 0,133l148 121c9,7 11,19 5,29l-84 147c-6,9 -18,14 -28,10l-179 -68c-34,29 -73,51 -115,66l-31 189c-2,11 -11,19 -22,19zm-85 -272c-170,0 -308,-138 -308,-308 0,-169 138,-307 308,-307 170,0 308,138 308,307 0,170 -138,308 -308,308zm0 -570c-144,0 -262,118 -262,262 0,145 118,263 262,263 145,0 262,-118 262,-263 0,-144 -117,-262 -262,-262zm-531 81c-10,-7 -23,-18 -13,-35l84 -147c6,-9 18,-14 28,-10l179 68c34,-29 73,-51 115,-67l31 -188c2,-11 11,-19 22,-19l170 0c11,0 20,8 22,19l31 188c42,16 81,38 115,67l179 -68c10,-4 22,1 28,10l84 147c10,17 -3,28 -13,35l96 0c95,0 173,-77 173,-173 0,-93 -72,-169 -165,-173 -17,-1 -27,-19 -19,-34 82,-153 -90,-319 -240,-231 -14,8 -31,0 -34,-16 -26,-129 -183,-183 -283,-97 -13,11 -33,5 -37,-12 -26,-96 -113,-163 -213,-163 -129,0 -230,110 -218,239 2,29 -29,25 -38,25 -132,0 -214,141 -153,255 9,16 -3,35 -21,34 -97,-4 -179,75 -179,173 0,96 78,173 173,173l96 0zm341 288c-15,0 -27,-16 -21,-31l65 -167c7,-19 34,-21 42,-1l67 168c12,28 -31,45 -42,17l-12 -30 -66 0c-8,22 -12,44 -33,44zm80 -90l-15 -38 -14 38 29 0zm125 90c-13,0 -23,-10 -23,-23l0 -167c0,-30 39,-23 72,-23 40,0 72,32 72,72 0,40 -32,73 -72,73l-27 0c0,30 7,68 -22,68zm23 -114c18,0 52,5 52,-26 0,-32 -34,-27 -52,-27l0 53zm152 110c-13,0 -23,-11 -23,-23l0 -159c0,-30 46,-30 46,0l0 159c0,12 -11,23 -23,23zm-255 432l130 0 30 -183c5,-31 53,-14 138,-90 7,-5 16,-7 24,-4l173 66 65 -113 -144 -117c-22,-18 14,-59 -8,-165 -1,-8 2,-17 8,-22l144 -117 -65 -113 -173 66c-29,11 -39,-40 -147,-76 -8,-2 -14,-9 -15,-18l-30 -183 -130 0 -30 183c-5,31 -54,14 -138,90 -7,5 -16,7 -24,4l-173 -66 -65 113 144 117c22,18 -14,59 8,165 1,8 -2,17 -8,22l-144 117 65 113 173 -66c29,-11 40,40 147,76 8,2 14,9 15,18l30 183z" id="id_108" style="fill: rgb(71, 112, 254);"></path>
 </g>
</svg>