<?xml version="1.0" encoding="utf-8"?>
<svg version="1.1" xmlns="http://www.w3.org/2000/svg" width="512" height="512" xmlns:bx="https://boxy-svg.com" viewBox="0 0 512 512"><defs><bx:export><bx:file format="svg" path="Bez nazwy.svg"/></bx:export></defs><path d="M0 0 C1.94712891 -0.01836914 1.94712891 -0.01836914 3.93359375 -0.03710938 C26.38864659 -0.07109785 26.38864659 -0.07109785 34.77734375 7.72265625 C42.90424261 16.44566016 42.91313625 27.02722419 43.78173828 38.35693359 C43.9381674 40.34554476 44.10955234 42.33296141 44.28125 44.3203125 C44.41756836 46.08205811 44.41756836 46.08205811 44.55664062 47.87939453 C45.18018778 51.50871752 46.20000226 54.05511731 48.125 57.1875 C51.54052803 59.18526168 54.04614502 60.14059326 58 60.3125 C64.13851382 58.10263502 68.70735656 53.42477993 73.5703125 49.1953125 C74.17746094 48.6691333 74.78460938 48.1429541 75.41015625 47.60083008 C76.60876563 46.55793176 77.80179626 45.50857583 78.98828125 44.4519043 C86.54934589 37.8305658 93.13798755 34.73302416 103.2734375 34.93359375 C118.19826637 36.26251687 132.1777337 53.29018019 141.41015625 63.78515625 C147.88135712 71.57173733 150.85094777 77.65144509 150.51171875 87.93359375 C149.28028419 98.29505829 141.88241183 105.15889178 135.2421875 112.62890625 C128.72489892 119.8908051 128.72489892 119.8908051 125.5 128.875 C126.2580546 132.89268938 127.46160417 135.09220214 130.125 138.1875 C134.06197754 140.18904338 137.70428796 140.57541612 142.078125 140.8984375 C143.43363155 141.00995814 144.7890992 141.12195253 146.14453125 141.234375 C148.2546537 141.40056486 150.36488734 141.56177146 152.47607422 141.71386719 C161.8741295 142.4057756 170.23960191 143.08525733 177.68359375 149.3359375 C187.02771833 160.40901653 186.30560645 172.09616164 186.3125 186.0625 C186.32474609 187.36058594 186.33699219 188.65867187 186.34960938 189.99609375 C186.38359785 212.45114659 186.38359785 212.45114659 178.58984375 220.83984375 C169.86683984 228.96674261 159.28527581 228.97563625 147.95556641 229.84423828 C145.96695524 230.0006674 143.97953859 230.17205234 141.9921875 230.34375 C140.23044189 230.48006836 140.23044189 230.48006836 138.43310547 230.61914062 C134.80378248 231.24268778 132.25738269 232.26250226 129.125 234.1875 C127.12723832 237.60302803 126.17190674 240.10864502 126 244.0625 C128.20986498 250.20101382 132.88772007 254.76985656 137.1171875 259.6328125 C137.6433667 260.23996094 138.1695459 260.84710938 138.71166992 261.47265625 C139.75456824 262.67126563 140.80392417 263.86429626 141.8605957 265.05078125 C148.4819342 272.61184589 151.57947584 279.20048755 151.37890625 289.3359375 C150.04998313 304.26076637 133.02231981 318.2402337 122.52734375 327.47265625 C114.74076267 333.94385712 108.66105491 336.91344777 98.37890625 336.57421875 C88.01744171 335.34278419 81.15360822 327.94491183 73.68359375 321.3046875 C66.4216949 314.78739892 66.4216949 314.78739892 57.4375 311.5625 C53.41981062 312.3205546 51.22029786 313.52410417 48.125 316.1875 C46.12345662 320.12447754 45.73708388 323.76678796 45.4140625 328.140625 C45.30254186 329.49613155 45.19054747 330.8515992 45.078125 332.20703125 C44.91193514 334.3171537 44.75072854 336.42738734 44.59863281 338.53857422 C43.9067244 347.9366295 43.22724267 356.30210191 36.9765625 363.74609375 C25.90348347 373.09021833 14.21633836 372.36810645 0.25 372.375 C-1.04808594 372.38724609 -2.34617188 372.39949219 -3.68359375 372.41210938 C-26.13864659 372.44609785 -26.13864659 372.44609785 -34.52734375 364.65234375 C-42.65424261 355.92933984 -42.66313625 345.34777581 -43.53173828 334.01806641 C-43.6881674 332.02945524 -43.85955234 330.04203859 -44.03125 328.0546875 C-44.16756836 326.29294189 -44.16756836 326.29294189 -44.30664062 324.49560547 C-44.93018778 320.86628248 -45.95000226 318.31988269 -47.875 315.1875 C-51.29052803 313.18973832 -53.79614502 312.23440674 -57.75 312.0625 C-63.88851382 314.27236498 -68.45735656 318.95022007 -73.3203125 323.1796875 C-74.23103516 323.9689563 -74.23103516 323.9689563 -75.16015625 324.77416992 C-76.35876563 325.81706824 -77.55179626 326.86642417 -78.73828125 327.9230957 C-86.29934589 334.5444342 -92.88798755 337.64197584 -103.0234375 337.44140625 C-117.94826637 336.11248313 -131.9277337 319.08481981 -141.16015625 308.58984375 C-147.63197182 300.80252302 -150.59349803 294.72647387 -150.265625 284.4453125 C-149.07003971 274.47413121 -142.1678438 267.68913834 -135.765625 260.4765625 C-128.83445801 253.10589127 -128.83445801 253.10589127 -125.5625 243.9375 C-125.9336298 239.48394235 -126.97814274 237.5541179 -129.875 234.1875 C-133.81197754 232.18595662 -137.45428796 231.79958388 -141.828125 231.4765625 C-143.18363155 231.36504186 -144.5390992 231.25304747 -145.89453125 231.140625 C-148.0046537 230.97443514 -150.11488734 230.81322854 -152.22607422 230.66113281 C-161.6241295 229.9692244 -169.98960191 229.28974267 -177.43359375 223.0390625 C-186.77771833 211.96598347 -186.05560645 200.27883836 -186.0625 186.3125 C-186.07474609 185.01441406 -186.08699219 183.71632812 -186.09960938 182.37890625 C-186.13359785 159.92385341 -186.13359785 159.92385341 -178.33984375 151.53515625 C-169.61683984 143.40825739 -159.03527581 143.39936375 -147.70556641 142.53076172 C-145.71695524 142.3743326 -143.72953859 142.20294766 -141.7421875 142.03125 C-139.98044189 141.89493164 -139.98044189 141.89493164 -138.18310547 141.75585938 C-134.55378248 141.13231222 -132.00738269 140.11249774 -128.875 138.1875 C-126.87723832 134.77197197 -125.92190674 132.26635498 -125.75 128.3125 C-127.95986498 122.17398618 -132.63772007 117.60514344 -136.8671875 112.7421875 C-137.3933667 112.13503906 -137.9195459 111.52789062 -138.46166992 110.90234375 C-139.50456824 109.70373437 -140.55392417 108.51070374 -141.6105957 107.32421875 C-148.23333316 99.76155661 -151.32024748 93.17784565 -151.1328125 83.04296875 C-149.78606943 68.12676901 -132.73459115 54.12649482 -122.20703125 44.83203125 C-114.45357691 38.39232409 -108.36085814 35.46320832 -98.12890625 35.80078125 C-87.76744171 37.03221581 -80.90360822 44.43008817 -73.43359375 51.0703125 C-66.1716949 57.58760108 -66.1716949 57.58760108 -57.1875 60.8125 C-53.16981062 60.0544454 -50.97029786 58.85089583 -47.875 56.1875 C-45.87345662 52.25052246 -45.48708388 48.60821204 -45.1640625 44.234375 C-45.05254186 42.87886845 -44.94054747 41.5234008 -44.828125 40.16796875 C-44.66193514 38.0578463 -44.50072854 35.94761266 -44.34863281 33.83642578 C-43.6567244 24.4383705 -42.97724267 16.07289809 -36.7265625 8.62890625 C-25.65348347 -0.71521833 -13.96633836 0.00689355 0 0 Z M-29.875 18.1875 C-32.05944789 21.61910911 -32.29378853 24.81068303 -32.62109375 28.82421875 C-32.73646484 30.12423828 -32.85183594 31.42425781 -32.97070312 32.76367188 C-33.14284124 34.81248165 -33.31141238 36.86152358 -33.47680664 38.91088867 C-35.2122029 60.02445054 -35.2122029 60.02445054 -42.875 67.1875 C-49.14059198 71.24244965 -55.53305174 72.31864181 -62.875 71.1875 C-71.49521346 68.76877779 -77.79789731 62.09424649 -84.32421875 56.3046875 C-91.88758539 49.3800648 -91.88758539 49.3800648 -101.4375 46.4375 C-106.82628357 46.85704197 -109.98972063 49.66330607 -113.875 53.1875 C-114.69226563 53.8990625 -115.50953125 54.610625 -116.3515625 55.34375 C-118.89591072 57.58831097 -121.39385311 59.87339255 -123.875 62.1875 C-124.50535156 62.7753125 -125.13570312 63.363125 -125.78515625 63.96875 C-135.62807299 73.26505416 -135.62807299 73.26505416 -140.1875 85.4375 C-139.55741089 92.99856934 -134.39179528 98.15847118 -129.5 103.5625 C-114.85248934 120.1416626 -114.85248934 120.1416626 -114.8828125 129.6328125 C-115.433201 137.64934072 -117.7619099 142.80215872 -123.875 148.1875 C-127.43048669 150.62560151 -130.13256651 151.62613586 -134.41015625 152.06640625 C-135.46783203 152.18306641 -136.52550781 152.29972656 -137.61523438 152.41992188 C-138.71158203 152.52884766 -139.80792969 152.63777344 -140.9375 152.75 C-147.4602571 153.43805455 -153.97139497 154.14319949 -160.45703125 155.12890625 C-161.41198486 155.27400635 -162.36693848 155.41910645 -163.35083008 155.56860352 C-167.97357211 156.70204496 -170.52675422 159.19723242 -173.1875 163.125 C-175.43397053 169.8644116 -175.06114879 176.9502192 -175.06030273 183.96313477 C-175.06248285 185.98410312 -175.08065832 188.00451898 -175.09960938 190.02539062 C-175.40900507 202.51145778 -175.40900507 202.51145778 -170.5 213.625 C-166.24489355 217.77879439 -163.13404435 218.45279223 -157.23828125 218.93359375 C-155.93826172 219.04896484 -154.63824219 219.16433594 -153.29882812 219.28320312 C-151.25001835 219.45534124 -149.20097642 219.62391238 -147.15161133 219.78930664 C-126.03804946 221.5247029 -126.03804946 221.5247029 -118.875 229.1875 C-114.82005035 235.45309198 -113.74385819 241.84555174 -114.875 249.1875 C-117.29372221 257.80771346 -123.96825351 264.11039731 -129.7578125 270.63671875 C-136.6824352 278.20008539 -136.6824352 278.20008539 -139.625 287.75 C-139.20545803 293.13878357 -136.39919393 296.30222063 -132.875 300.1875 C-131.80765625 301.41339844 -131.80765625 301.41339844 -130.71875 302.6640625 C-128.47418903 305.20841072 -126.18910745 307.70635311 -123.875 310.1875 C-123.2871875 310.81785156 -122.699375 311.44820313 -122.09375 312.09765625 C-112.79744584 321.94057299 -112.79744584 321.94057299 -100.625 326.5 C-93.06393066 325.86991089 -87.90402882 320.70429528 -82.5 315.8125 C-65.9208374 301.16498934 -65.9208374 301.16498934 -56.4296875 301.1953125 C-49.83962476 301.64776457 -45.26982447 303.12683708 -40.1875 307.5 C-33.5814073 315.17735098 -33.26962332 324.56054047 -32.4140625 334.26953125 C-32.33422119 335.15366699 -32.25437988 336.03780273 -32.17211914 336.94873047 C-32.01853558 338.70063786 -31.8766344 340.45361822 -31.74780273 342.20751953 C-31.2242828 348.30343138 -30.09173561 352.90742909 -25.6875 357.4375 C-18.40870555 361.96652766 -10.25934708 361.50102889 -1.94848633 361.44824219 C0.05450063 361.43754273 2.05756575 361.44919555 4.06054688 361.4609375 C16.49748043 361.7148941 16.49748043 361.7148941 27.5625 356.8125 C31.71629439 352.55739355 32.39029223 349.44654435 32.87109375 343.55078125 C32.98646484 342.25076172 33.10183594 340.95074219 33.22070312 339.61132812 C33.39284124 337.56251835 33.56141238 335.51347642 33.72680664 333.46411133 C35.4622029 312.35054946 35.4622029 312.35054946 43.125 305.1875 C49.39059198 301.13255035 55.78305174 300.05635819 63.125 301.1875 C71.74521346 303.60622221 78.04789731 310.28075351 84.57421875 316.0703125 C92.13758539 322.9949352 92.13758539 322.9949352 101.6875 325.9375 C107.07628357 325.51795803 110.23972063 322.71169393 114.125 319.1875 C114.94226563 318.4759375 115.75953125 317.764375 116.6015625 317.03125 C132.17709151 304.25112101 132.17709151 304.25112101 140.5 286.875 C139.73541496 279.35658041 134.63150291 274.20515871 129.75 268.8125 C114.57319306 251.63423976 114.57319306 251.63423976 115.25 240.25 C116.12602612 233.69971377 118.09713409 228.42878204 123.4375 224.3125 C128.5837087 220.74878162 134.83923119 219.95585009 140.94140625 219.44140625 C142.20017578 219.32603516 143.45894531 219.21066406 144.75585938 219.09179688 C147.38049641 218.86362426 150.00550413 218.63967672 152.63085938 218.41992188 C153.88833984 218.30326172 155.14582031 218.18660156 156.44140625 218.06640625 C157.58037354 217.9691626 158.71934082 217.87191895 159.89282227 217.77172852 C164.53115516 216.93333207 167.9509888 215.29628835 171.375 212.0625 C176.08980684 204.3167459 175.43077125 195.01073316 175.375 186.25 C175.38273437 185.03892578 175.39046875 183.82785156 175.3984375 182.58007812 C175.64444001 169.94482644 175.64444001 169.94482644 170.75 158.6875 C166.47236688 154.61356369 163.35142518 153.91954766 157.48828125 153.44140625 C156.18826172 153.32603516 154.88824219 153.21066406 153.54882812 153.09179688 C151.50001835 152.91965876 149.45097642 152.75108762 147.40161133 152.58569336 C126.28804946 150.8502971 126.28804946 150.8502971 119.125 143.1875 C115.07005035 136.92190802 113.99385819 130.52944826 115.125 123.1875 C117.54345844 114.56822661 124.21599201 108.26524815 130.0078125 101.7421875 C136.83578348 94.37262107 136.83578348 94.37262107 139.75 85.0625 C138.60195496 77.94462077 134.45184697 73.02042989 129.625 67.9375 C129.10526611 67.38392822 128.58553223 66.83035645 128.05004883 66.26000977 C116.20800849 52.85603789 116.20800849 52.85603789 100.625 45.6875 C93.23314899 46.74347872 88.09918492 51.72035011 82.75 56.5625 C65.57173976 71.73930694 65.57173976 71.73930694 54.1875 71.0625 C47.16581836 70.103545 42.14493863 68.02379706 37.75 62.3125 C34.16516472 56.33454496 33.69940978 50.00455188 33.125 43.1875 C32.89834225 40.57863345 32.6683803 37.97025569 32.42871094 35.36254883 C32.27112158 33.61487015 32.12666136 31.86594432 31.99707031 30.1159668 C31.47505926 24.05690989 30.30339641 19.49403738 26 14.9375 C18.1021945 10.13014013 8.55093106 10.88301822 -0.375 10.9375 C-1.64214844 10.92976563 -2.90929687 10.92203125 -4.21484375 10.9140625 C-18.35900605 10.88129997 -18.35900605 10.88129997 -29.875 18.1875 Z " transform="translate(255.875,69.8125)" style="fill: rgb(71, 111, 255);"/><path d="M0 0 C1.42033063 1.2007757 2.81480985 2.43254058 4.1875 3.6875 C5.52554688 4.88826172 5.52554688 4.88826172 6.890625 6.11328125 C21.08989646 19.51723833 30.81071223 38.28301617 31.62109375 58.01953125 C31.6447833 60.17955799 31.64561186 62.3399417 31.625 64.5 C31.61597656 65.64001465 31.60695313 66.7800293 31.59765625 67.95458984 C31.22277 86.25372469 24.65502875 104.05036277 12.1875 117.6875 C11.38699219 118.57953125 10.58648437 119.4715625 9.76171875 120.390625 C-3.64223833 134.58989646 -22.40801617 144.31071223 -42.14453125 145.12109375 C-44.30455799 145.1447833 -46.4649417 145.14561186 -48.625 145.125 C-49.76501465 145.11597656 -50.9050293 145.10695313 -52.07958984 145.09765625 C-70.36325861 144.72308685 -88.1949734 138.16403166 -101.8125 125.6875 C-102.71613281 124.86378906 -103.61976563 124.04007813 -104.55078125 123.19140625 C-113.7933105 114.37410839 -120.24507958 104.61004226 -124.8125 92.6875 C-125.20695313 91.66011719 -125.60140625 90.63273437 -126.0078125 89.57421875 C-132.83281936 68.50260665 -129.87479795 45.69473405 -119.95605469 26.26782227 C-117.10476266 20.94510218 -113.76631636 16.25321651 -109.8125 11.6875 C-109.21566406 10.89472656 -108.61882812 10.10195312 -108.00390625 9.28515625 C-99.80385931 -0.43504199 -88.55237258 -6.85794315 -76.8125 -11.3125 C-75.70132813 -11.745625 -74.59015625 -12.17875 -73.4453125 -12.625 C-48.83411721 -20.66130867 -20.61845553 -15.28926471 0 0 Z M-93.0625 11.125 C-94.65204995 12.63933465 -96.23591335 14.15967376 -97.8125 15.6875 C-98.43898437 16.22890625 -99.06546875 16.7703125 -99.7109375 17.328125 C-109.98213989 26.53037873 -116.96266455 42.40871835 -117.98950195 56.03662109 C-118.49520145 76.04297965 -116.15537465 93.4273622 -102.3125 109.0625 C-100.82053522 110.61194416 -99.32119417 112.15434052 -97.8125 113.6875 C-97.27238281 114.31140625 -96.73226562 114.9353125 -96.17578125 115.578125 C-84.73751559 128.37054301 -66.52468135 133.62260006 -49.9453125 134.6328125 C-33.52847893 135.05375695 -16.81466727 129.13258966 -4.5625 118.25 C-2.97295005 116.73566535 -1.38908665 115.21532624 0.1875 113.6875 C0.81398438 113.14609375 1.44046875 112.6046875 2.0859375 112.046875 C12.35713989 102.84462127 19.33766455 86.96628165 20.36450195 73.33837891 C20.87020145 53.33202035 18.53037465 35.9476378 4.6875 20.3125 C3.19553522 18.76305584 1.69619417 17.22065948 0.1875 15.6875 C-0.62267578 14.75164062 -0.62267578 14.75164062 -1.44921875 13.796875 C-12.88748441 1.00445699 -31.10031865 -4.24760006 -47.6796875 -5.2578125 C-64.09652107 -5.67875695 -80.81033273 0.24241034 -93.0625 11.125 Z " transform="translate(304.8125,191.3125)" style="fill: rgb(71, 111, 255);"/><path d="M0 0 C5.48249944 5.53027722 7.5356244 11.94842856 8.04296875 19.55859375 C7.93772358 25.75636503 6.32410131 31.42875734 2.04296875 35.99609375 C-0.53867488 38.57162626 -0.53867488 38.57162626 -0.01171875 41.58203125 C0.84054547 44.99936254 2.02027154 48.0134518 3.41796875 51.24609375 C9.00975344 64.74095705 13.20269576 78.87221491 16.10546875 93.18359375 C16.25258301 93.90571045 16.39969727 94.62782715 16.55126953 95.37182617 C19.44710875 110.7028393 20.16775879 125.86624689 20.10546875 141.43359375 C20.10223602 142.88942368 20.10223602 142.88942368 20.09893799 144.37466431 C20.04790215 158.70290273 19.70055313 172.73045157 16.79296875 186.80859375 C16.59429199 187.79166504 16.39561523 188.77473633 16.19091797 189.78759766 C10.14242102 218.87022082 -0.4321532 246.56808116 -16.20703125 271.80859375 C-15.36140625 271.59203125 -14.51578125 271.37546875 -13.64453125 271.15234375 C-1.29024502 268.11992804 -1.29024502 268.11992804 4.79296875 268.80859375 C6.94059059 272.03002651 7.35403675 273.06814045 6.79296875 276.80859375 C3.65898175 279.79597807 0.45486176 280.63068519 -3.6953125 281.6328125 C-4.95923828 281.93896484 -6.22316406 282.24511719 -7.52539062 282.56054688 C-8.18176514 282.71402588 -8.83813965 282.86750488 -9.5144043 283.02563477 C-11.5058515 283.4928841 -13.49210645 283.97862617 -15.47851562 284.46679688 C-27.99528809 287.45122305 -27.99528809 287.45122305 -33.20703125 286.80859375 C-36.09823877 283.47919546 -36.97400876 279.62938403 -38.03125 275.40625 C-38.49047852 273.57610352 -38.49047852 273.57610352 -38.95898438 271.70898438 C-39.26771484 270.44248047 -39.57644531 269.17597656 -39.89453125 267.87109375 C-40.21486328 266.60845703 -40.53519531 265.34582031 -40.86523438 264.04492188 C-44.36225343 249.91517537 -44.36225343 249.91517537 -42.14453125 245.87109375 C-40.20703125 244.80859375 -40.20703125 244.80859375 -33.20703125 245.80859375 C-30.23703125 256.20359375 -30.23703125 256.20359375 -27.20703125 266.80859375 C-12.31885803 240.54751043 -1.26005508 214.53370264 4.79296875 184.80859375 C4.97230957 183.96055176 5.15165039 183.11250977 5.33642578 182.23876953 C11.0392051 154.09864001 9.81636725 121.76085528 3.79296875 93.80859375 C3.58397949 92.83019531 3.37499023 91.85179687 3.15966797 90.84375 C-0.05012022 76.3600316 -4.98136439 62.63406904 -10.47607422 48.8737793 C-11.20703125 46.80859375 -11.20703125 46.80859375 -11.20703125 44.80859375 C-12.19703125 45.13859375 -13.18703125 45.46859375 -14.20703125 45.80859375 C-21.53977121 46.57426138 -28.23212526 45.47262649 -34.41015625 41.33203125 C-40.24075361 36.60276895 -43.68597661 31.17220408 -45.20703125 23.80859375 C-46.04802936 15.35009354 -44.418239 8.15203481 -39.01953125 1.49609375 C-28.17341677 -10.01500449 -11.9887651 -9.59579802 0 0 Z M-31.64453125 10.49609375 C-33.84291198 15.15666089 -35.22842081 19.74442507 -33.54296875 24.80078125 C-30.92611496 29.75791078 -27.50328238 33.04317671 -22.20703125 34.80859375 C-16.40170072 35.36679861 -12.69447557 34.39409517 -8.20703125 30.80859375 C-5.00951604 27.10620772 -3.42627742 23.72497176 -3.046875 18.89453125 C-3.45653091 13.55901287 -6.04431401 9.83918403 -9.95703125 6.37109375 C-18.4210263 2.30186536 -25.23797583 3.43245572 -31.64453125 10.49609375 Z " transform="translate(481.20703125,114.19140625)" style="fill: rgb(71, 111, 255);"/><path d="M0 0 C2.83217559 3.69192017 3.72992768 7.36395604 4.640625 11.875 C4.7719281 12.52194824 4.9032312 13.16889648 5.03851318 13.83544922 C5.31197707 15.19599872 5.58064034 16.55752109 5.84472656 17.91992188 C6.24934535 19.99663998 6.67436033 22.06844894 7.1015625 24.140625 C7.36581704 25.46850508 7.62887854 26.79662326 7.890625 28.125 C8.24688965 29.92324219 8.24688965 29.92324219 8.61035156 31.7578125 C8.9875501 34.89640683 8.94817127 37.00212517 8 40 C6 42 6 42 3.0625 42.4375 C0 42 0 42 -1.5859375 39.9609375 C-3.26241553 36.45052218 -4.02194667 32.98806412 -4.6875 29.1875 C-4.81705078 28.49462891 -4.94660156 27.80175781 -5.08007812 27.08789062 C-5.39557559 25.39355236 -5.69902647 23.69697842 -6 22 C-23.22496679 41.43434495 -31.68448356 72.11502248 -37 97 C-37.21027832 97.97582031 -37.42055664 98.95164062 -37.63720703 99.95703125 C-43.36190129 127.91420796 -43.91537821 160.02818015 -38 188 C-37.80132324 188.97565918 -37.60264648 189.95131836 -37.39794922 190.95654297 C-34.57560594 204.52281776 -30.7130106 217.45643704 -25.734375 230.3828125 C-24.25997748 234.21341672 -23.0533451 238.03383324 -22 242 C-21.01 241.67 -20.02 241.34 -19 241 C-11.66726004 240.23433237 -4.97490599 241.33596726 1.203125 245.4765625 C7.03372236 250.2058248 10.47894536 255.63638967 12 263 C12.79557527 271.00165131 11.38150724 278.32498238 6.375 284.75 C0.72934345 290.80394593 -6.11245957 293.62403535 -14.25 294.25 C-22.32478111 293.71168126 -29.26221715 290.78778532 -35 285 C-39.84194923 278.18762975 -41.82710336 271.39133951 -41 263 C-39.97209148 258.22467695 -38.61680323 254.40438199 -35.25 250.8125 C-32.66835637 248.23696749 -32.66835637 248.23696749 -33.1953125 245.2265625 C-34.04757672 241.80923121 -35.22730279 238.79514195 -36.625 235.5625 C-42.21678469 222.0676367 -46.40972701 207.93637884 -49.3125 193.625 C-49.45961426 192.9028833 -49.60672852 192.1807666 -49.75830078 191.43676758 C-52.65414 176.10575445 -53.37479004 160.94234686 -53.3125 145.375 C-53.31034485 144.40444672 -53.3081897 143.43389343 -53.30596924 142.43392944 C-53.2549334 128.10569102 -52.90758438 114.07814218 -50 100 C-49.80132324 99.01692871 -49.60264648 98.03385742 -49.39794922 97.02099609 C-43.2799623 67.60424851 -32.72527887 39.09574116 -16 14 C-17.61068359 14.34224609 -17.61068359 14.34224609 -19.25390625 14.69140625 C-20.68998173 14.98237579 -22.12618676 15.2727064 -23.5625 15.5625 C-24.61920898 15.78969727 -24.61920898 15.78969727 -25.69726562 16.02148438 C-30.38213571 16.94982269 -34.26761559 17.11457702 -39 16 C-40.35439668 13.29120665 -40.06501451 10.99066732 -40 8 C-33.7376918 4.93623085 -27.38050226 3.63766662 -20.5625 2.3125 C-19.46873047 2.08755859 -18.37496094 1.86261719 -17.24804688 1.63085938 C-5.37157358 -0.72155466 -5.37157358 -0.72155466 0 0 Z M-27.375 258.75 C-29.65473167 263.30946334 -30.83856315 267.13534326 -29.37109375 272.1484375 C-27.24553402 276.93317029 -24.81319597 279.68596348 -20 282 C-15.5082287 283.42581122 -12.07607275 283.35930555 -7.75 281.4375 C-3.29754523 278.86574813 -0.80894585 275.89740081 0.59765625 270.859375 C1.30517903 266.82031292 1.31179842 263.85639456 -0.625 260.1875 C-3.635016 256.14774168 -6.19512545 253.60162485 -11 252 C-18.32455365 251.29571599 -22.65986329 253.29036802 -27.375 258.75 Z " transform="translate(64,111)" style="fill: rgb(71, 111, 255);"/><path d="M0 0 C6.0765933 4.73500776 9.85611385 11.18620674 11.0546875 18.78125 C11.70757932 27.26884362 9.14621916 34.38790247 3.86328125 40.98828125 C-1.66699597 46.47078069 -8.08514731 48.52390565 -15.6953125 49.03125 C-21.89308378 48.92600483 -27.56547609 47.31238256 -32.1328125 43.03125 C-34.70834501 40.44960637 -34.70834501 40.44960637 -37.71875 40.9765625 C-41.13608129 41.82882672 -44.15017055 43.00855279 -47.3828125 44.40625 C-60.8776758 49.99803469 -75.00893366 54.19097701 -89.3203125 57.09375 C-90.0424292 57.24086426 -90.7645459 57.38797852 -91.50854492 57.53955078 C-106.83955805 60.43539 -122.00296564 61.15604004 -137.5703125 61.09375 C-138.54086578 61.09159485 -139.51141907 61.0894397 -140.51138306 61.08721924 C-154.83962148 61.0361834 -168.86717032 60.68883438 -182.9453125 57.78125 C-183.92838379 57.58257324 -184.91145508 57.38389648 -185.92431641 57.17919922 C-215.00693957 51.13070227 -242.70479991 40.55612805 -267.9453125 24.78125 C-267.72875 25.63847656 -267.5121875 26.49570312 -267.2890625 27.37890625 C-264.28467546 39.716366 -264.28467546 39.716366 -264.9453125 44.78125 C-266.1328125 46.71875 -266.1328125 46.71875 -267.9453125 47.78125 C-270.4453125 48.21875 -270.4453125 48.21875 -272.9453125 47.78125 C-275.92969563 44.64285248 -276.76687234 41.44534456 -277.76953125 37.29296875 C-278.07568359 36.02904297 -278.38183594 34.76511719 -278.69726562 33.46289062 C-278.92748413 32.47832886 -278.92748413 32.47832886 -279.16235352 31.47387695 C-279.62960285 29.48242975 -280.11534492 27.4961748 -280.60351562 25.50976562 C-283.5879418 12.99299316 -283.5879418 12.99299316 -282.9453125 7.78125 C-279.55795484 4.81731204 -275.60484887 3.99239922 -271.2890625 2.95703125 C-270.01933594 2.65087891 -268.74960937 2.34472656 -267.44140625 2.02929688 C-266.7851123 1.87581787 -266.12881836 1.72233887 -265.45263672 1.56420898 C-263.44876585 1.09455937 -261.4489826 0.60985411 -259.44921875 0.12304688 C-245.62192658 -3.16883131 -245.62192658 -3.16883131 -242.0703125 -1.15625 C-240.29749067 1.89694315 -241.25295944 4.44536708 -241.9453125 7.78125 C-248.91171906 9.91197305 -255.90885673 11.89505178 -262.9453125 13.78125 C-204.83574221 46.94788193 -140.9275822 58.62913776 -75.53515625 41.3581543 C-65.11783245 38.43828464 -55.04969645 34.52102394 -45.01049805 30.51220703 C-42.9453125 29.78125 -42.9453125 29.78125 -40.9453125 29.78125 C-41.2753125 28.79125 -41.6053125 27.80125 -41.9453125 26.78125 C-42.71098013 19.44851004 -41.60934524 12.75615599 -37.46875 6.578125 C-28.16985922 -4.88626089 -12.74894263 -7.98728936 0 0 Z M-28.3203125 13.34375 C-31.0972037 17.50908681 -31.35605248 20.85237021 -30.9453125 25.78125 C-29.01393515 31.06770571 -26.01588816 34.24596217 -20.9453125 36.78125 C-16.45885302 38.21468311 -13.01642332 38.13835127 -8.6953125 36.21875 C-4.34201592 33.71282486 -1.88917903 30.75473803 -0.34765625 25.8984375 C0.61741761 21.11991645 -0.23242913 17.73931169 -2.65625 13.54296875 C-5.73285335 9.33827751 -9.38477581 7.65675643 -14.3828125 6.78125 C-20.55561449 6.34478925 -24.14372492 8.83743182 -28.3203125 13.34375 Z " transform="translate(393.9453125,440.21875)" style="fill: rgb(71, 111, 255);"/><path d="M0 0 C0.97055328 0.00215515 1.94110657 0.0043103 2.94107056 0.00653076 C17.26930898 0.0575666 31.29685782 0.40491562 45.375 3.3125 C46.35807129 3.51117676 47.34114258 3.70985352 48.35400391 3.91455078 C77.77075149 10.0325377 106.27925884 20.58722113 131.375 37.3125 C131.14683594 36.23871094 130.91867187 35.16492187 130.68359375 34.05859375 C130.39262421 32.62251827 130.1022936 31.18631324 129.8125 29.75 C129.66103516 29.04552734 129.50957031 28.34105469 129.35351562 27.61523438 C128.42517731 22.93036429 128.26042298 19.04488441 129.375 14.3125 C132.13750036 12.93124982 134.32231099 13.12170694 137.375 13.3125 C140.04815462 15.98565462 140.13776074 18.09171202 140.8828125 21.7890625 C141.01315887 22.43314056 141.14350525 23.07721863 141.27780151 23.74081421 C141.55210605 25.1068908 141.82252315 26.47375284 142.08935547 27.84130859 C142.4948071 29.91099214 142.91635371 31.97691057 143.33984375 34.04296875 C146.17050901 48.09749646 146.17050901 48.09749646 145.375 53.3125 C140.06039618 57.37832732 133.43718989 57.9932501 127.02783203 59.2121582 C124.87793033 59.62443806 122.73427586 60.06221441 120.58984375 60.50195312 C119.21644943 60.76979065 117.84275962 61.03611834 116.46875 61.30078125 C115.22802734 61.54352783 113.98730469 61.78627441 112.70898438 62.03637695 C109.2037321 62.32668453 107.44757418 61.94471654 104.375 60.3125 C103.375 59.3125 103.375 59.3125 103 56.4375 C103.185625 54.890625 103.185625 54.890625 103.375 53.3125 C107.25053589 50.28497004 111.44813223 49.45495627 116.1875 48.625 C116.88037109 48.49544922 117.57324219 48.36589844 118.28710938 48.23242188 C119.98144764 47.91692441 121.67802158 47.61347353 123.375 47.3125 C89.43861897 17.23414966 29.18901337 9.19907732 -14.21972656 11.70507812 C-38.61904575 13.42647282 -62.19416335 18.79221529 -85.0078125 27.578125 C-88.83841672 29.05252252 -92.65883324 30.2591549 -96.625 31.3125 C-96.13 32.7975 -96.13 32.7975 -95.625 34.3125 C-94.85933237 41.64523996 -95.96096726 48.33759401 -100.1015625 54.515625 C-104.8308248 60.34622236 -110.26138967 63.79144536 -117.625 65.3125 C-125.62665131 66.10807527 -132.94998238 64.69400724 -139.375 59.6875 C-145.42894593 54.04184345 -148.24903535 47.20004043 -148.875 39.0625 C-148.33668126 30.98771889 -145.41278532 24.05028285 -139.625 18.3125 C-132.81262975 13.47055077 -126.01633951 11.48539664 -117.625 12.3125 C-112.84967695 13.34040852 -109.02938199 14.69569677 -105.4375 18.0625 C-102.86196749 20.64414363 -102.86196749 20.64414363 -99.8515625 20.1171875 C-96.43423121 19.26492328 -93.42014195 18.08519721 -90.1875 16.6875 C-76.6926367 11.09571531 -62.56137884 6.90277299 -48.25 4 C-47.5278833 3.85288574 -46.8057666 3.70577148 -46.06176758 3.55419922 C-30.73075445 0.65836 -15.56734686 -0.06229004 0 0 Z M-135.0625 30.0625 C-137.26186067 34.63717018 -138.45809716 38.4665159 -136.99609375 43.4609375 C-134.87088931 48.24487051 -132.45630607 51.03358204 -127.625 53.3125 C-122.99445716 54.60533404 -119.15089846 54.97772751 -114.8125 52.6875 C-110.77274168 49.677484 -108.22662485 47.11737455 -106.625 42.3125 C-106.06679514 36.50716947 -107.03949858 32.79994432 -110.625 28.3125 C-114.32738603 25.11498479 -117.70862199 23.53174617 -122.5390625 23.15234375 C-127.87458088 23.56199966 -131.59440972 26.14978276 -135.0625 30.0625 Z " transform="translate(255.625,10.6875)" style="fill: rgb(71, 111, 255);"/><path d="M0 0 C2.8453664 1.52408283 5.61862092 3.13320589 8.38671875 4.79345703 C9.885979 5.67046265 9.885979 5.67046265 11.41552734 6.56518555 C13.44436879 7.75361807 15.46964859 8.94815306 17.49121094 10.14892578 C20.13946489 11.71018983 22.80571573 13.22965599 25.48828125 14.73095703 C26.99623931 15.5848667 28.50406117 16.43901696 30.01171875 17.29345703 C30.69105469 17.66913818 31.37039063 18.04481934 32.0703125 18.43188477 C37.0542163 21.31019072 41.24137823 24.55209014 43.19921875 30.19970703 C43.64108416 35.28115927 43.52222408 38.58026794 40.38671875 42.85595703 C34.41748579 48.17300524 27.29518402 51.96270418 20.36962891 55.86987305 C18.51888587 56.91441199 16.67320373 57.96746675 14.828125 59.02197266 C9.52874431 62.04042061 4.20387958 65.01489965 -1.19921875 67.84423828 C-1.94478027 68.23522705 -2.6903418 68.62621582 -3.45849609 69.02905273 C-7.30713938 70.50597941 -10.76894182 70.19375775 -14.61328125 68.85595703 C-18.9018809 66.44993324 -21.10698153 63.50401739 -22.61328125 58.85595703 C-22.87397766 56.39686584 -22.87397766 56.39686584 -22.88793945 53.79370117 C-22.89747147 52.81240738 -22.90700348 51.83111359 -22.91682434 50.82008362 C-22.91591293 49.77102341 -22.91500153 48.7219632 -22.9140625 47.64111328 C-22.91834763 46.55261581 -22.92263275 45.46411835 -22.92704773 44.34263611 C-22.93278316 42.04377945 -22.9332971 39.74490464 -22.92895508 37.44604492 C-22.92579576 33.93458006 -22.94926281 30.42395839 -22.97460938 26.91259766 C-22.97688254 24.67627059 -22.97758578 22.43994127 -22.9765625 20.20361328 C-22.98577225 19.1565773 -22.99498199 18.10954132 -23.00447083 17.03077698 C-22.96986936 11.56209441 -22.75921606 7.54594354 -19.61328125 2.85595703 C-13.47186295 -2.82485489 -7.58152029 -3.31903999 0 0 Z M-9.61328125 8.85595703 C-11.79249245 10.62383028 -11.79249245 10.62383028 -11.85379028 12.84280396 C-11.84934906 13.65554779 -11.84490784 14.46829163 -11.84033203 15.30566406 C-11.84018097 16.22646759 -11.84002991 17.14727112 -11.83987427 18.09597778 C-11.8295517 19.09184906 -11.81922913 20.08772034 -11.80859375 21.11376953 C-11.80576385 22.1319577 -11.80293396 23.15014587 -11.80001831 24.19918823 C-11.78879895 27.45989604 -11.76369121 30.72033187 -11.73828125 33.98095703 C-11.72825372 36.18798432 -11.71912748 38.39501591 -11.7109375 40.60205078 C-11.68885393 46.02011275 -11.6553592 51.43801547 -11.61328125 56.85595703 C-9.76240867 57.9766844 -9.76240867 57.9766844 -7.61328125 58.85595703 C-4.84295799 57.86453566 -4.84295799 57.86453566 -1.9921875 56.05126953 C-0.34935791 55.0870105 -0.34935791 55.0870105 1.32666016 54.10327148 C2.49295558 53.39656318 3.65880148 52.68911255 4.82421875 51.98095703 C6.00501944 51.27693915 7.18649804 50.57405704 8.36865234 49.87231445 C10.67914311 48.49739114 12.98255053 47.11238494 15.28369141 45.72167969 C17.83712805 44.18640331 20.40321094 42.68546344 22.9921875 41.21142578 C24.16567806 40.53097652 25.33889452 39.85005413 26.51171875 39.16845703 C27.48367188 38.60771484 28.455625 38.04697266 29.45703125 37.46923828 C30.41222656 36.67066406 30.41222656 36.67066406 31.38671875 35.85595703 C31.38671875 34.53595703 31.38671875 33.21595703 31.38671875 31.85595703 C29.38535093 30.08866379 29.38535093 30.08866379 26.51171875 28.54345703 C25.96668701 28.22441406 25.42165527 27.90537109 24.86010742 27.57666016 C23.53902698 26.80679571 22.2136003 26.04436803 20.88525391 25.28710938 C17.84579898 23.54612005 14.82595561 21.77284573 11.8046875 20.00048828 C9.43730073 18.61708257 7.06831783 17.23642763 4.69921875 15.85595703 C4.10892883 15.51100189 3.51863892 15.16604675 2.91046143 14.81063843 C1.21382203 13.82113319 -0.48676804 12.83841145 -2.1875 11.85595703 C-3.18354248 11.27845703 -4.17958496 10.70095703 -5.20581055 10.10595703 C-7.45700828 8.70235512 -7.45700828 8.70235512 -9.61328125 8.85595703 Z " transform="translate(245.61328125,222.14404296875)" style="fill: rgb(71, 111, 255);"/></svg>