<?xml version="1.0" encoding="utf-8"?>
<svg version="1.1" xmlns="http://www.w3.org/2000/svg" width="512" height="512" xmlns:bx="https://boxy-svg.com" viewBox="0 0 512 512"><defs><bx:export><bx:file format="svg" path="Bez nazwy.svg"/></bx:export></defs><path d="M0 0 C21.51824529 16.61184426 36.3831277 39.22161803 43.74316406 65.34570312 C44.22462891 67.01826172 44.22462891 67.01826172 44.71582031 68.72460938 C49.10013678 87.30187588 49.01685562 110.99410709 43.74316406 129.34570312 C43.40285156 130.57160156 43.06253906 131.7975 42.71191406 133.06054688 C37.23241843 150.99849033 27.71235169 166.07403197 15.93066406 180.53320312 C1.00876617 198.87748893 -12.76702966 219.504816 -16.25683594 243.34570312 C-15.39058594 243.42820312 -14.52433594 243.51070313 -13.63183594 243.59570312 C-8.82960663 244.66286519 -5.52042041 246.60602877 -2.60839844 250.61523438 C-0.25644468 255.36672477 -0.63884157 260.17000028 -1.25683594 265.34570312 C-3.69151325 270.7993803 -6.98728757 272.94204948 -12.25683594 275.34570312 C-15.19433594 275.59570312 -15.19433594 275.59570312 -17.25683594 275.34570312 C-17.25683594 277.98570312 -17.25683594 280.62570312 -17.25683594 283.34570312 C-15.55527344 283.31476563 -15.55527344 283.31476563 -13.81933594 283.28320312 C-10.25683594 283.34570312 -10.25683594 283.34570312 -9.25683594 284.34570312 C-9.13183594 287.34570312 -9.13183594 287.34570312 -9.25683594 290.34570312 C-10.25683594 291.34570312 -10.25683594 291.34570312 -13.81933594 291.40820312 C-14.95371094 291.38757813 -16.08808594 291.36695313 -17.25683594 291.34570312 C-17.25683594 293.98570312 -17.25683594 296.62570312 -17.25683594 299.34570312 C-15.55527344 299.31476563 -15.55527344 299.31476563 -13.81933594 299.28320312 C-10.25683594 299.34570312 -10.25683594 299.34570312 -9.25683594 300.34570312 C-9.13183594 303.34570312 -9.13183594 303.34570312 -9.25683594 306.34570312 C-10.25683594 307.34570312 -10.25683594 307.34570312 -13.81933594 307.40820312 C-14.95371094 307.38757813 -16.08808594 307.36695313 -17.25683594 307.34570312 C-17.25683594 309.98570312 -17.25683594 312.62570312 -17.25683594 315.34570312 C-15.55527344 315.31476563 -15.55527344 315.31476563 -13.81933594 315.28320312 C-10.25683594 315.34570312 -10.25683594 315.34570312 -9.25683594 316.34570312 C-9.13183594 319.34570312 -9.13183594 319.34570312 -9.25683594 322.34570312 C-9.58683594 322.67570312 -9.91683594 323.00570313 -10.25683594 323.34570312 C-12.56683594 323.34570312 -14.87683594 323.34570312 -17.25683594 323.34570312 C-17.25683594 328.29570312 -17.25683594 333.24570312 -17.25683594 338.34570312 C-18.42859375 338.93996094 -19.60035156 339.53421875 -20.80761719 340.14648438 C-28.45394816 344.14246672 -35.20901998 347.74284259 -41.00683594 354.22070312 C-47.6002573 361.38130051 -55.7354326 363.29849604 -65.25683594 363.84570312 C-75.17888332 363.26013967 -83.27238553 361.17345431 -90.06933594 353.65820312 C-90.53484863 353.13419922 -91.00036133 352.61019531 -91.47998047 352.0703125 C-97.50729569 345.51984155 -105.30072719 342.0786641 -113.25683594 338.34570312 C-113.25683594 333.39570313 -113.25683594 328.44570313 -113.25683594 323.34570312 C-115.56683594 323.34570312 -117.87683594 323.34570312 -120.25683594 323.34570312 C-121.25683594 322.34570312 -121.25683594 322.34570312 -121.38183594 319.34570312 C-121.25683594 316.34570312 -121.25683594 316.34570312 -120.25683594 315.34570312 C-117.92386161 315.30477375 -115.58978369 315.30328589 -113.25683594 315.34570312 C-113.25683594 312.70570313 -113.25683594 310.06570313 -113.25683594 307.34570312 C-114.95839844 307.37664062 -114.95839844 307.37664062 -116.69433594 307.40820312 C-120.25683594 307.34570312 -120.25683594 307.34570312 -121.25683594 306.34570312 C-121.38183594 303.34570312 -121.38183594 303.34570312 -121.25683594 300.34570312 C-120.25683594 299.34570312 -120.25683594 299.34570312 -116.69433594 299.28320312 C-115.55996094 299.30382812 -114.42558594 299.32445312 -113.25683594 299.34570312 C-113.25683594 296.70570313 -113.25683594 294.06570313 -113.25683594 291.34570312 C-114.95839844 291.37664062 -114.95839844 291.37664062 -116.69433594 291.40820312 C-120.25683594 291.34570312 -120.25683594 291.34570312 -121.25683594 290.34570312 C-121.38183594 287.34570312 -121.38183594 287.34570312 -121.25683594 284.34570312 C-120.25683594 283.34570312 -120.25683594 283.34570312 -116.69433594 283.28320312 C-115.55996094 283.30382812 -114.42558594 283.32445312 -113.25683594 283.34570312 C-113.25683594 280.70570313 -113.25683594 278.06570313 -113.25683594 275.34570312 C-114.28808594 275.26320313 -115.31933594 275.18070312 -116.38183594 275.09570312 C-121.49390305 274.10627078 -124.81725628 272.33239144 -127.90136719 268.07617188 C-130.25932252 263.3262849 -129.87492117 258.52216693 -129.25683594 253.34570312 C-126.82187322 247.89138664 -123.50564209 245.78264884 -118.25683594 243.34570312 C-116.93683594 243.34570312 -115.61683594 243.34570312 -114.25683594 243.34570312 C-119.77962548 217.54981656 -132.6148699 196.49221599 -149.63183594 176.56445312 C-172.93596467 149.05263448 -179.45335559 116.56072106 -177.25683594 81.34570312 C-176.58256334 74.8182823 -175.22279803 68.59967692 -173.25683594 62.34570312 C-173.0425293 61.65669922 -172.82822266 60.96769531 -172.60742188 60.2578125 C-162.87219148 30.01766453 -142.46543641 5.02051438 -114.25683594 -9.65429688 C-113.25394531 -10.19957031 -112.25105469 -10.74484375 -111.21777344 -11.30664062 C-75.86202405 -29.25859089 -31.35221678 -23.15188167 0 0 Z M-138.78417969 19.77490234 C-162.27835545 44.83483717 -169.46909231 75.52271113 -168.42529297 108.99853516 C-168.10548131 115.35305385 -167.08997846 121.23770193 -165.25683594 127.34570312 C-164.928125 128.54066406 -164.59941406 129.735625 -164.26074219 130.96679688 C-159.39056048 147.16141493 -151.014627 160.47144171 -140.25683594 173.34570312 C-123.38608638 193.73466474 -109.0551721 216.75735001 -105.25683594 243.34570312 C-99.31683594 243.34570312 -93.37683594 243.34570312 -87.25683594 243.34570312 C-87.48130974 239.66258932 -87.70633606 235.98004983 -87.94384766 232.29785156 C-88.16049167 228.92159666 -88.35943931 225.54479528 -88.55029297 222.16699219 C-90.08317058 196.24157668 -93.55596613 174.71159583 -106.25737 151.88085938 C-108.81190797 147.27302397 -111.10922581 142.58675123 -113.26464844 137.77929688 C-113.56716522 137.12445816 -113.86968201 136.46961945 -114.18136597 135.79493713 C-115.92350065 131.82130302 -116.57608059 128.67384377 -116.25683594 124.34570312 C-113.50683594 124.09570312 -113.50683594 124.09570312 -110.25683594 124.34570312 C-107.88183594 126.34570312 -107.88183594 126.34570312 -106.25683594 128.34570312 C-103.78883547 127.19396957 -102.20900028 126.29786747 -100.25683594 124.34570312 C-97.38183594 123.97070312 -97.38183594 123.97070312 -94.25683594 124.34570312 C-91.88183594 126.34570312 -91.88183594 126.34570312 -90.25683594 128.34570312 C-87.78883547 127.19396957 -86.20900028 126.29786747 -84.25683594 124.34570312 C-81.38183594 123.97070312 -81.38183594 123.97070312 -78.25683594 124.34570312 C-75.88183594 126.34570312 -75.88183594 126.34570312 -74.25683594 128.34570312 C-71.78883547 127.19396957 -70.20900028 126.29786747 -68.25683594 124.34570312 C-65.38183594 123.97070312 -65.38183594 123.97070312 -62.25683594 124.34570312 C-59.88183594 126.34570312 -59.88183594 126.34570312 -58.25683594 128.34570312 C-55.78883547 127.19396957 -54.20900028 126.29786747 -52.25683594 124.34570312 C-49.38183594 123.97070312 -49.38183594 123.97070312 -46.25683594 124.34570312 C-43.88183594 126.34570312 -43.88183594 126.34570312 -42.25683594 128.34570312 C-39.78883547 127.19396957 -38.20900028 126.29786747 -36.25683594 124.34570312 C-33.38183594 123.97070312 -33.38183594 123.97070312 -30.25683594 124.34570312 C-27.88183594 126.34570312 -27.88183594 126.34570312 -26.25683594 128.34570312 C-23.78883547 127.19396957 -22.20900028 126.29786747 -20.25683594 124.34570312 C-17.13183594 124.22070312 -17.13183594 124.22070312 -14.25683594 124.34570312 C-14.70880706 130.94302359 -15.96897895 135.81853712 -18.89746094 141.71289062 C-19.26152039 142.47312531 -19.62557983 143.23335999 -20.00067139 144.01663208 C-21.1568945 146.42426218 -22.33120749 148.82249853 -23.50683594 151.22070312 C-24.66380274 153.61370825 -25.81699439 156.00850916 -26.97015381 158.40335083 C-27.68498545 159.88426361 -28.40270601 161.36378744 -29.12408447 162.84152222 C-29.8109219 164.25062964 -30.49074411 165.66317577 -31.16389465 167.07887268 C-31.93879929 168.68607469 -32.74257402 170.27950125 -33.56596375 171.8624115 C-37.15847287 179.07817344 -38.33876063 185.69251824 -39.05761719 193.67773438 C-39.18371872 194.91311447 -39.30982025 196.14849457 -39.43974304 197.42131042 C-39.83422766 201.33206797 -40.20181619 205.24482973 -40.56933594 209.15820312 C-40.83151543 211.80381049 -41.10017835 214.4487196 -41.36816406 217.09375 C-41.85037275 221.93048296 -42.33008641 226.7673441 -42.78540039 231.60668945 C-42.87690872 232.57278641 -42.96841705 233.53888336 -43.06269836 234.53425598 C-43.26508326 237.46513854 -43.25683594 240.40784128 -43.25683594 243.34570312 C-37.31683594 243.34570312 -31.37683594 243.34570312 -25.25683594 243.34570312 C-24.92683594 241.09757813 -24.59683594 238.84945312 -24.25683594 236.53320312 C-21.39876372 220.21035949 -13.50830376 205.88296058 -4.25683594 192.34570312 C-3.65766357 191.45939209 -3.65766357 191.45939209 -3.04638672 190.55517578 C1.22210623 184.27921463 5.73892483 178.29972723 10.61865234 172.48608398 C32.796736 145.99113745 40.02070076 116.58206486 37.74316406 82.34570312 C37.06003336 76.14325938 35.66431933 70.27292038 33.74316406 64.34570312 C33.52885742 63.66411133 33.31455078 62.98251953 33.09375 62.28027344 C28.70138446 48.64284157 22.08245092 36.26149354 12.74316406 25.34570312 C11.74542969 24.14880859 11.74542969 24.14880859 10.72753906 22.92773438 C-7.04743518 2.30748548 -31.28848633 -9.95343633 -58.44433594 -12.46679688 C-88.9620919 -13.97695387 -117.53714141 -1.90006542 -138.78417969 19.77490234 Z M-100.44433594 136.03320312 C-102.52976795 138.15724815 -102.52976795 138.15724815 -102.07958984 140.62402344 C-101.1060531 143.84449453 -99.64683953 146.32432611 -97.90527344 149.20507812 C-86.33118888 169.69654379 -82.92046015 189.93946373 -80.75683594 213.03320312 C-80.68676079 213.7808342 -80.61668564 214.52846527 -80.544487 215.29875183 C-79.67877937 224.64046876 -78.92895815 233.98792114 -78.25683594 243.34570312 C-69.67683594 243.34570312 -61.09683594 243.34570312 -52.25683594 243.34570312 C-52.07096924 241.46979492 -51.88510254 239.59388672 -51.69360352 237.66113281 C-51.07046356 231.4170311 -50.42991072 225.17490167 -49.7778368 218.93375778 C-49.38366068 215.1549912 -48.99619592 211.3758012 -48.62475586 207.59472656 C-48.26506883 203.9359531 -47.88685714 200.2795018 -47.4964962 196.62387848 C-47.35175448 195.23892006 -47.21335463 193.85328154 -47.08185768 192.46700287 C-46.20345206 183.26438464 -44.28609748 175.6665801 -40.25683594 167.34570312 C-39.80553062 166.3580899 -39.80553062 166.3580899 -39.34510803 165.3505249 C-38.6203446 163.76631596 -37.86539719 162.19601428 -37.10839844 160.62695312 C-36.57859375 159.510625 -36.04878906 158.39429688 -35.50292969 157.24414062 C-34.4057076 154.9439401 -33.30132555 152.64714357 -32.19042969 150.35351562 C-31.66835938 149.2475 -31.14628906 148.14148438 -30.60839844 147.00195312 C-30.13225098 146.01001953 -29.65610352 145.01808594 -29.16552734 143.99609375 C-28.1970682 141.17137788 -28.10680977 140.05750254 -29.25683594 137.34570312 C-30.73573663 135.6154421 -30.73573663 135.6154421 -32.25683594 134.34570312 C-34.72483641 135.49743668 -36.30467159 136.39353878 -38.25683594 138.34570312 C-41.13183594 138.72070312 -41.13183594 138.72070312 -44.25683594 138.34570312 C-46.63183594 136.34570312 -46.63183594 136.34570312 -48.25683594 134.34570312 C-50.72483641 135.49743668 -52.30467159 136.39353878 -54.25683594 138.34570312 C-57.13183594 138.72070312 -57.13183594 138.72070312 -60.25683594 138.34570312 C-62.63183594 136.34570312 -62.63183594 136.34570312 -64.25683594 134.34570312 C-66.72483641 135.49743668 -68.30467159 136.39353878 -70.25683594 138.34570312 C-73.13183594 138.72070312 -73.13183594 138.72070312 -76.25683594 138.34570312 C-78.63183594 136.34570312 -78.63183594 136.34570312 -80.25683594 134.34570312 C-82.72483641 135.49743668 -84.30467159 136.39353878 -86.25683594 138.34570312 C-89.13183594 138.72070312 -89.13183594 138.72070312 -92.25683594 138.34570312 C-94.50683594 136.34570312 -94.50683594 136.34570312 -96.25683594 134.34570312 C-98.4533676 134.14210197 -98.4533676 134.14210197 -100.44433594 136.03320312 Z M-119.06933594 254.59570312 C-120.89883805 257.2918115 -120.7103546 259.17107248 -120.25683594 262.34570312 C-117.87213906 265.49690971 -116.06453209 266.61878146 -112.25683594 267.34570312 C-110.92035141 267.43403571 -109.5802564 267.47612952 -108.24085999 267.47941589 C-107.45165665 267.48368088 -106.66245331 267.48794586 -105.84933472 267.49234009 C-104.99260162 267.4918869 -104.13586853 267.49143372 -103.25317383 267.4909668 C-102.34378555 267.49432541 -101.43439728 267.49768402 -100.49745178 267.50114441 C-97.49145136 267.51064304 -94.48550669 267.5125969 -91.47949219 267.51367188 C-89.38968381 267.51688492 -87.29987565 267.52024903 -85.21006775 267.52375793 C-80.82957436 267.52974627 -76.4491007 267.53159811 -72.06860352 267.53100586 C-66.45517639 267.53090419 -60.8418756 267.54456301 -55.22847843 267.56177807 C-50.91250528 267.57289473 -46.59656271 267.57492518 -42.28057671 267.57439613 C-40.21092734 267.5755765 -38.1412772 267.58000143 -36.07164192 267.5877285 C-33.17763528 267.59752269 -30.28390362 267.59465267 -27.38989258 267.58862305 C-26.53518372 267.59424255 -25.68047485 267.59986206 -24.79986572 267.60565186 C-19.65709673 267.57841618 -15.78695436 267.09061238 -11.44433594 264.09570312 C-9.61483383 261.39959475 -9.80331727 259.52033377 -10.25683594 256.34570312 C-12.64153281 253.19449654 -14.44913978 252.07262479 -18.25683594 251.34570312 C-19.59332047 251.25737054 -20.93341548 251.21527673 -22.27281189 251.21199036 C-23.06201523 251.20772537 -23.85121857 251.20346039 -24.66433716 251.19906616 C-25.52107025 251.19951935 -26.37780334 251.19997253 -27.26049805 251.20043945 C-28.16988632 251.19708084 -29.0792746 251.19372223 -30.01622009 251.19026184 C-33.02222052 251.18076321 -36.02816519 251.17880935 -39.03417969 251.17773438 C-41.12398807 251.17452133 -43.21379622 251.17115722 -45.30360413 251.16764832 C-49.68409751 251.16165998 -54.06457117 251.15980814 -58.44506836 251.16040039 C-64.05849549 251.16050206 -69.67179627 251.14684324 -75.28519344 251.12962818 C-79.6011666 251.11851152 -83.91710916 251.11648107 -88.23309517 251.11701012 C-90.30274453 251.11582975 -92.37239468 251.11140482 -94.44202995 251.10367775 C-97.33603659 251.09388356 -100.22976826 251.09675358 -103.1237793 251.1027832 C-103.97848816 251.0971637 -104.83319702 251.09154419 -105.71380615 251.08575439 C-110.85657514 251.11299007 -114.72671751 251.60079387 -119.06933594 254.59570312 Z M-105.25683594 275.34570312 C-105.25683594 277.98570312 -105.25683594 280.62570312 -105.25683594 283.34570312 C-78.85683594 283.34570312 -52.45683594 283.34570312 -25.25683594 283.34570312 C-25.25683594 280.70570313 -25.25683594 278.06570313 -25.25683594 275.34570312 C-51.65683594 275.34570312 -78.05683594 275.34570312 -105.25683594 275.34570312 Z M-105.25683594 291.34570312 C-105.25683594 293.98570312 -105.25683594 296.62570312 -105.25683594 299.34570312 C-78.85683594 299.34570312 -52.45683594 299.34570312 -25.25683594 299.34570312 C-25.25683594 296.70570313 -25.25683594 294.06570313 -25.25683594 291.34570312 C-51.65683594 291.34570312 -78.05683594 291.34570312 -105.25683594 291.34570312 Z M-105.25683594 307.34570312 C-105.25683594 309.98570312 -105.25683594 312.62570312 -105.25683594 315.34570312 C-78.85683594 315.34570312 -52.45683594 315.34570312 -25.25683594 315.34570312 C-25.25683594 312.70570313 -25.25683594 310.06570313 -25.25683594 307.34570312 C-51.65683594 307.34570312 -78.05683594 307.34570312 -105.25683594 307.34570312 Z M-105.25683594 323.34570312 C-105.25683594 325.98570312 -105.25683594 328.62570312 -105.25683594 331.34570312 C-78.85683594 331.34570312 -52.45683594 331.34570312 -25.25683594 331.34570312 C-25.25683594 328.70570313 -25.25683594 326.06570313 -25.25683594 323.34570312 C-51.65683594 323.34570312 -78.05683594 323.34570312 -105.25683594 323.34570312 Z M-90.25683594 339.34570312 C-88.27683594 341.65570313 -86.29683594 343.96570313 -84.25683594 346.34570312 C-83.53496094 347.25320313 -82.81308594 348.16070312 -82.06933594 349.09570312 C-76.62673842 353.44978114 -69.95141481 354.73048675 -63.06933594 354.22070312 C-61.45833112 353.96953859 -59.85269607 353.67984469 -58.25683594 353.34570312 C-57.58007812 353.21550781 -56.90332031 353.0853125 -56.20605469 352.95117188 C-49.3660023 351.04582662 -44.8008817 345.54155873 -40.25683594 340.34570312 C-40.25683594 340.01570313 -40.25683594 339.68570312 -40.25683594 339.34570312 C-56.75683594 339.34570312 -73.25683594 339.34570312 -90.25683594 339.34570312 Z " transform="translate(321.2568359375,144.654296875)" style="fill: rgb(71, 111, 255);"/><path d="M0 0 C4.19536524 2.31173187 5.5659841 4.53106251 7 9 C8.67537811 24.94254537 3.71291429 38.017709 -6.03125 50.62890625 C-11.44799807 57.02791674 -17.35111264 63.0268404 -25.90234375 64.5 C-30.34627296 64.69088018 -33.16495909 64.47716623 -37.0625 62.25 C-42.33966027 56.12168485 -41.70000593 48.87335252 -41.24267578 41.17578125 C-39.66395949 27.02133496 -29.36446809 12.79443848 -18.5859375 4.0390625 C-12.60516697 -0.00507757 -7.15950702 -1.35106826 0 0 Z M-21.55859375 19.953125 C-24.4628441 24.07731791 -26.77382208 28.48197519 -29 33 C-29.51626953 34.0209375 -29.51626953 34.0209375 -30.04296875 35.0625 C-32.59858515 40.82163554 -32.49670886 46.79113921 -32 53 C-31.67 53.66 -31.34 54.32 -31 55 C-26.72589947 55.64111508 -24.40148247 54.90357479 -21 52.4375 C-19.64313676 51.31962972 -18.30857734 50.17402604 -17 49 C-16.484375 48.53980469 -15.96875 48.07960937 -15.4375 47.60546875 C-8.16546292 40.116061 -1.84991461 27.26013776 -1.875 16.9375 C-1.87242187 15.87402344 -1.86984375 14.81054688 -1.8671875 13.71484375 C-1.81561545 11.03295616 -1.81561545 11.03295616 -3 9 C-11.06487657 7.79026851 -16.81280557 14.10817607 -21.55859375 19.953125 Z " transform="translate(213,160)" style="fill: rgb(71, 111, 255);"/><path d="M0 0 C3.66486807 0.25926165 5.57049046 1.11971204 8.7355957 2.94287109 C10.26990234 3.81455933 10.26990234 3.81455933 11.83520508 4.70385742 C12.90963867 5.33187256 13.98407227 5.9598877 15.09106445 6.60693359 C16.19514648 7.23946045 17.29922852 7.8719873 18.43676758 8.52368164 C21.72544766 10.41285732 25.00310821 12.31994236 28.27856445 14.23193359 C30.0740667 15.27242013 31.86963322 16.31279578 33.6652832 17.35302734 C44.99698487 23.95035401 44.99698487 23.95035401 46.27856445 25.23193359 C46.40356445 28.23193359 46.40356445 28.23193359 46.27856445 31.23193359 C45.27856445 32.23193359 45.27856445 32.23193359 42.70825195 32.55224609 C38.18037892 32.12936957 35.2713905 30.39324079 31.40356445 28.10693359 C30.6463208 27.6726001 29.88907715 27.2382666 29.10888672 26.79077148 C26.49112147 25.28403299 23.88531263 23.75764663 21.27856445 22.23193359 C19.11890533 20.98237608 16.95872657 19.73371635 14.7980957 18.48583984 C10.52568081 16.01120768 6.25533117 13.53319287 1.9934082 11.04052734 C1.1077417 10.52288818 0.2220752 10.00524902 -0.69042969 9.47192383 C-2.72143555 8.23193359 -2.72143555 8.23193359 -3.72143555 7.23193359 C-3.84643555 4.23193359 -3.84643555 4.23193359 -3.72143555 1.23193359 C-2.72143555 0.23193359 -2.72143555 0.23193359 0 0 Z " transform="translate(428.721435546875,351.76806640625)" style="fill: rgb(71, 111, 255);"/><path d="M0 0 C1 1 1 1 1.41137695 3.82202148 C1 7 1 7 -1.32739258 9.03930664 C-2.40142334 9.63606201 -3.4754541 10.23281738 -4.58203125 10.84765625 C-5.16443069 11.18007828 -5.74683014 11.51250031 -6.34687805 11.85499573 C-7.58826723 12.56112452 -8.83518581 13.25760592 -10.0869751 13.94512939 C-11.96187925 14.97897965 -13.81551742 16.0429352 -15.66552734 17.12060547 C-19.32576882 19.25071246 -23.00518331 21.34585877 -26.6875 23.4375 C-27.96039516 24.16322083 -29.23318205 24.8891316 -30.50585938 25.61523438 C-42.14724064 32.24905359 -42.14724064 32.24905359 -48 32 C-49 31 -49 31 -49.41137695 28.17797852 C-49 25 -49 25 -46.67260742 22.96069336 C-45.06156128 22.0655603 -45.06156128 22.0655603 -43.41796875 21.15234375 C-42.83556931 20.81992172 -42.25316986 20.48749969 -41.65312195 20.14500427 C-40.41173277 19.43887548 -39.16481419 18.74239408 -37.9130249 18.05487061 C-36.03812075 17.02102035 -34.18448258 15.9570648 -32.33447266 14.87939453 C-28.67423118 12.74928754 -24.99481669 10.65414123 -21.3125 8.5625 C-20.03960484 7.83677917 -18.76681795 7.1108684 -17.49414062 6.38476562 C-5.85275936 -0.24905359 -5.85275936 -0.24905359 0 0 Z " transform="translate(86,352)" style="fill: rgb(71, 111, 255);"/><path d="M0 0 C3 0.125 3 0.125 4 1.125 C4.39935667 5.81092501 3.61853165 8.53794358 1.2890625 12.58203125 C0.70793701 13.60490234 0.12681152 14.62777344 -0.47192383 15.68164062 C-1.09993896 16.75607422 -1.7279541 17.83050781 -2.375 18.9375 C-3.00752686 20.04158203 -3.64005371 21.14566406 -4.29174805 22.28320312 C-6.18092373 25.57188321 -8.08800877 28.84954376 -10 32.125 C-11.04048654 33.92050225 -12.08086218 35.71606877 -13.12109375 37.51171875 C-19.71842042 48.84342042 -19.71842042 48.84342042 -21 50.125 C-24 50.25 -24 50.25 -27 50.125 C-28 49.125 -28 49.125 -28.3203125 46.5546875 C-27.89743598 42.02681447 -26.16130719 39.11782605 -23.875 35.25 C-23.4406665 34.49275635 -23.00633301 33.7355127 -22.55883789 32.95532227 C-21.05209939 30.33755701 -19.52571304 27.73174818 -18 25.125 C-16.75044248 22.96534088 -15.50178276 20.80516211 -14.25390625 18.64453125 C-11.77927409 14.37211636 -9.30125928 10.10176671 -6.80859375 5.83984375 C-6.29095459 4.95417725 -5.77331543 4.06851074 -5.23999023 3.15600586 C-3.39963613 0.14165151 -3.39963613 0.14165151 0 0 Z " transform="translate(380,36.875)" style="fill: rgb(71, 111, 255);"/><path d="M0 0 C1 1 1 1 1.41137695 3.82202148 C1 7 1 7 -1.32739258 9.03930664 C-2.40142334 9.63606201 -3.4754541 10.23281738 -4.58203125 10.84765625 C-5.16443069 11.18007828 -5.74683014 11.51250031 -6.34687805 11.85499573 C-7.58826723 12.56112452 -8.83518581 13.25760592 -10.0869751 13.94512939 C-11.96187925 14.97897965 -13.81551742 16.0429352 -15.66552734 17.12060547 C-19.32576882 19.25071246 -23.00518331 21.34585877 -26.6875 23.4375 C-27.96039516 24.16322083 -29.23318205 24.8891316 -30.50585938 25.61523438 C-42.14724064 32.24905359 -42.14724064 32.24905359 -48 32 C-49 31 -49 31 -49.41137695 28.17797852 C-49 25 -49 25 -46.67260742 22.96069336 C-45.06156128 22.0655603 -45.06156128 22.0655603 -43.41796875 21.15234375 C-42.83556931 20.81992172 -42.25316986 20.48749969 -41.65312195 20.14500427 C-40.41173277 19.43887548 -39.16481419 18.74239408 -37.9130249 18.05487061 C-36.03812075 17.02102035 -34.18448258 15.9570648 -32.33447266 14.87939453 C-28.67423118 12.74928754 -24.99481669 10.65414123 -21.3125 8.5625 C-20.03960484 7.83677917 -18.76681795 7.1108684 -17.49414062 6.38476562 C-5.85275936 -0.24905359 -5.85275936 -0.24905359 0 0 Z " transform="translate(474,128)" style="fill: rgb(71, 111, 255);"/><path d="M0 0 C3.66486807 0.25926165 5.57049046 1.11971204 8.7355957 2.94287109 C10.26990234 3.81455933 10.26990234 3.81455933 11.83520508 4.70385742 C12.90963867 5.33187256 13.98407227 5.9598877 15.09106445 6.60693359 C16.19514648 7.23946045 17.29922852 7.8719873 18.43676758 8.52368164 C21.72544766 10.41285732 25.00310821 12.31994236 28.27856445 14.23193359 C30.0740667 15.27242013 31.86963322 16.31279578 33.6652832 17.35302734 C44.99698487 23.95035401 44.99698487 23.95035401 46.27856445 25.23193359 C46.40356445 28.23193359 46.40356445 28.23193359 46.27856445 31.23193359 C45.27856445 32.23193359 45.27856445 32.23193359 42.7043457 32.54833984 C38.2033682 32.13262812 35.31403352 30.43787553 31.46606445 28.16943359 C30.71212402 27.73405273 29.95818359 27.29867187 29.18139648 26.85009766 C27.49503906 25.87174775 25.81229676 24.88714897 24.13256836 23.89746094 C20.95436333 22.04273769 17.74811405 20.2419261 14.5402832 18.43896484 C12.24370845 17.12169954 9.94812781 15.80269948 7.65356445 14.48193359 C6.53232178 13.85665771 5.4110791 13.23138184 4.25585938 12.5871582 C2.70088745 11.6765564 2.70088745 11.6765564 1.11450195 10.74755859 C0.1817041 10.21420898 -0.75109375 9.68085938 -1.7121582 9.13134766 C-3.72143555 7.23193359 -3.72143555 7.23193359 -4.08618164 4.07470703 C-3.60276637 0.30704477 -3.60276637 0.30704477 0 0 Z " transform="translate(40.721435546875,127.76806640625)" style="fill: rgb(71, 111, 255);"/><path d="M0 0 C3.17797852 0.41137695 3.17797852 0.41137695 5.21728516 2.73876953 C5.81404053 3.81280029 6.4107959 4.88683105 7.02563477 5.9934082 C7.52426781 6.86700737 7.52426781 6.86700737 8.03297424 7.758255 C8.73910304 8.99964418 9.43558443 10.24656276 10.12310791 11.49835205 C11.15695816 13.3732562 12.22091371 15.22689437 13.29858398 17.0769043 C15.42869097 20.73714577 17.52383728 24.41656027 19.61547852 28.09887695 C20.34119934 29.37177212 21.06711012 30.644559 21.79321289 31.91723633 C28.42703211 43.5586176 28.42703211 43.5586176 28.17797852 49.41137695 C27.17797852 50.41137695 27.17797852 50.41137695 24.35595703 50.82275391 C21.17797852 50.41137695 21.17797852 50.41137695 19.13867188 48.08398438 C18.5419165 47.00995361 17.94516113 45.93592285 17.33032227 44.8293457 C16.99790024 44.24694626 16.66547821 43.66454681 16.32298279 43.0644989 C15.616854 41.82310972 14.9203726 40.57619115 14.23284912 39.32440186 C13.19899887 37.4494977 12.13504332 35.59585953 11.05737305 33.74584961 C8.92726606 30.08560814 6.83211975 26.40619364 4.74047852 22.72387695 C4.01475769 21.45098179 3.28884691 20.1781949 2.56274414 18.90551758 C-4.07107507 7.26413631 -4.07107507 7.26413631 -3.82202148 1.41137695 C-2.82202148 0.41137695 -2.82202148 0.41137695 0 0 Z " transform="translate(131.822021484375,36.588623046875)" style="fill: rgb(71, 111, 255);"/><path d="M0 0 C1.61672607 -0.00472824 1.61672607 -0.00472824 3.26611328 -0.009552 C4.43899902 -0.00752777 5.61188477 -0.00550354 6.8203125 -0.00341797 C8.0151123 -0.00437469 9.20991211 -0.00533142 10.44091797 -0.00631714 C12.9729823 -0.00699918 15.50504838 -0.00514325 18.03710938 -0.00097656 C21.9284251 0.00437132 25.81962539 -0.00092079 29.7109375 -0.00732422 C32.16406276 -0.00666344 34.61718794 -0.00538229 37.0703125 -0.00341797 C38.24319824 -0.0054422 39.41608398 -0.00746643 40.62451172 -0.009552 C41.7023291 -0.00639984 42.78014648 -0.00324768 43.890625 0 C44.84469238 0.00079559 45.79875977 0.00159119 46.78173828 0.00241089 C48.9453125 0.12939453 48.9453125 0.12939453 49.9453125 1.12939453 C50.0703125 4.12939453 50.0703125 4.12939453 49.9453125 7.12939453 C48.26518908 8.80951795 46.19444058 8.25686792 43.890625 8.25878906 C42.27389893 8.2635173 42.27389893 8.2635173 40.62451172 8.26834106 C39.45162598 8.26631683 38.27874023 8.2642926 37.0703125 8.26220703 C35.8755127 8.26316376 34.68071289 8.26412048 33.44970703 8.2651062 C30.9176427 8.26578824 28.38557662 8.26393231 25.85351562 8.25976562 C21.9621999 8.25441774 18.07099961 8.25970986 14.1796875 8.26611328 C11.72656224 8.2654525 9.27343706 8.26417135 6.8203125 8.26220703 C5.64742676 8.26423126 4.47454102 8.26625549 3.26611328 8.26834106 C2.1882959 8.2651889 1.11047852 8.26203674 0 8.25878906 C-0.95406738 8.25799347 -1.90813477 8.25719788 -2.89111328 8.25637817 C-5.0546875 8.12939453 -5.0546875 8.12939453 -6.0546875 7.12939453 C-6.1796875 4.12939453 -6.1796875 4.12939453 -6.0546875 1.12939453 C-4.37456408 -0.55072888 -2.30381558 0.00192114 0 0 Z " transform="translate(458.0546875,251.87060546875)" style="fill: rgb(71, 111, 255);"/><path d="M0 0 C1.61672607 -0.00472824 1.61672607 -0.00472824 3.26611328 -0.009552 C4.43899902 -0.00752777 5.61188477 -0.00550354 6.8203125 -0.00341797 C8.0151123 -0.00437469 9.20991211 -0.00533142 10.44091797 -0.00631714 C12.9729823 -0.00699918 15.50504838 -0.00514325 18.03710938 -0.00097656 C21.9284251 0.00437132 25.81962539 -0.00092079 29.7109375 -0.00732422 C32.16406276 -0.00666344 34.61718794 -0.00538229 37.0703125 -0.00341797 C38.24319824 -0.0054422 39.41608398 -0.00746643 40.62451172 -0.009552 C41.7023291 -0.00639984 42.78014648 -0.00324768 43.890625 0 C44.84469238 0.00079559 45.79875977 0.00159119 46.78173828 0.00241089 C48.9453125 0.12939453 48.9453125 0.12939453 49.9453125 1.12939453 C50.0703125 4.12939453 50.0703125 4.12939453 49.9453125 7.12939453 C48.26518908 8.80951795 46.19444058 8.25686792 43.890625 8.25878906 C42.27389893 8.2635173 42.27389893 8.2635173 40.62451172 8.26834106 C39.45162598 8.26631683 38.27874023 8.2642926 37.0703125 8.26220703 C35.8755127 8.26316376 34.68071289 8.26412048 33.44970703 8.2651062 C30.9176427 8.26578824 28.38557662 8.26393231 25.85351562 8.25976562 C21.9621999 8.25441774 18.07099961 8.25970986 14.1796875 8.26611328 C11.72656224 8.2654525 9.27343706 8.26417135 6.8203125 8.26220703 C5.64742676 8.26423126 4.47454102 8.26625549 3.26611328 8.26834106 C2.1882959 8.2651889 1.11047852 8.26203674 0 8.25878906 C-0.95406738 8.25799347 -1.90813477 8.25719788 -2.89111328 8.25637817 C-5.0546875 8.12939453 -5.0546875 8.12939453 -6.0546875 7.12939453 C-6.1796875 4.12939453 -6.1796875 4.12939453 -6.0546875 1.12939453 C-4.37456408 -0.55072888 -2.30381558 0.00192114 0 0 Z " transform="translate(10.0546875,251.87060546875)" style="fill: rgb(71, 111, 255);"/><path d="M0 0 C3 0.125 3 0.125 4 1.125 C4.0987517 2.80755235 4.12798904 4.49424028 4.12939453 6.1796875 C4.13254669 7.25750488 4.13569885 8.33532227 4.13894653 9.44580078 C4.1369223 10.61868652 4.13489807 11.79157227 4.1328125 13 C4.13376923 14.1947998 4.13472595 15.38959961 4.13571167 16.62060547 C4.13639371 19.1526698 4.13453778 21.68473588 4.13037109 24.21679688 C4.12502321 28.1081126 4.13031533 31.99931289 4.13671875 35.890625 C4.13605797 38.34375026 4.13477682 40.79687544 4.1328125 43.25 C4.13483673 44.42288574 4.13686096 45.59577148 4.13894653 46.80419922 C4.13579437 47.8820166 4.13264221 48.95983398 4.12939453 50.0703125 C4.12859894 51.02437988 4.12780334 51.97844727 4.12698364 52.96142578 C4 55.125 4 55.125 3 56.125 C0 56.25 0 56.25 -3 56.125 C-4.68012342 54.44487658 -4.12747339 52.37412808 -4.12939453 50.0703125 C-4.13254669 48.99249512 -4.13569885 47.91467773 -4.13894653 46.80419922 C-4.1369223 45.63131348 -4.13489807 44.45842773 -4.1328125 43.25 C-4.13376923 42.0552002 -4.13472595 40.86040039 -4.13571167 39.62939453 C-4.13639371 37.0973302 -4.13453778 34.56526412 -4.13037109 32.03320312 C-4.12502321 28.1418874 -4.13031533 24.25068711 -4.13671875 20.359375 C-4.13605797 17.90624974 -4.13477682 15.45312456 -4.1328125 13 C-4.13483673 11.82711426 -4.13686096 10.65422852 -4.13894653 9.44580078 C-4.13579437 8.3679834 -4.13264221 7.29016602 -4.12939453 6.1796875 C-4.12859894 5.22562012 -4.12780334 4.27155273 -4.12698364 3.28857422 C-3.92747753 -0.11065317 -3.47279774 0.14469991 0 0 Z " transform="translate(256,3.875)" style="fill: rgb(71, 111, 255);"/></svg>