<?xml version="1.0" encoding="utf-8"?>
<svg version="1.1" xmlns="http://www.w3.org/2000/svg" width="512" height="512" xmlns:bx="https://boxy-svg.com" viewBox="0 0 512 512"><defs><bx:export><bx:file format="svg" path="Bez nazwy.svg"/></bx:export></defs><path d="M0 0 C1.49508698 -0.00702008 2.99017364 -0.01410691 4.48526001 -0.02125549 C9.23627146 -0.04065872 13.98723417 -0.04568922 18.73828125 -0.046875 C19.54693508 -0.04731686 20.35558891 -0.04775871 21.18874741 -0.04821396 C44.93700848 -0.05502335 68.46291781 0.1555365 92.05078125 3.203125 C93.50821015 3.38257355 94.96573327 3.56125821 96.42333984 3.73925781 C198.74510436 16.37197504 198.74510436 16.37197504 229.05078125 49.203125 C229.89640625 50.110625 230.74203125 51.018125 231.61328125 51.953125 C238.42008419 60.49308959 238.62916579 69.26787857 238.57217407 79.78279114 C238.57822105 81.36593698 238.586002 82.94907698 238.59535921 84.53220671 C238.6158866 88.86701099 238.61156414 93.20148383 238.60299802 97.53631508 C238.59805754 102.21744786 238.6160993 106.89850146 238.631073 111.5796051 C238.656555 120.74459301 238.66015587 129.90946368 238.65547247 139.07448105 C238.65190434 146.52555014 238.65540923 153.9765837 238.66392136 161.42764854 C238.66511173 162.48870318 238.66630211 163.54975781 238.66752856 164.64296561 C238.6699521 166.79861104 238.67238037 168.95425645 238.67481332 171.10990187 C238.69655996 191.32009797 238.6922415 211.5302273 238.68004362 231.74042716 C238.66970675 250.21963155 238.69221294 268.69862503 238.73024006 287.1777877 C238.76900704 306.16235887 238.78550702 325.14683029 238.77799356 344.1314413 C238.77417086 354.78577056 238.77913138 365.43992036 238.80742264 376.0942173 C238.83126538 385.16488253 238.83404347 394.23525781 238.8098423 403.30592708 C238.79807487 407.93134838 238.79583642 412.55623956 238.81984711 417.18162537 C238.84160051 421.42155199 238.83531864 425.66050706 238.80732374 429.90038856 C238.80203934 431.42858629 238.8067334 432.95686061 238.82279547 434.48498306 C238.93340452 445.79958757 236.62912369 454.0960552 229.76953125 463.24609375 C185.0944317 506.42677976 98.64636336 512.2355365 40.1015625 512.40625 C38.60647552 512.41327008 37.11138886 512.42035691 35.61630249 512.42750549 C30.86529104 512.44690872 26.11432833 512.45193922 21.36328125 512.453125 C20.55462742 512.45356686 19.74597359 512.45400871 18.91281509 512.45446396 C-4.83544598 512.46127335 -28.36135531 512.2507135 -51.94921875 509.203125 C-53.40664765 509.02367645 -54.86417077 508.84499179 -56.32177734 508.66699219 C-151.83256543 496.87516292 -151.83256543 496.87516292 -184.94921875 467.203125 C-185.59375 466.66300781 -186.23828125 466.12289063 -186.90234375 465.56640625 C-193.05107418 460.04591567 -197.24493508 452.78695854 -198.5040946 444.59171295 C-198.71957059 440.4702587 -198.75066984 436.38770153 -198.71112061 432.26269531 C-198.71804623 430.67695456 -198.72758371 429.09122346 -198.73948407 427.50551224 C-198.76439395 423.17732152 -198.75221521 418.8499306 -198.73356676 414.52173805 C-198.71994047 409.84268564 -198.7409705 405.16376673 -198.75744629 400.48474121 C-198.78407745 391.33012545 -198.77838513 382.17580543 -198.76097044 373.02117825 C-198.74740092 365.57875079 -198.74559073 358.13640601 -198.75211334 350.69396973 C-198.75303274 349.63332156 -198.75395214 348.5726734 -198.7548994 347.47988439 C-198.75681782 345.32496355 -198.7587631 343.17004273 -198.76073495 341.01512194 C-198.77782997 320.82489959 -198.75819462 300.6348409 -198.72593275 280.4446454 C-198.69912747 263.13358792 -198.70378402 245.82277188 -198.73144531 228.51171875 C-198.76357961 208.39203799 -198.77618215 188.27250054 -198.75777173 168.1527977 C-198.75586051 166.00595858 -198.75397428 163.85911944 -198.75211334 161.71228027 C-198.75118769 160.65609033 -198.75026204 159.59990038 -198.74930833 158.51170468 C-198.74413534 151.08121366 -198.7528558 143.65081381 -198.76699066 136.22033691 C-198.78384638 127.16070328 -198.77920686 118.10138141 -198.7473062 109.04178333 C-198.73157475 104.42243105 -198.72529819 99.80359792 -198.74520111 95.18424988 C-198.76316854 90.9499709 -198.75311233 86.71668897 -198.7213358 82.4824996 C-198.71467074 80.95641987 -198.7179595 79.43025474 -198.73259053 77.90423059 C-198.84169442 65.57217036 -195.96023134 56.72008268 -187.94921875 47.203125 C-175.96533537 35.77663154 -160.26979539 28.90893647 -144.94921875 23.203125 C-144.27793945 22.94966309 -143.60666016 22.69620117 -142.91503906 22.43505859 C-98.46773047 5.90426886 -47.15362878 0.13749746 0 0 Z M-173.94921875 51.203125 C-174.92955078 51.93982422 -174.92955078 51.93982422 -175.9296875 52.69140625 C-181.22334896 56.87892949 -184.76803826 61.7334073 -186.94921875 68.140625 C-186.94921875 76.49409146 -183.18538926 81.96209211 -177.515625 87.859375 C-173.33837141 91.67421846 -168.89201574 94.4786503 -163.94921875 97.203125 C-162.85738281 97.82703125 -161.76554687 98.4509375 -160.640625 99.09375 C-108.18767189 127.86794142 -39.09627451 130.68275892 19.42578125 130.515625 C20.77951038 130.51369712 22.13323963 130.51185704 23.48696899 130.51010132 C46.10436666 130.46758534 68.5657684 129.76147735 91.05078125 127.203125 C92.17181244 127.07584015 92.17181244 127.07584015 93.31549072 126.94598389 C130.54454897 122.64752119 171.21676501 116.29638505 204.05078125 97.203125 C205.08976562 96.60757813 206.12875 96.01203125 207.19921875 95.3984375 C216.29440712 89.91206382 223.61217515 83.68151705 226.98828125 73.328125 C227.1360293 65.94072259 224.11773555 60.37023285 219.109375 55.1015625 C184.10913707 22.82430324 122.57337281 16.90953146 77.05078125 13.203125 C75.18558838 13.0486792 75.18558838 13.0486792 73.28271484 12.89111328 C0.21430969 7.11174299 -113.39342034 3.19184227 -173.94921875 51.203125 Z M-186.94921875 95.203125 C-187.01883448 108.08603442 -187.07208888 120.96889882 -187.10465527 133.85195827 C-187.12028819 139.83456012 -187.1414833 145.81703294 -187.17553711 151.79956055 C-187.2082149 157.57672959 -187.22608961 163.35377478 -187.23385048 169.13102913 C-187.23937886 171.33135997 -187.25017437 173.53168431 -187.26640892 175.7319622 C-187.28829484 178.82202497 -187.29118098 181.91158076 -187.28979492 185.00170898 C-187.30058075 185.90442535 -187.31136658 186.80714172 -187.32247925 187.73721313 C-187.27937194 196.66168913 -185.20936137 203.7808128 -179.0078125 210.3046875 C-149.89557523 237.15202585 -101.8021233 244.07104247 -63.94921875 249.203125 C-62.82273926 249.35620117 -61.69625977 249.50927734 -60.53564453 249.66699219 C21.23905509 260.43159545 122.54012726 260.36721617 211.9765625 215.84765625 C212.66105469 215.30496094 213.34554688 214.76226562 214.05078125 214.203125 C214.70433594 213.71199219 215.35789062 213.22085938 216.03125 212.71484375 C222.35740363 207.71057297 226.01478959 202.24512452 227.05078125 194.203125 C227.18638635 190.94615476 227.17726726 187.69345968 227.16430664 184.43408203 C227.16452568 182.98436256 227.16452568 182.98436256 227.16474915 181.50535583 C227.16405476 178.3238599 227.15628458 175.14242316 227.1484375 171.9609375 C227.14657164 169.74990877 227.14514853 167.53887963 227.14414978 165.32785034 C227.14033787 159.51805473 227.1305189 153.70828424 227.1194458 147.89849854 C227.10920317 141.96618998 227.10464605 136.03387735 227.09960938 130.1015625 C227.08889544 118.46873898 227.07183494 106.83593408 227.05078125 95.203125 C222.83007424 98.01469007 222.83007424 98.01469007 218.62109375 100.84375 C204.63457378 110.04893567 189.92387591 116.06529808 174.05078125 121.203125 C173.06198975 121.53691162 173.06198975 121.53691162 172.05322266 121.87744141 C136.9189979 133.72427724 97.88847749 138.00444906 61.05078125 140.203125 C60.20322266 140.25952148 59.35566406 140.31591797 58.48242188 140.37402344 C-17.49566747 145.37024799 -116.22845884 142.90524584 -180.94921875 99.203125 C-182.9488374 97.86921982 -184.94879676 96.53582513 -186.94921875 95.203125 Z M-186.94921875 218.203125 C-187.01883448 231.08603442 -187.07208888 243.96889882 -187.10465527 256.85195827 C-187.12028819 262.83456012 -187.1414833 268.81703294 -187.17553711 274.79956055 C-187.2082149 280.57672959 -187.22608961 286.35377478 -187.23385048 292.13102913 C-187.23937886 294.33135997 -187.25017437 296.53168431 -187.26640892 298.7319622 C-187.28829484 301.82202497 -187.29118098 304.91158076 -187.28979492 308.00170898 C-187.30058075 308.90442535 -187.31136658 309.80714172 -187.32247925 310.73721313 C-187.27905944 319.72638521 -185.18512895 326.75007404 -178.94140625 333.3046875 C-144.50825151 366.11745848 -83.72396585 370.95441913 -38.8046875 375.40625 C-38.14817703 375.472677 -37.49166656 375.539104 -36.81526184 375.60754395 C-24.17114439 376.82228016 -11.54814717 377.36277751 1.15234375 377.40625 C2.5506137 377.41327685 3.94888335 377.42036362 5.34715271 377.42750549 C9.79003366 377.44688954 14.23286227 377.45193991 18.67578125 377.453125 C19.43382427 377.45356686 20.19186729 377.45400871 20.97288132 377.45446396 C44.77833201 377.46173575 68.39167085 377.07823582 92.05078125 374.203125 C93.15153992 374.0723053 93.15153992 374.0723053 94.27453613 373.93884277 C165.12519706 366.16601871 165.12519706 366.16601871 223.05078125 329.203125 C227.18891225 322.47866213 227.19436547 316.12333727 227.16430664 308.45581055 C227.16452568 306.99167976 227.16452568 306.99167976 227.16474915 305.49797058 C227.16405367 302.2785722 227.15627835 299.059232 227.1484375 295.83984375 C227.14657202 293.60496553 227.14514873 291.3700869 227.14414978 289.13520813 C227.14033482 283.25799426 227.13051323 277.38080517 227.1194458 271.50360107 C227.10920974 265.50435725 227.10464745 259.50510942 227.09960938 253.50585938 C227.08889007 241.73827037 227.07182588 229.97069975 227.05078125 218.203125 C226.5079953 218.61241241 225.96520935 219.02169983 225.40597534 219.44338989 C224.69047516 219.98172455 223.97497498 220.5200592 223.23779297 221.07470703 C222.17611404 221.87426315 222.17611404 221.87426315 221.09298706 222.68997192 C173.31500627 258.09061481 97.18935096 264.23138462 39.4765625 264.40625 C38.03059866 264.41327444 36.58463513 264.42036123 35.13867188 264.42750549 C30.54687039 264.44688739 25.95511952 264.45193932 21.36328125 264.453125 C20.18930094 264.45378778 20.18930094 264.45378778 18.99160385 264.45446396 C-4.77531889 264.46149925 -28.33573792 264.15920694 -51.94921875 261.203125 C-53.4254403 261.02428668 -54.90167774 260.84557946 -56.37792969 260.66699219 C-154.5407285 248.61443094 -154.5407285 248.61443094 -184.6640625 219.41796875 C-185.77559222 218.08863371 -185.77559222 218.08863371 -186.94921875 218.203125 Z M-186.94921875 342.203125 C-187.01883448 355.08603442 -187.07208888 367.96889882 -187.10465527 380.85195827 C-187.12028819 386.83456012 -187.1414833 392.81703294 -187.17553711 398.79956055 C-187.2082149 404.57672959 -187.22608961 410.35377478 -187.23385048 416.13102913 C-187.23937886 418.33135997 -187.25017437 420.53168431 -187.26640892 422.7319622 C-187.28829484 425.82202497 -187.29118098 428.91158076 -187.28979492 432.00170898 C-187.30058075 432.90442535 -187.31136658 433.80714172 -187.32247925 434.73721313 C-187.27937194 443.66168913 -185.20936137 450.7808128 -179.0078125 457.3046875 C-124.96367949 507.14424849 -17.04659987 503.62513839 51.3984375 500.890625 C142.41417818 496.89729208 142.41417818 496.89729208 220.05078125 456.203125 C226.64156573 448.30204539 227.20402288 441.42204921 227.16430664 431.43408203 C227.16452568 429.98436256 227.16452568 429.98436256 227.16474915 428.50535583 C227.16405476 425.3238599 227.15628458 422.14242316 227.1484375 418.9609375 C227.14657164 416.74990877 227.14514853 414.53887963 227.14414978 412.32785034 C227.14033787 406.51805473 227.1305189 400.70828424 227.1194458 394.89849854 C227.10920317 388.96618998 227.10464605 383.03387735 227.09960938 377.1015625 C227.08889544 365.46873898 227.07183494 353.83593408 227.05078125 342.203125 C225.60434497 343.16526515 224.15819141 344.12783034 222.7121582 345.09057617 C221.9068013 345.6265593 221.1014444 346.16254242 220.27168274 346.71476746 C218.65976993 347.79500564 217.0603136 348.89390501 215.46875 350.00390625 C144.73885767 397.94167916 27.39509313 393.8821207 -92.640625 378.6796875 C-123.83038066 372.56671644 -156.67784824 364.76101142 -182.359375 345.171875 C-184.76094757 343.22006846 -184.76094757 343.22006846 -186.94921875 342.203125 Z " transform="translate(235.94921875,-0.203125)" style="fill: rgb(71, 111, 255);"/><path d="M0 0 C5.58096465 0.83371769 10.75440236 2.6909036 16.06640625 4.5390625 C50.88109931 16.07105529 87.51003508 20.56633609 123.97119141 22.92675781 C124.74798248 22.97965469 125.52477356 23.03255157 126.32510376 23.08705139 C127.774947 23.18487825 129.22529753 23.27556197 130.67611694 23.35765076 C134.18106165 23.59645405 137.09701823 23.83943148 140.00390625 25.9140625 C140.94140625 28.7890625 140.94140625 28.7890625 141.00390625 31.9140625 C139.83154297 34.08911133 139.83154297 34.08911133 138.00390625 35.9140625 C135.65283203 36.34643555 135.65283203 36.34643555 132.82421875 36.23828125 C131.74946289 36.20138184 130.67470703 36.16448242 129.56738281 36.12646484 C128.39143555 36.05637207 127.21548828 35.9862793 126.00390625 35.9140625 C124.77897461 35.84268066 123.55404297 35.77129883 122.29199219 35.69775391 C118.14948696 35.41866358 114.0149782 35.08692984 109.87890625 34.7265625 C109.12601318 34.66159576 108.37312012 34.59662903 107.59741211 34.5296936 C73.02820533 31.49904678 39.10654349 25.52538352 6.00390625 14.9140625 C5.28460938 14.6886377 4.5653125 14.46321289 3.82421875 14.23095703 C0.33794667 13.10999455 -2.97286474 12.0080203 -5.99609375 9.9140625 C-7.43359375 6.2890625 -7.43359375 6.2890625 -6.99609375 2.9140625 C-4.65090354 -0.23646056 -4.21187391 -0.09057793 0 0 Z " transform="translate(88.99609375,414.0859375)" style="fill: rgb(71, 111, 255);"/><path d="M0 0 C5.58096465 0.83371769 10.75440236 2.6909036 16.06640625 4.5390625 C45.90431349 14.42254849 77.50133322 19.5265495 108.8125 21.74609375 C110.15653648 21.84206345 110.15653648 21.84206345 111.52772522 21.93997192 C115.88902566 22.24461968 120.24968176 22.51951509 124.61547852 22.75097656 C126.19287907 22.84817801 127.77027205 22.94550231 129.34765625 23.04296875 C130.06573959 23.07203812 130.78382294 23.10110748 131.52366638 23.13105774 C134.87273974 23.3516205 136.7726596 23.74087768 139.48632812 25.77319336 C141.00390625 27.9140625 141.00390625 27.9140625 140.94140625 31.0390625 C140.00390625 33.9140625 140.00390625 33.9140625 137.00390625 35.9140625 C128.12735028 36.89989526 118.81534467 35.49522226 109.94140625 34.7265625 C109.18601562 34.66159576 108.430625 34.59662903 107.65234375 34.5296936 C73.06331105 31.50523191 39.12512017 25.53133842 6.00390625 14.9140625 C5.28460938 14.6886377 4.5653125 14.46321289 3.82421875 14.23095703 C0.33794667 13.10999455 -2.97286474 12.0080203 -5.99609375 9.9140625 C-7.43359375 6.2890625 -7.43359375 6.2890625 -6.99609375 2.9140625 C-4.65090354 -0.23646056 -4.21187391 -0.09057793 0 0 Z " transform="translate(88.99609375,167.0859375)" style="fill: rgb(71, 111, 255);"/><path d="M0 0 C34.8367355 12.51731007 72.78483027 17.47208274 109.54516602 19.91113281 C110.65239014 19.98831543 111.75961426 20.06549805 112.90039062 20.14501953 C114.98474372 20.28513076 117.070294 20.40873624 119.15673828 20.51318359 C120.080271 20.57489746 121.00380371 20.63661133 121.95532227 20.70019531 C122.76050293 20.74394287 123.56568359 20.78769043 124.39526367 20.83276367 C127.23237615 21.63629084 128.0443263 22.90169967 129.47875977 25.42285156 C129.23801954 28.79321467 128.89077956 30.01083177 126.47875977 32.42285156 C85.71903719 36.70287127 18.45222376 28.48689333 -17.00561523 6.91113281 C-18.52124023 5.42285156 -18.52124023 5.42285156 -19.02124023 2.42285156 C-18.52124023 -0.57714844 -18.52124023 -0.57714844 -16.95874023 -2.51464844 C-11.46700455 -4.90848194 -5.31178289 -1.9103487 0 0 Z " transform="translate(100.521240234375,293.5771484375)" style="fill: rgb(71, 111, 255);"/><path d="M0 0 C5.0529034 4.2490324 9.48895474 9.61231138 10.2734375 16.34765625 C10.5439387 23.57836144 9.44411593 29.15624297 5 35 C-1.32480198 40.44974181 -6.86768474 42.36871998 -15.14453125 42.28125 C-21.8944412 41.61641619 -26.6608584 38.08299444 -31 33 C-34.9561435 27.2070756 -35.60264267 21.89059355 -35 15 C-33.6892495 8.48232319 -30.25690318 3.98218317 -25 0 C-17.13048357 -4.519763 -7.90794907 -4.3354984 0 0 Z M-22 14 C-23.57455739 17.14911479 -23.34799118 19.52008816 -23 23 C-21.22719439 25.97672584 -19.14391985 28.42804007 -16 30 C-11.95815076 30.39874436 -11.95815076 30.39874436 -8 30 C-5.03949126 27.70800597 -5.03949126 27.70800597 -3 25 C-2.67 24.67 -2.34 24.34 -2 24 C-1.49616724 17.62381805 -1.49616724 17.62381805 -4 12 C-6.86360465 9.70911628 -8.79240629 9.03019545 -12.4375 8.5 C-17.16675851 9.16375558 -18.65681791 10.65681791 -22 14 Z " transform="translate(435,277)" style="fill: rgb(71, 111, 255);"/><path d="M0 0 C5.63356807 3.35870232 9.53919469 8.22043459 11.5625 14.4375 C12.43643819 21.80500216 12.13338471 28.39257259 7.5625 34.4375 C3.18073118 39.42091065 -1.88680951 42.31360702 -8.4375 43.4375 C-15.59835632 43.80443829 -20.9107289 41.96406658 -26.4375 37.4375 C-31.0547008 32.8202992 -33.53064525 26.95859407 -33.8125 20.4375 C-33.48716526 13.22355578 -30.58592847 7.47151895 -25.4375 2.4375 C-18.35493182 -2.97957115 -8.09499647 -3.58914431 0 0 Z M-18.4375 12.4375 C-20.59763764 14.80668322 -21.37719719 16.41600701 -21.56640625 19.62109375 C-21.34869013 23.63894583 -20.96007028 25.82271144 -18.3125 28.9375 C-14.85287793 30.74252021 -12.34376662 31.36774524 -8.4375 31.4375 C-4.79017837 29.86252021 -2.26198146 27.99043758 -0.4375 24.4375 C0.07864464 19.79219822 0.24130761 17.59398705 -2.125 13.5625 C-7.64040743 8.49428777 -12.18449382 8.6596421 -18.4375 12.4375 Z " transform="translate(373.4375,415.5625)" style="fill: rgb(71, 111, 255);"/><path d="M0 0 C5.63356807 3.35870232 9.53919469 8.22043459 11.5625 14.4375 C12.43272832 21.77372709 12.16041578 28.43205898 7.5625 34.4375 C2.34086239 39.86509547 -2.54398045 42.74133546 -10.07421875 43.39453125 C-16.7367159 43.51566756 -21.52367045 41.29225203 -26.67578125 37.15234375 C-31.4719205 32.48381796 -33.25195382 27.22069274 -33.6875 20.6875 C-33.56443088 13.33070154 -30.687622 7.57095263 -25.4375 2.4375 C-18.35493182 -2.97957115 -8.09499647 -3.58914431 0 0 Z M-18.4375 12.4375 C-20.6354747 15.14833547 -21.36147877 16.92707172 -21.875 20.375 C-21.22651036 24.91442749 -19.22391167 27.97009041 -15.6875 30.875 C-12.10248744 31.77125314 -8.90388537 31.59753788 -5.4375 30.4375 C-2.57125229 27.98924675 -0.82400031 26.18872265 0.00390625 22.4375 C0.21276453 18.88017194 -0.32965012 16.62124424 -2.125 13.5625 C-7.64040743 8.49428777 -12.18449382 8.6596421 -18.4375 12.4375 Z " transform="translate(373.4375,168.5625)" style="fill: rgb(71, 111, 255);"/><path d="M0 0 C5.44465505 3.16549712 8.00654275 8.18302638 10 14 C11.18842711 21.29448366 10.04700233 27.78540818 6 34 C1.93896899 38.68130376 -3.46450341 41.56600192 -9.609375 42.3203125 C-15.93646098 42.58248457 -20.88290566 41.86480965 -26 38 C-31.75136881 32.65781949 -34.67315402 28.05289017 -35.3125 20.125 C-35.08916097 13.22776531 -32.46250952 7.58146089 -27.79296875 2.54296875 C-19.536172 -4.56255351 -9.43679698 -4.74950881 0 0 Z M-22 14 C-23.57455739 17.14911479 -23.34799118 19.52008816 -23 23 C-21.22719439 25.97672584 -19.14391985 28.42804007 -16 30 C-10.18654053 30.53365513 -10.18654053 30.53365513 -5.0625 28.125 C-1.6784645 24.63841797 -1.61033608 21.96407286 -1.640625 17.26171875 C-2.21056866 13.67479071 -4.20226049 12.13161106 -7 10 C-13.37522241 6.81238879 -17.53713415 9.53713415 -22 14 Z " transform="translate(375,293)" style="fill: rgb(71, 111, 255);"/><path d="M0 0 C4.97725721 2.97793613 8.40745897 7.07491608 10.9375 12.25 C12.36952803 19.55334293 12.30391656 25.82766407 8.5625 32.4375 C4.79259608 37.78653771 1.06109921 41.44060371 -5.53515625 42.90234375 C-12.36591565 43.94511834 -17.66756848 42.9822695 -23.6875 39.625 C-29.0485537 35.36052547 -32.69294318 30.25469295 -33.76171875 23.33984375 C-34.11139942 16.50298373 -32.33901883 9.77218396 -27.7890625 4.54296875 C-20.23367591 -2.2370834 -9.48991493 -4.26862969 0 0 Z M-18.4375 12.4375 C-20.86687292 15.3527475 -21.40242911 17.15693286 -21.875 20.9375 C-21.27655499 25.72506007 -19.41013564 27.887572 -15.6875 30.8125 C-12.11134613 31.80587607 -8.91183419 31.60019798 -5.4375 30.4375 C-2.57125229 27.98924675 -0.82400031 26.18872265 0.00390625 22.4375 C0.21505568 18.8411484 -0.32234884 16.62667691 -2.1875 13.5625 C-7.60296638 8.44789287 -12.079854 8.51469715 -18.4375 12.4375 Z " transform="translate(433.4375,399.5625)" style="fill: rgb(71, 111, 255);"/><path d="M0 0 C4.97725721 2.97793613 8.40745897 7.07491608 10.9375 12.25 C12.36952803 19.55334293 12.30391656 25.82766407 8.5625 32.4375 C4.26540608 38.53455657 0.18674924 41.66511901 -7.25 43.25 C-14.50719397 43.91605222 -20.77751453 42.04446492 -26.4375 37.4375 C-31.10573904 32.50250444 -33.55730193 27.36295462 -33.9375 20.625 C-33.69338785 13.94242988 -31.28125984 8.1650751 -26.4296875 3.51171875 C-18.93445096 -2.28256928 -8.91874762 -4.04454834 0 0 Z M-18.4375 12.4375 C-20.86687292 15.3527475 -21.40242911 17.15693286 -21.875 20.9375 C-21.36044074 25.05397408 -20.38475418 26.57211399 -17.4375 29.4375 C-14.7335844 31.48874631 -13.45983672 31.43831224 -10 31.3125 C-6.13806814 30.36395533 -4.26657536 29.18336726 -1.4375 26.4375 C0.16556924 23.23136153 0.04990461 19.91610003 -0.4375 16.4375 C-2.542001 12.9801055 -4.57742019 10.76440243 -8.4375 9.4375 C-12.87088303 9.4375 -14.70783452 10.13621705 -18.4375 12.4375 Z " transform="translate(433.4375,152.5625)" style="fill: rgb(71, 111, 255);"/><path d="M0 0 C4.75403597 4.12799008 7.63872199 8.71909159 8.3359375 15.05078125 C8.43171526 23.04822406 7.92588126 28.7509227 2.38671875 34.74609375 C-3.34489386 40.04561139 -8.83424178 41.44237334 -16.546875 41.24609375 C-23.2787165 40.5707657 -28.53006626 36.8626411 -33 32 C-36.90647824 25.82524408 -36.78593448 19.14405607 -36 12 C-34.32824606 6.09691407 -31.09479688 2.42919021 -26 -1 C-17.05084192 -5.60454607 -8.66575884 -4.95600255 0 0 Z M-22 11 C-24.54357983 14.05229579 -25.00903645 15.49395901 -24.9375 19.5 C-23.92483745 23.28060685 -22.70604174 25.211957 -20 28 C-16.79386153 29.60306924 -13.47860003 29.48740461 -10 29 C-6.60109858 26.93110348 -4.11062989 24.88720463 -3 21 C-3.19256912 15.70434916 -4.30953411 12.80229819 -8 9 C-12.93158056 6.53420972 -17.86340574 7.66774351 -22 11 Z " transform="translate(315,178)" style="fill: rgb(71, 111, 255);"/><path d="M0 0 C4.75403597 4.12799008 7.63872199 8.71909159 8.3359375 15.05078125 C8.43171526 23.04822406 7.92588126 28.7509227 2.38671875 34.74609375 C-3.34489386 40.04561139 -8.83424178 41.44237334 -16.546875 41.24609375 C-23.2787165 40.5707657 -28.53006626 36.8626411 -33 32 C-36.90647824 25.82524408 -36.78593448 19.14405607 -36 12 C-34.32824606 6.09691407 -31.09479688 2.42919021 -26 -1 C-17.05084192 -5.60454607 -8.66575884 -4.95600255 0 0 Z M-24.375 13.8125 C-25.33620615 17.17672152 -24.82844946 19.62702719 -24 23 C-22.17660948 25.70567626 -20.92542564 27.53728718 -18 29 C-12.24789672 29.5174655 -12.24789672 29.5174655 -7.125 27.25 C-4.44448128 24.46637363 -4.44448128 24.46637363 -3 21 C-3.19256912 15.70434916 -4.30953411 12.80229819 -8 9 C-14.68576073 5.65711963 -20.19276115 8.29954879 -24.375 13.8125 Z " transform="translate(315,425)" style="fill: rgb(71, 111, 255);"/><path d="M0 0 C5.15252931 3.01637653 9.46327609 7.85057883 11.625 13.4375 C11.92578125 16.6796875 11.92578125 16.6796875 11.9375 20.3125 C11.95425781 21.50617188 11.97101563 22.69984375 11.98828125 23.9296875 C11.22764556 31.27432028 7.21310014 35.38379775 1.7890625 40 C-3.31267524 43.38887994 -10.18820806 43.95441672 -16.125 42.875 C-22.39640435 41.08317019 -26.70154387 37.941721 -30.3125 32.5 C-33.37537568 26.41495132 -33.34563206 20.07537083 -32.375 13.4375 C-30.03929589 7.10338717 -25.11489136 2.222591 -19.05078125 -0.671875 C-13.00566288 -2.68397279 -5.85069644 -2.62661324 0 0 Z M-17.375 12.4375 C-17.9525 12.85 -18.53 13.2625 -19.125 13.6875 C-21.15764469 16.53320256 -21.258051 18.98750441 -21.375 22.4375 C-20.0937601 26.35658675 -19.00047612 27.99682365 -15.625 30.375 C-11.6211812 31.68394076 -9.41697581 31.61334751 -5.375 30.4375 C-1.83218617 27.81889847 -0.58830957 26.18408348 0.625 21.9375 C0.625 17.99240493 0.01719805 16.51318321 -2.375 13.4375 C-2.7875 12.86 -3.2 12.2825 -3.625 11.6875 C-8.40503066 8.27319238 -12.97553799 9.01569621 -17.375 12.4375 Z " transform="translate(311.375,299.5625)" style="fill: rgb(71, 111, 255);"/></svg>