<?xml version="1.0" encoding="utf-8"?>
<svg version="1.1" xmlns="http://www.w3.org/2000/svg" width="512" height="512" xmlns:bx="https://boxy-svg.com" viewBox="0 0 512 512"><defs><bx:export><bx:file format="svg" path="Bez nazwy.svg"/></bx:export></defs><path d="M0 0 C0.66989018 -0.00538554 1.33978035 -0.01077108 2.02997023 -0.01631981 C4.26158969 -0.03056074 6.49261273 -0.02350563 8.72425842 -0.01637268 C10.32953364 -0.02207829 11.9348048 -0.0290433 13.54006958 -0.03717041 C17.89134382 -0.05509584 22.24241633 -0.05393461 26.59371638 -0.04822803 C30.2294076 -0.04513529 33.86506012 -0.05122957 37.50074583 -0.05726677 C46.07918909 -0.07130836 54.65753276 -0.06975375 63.23597717 -0.05836487 C72.07928112 -0.04688363 80.9222818 -0.0609602 89.76554579 -0.08776134 C97.36488571 -0.10992832 104.96413051 -0.11655348 112.56350046 -0.11068493 C117.09929166 -0.10731658 121.63488845 -0.10972233 126.17065239 -0.12693596 C130.43648119 -0.14241898 134.70186119 -0.1384347 138.96767235 -0.11963081 C140.53052943 -0.11594868 142.09341986 -0.1190425 143.65624619 -0.1295166 C158.37284485 -0.22059509 158.37284485 -0.22059509 164.09950256 4.38768005 C169.53492393 10.7726963 168.70412247 18.26509826 168.70887756 26.2900238 C168.72387486 27.73735389 168.74060525 29.18466696 168.75898743 30.63195801 C168.80250018 34.42126799 168.82262391 38.21034717 168.83772278 41.99986267 C168.85735233 45.87471574 168.89931552 49.74932167 168.93934631 53.62400818 C169.01447389 61.2118321 169.06487039 68.79955171 169.09950256 76.38768005 C169.69766785 76.43113052 170.29583313 76.47458099 170.91212463 76.51934814 C177.27462605 76.98276312 183.63643205 77.45501627 189.99794006 77.93186951 C192.3558532 78.1075302 194.71392225 78.28111337 197.07215881 78.45237732 C256.46960834 82.77288293 256.46960834 82.77288293 264.86512756 90.69236755 C268.04716433 95.06263324 268.33991713 99.13896794 268.29481506 104.4384613 C268.29057022 105.42667122 268.29057022 105.42667122 268.28623962 106.43484497 C268.27511181 108.52348067 268.25002204 110.61167561 268.22450256 112.70018005 C268.21446315 114.12269987 268.20533898 115.54522646 268.19715881 116.96775818 C268.17519704 120.44120686 268.14071903 123.91440038 268.09950256 127.38768005 C269.03632874 127.35625916 269.03632874 127.35625916 269.99208069 127.32420349 C272.86105316 127.24032162 275.72976665 127.18879494 278.59950256 127.13768005 C279.58176819 127.10416443 280.56403381 127.0706488 281.57606506 127.03611755 C287.90215465 126.95176969 292.89860303 127.56096609 298.09950256 131.38768005 C301.81263453 136.05289714 303.22235294 139.63492929 303.23372364 145.52900982 C303.23818148 146.59945182 303.24263933 147.66989381 303.24723226 148.77277344 C303.24695571 150.54326191 303.24695571 150.54326191 303.24667358 152.34951782 C303.25035027 153.60008714 303.25402696 154.85065647 303.25781506 156.13912183 C303.26783815 159.61718364 303.27155235 163.09522818 303.27420437 166.57330239 C303.27810652 170.32191141 303.28768493 174.07050676 303.29641724 177.81910706 C303.31618429 186.87544142 303.32624821 195.9317769 303.33514503 204.98812744 C303.33952757 209.25231227 303.34489447 213.51649586 303.3501339 217.7806797 C303.36714649 231.95480561 303.38164081 246.12893075 303.38888264 260.3030653 C303.39079255 263.98174223 303.39271288 267.66041916 303.39466858 271.33909607 C303.39515232 272.25341982 303.39563606 273.16774356 303.39613446 274.10977409 C303.40443532 288.92226288 303.42977303 303.73467093 303.46224926 318.54712447 C303.49531577 333.75270656 303.51333103 348.95824762 303.51652688 364.16386586 C303.51869236 372.70209052 303.52744662 381.24019744 303.55298805 389.77838707 C303.5746895 397.0497421 303.58274824 404.32095079 303.57302127 411.59233453 C303.5684749 415.30172398 303.57038198 419.01081145 303.58978271 422.72015953 C303.61064615 426.74396039 303.60043454 430.76709089 303.58724976 434.79092407 C303.60370362 436.54468213 303.60370362 436.54468213 303.6204899 438.33386964 C303.56646367 445.15558157 302.77047626 449.58725779 299.09950256 455.38768005 C294.20965844 460.0389952 290.58989248 460.51288966 283.98479748 460.52190113 C283.25206772 460.52425336 282.51933796 460.52660559 281.76440427 460.5290291 C279.28984124 460.53572763 276.81533062 460.53526062 274.34075928 460.53485107 C272.55640689 460.53814916 270.77205526 460.5418746 268.98770458 460.54599255 C264.06918372 460.55602679 259.15067507 460.55973162 254.23214543 460.56238186 C248.93346011 460.56628063 243.63478449 460.57585917 238.33610535 460.58459473 C225.53336233 460.60436987 212.73061852 460.61442607 199.92786404 460.62332252 C193.90313984 460.62770316 187.87841652 460.63307049 181.85369301 460.63831139 C161.8342682 460.65532369 141.81484395 460.66981924 121.79541302 460.67706013 C116.59868049 460.67897011 111.40194797 460.68089043 106.20521545 460.68284607 C104.91354963 460.68332981 103.6218838 460.68381355 102.29107658 460.68431195 C81.35344745 460.69261738 60.41587536 460.71796295 39.47827115 460.75042675 C17.99661031 460.78346343 -3.4850215 460.80150576 -24.96670789 460.80470437 C-37.03383399 460.80687247 -49.10087689 460.81566501 -61.16797829 460.84116554 C-71.4418627 460.86282614 -81.7156437 460.87094583 -91.98954836 460.86119876 C-97.23380843 460.85664076 -102.47785491 460.85862723 -107.72208595 460.87796021 C-112.52054928 460.89549755 -117.31864173 460.89467126 -122.11710849 460.87906291 C-123.85534196 460.87667246 -125.59360048 460.8810843 -127.33179549 460.89289156 C-129.6910739 460.9079283 -132.04902413 460.89839631 -134.40826893 460.88266468 C-136.37543895 460.88412989 -136.37543895 460.88412989 -138.38234979 460.88562471 C-143.89568766 460.10528875 -146.90890458 457.70087059 -150.21299744 453.32518005 C-152.46195255 449.41033226 -153.0261596 446.68292002 -153.03471851 442.24635029 C-153.03917636 441.17590829 -153.0436342 440.1054663 -153.04822713 439.00258666 C-153.04804277 437.82226102 -153.04785841 436.64193537 -153.04766846 435.42584229 C-153.05134515 434.17527296 -153.05502183 432.92470364 -153.05880994 431.63623828 C-153.06883302 428.15817647 -153.07254722 424.68013192 -153.07519925 421.20205772 C-153.07910139 417.4534487 -153.0886798 413.70485335 -153.09741211 409.95625305 C-153.11717916 400.89991869 -153.12724308 391.84358321 -153.1361399 382.78723267 C-153.14052244 378.52304784 -153.14588934 374.25886425 -153.15112877 369.9946804 C-153.16814136 355.82055449 -153.18263568 341.64642936 -153.18987751 327.47229481 C-153.19178742 323.79361787 -153.19370775 320.11494095 -153.19566345 316.43626404 C-153.19614719 315.52194029 -153.19663093 314.60761654 -153.19712933 313.66558602 C-153.20543019 298.85309722 -153.2307679 284.04068917 -153.26324413 269.22823564 C-153.29631065 254.02265354 -153.31432591 238.81711249 -153.31752175 223.61149424 C-153.31968724 215.07326958 -153.32844149 206.53516267 -153.35398293 197.99697304 C-153.37568438 190.72561801 -153.38374311 183.45440932 -153.37401614 176.18302558 C-153.36946978 172.47363613 -153.37137685 168.76454865 -153.39077759 165.05520058 C-153.41164103 161.03139971 -153.40142942 157.00826921 -153.38824463 152.98443604 C-153.39921387 151.815264 -153.41018312 150.64609196 -153.42148477 149.44149047 C-153.36753601 142.62956056 -152.60843393 138.16177946 -148.90049744 132.38768005 C-144.24467183 128.68202294 -140.6823868 127.25599283 -134.79502869 127.2900238 C-133.81211853 127.29324646 -132.82920837 127.29646912 -131.81651306 127.29978943 C-130.28027283 127.31235779 -130.28027283 127.31235779 -128.71299744 127.32518005 C-127.15935486 127.33194763 -127.15935486 127.33194763 -125.57432556 127.33885193 C-123.01632477 127.35063995 -120.4584401 127.3670949 -117.90049744 127.38768005 C-117.91620789 126.51031189 -117.93191833 125.63294373 -117.94810486 124.72898865 C-117.9994412 121.45256054 -118.0369474 118.17656407 -118.06529236 114.89988708 C-118.08031569 113.48575568 -118.10074048 112.07167038 -118.1268158 110.65769958 C-118.16348698 108.61705609 -118.1802878 106.57703213 -118.19346619 104.53611755 C-118.20917664 103.31070251 -118.22488708 102.08528748 -118.24107361 100.82273865 C-117.71081383 95.47452713 -115.97340664 92.51053624 -112.28355408 88.64891052 C-108.48018798 85.72546961 -104.42105555 84.9982494 -99.77159119 84.20799255 C-98.45728371 83.96618759 -98.45728371 83.96618759 -97.11642456 83.71949768 C-88.61178811 82.21537967 -80.06623073 81.25582862 -71.46763611 80.48680115 C-68.99293958 80.26535935 -66.5200301 80.02910559 -64.04698181 79.7900238 C-49.02010787 78.36693918 -33.96055064 77.38293734 -18.90049744 76.38768005 C-18.89907242 75.59112 -18.8976474 74.79455994 -18.8961792 73.97386169 C-18.87829803 66.44135938 -18.83653442 58.90953664 -18.76840687 51.37733459 C-18.73421703 47.50554261 -18.70903951 43.63414182 -18.7049408 39.76219177 C-18.70064041 36.02058503 -18.67203622 32.27985955 -18.62706566 28.53852844 C-18.61414571 27.11615648 -18.60976339 25.69367876 -18.61434364 24.27125549 C-18.64725594 10.93821994 -18.64725594 10.93821994 -14.55532837 4.90330505 C-10.19082197 0.90594503 -5.76542059 0.01172558 0 0 Z M-6.90049744 15.38768005 C-7.29011972 18.16066812 -7.43810662 20.535163 -7.40220642 23.3056488 C-7.40760941 24.09960052 -7.41301239 24.89355225 -7.4185791 25.71156311 C-7.43107535 28.33314924 -7.41457005 30.95363905 -7.39659119 33.57518005 C-7.39674615 35.39834145 -7.39823477 37.22150317 -7.40100098 39.04466248 C-7.40238537 42.86455356 -7.38982029 46.68406936 -7.36705017 50.50389099 C-7.33866538 55.40011517 -7.3414023 60.29571576 -7.35414028 65.19198608 C-7.36109551 68.95637843 -7.35330997 72.72062666 -7.34088326 76.48500061 C-7.33636723 78.29031319 -7.33603327 80.09564122 -7.33994865 81.9009552 C-7.34285936 84.42419646 -7.32636119 86.94657861 -7.30455017 89.4697113 C-7.30905182 90.21580658 -7.31355347 90.96190186 -7.31819153 91.73060608 C-7.2747181 94.7577444 -7.03766803 97.09513146 -5.74530029 99.85140991 C-3.13115239 102.02835654 -1.3584825 101.88649402 2.020401 101.88597107 C3.23886719 101.89600662 4.45733337 101.90604218 5.71272278 101.91638184 C7.03145386 101.90819931 8.35018494 101.90001678 9.70887756 101.8915863 C11.07788902 101.89895486 12.44689032 101.90850356 13.81587219 101.9201355 C17.42343571 101.94686222 21.03066912 101.95243085 24.63832092 101.95103455 C30.39803526 101.94880875 36.15733794 101.96311983 41.91689301 102.00662041 C43.92140563 102.01640342 45.92598184 102.00734344 47.93049622 101.9979248 C55.54705721 102.0405118 60.96567885 102.3481038 67.22450256 106.95018005 C70.15271424 110.75685524 72.07827461 115.04701019 74.09950256 119.38768005 C77.43416717 116.40506215 79.0966701 112.8002993 81.11122131 108.8603363 C84.63106622 104.48300462 88.75298065 102.65680015 94.23178101 102.02844238 C97.33117012 101.91971575 100.41983925 101.87498199 103.52099037 101.90182495 C105.5938138 101.91924333 107.66526218 101.91150058 109.73809814 101.89756775 C114.12949641 101.87237408 118.52056158 101.87772023 122.91200256 101.88768005 C128.02122586 101.89921737 133.12977474 101.89811371 138.23891258 101.86361694 C140.2794829 101.85652408 142.31898104 101.87318683 144.35946655 101.89073181 C145.5947258 101.88392395 146.82998505 101.87711609 148.10267639 101.87010193 C149.73527153 101.87487549 149.73527153 101.87487549 151.40084839 101.87974548 C154.14183991 101.60782809 154.14183991 101.60782809 155.9490509 99.85240173 C157.55403807 96.41388553 157.52600006 93.18966661 157.5035553 89.4697113 C157.51041855 88.67575958 157.5172818 87.88180786 157.52435303 87.063797 C157.54263729 84.44240886 157.53878171 81.8216182 157.53309631 79.20018005 C157.53765699 77.37701726 157.54296222 75.55385619 157.54898071 73.73069763 C157.55791473 69.91088371 157.55548498 66.09127884 157.54554749 62.27146912 C157.53405095 57.37516572 157.55427812 52.47958276 157.58346462 47.58337402 C157.60180449 43.8189892 157.60153871 40.05477778 157.5958271 36.2903595 C157.59567365 34.48503101 157.60173769 32.67969095 157.61411858 30.87440491 C157.6289872 28.35102522 157.61838331 25.82898635 157.60121155 23.3056488 C157.61087952 22.55955353 157.62054749 21.81345825 157.63050842 21.04475403 C157.58454734 17.82145386 157.41845466 15.81571135 155.46670628 13.1964798 C152.38097717 10.83864892 150.58533049 10.88484812 146.72303772 10.87974548 C145.41071167 10.86846619 144.09838562 10.85718689 142.74629211 10.8455658 C141.29371422 10.85334287 139.84113851 10.86153554 138.38856506 10.87010193 C136.85753208 10.8646813 135.32650432 10.85755898 133.79548645 10.84886169 C129.63843257 10.83061807 125.48177553 10.83769999 121.32471466 10.85037804 C116.97570725 10.86050039 112.62673396 10.85111449 108.27772522 10.84483337 C100.97411494 10.83755473 93.67066641 10.84715032 86.36708069 10.86619568 C77.92136739 10.8879649 69.47604032 10.88091368 61.03033638 10.85889006 C53.78096267 10.8407422 46.53170529 10.8381747 39.28231621 10.84864473 C34.95172163 10.85488307 30.62130864 10.85570603 26.29072571 10.84249878 C22.21942807 10.83094976 18.14862872 10.83894822 14.07738495 10.86207581 C12.58261696 10.86736803 11.08780709 10.86584028 9.59305573 10.85702515 C7.55404145 10.84610831 5.5149356 10.86222078 3.47596741 10.87974548 C1.76369461 10.88200764 1.76369461 10.88200764 0.01683044 10.88431549 C-3.56494476 11.5023258 -4.7488416 12.50017421 -6.90049744 15.38768005 Z M168.09950256 88.38768005 C168.07372131 89.32869568 168.04794006 90.2697113 168.02137756 91.23924255 C167.44976047 103.78883598 167.44976047 103.78883598 163.09950256 108.38768005 C158.70536957 112.36986308 154.72052521 112.51135005 148.94154358 112.46604919 C147.69667679 112.46017288 146.45181 112.45429657 145.16921997 112.44824219 C144.506859 112.44356997 143.84449802 112.43889774 143.16206551 112.43408394 C139.64053615 112.41484378 136.11909471 112.43011939 132.59754944 112.44041443 C128.1224902 112.45266702 123.64838866 112.45427082 119.17347717 112.41184998 C115.55022148 112.37841451 111.92885163 112.3839015 108.30560112 112.41541862 C106.92812241 112.42033762 105.5505155 112.41108472 104.17323494 112.38720894 C96.81299206 112.01082094 96.81299206 112.01082094 90.32701111 114.81123352 C89.02580704 116.67111795 89.02580704 116.67111795 88.21071398 118.81963611 C87.09950256 121.38768005 87.09950256 121.38768005 85.61784303 124.00084043 C81.24864137 131.78002682 80.24785503 137.91537642 80.37797546 146.75138855 C80.37284891 148.04387709 80.36772237 149.33636563 80.36244047 150.66802049 C80.34914024 154.22141672 80.3728594 157.77371034 80.40310884 161.32696629 C80.42918264 165.17136921 80.42023995 169.01571716 80.41569519 172.86018372 C80.41255928 179.50959077 80.43127655 186.15864275 80.46512222 192.80796051 C80.51402416 202.42152264 80.52952512 212.03491424 80.53705017 221.64858726 C80.55016014 237.2485643 80.59003037 252.84835239 80.64686584 268.44822693 C80.70199656 283.59600382 80.74443937 298.74372926 80.76991272 313.8915863 C80.77148906 314.82635023 80.7730654 315.76111416 80.77468951 316.72420427 C80.78252012 321.41395471 80.79010227 326.10370551 80.79756093 330.79345655 C80.85969332 369.65832997 80.96531264 408.52299251 81.09950256 447.38768005 C83.02322495 446.26769615 84.94667531 445.14724499 86.87001038 444.02659607 C87.94116089 443.40269485 89.0123114 442.77879364 90.11592102 442.13598633 C92.3459465 440.82924559 94.56447278 439.51003747 96.77137756 438.1650238 C102.79295287 434.56583349 108.78281366 431.50051082 115.34950256 429.01268005 C115.97437561 428.77412292 116.59924866 428.5355658 117.24305725 428.28977966 C126.50059446 424.94919471 135.51719878 424.09176758 145.31044006 424.10057068 C146.48886978 424.09373764 147.6672995 424.0869046 148.88143921 424.0798645 C151.42240005 424.0663443 153.96338757 424.05724769 156.50437927 424.05215454 C160.5216196 424.04383245 164.53863351 424.02358325 168.55580139 423.99961853 C177.79591085 423.94673607 187.03607047 423.91305576 196.27626801 423.87985992 C204.77258099 423.84917227 213.26882209 423.81442393 221.76504135 423.76354933 C226.40371657 423.73643048 231.04229344 423.72468612 235.68104553 423.71543884 C238.09527401 423.7024756 240.5094996 423.68895665 242.92372131 423.67478943 C244.58652885 423.67626228 244.58652885 423.67626228 246.28292847 423.67776489 C247.28933884 423.66949173 248.29574921 423.66121857 249.33265686 423.6526947 C250.2101207 423.64976158 251.08758453 423.64682846 251.99163818 423.64380646 C254.31722373 423.58105933 254.31722373 423.58105933 256.09950256 421.38768005 C256.40678272 418.9754616 256.40678272 418.9754616 256.35956478 416.121171 C256.36663037 414.99738562 256.37369596 413.87360025 256.38097566 412.71576077 C256.37856058 411.47074746 256.3761455 410.22573415 256.37365723 408.94299316 C256.37889391 407.62849715 256.38413058 406.31400114 256.38952595 404.95967191 C256.40375583 401.29865537 256.40536831 397.63772351 256.40492904 393.97668326 C256.40657285 390.03318424 256.41963107 386.08972057 256.43112183 382.14624023 C256.45400381 373.51833376 256.46189568 364.89045182 256.46694827 356.26251912 C256.47020121 350.87905398 256.47672117 345.49559602 256.48394966 340.11213493 C256.50351879 325.21745693 256.51992149 310.3227856 256.52282619 295.42809391 C256.52301376 294.47434801 256.52320133 293.52060212 256.52339459 292.53795483 C256.52376085 290.60434401 256.52412455 288.67073319 256.5244857 286.73712236 C256.52466851 285.77722877 256.52485132 284.81733517 256.52503967 283.82835388 C256.52522022 282.86729386 256.52540077 281.90623384 256.52558679 280.91605078 C256.52913051 265.3338139 256.55616384 249.75171504 256.59353756 234.16952605 C256.6315697 218.18541541 256.65098329 202.20137335 256.65128571 186.21721643 C256.65187139 177.2370176 256.66043431 168.25698344 256.68928337 159.27682686 C256.71372916 151.63198082 256.72112639 143.98735952 256.70603584 136.34248502 C256.69883914 132.4392464 256.69984182 128.53645215 256.72244644 124.63326263 C256.74668105 120.40829435 256.73247863 116.18434845 256.7142334 111.95935059 C256.73403335 110.0951767 256.73403335 110.0951767 256.7542333 108.19334275 C256.74304466 107.06694962 256.73185602 105.9405565 256.72032833 104.78003025 C256.72114279 103.80409399 256.72195724 102.82815772 256.72279638 101.82264763 C256.31082872 99.17007137 256.31082872 99.17007137 253.77722317 97.60531515 C250.45545163 96.09481192 247.18389553 95.40327378 243.60731506 94.83299255 C242.86998138 94.70973602 242.13264771 94.58647949 241.37297058 94.45948792 C231.95601179 92.95259326 222.46950477 92.10404243 212.97450256 91.26268005 C212.03593414 91.17707825 211.09736572 91.09147644 210.13035583 91.00328064 C196.12962215 89.72689278 182.15951789 88.69977806 168.09950256 88.38768005 Z M-36.62705994 89.1572113 C-38.16322464 89.27971504 -38.16322464 89.27971504 -39.73042297 89.4046936 C-41.89727684 89.57872971 -44.06399288 89.75448941 -46.23057556 89.93186951 C-49.46640517 90.19536808 -52.70289996 90.44906813 -55.93955994 90.70213318 C-66.31550275 91.5320618 -76.6626542 92.49823327 -86.98643494 93.8368988 C-88.31283493 94.00098991 -88.31283493 94.00098991 -89.66603088 94.168396 C-98.43328314 95.22880894 -98.43328314 95.22880894 -105.90049744 99.38768005 C-105.99960493 101.10076959 -106.02789429 102.81798106 -106.02913189 104.53393459 C-106.03235634 105.65634562 -106.03558078 106.77875665 -106.03890294 107.93518013 C-106.03735434 109.1837884 -106.03580573 110.43239667 -106.03421021 111.71884155 C-106.03647576 113.03318871 -106.03874132 114.34753586 -106.04107553 115.70171171 C-106.04722393 119.36690414 -106.04705639 123.03207386 -106.04588115 126.69727027 C-106.04567791 130.64348003 -106.05118856 134.58968234 -106.05593872 138.53588867 C-106.06426242 146.2734973 -106.06699433 154.01109831 -106.0675511 161.74871104 C-106.06802544 168.03490395 -106.07007606 174.32109434 -106.07325172 180.60728645 C-106.08206292 198.4099324 -106.08667036 216.21257231 -106.08592125 234.01522046 C-106.08588129 234.97594218 -106.08584134 235.93666391 -106.08580017 236.92649841 C-106.08575929 237.88838625 -106.08571841 238.85027408 -106.08567629 239.84131003 C-106.08526967 255.43716751 -106.0948421 271.03300085 -106.10893854 286.62885135 C-106.12328158 302.6230899 -106.13020987 318.61731668 -106.12934476 334.61156183 C-106.12901208 343.59895093 -106.13179028 352.58631473 -106.14252281 361.57369804 C-106.15160062 369.22476436 -106.15382558 376.87579392 -106.14701339 384.52686327 C-106.14373437 388.43388282 -106.14374088 392.34083174 -106.15236664 396.2478447 C-106.16160386 400.47512899 -106.15549179 404.70224773 -106.1477356 408.92953491 C-106.15287916 410.17591246 -106.15802272 411.42229001 -106.16332215 412.70643657 C-106.15872335 413.83145535 -106.15412456 414.95647412 -106.14938641 416.11558437 C-106.14960377 417.09244243 -106.14982114 418.06930049 -106.1500451 419.0757603 C-106.12395306 421.5823172 -106.12395306 421.5823172 -103.90049744 423.38768005 C-101.67707692 423.69334528 -101.67707692 423.69334528 -99.06686401 423.64596558 C-97.53455894 423.65620758 -97.53455894 423.65620758 -95.97129822 423.66665649 C-94.28290833 423.66282707 -94.28290833 423.66282707 -92.56040955 423.65892029 C-91.37798172 423.66414703 -90.19555389 423.66937378 -88.97729492 423.67475891 C-85.7242798 423.68771709 -82.47137479 423.69205767 -79.21833873 423.69360232 C-75.80160528 423.69807561 -72.38495015 423.71608022 -68.96826172 423.73339844 C-58.78985745 423.78258691 -48.61140652 423.81330337 -38.4329071 423.83470154 C-30.54810774 423.85131601 -22.66345169 423.87443508 -14.77874762 423.91772228 C-11.38614168 423.93576212 -7.99373032 423.94813706 -4.60107231 423.94642448 C19.07822705 423.94763423 39.92329354 424.41838503 58.99403381 439.88768005 C61.23140353 441.68883303 63.45527045 443.38615666 65.79359436 445.04393005 C66.41525986 445.48543396 67.03692535 445.92693787 67.6774292 446.38182068 C68.14671341 446.71375427 68.61599762 447.04568787 69.09950256 447.38768005 C69.32875724 407.70949751 69.50478422 368.03140182 69.61015586 328.35268844 C69.62266183 323.66049381 69.63560516 318.96830048 69.64881897 314.27610779 C69.65144207 313.34203865 69.65406518 312.40796951 69.65676777 311.44559524 C69.70019446 296.35242158 69.7789917 281.25963165 69.87103052 266.16668507 C69.96478818 250.66171712 70.02014127 235.15694914 70.04038751 219.65170938 C70.0540591 210.09604138 70.09712033 200.54145825 70.17866723 190.98612449 C70.23182751 184.41959506 70.24743667 177.8536204 70.23451634 171.28689178 C70.22815657 167.50667332 70.23738815 163.72834015 70.29155731 159.94846344 C70.52993385 142.48031137 69.4439516 128.96841408 59.09950256 114.38768005 C57.32177445 112.60995195 54.71967601 113.24422568 52.31385803 113.22996521 C50.45590103 113.21457199 50.45590103 113.21457199 48.56040955 113.1988678 C47.89380184 113.19542988 47.22719414 113.19199196 46.5403862 113.18844986 C44.45478003 113.17667531 42.36938232 113.15722279 40.28385925 113.1353302 C34.35236122 113.07369229 28.42087974 113.01981266 22.489151 112.98631287 C18.86329584 112.96528259 15.23781275 112.92990385 11.61217117 112.88555527 C10.23362253 112.87145019 8.85500796 112.86268529 7.47639084 112.85950089 C-6.09619861 112.82485683 -6.09619861 112.82485683 -11.90049744 109.38768005 C-16.33096385 104.7240312 -17.02747357 100.98416722 -17.46299744 94.70018005 C-17.5467865 93.52068787 -17.63057556 92.34119568 -17.71690369 91.1259613 C-17.77748962 90.22232849 -17.83807556 89.31869568 -17.90049744 88.38768005 C-24.18623799 88.29688295 -30.36333551 88.64853587 -36.62705994 89.1572113 Z M-140.90049744 141.38768005 C-141.20624247 143.68278902 -141.20624247 143.68278902 -141.15776634 146.38869381 C-141.16421523 147.45326146 -141.17066413 148.51782911 -141.17730844 149.61465639 C-141.17421124 150.79352358 -141.17111403 151.97239076 -141.16792297 153.1869812 C-141.17245409 154.43205682 -141.1769852 155.67713245 -141.18165362 156.95993763 C-141.19216014 160.42717552 -141.19361732 163.89420676 -141.19126487 167.36144602 C-141.19085796 171.0963514 -141.20188368 174.83122543 -141.21138 178.56611633 C-141.22801814 185.88749557 -141.23349081 193.2088426 -141.23460476 200.53023916 C-141.23555385 206.47887447 -141.23965718 212.42749912 -141.24600601 218.37613106 C-141.26362567 235.22706934 -141.27284369 252.07798211 -141.27134506 268.92892968 C-141.27126515 269.83804435 -141.27118524 270.74715903 -141.27110291 271.68382263 C-141.27102114 272.5940422 -141.27093938 273.50426177 -141.27085514 274.44206376 C-141.27004191 289.19980038 -141.28918698 303.95743501 -141.31737964 318.71514212 C-141.34607317 333.85400335 -141.3599219 348.99281478 -141.35819209 364.13170391 C-141.35752699 372.63680104 -141.36307164 381.14179124 -141.38454819 389.64686394 C-141.40271359 396.88728635 -141.40714572 404.12755337 -141.39352934 411.36798864 C-141.38697618 415.0645944 -141.38696621 418.76090167 -141.40423584 422.45747948 C-141.42273848 426.45901333 -141.41047371 430.459849 -141.39497375 434.46139526 C-141.40526088 435.63803173 -141.41554801 436.8146682 -141.42614686 438.02696031 C-141.41694927 439.09413571 -141.40775168 440.16131111 -141.39827538 441.26082516 C-141.39871011 442.18511946 -141.39914485 443.10941376 -141.39959276 444.06171697 C-141.09294816 446.5251144 -141.09294816 446.5251144 -139.08462846 448.18503702 C-135.88568664 449.94646298 -132.80129129 449.79139117 -129.24430847 449.7484436 C-128.46909938 449.75100688 -127.69389028 449.75357015 -126.89519 449.7562111 C-124.29551112 449.76115571 -121.69641195 449.74464517 -119.0967865 449.72825623 C-117.23415134 449.7274101 -115.37151519 449.72788481 -113.50888062 449.72958374 C-108.44927409 449.73044568 -103.38988025 449.71278772 -98.33032322 449.69186187 C-93.04389075 449.67312819 -87.75745359 449.67134724 -82.47099304 449.66778564 C-72.45898519 449.65845545 -62.44707543 449.63382845 -52.43511081 449.60373718 C-41.03742525 449.57022351 -29.63973505 449.55371478 -18.2420125 449.53865087 C5.2052136 449.50727978 28.65235259 449.45450031 52.09950256 449.38768005 C38.13189849 435.33465592 20.10299688 434.32040122 1.06025696 434.24423218 C0.01303467 434.24476089 -1.03418762 434.24528961 -2.11314392 434.24583435 C-3.25632584 434.24235992 -4.39950775 434.2388855 -5.57733154 434.23530579 C-8.03312137 434.22801365 -10.48891751 434.22263388 -12.9447155 434.21901512 C-16.83302906 434.21178456 -20.72122113 434.1960745 -24.60949707 434.17767334 C-25.94812294 434.17133936 -27.28674885 434.16501369 -28.62537479 434.15869617 C-29.29483037 434.15553036 -29.96428595 434.15236455 -30.65402806 434.14910281 C-39.6849821 434.10720992 -48.71588787 434.07399351 -57.74693298 434.06175232 C-64.52475909 434.05247195 -71.30225725 434.02240383 -78.07995796 433.98043251 C-80.65672975 433.96812122 -83.23354637 433.96300147 -85.8103466 433.96523094 C-89.40511668 433.96757864 -92.99896681 433.94546229 -96.59361267 433.91770935 C-98.18570053 433.92761147 -98.18570053 433.92761147 -99.80995178 433.93771362 C-105.61987887 433.86397459 -109.47743565 433.5630136 -113.90049744 429.38768005 C-117.66007144 423.78933241 -117.32819188 418.38315803 -117.29922485 411.88441467 C-117.30587168 410.71955925 -117.31251851 409.55470383 -117.31936675 408.35454977 C-117.33477379 405.12996339 -117.33683801 401.90568821 -117.33323729 398.68107724 C-117.33261295 395.20053984 -117.34923805 391.72007947 -117.36375427 388.23957825 C-117.38653819 382.21226556 -117.39842502 376.18501065 -117.40288353 370.15765762 C-117.40934555 361.44316324 -117.43228383 352.7287733 -117.45922682 344.01432101 C-117.50249465 329.87527961 -117.53246143 315.7362426 -117.55406189 301.59715271 C-117.57507159 287.86340676 -117.60234661 274.1296968 -117.63804626 260.39598083 C-117.64024509 259.54925043 -117.64244391 258.70252003 -117.64470937 257.83013113 C-117.65577902 253.58227843 -117.66697183 249.33442606 -117.67822587 245.08657384 C-117.77141091 209.85363996 -117.84300892 174.62068958 -117.90049744 139.38768005 C-121.35876085 139.32978999 -124.81690037 139.29412185 -128.27549744 139.26268005 C-129.26034119 139.24592224 -130.24518494 139.22916443 -131.25987244 139.2118988 C-132.20088806 139.20545349 -133.14190369 139.19900818 -134.11143494 139.19236755 C-134.98074646 139.18189392 -135.85005798 139.17142029 -136.74571228 139.16062927 C-139.11395683 139.18172897 -139.11395683 139.18172897 -140.90049744 141.38768005 Z M268.09950256 139.38768005 C268.0992852 139.98557767 268.09906783 140.58347529 268.09884387 141.19949102 C268.08532668 176.63936584 268.04583904 212.07911914 267.97264694 247.51892218 C267.96388024 251.7746536 267.95533042 256.03038543 267.94691467 260.28611755 C267.94523561 261.13335367 267.94355655 261.98058978 267.9418266 262.85349971 C267.9151601 276.5700705 267.90606178 290.2865995 267.90346114 304.00319356 C267.90040119 318.07872509 267.87844976 332.15413584 267.83897799 346.22961283 C267.81521851 354.91429743 267.80617726 363.59874089 267.81598946 372.28345352 C267.82130707 378.23969143 267.808267 384.19571333 267.78083966 390.15188974 C267.76555799 393.58788938 267.7583242 397.02340557 267.77290535 400.45941925 C267.78450107 404.18807103 267.76544523 407.91535988 267.73873901 411.64390564 C267.74941227 412.72563222 267.76008553 413.80735881 267.77108222 414.92186499 C267.68368822 421.45895318 266.74271302 426.52041302 262.09950256 431.38768005 C259.00304083 433.21575889 256.81724476 433.64029724 253.22622681 433.6526947 C252.24664505 433.66096786 251.26706329 433.66924103 250.25779724 433.67776489 C248.65492355 433.67629204 248.65492355 433.67629204 247.01966858 433.67478943 C245.88904495 433.68162247 244.75842133 433.68845551 243.59353638 433.69549561 C241.13598179 433.70909205 238.67839883 433.71813989 236.22081184 433.72320557 C232.32284857 433.73149504 228.42511953 433.752005 224.52722168 433.77574158 C216.23885572 433.82469135 207.950453 433.85695244 199.66200256 433.88768005 C190.08613687 433.92327781 180.51038766 433.96555956 170.93462944 434.02362061 C167.10997852 434.04356979 163.28541577 434.05198742 159.46072388 434.05992126 C157.08844188 434.07290839 154.71616273 434.08643083 152.34388733 434.10057068 C151.29352295 434.09958878 150.24315857 434.09860687 149.16096497 434.09759521 C138.84571832 434.18251372 128.59924618 435.26288227 118.97450256 439.13768005 C118.30999084 439.39500916 117.64547913 439.65233826 116.96083069 439.91746521 C111.07710753 442.2593232 105.53562837 445.13982523 100.09950256 448.38768005 C100.09950256 448.71768005 100.09950256 449.04768005 100.09950256 449.38768005 C124.41217022 449.45771077 148.72482281 449.5106391 173.03757095 449.54311657 C184.32598997 449.55859614 195.61434638 449.5797065 206.90272522 449.61399841 C216.73981255 449.64386738 226.57685455 449.66324712 236.41398597 449.66994554 C241.62436264 449.67386204 246.8346096 449.683089 252.04494476 449.70487022 C256.94667892 449.72519582 261.84822962 449.73152181 266.75000191 449.7270031 C268.55117094 449.72783006 270.35234596 449.73381903 272.15347862 449.74529648 C274.60895987 449.76017929 277.06374463 449.7566493 279.51924133 449.7484436 C280.2351973 449.75718213 280.95115326 449.76592065 281.68880486 449.77492398 C285.84641046 449.73726016 288.12524052 449.32845925 291.09950256 446.38768005 C291.69672234 444.00177546 291.69672234 444.00177546 291.5972805 441.26082516 C291.61107689 439.66006206 291.61107689 439.66006206 291.62515199 438.02696031 C291.61486487 436.85032385 291.60457774 435.67368738 291.59397888 434.46139526 C291.59880771 433.21475965 291.60363654 431.96812404 291.6086117 430.68371159 C291.6214688 427.2167056 291.60928012 423.75016492 291.59308314 420.28318942 C291.57995144 416.5469572 291.58982115 412.81077797 291.59684753 409.07453918 C291.60694237 401.75290154 291.59563507 394.43144424 291.57714693 387.109829 C291.55640482 378.59021356 291.55651861 370.07063738 291.55749209 361.55100144 C291.55849389 346.3543516 291.5401548 331.15778587 291.51112366 315.96116638 C291.48294272 301.20203621 291.46878228 286.44298008 291.47010803 271.68382263 C291.47018794 270.77470796 291.47026786 269.86559328 291.47035019 268.92892968 C291.4704309 268.02141428 291.47051161 267.11389888 291.47059476 266.17888302 C291.47197319 249.39422728 291.46020219 232.60960311 291.44228833 215.82495759 C291.43624659 209.88070433 291.43412815 203.93645685 291.43322372 197.99220085 C291.43186176 190.75289427 291.4229647 183.51364089 291.40455811 176.27435689 C291.39530175 172.57795829 291.38923858 168.88162789 291.39174652 165.1852169 C291.39432858 161.18575114 291.38148298 157.18642342 291.3669281 153.1869812 C291.37157391 151.41868042 291.37157391 151.41868042 291.37631357 149.61465639 C291.36986467 148.55008874 291.36341578 147.48552109 291.35677147 146.38869381 C291.35465819 145.00249589 291.35465819 145.00249589 291.35250223 143.58829397 C291.30671407 141.18041357 291.30671407 141.18041357 289.09950256 139.38768005 C286.86914959 139.1102676 286.86914959 139.1102676 284.31044006 139.19236755 C283.36942444 139.19881287 282.42840881 139.20525818 281.45887756 139.2118988 C280.47403381 139.22865662 279.48919006 139.24541443 278.47450256 139.26268005 C277.48192444 139.27170349 276.48934631 139.28072693 275.46669006 139.2900238 C273.01072122 139.31363889 270.55523088 139.34657206 268.09950256 139.38768005 Z " transform="translate(180.90049743652344,25.612319946289063)" style="fill: rgb(71, 111, 255);"/><path d="M0 0 C6.99902889 1.50959447 11.1121091 10.3222034 14.8046875 16.02734375 C15.30670685 16.79430069 15.8087262 17.56125763 16.32595825 18.35145569 C17.90947184 20.77296118 19.48608257 23.19887041 21.0625 25.625 C22.14277368 27.27959435 23.22349868 28.93389412 24.3046875 30.58789062 C26.93751792 34.61770944 29.56417242 38.65148923 32.1875 42.6875 C32.20731934 41.48625488 32.22713867 40.28500977 32.24755859 39.04736328 C32.3234962 34.60053146 32.41223132 30.15403195 32.50488281 25.70751953 C32.54322168 23.78115386 32.57806582 21.8547154 32.609375 19.92822266 C32.65491945 17.16282082 32.71293037 14.39792231 32.7734375 11.6328125 C32.78498871 10.7681839 32.79653992 9.9035553 32.80844116 9.01272583 C32.95975659 2.91524341 32.95975659 2.91524341 35.1875 0.6875 C40.37999425 0.13510699 40.37999425 0.13510699 42.85365295 1.82727051 C44.76670802 4.49528366 44.57556885 6.49920556 44.59155273 9.76367188 C44.60423691 11.01506958 44.61692108 12.26646729 44.62998962 13.55578613 C44.62793832 14.9226091 44.62495041 16.28943094 44.62109375 17.65625 C44.62565429 19.05725356 44.63095948 20.45825488 44.63697815 21.85925293 C44.64591287 24.79477022 44.64348188 27.73001551 44.63354492 30.66552734 C44.62204793 34.42870585 44.64227454 38.19094704 44.67146206 41.95400238 C44.68980076 44.84680144 44.6895365 47.73937482 44.68382454 50.63221741 C44.68367107 52.01971248 44.68973662 53.40722262 44.70211601 54.79466248 C44.71697902 56.73349883 44.70374325 58.67248928 44.68920898 60.61132812 C44.68904282 61.71480591 44.68887665 62.81828369 44.68870544 63.9552002 C44.1875 66.6875 44.1875 66.6875 42.3157959 68.57301331 C40.1875 69.6875 40.1875 69.6875 37.63305664 69.59545898 C28.89637014 66.3517995 22.22793003 50.7851101 17.25 43.125 C16.27054134 41.62411459 15.29072636 40.12346164 14.31054688 38.62304688 C11.93208306 34.98053061 9.55845745 31.33490625 7.1875 27.6875 C7.1781543 28.81768555 7.16880859 29.94787109 7.15917969 31.11230469 C7.11927608 35.30964421 7.05351674 39.50625104 6.97998047 43.703125 C6.9517729 45.51878439 6.93055726 47.33456652 6.91650391 49.15039062 C6.89507091 51.76235789 6.84842115 54.37284974 6.796875 56.984375 C6.79503204 58.20021271 6.79503204 58.20021271 6.79315186 59.44061279 C6.69940959 63.05596167 6.49388221 65.26453993 4.34472656 68.23144531 C2.1875 69.6875 2.1875 69.6875 -0.9375 69.6875 C-3.8125 68.6875 -3.8125 68.6875 -4.97502136 66.99365234 C-6.00934142 64.14546074 -6.07379133 61.82064007 -6.0871582 58.7890625 C-6.09669022 57.60103027 -6.10622223 56.41299805 -6.11604309 55.18896484 C-6.11513168 53.90973145 -6.11422028 52.63049805 -6.11328125 51.3125 C-6.11756638 49.99588379 -6.1218515 48.67926758 -6.12626648 47.32275391 C-6.13371888 44.53869597 -6.13344421 41.75476487 -6.12817383 38.97070312 C-6.12237478 35.40622137 -6.13932472 31.8422585 -6.1625185 28.27786255 C-6.18080488 24.87271985 -6.17707054 21.46769155 -6.17578125 18.0625 C-6.184991 16.7832666 -6.19420074 15.5040332 -6.20368958 14.18603516 C-6.19746078 12.99800293 -6.19123199 11.8099707 -6.18481445 10.5859375 C-6.18544388 9.54099121 -6.1860733 8.49604492 -6.1867218 7.41943359 C-5.59928727 3.13098184 -4.24159451 1.03683421 0 0 Z " transform="translate(271.8125,47.3125)" style="fill: rgb(71, 111, 255);"/><path d="M0 0 C0.87100342 -0.01268417 1.74200684 -0.02536835 2.6394043 -0.03843689 C4.0457312 -0.03403343 4.0457312 -0.03403343 5.48046875 -0.02954102 C6.92836792 -0.03740379 6.92836792 -0.03740379 8.40551758 -0.04542542 C10.44644203 -0.05184919 12.4874035 -0.05050404 14.52832031 -0.04199219 C17.65626699 -0.03347911 20.78238995 -0.06224392 23.91015625 -0.09399414 C25.89192653 -0.0956061 27.87370006 -0.09502872 29.85546875 -0.09204102 C30.79302002 -0.10327499 31.73057129 -0.11450897 32.6965332 -0.12608337 C39.14358945 -0.05664677 39.14358945 -0.05664677 41.79296875 2.27099609 C42.94232596 5.07287498 42.6387547 6.56637073 41.66796875 9.40405273 C39.66796875 11.40405273 39.66796875 11.40405273 36.13623047 11.63110352 C34.62333544 11.63078636 33.11041787 11.61945907 31.59765625 11.59936523 C30.80142853 11.59653534 30.00520081 11.59370544 29.18484497 11.59078979 C26.63740112 11.57957913 24.09030664 11.55447335 21.54296875 11.52905273 C19.8177134 11.51902406 18.09245256 11.50989802 16.3671875 11.50170898 C12.13387113 11.48133691 7.9013118 11.44219096 3.66796875 11.40405273 C3.66796875 17.34405273 3.66796875 23.28405273 3.66796875 29.40405273 C7.51388672 29.33444336 7.51388672 29.33444336 11.4375 29.26342773 C13.91965759 29.23223637 16.40179339 29.20794631 18.8840332 29.18432617 C20.60971848 29.16420535 22.33533553 29.13690525 24.06079102 29.10229492 C26.54069845 29.05379515 29.01970503 29.03108969 31.5 29.01342773 C32.2719722 28.99278259 33.0439444 28.97213745 33.83930969 28.9508667 C39.17292092 28.94863024 39.17292092 28.94863024 41.69018555 31.2644043 C42.97554175 34.07710385 42.65716859 35.51254551 41.66796875 38.40405273 C39.66796875 40.40405273 39.66796875 40.40405273 36.13623047 40.63110352 C34.62333544 40.63078636 33.11041787 40.61945907 31.59765625 40.59936523 C30.80142853 40.59653534 30.00520081 40.59370544 29.18484497 40.59078979 C26.63740112 40.57957913 24.09030664 40.55447335 21.54296875 40.52905273 C19.8177134 40.51902406 18.09245256 40.50989802 16.3671875 40.50170898 C12.13387113 40.48133691 7.9013118 40.44219096 3.66796875 40.40405273 C3.66796875 46.01405273 3.66796875 51.62405273 3.66796875 57.40405273 C6.148125 57.35764648 8.62828125 57.31124023 11.18359375 57.26342773 C13.58966018 57.23221944 15.99570393 57.20793904 18.40185547 57.18432617 C20.07220577 57.16422881 21.74248588 57.1369459 23.41259766 57.10229492 C25.81560595 57.05369154 28.21768309 57.03106618 30.62109375 57.01342773 C31.36603088 56.99278259 32.11096802 56.97213745 32.878479 56.9508667 C36.37310479 56.94935931 38.31620192 57.14738765 41.17480469 59.2331543 C42.66796875 61.40405273 42.66796875 61.40405273 42.60546875 64.52905273 C41.66796875 67.40405273 41.66796875 67.40405273 38.66796875 69.40405273 C36.73963928 69.66474915 36.73963928 69.66474915 34.53540039 69.67871094 C33.70766617 69.68824295 32.87993195 69.69777496 32.02711487 69.70759583 C31.13644821 69.70668442 30.24578156 69.70577301 29.328125 69.70483398 C28.40962265 69.70911911 27.4911203 69.71340424 26.54478455 69.71781921 C24.60221175 69.72356217 22.65961746 69.72406303 20.71704102 69.71972656 C17.745232 69.71656842 14.77442015 69.74001972 11.80273438 69.76538086 C9.91536584 69.76765404 8.02799463 69.76835726 6.140625 69.76733398 C4.80766136 69.78114861 4.80766136 69.78114861 3.44776917 69.79524231 C2.20143959 69.78589912 2.20143959 69.78589912 0.92993164 69.77636719 C0.20173721 69.77699661 -0.52645721 69.77762604 -1.27671814 69.77827454 C-4.07753975 69.26831403 -5.36717356 68.47077998 -7.33203125 66.40405273 C-7.83323669 63.67175293 -7.83323669 63.67175293 -7.83374023 60.32788086 C-7.84312119 59.07648315 -7.85250214 57.82508545 -7.86216736 56.5357666 C-7.85168933 55.16893837 -7.84032035 53.80211672 -7.828125 52.43530273 C-7.82827996 51.034301 -7.8297685 49.63329882 -7.83253479 48.2322998 C-7.83391931 45.29668212 -7.82135292 42.3615527 -7.79858398 39.42602539 C-7.77019839 35.66294995 -7.77293556 31.90068584 -7.7856741 28.13755035 C-7.79262889 25.24474151 -7.78484444 22.35212023 -7.77241707 19.45933533 C-7.76790057 18.07186095 -7.76756752 16.68436646 -7.77148247 15.29689026 C-7.77439236 13.35796799 -7.75573592 11.41904947 -7.73608398 9.48022461 C-7.72797951 7.82500793 -7.72797951 7.82500793 -7.7197113 6.13635254 C-7.33203125 3.40405273 -7.33203125 3.40405273 -6.07752991 1.54954529 C-3.9002342 0.12068368 -2.59623531 0.01831388 0 0 Z " transform="translate(203.33203125,47.595947265625)" style="fill: rgb(71, 111, 255);"/><path d="M0 0 C0.900103 -0.00845947 1.80020599 -0.01691895 2.72758484 -0.02563477 C3.7126149 -0.01956207 4.69764496 -0.01348938 5.71252441 -0.00723267 C7.27140129 -0.0151181 7.27140129 -0.0151181 8.86177063 -0.02316284 C12.30501227 -0.03639174 15.7477935 -0.02761429 19.19104004 -0.01748657 C21.57853281 -0.01950647 23.96602497 -0.0224172 26.35351562 -0.02618408 C31.36045193 -0.03061136 36.36722783 -0.02416323 41.37414551 -0.01016235 C47.80060341 0.00692956 54.22668547 -0.00290943 60.65312958 -0.02087975 C65.58411505 -0.03170656 70.51501102 -0.02827627 75.44599915 -0.02049637 C77.81594385 -0.01849132 80.18589661 -0.02096427 82.55583191 -0.02793503 C85.86479295 -0.03553121 89.17314046 -0.02397051 92.48205566 -0.00723267 C93.46708572 -0.01330536 94.45211578 -0.01937805 95.46699524 -0.02563477 C96.36709824 -0.01717529 97.26720123 -0.00871582 98.19458008 0 C99.36816952 0.00169662 99.36816952 0.00169662 100.56546783 0.00342751 C103.14833858 0.48333869 104.03148178 1.30055343 105.59729004 3.38095093 C106.03479004 6.38095093 106.03479004 6.38095093 105.59729004 9.38095093 C102.84043863 12.00209815 100.9237112 12.75633571 97.15698242 12.76190186 C96.27377823 12.77036133 95.39057404 12.7788208 94.48060608 12.78753662 C93.51944382 12.78146393 92.55828156 12.77539124 91.56799316 12.76913452 C90.0405674 12.77701996 90.0405674 12.77701996 88.48228455 12.7850647 C85.11421397 12.79827524 81.74661548 12.78952262 78.37854004 12.77938843 C76.03971262 12.78140885 73.70088581 12.78432003 71.36206055 12.78808594 C66.45945236 12.79251073 61.55700809 12.78607307 56.65441895 12.77206421 C50.36596885 12.75497244 44.07790286 12.76481276 37.78946686 12.7827816 C32.95966694 12.79361512 28.12995829 12.79017504 23.30015564 12.78239822 C20.98127701 12.78039503 18.66239012 12.78285964 16.34352112 12.78983688 C13.10431932 12.79744405 9.86574212 12.78585688 6.62658691 12.76913452 C5.66542465 12.77520721 4.70426239 12.78127991 3.713974 12.78753662 C2.38916771 12.77484741 2.38916771 12.77484741 1.03759766 12.76190186 C0.272174 12.76077078 -0.49324966 12.7596397 -1.28186798 12.75847435 C-4.01597286 12.27178621 -5.40204511 11.28313437 -7.40270996 9.38095093 C-7.84020996 6.38095093 -7.84020996 6.38095093 -7.40270996 3.38095093 C-5.18848209 0.43903638 -3.61276911 0.00522285 0 0 Z " transform="translate(300.4027099609375,173.61904907226563)" style="fill: rgb(71, 111, 255);"/><path d="M0 0 C0.900103 -0.00845947 1.80020599 -0.01691895 2.72758484 -0.02563477 C3.7126149 -0.01956207 4.69764496 -0.01348938 5.71252441 -0.00723267 C7.27140129 -0.0151181 7.27140129 -0.0151181 8.86177063 -0.02316284 C12.30501227 -0.03639174 15.7477935 -0.02761429 19.19104004 -0.01748657 C21.57853281 -0.01950647 23.96602497 -0.0224172 26.35351562 -0.02618408 C31.36045193 -0.03061136 36.36722783 -0.02416323 41.37414551 -0.01016235 C47.80060341 0.00692956 54.22668547 -0.00290943 60.65312958 -0.02087975 C65.58411505 -0.03170656 70.51501102 -0.02827627 75.44599915 -0.02049637 C77.81594385 -0.01849132 80.18589661 -0.02096427 82.55583191 -0.02793503 C85.86479295 -0.03553121 89.17314046 -0.02397051 92.48205566 -0.00723267 C93.46708572 -0.01330536 94.45211578 -0.01937805 95.46699524 -0.02563477 C96.36709824 -0.01717529 97.26720123 -0.00871582 98.19458008 0 C99.36816952 0.00169662 99.36816952 0.00169662 100.56546783 0.00342751 C103.14833858 0.48333869 104.03148178 1.30055343 105.59729004 3.38095093 C106.03479004 6.38095093 106.03479004 6.38095093 105.59729004 9.38095093 C102.84043863 12.00209815 100.9237112 12.75633571 97.15698242 12.76190186 C96.27377823 12.77036133 95.39057404 12.7788208 94.48060608 12.78753662 C93.51944382 12.78146393 92.55828156 12.77539124 91.56799316 12.76913452 C90.0405674 12.77701996 90.0405674 12.77701996 88.48228455 12.7850647 C85.11421397 12.79827524 81.74661548 12.78952262 78.37854004 12.77938843 C76.03971262 12.78140885 73.70088581 12.78432003 71.36206055 12.78808594 C66.45945236 12.79251073 61.55700809 12.78607307 56.65441895 12.77206421 C50.36596885 12.75497244 44.07790286 12.76481276 37.78946686 12.7827816 C32.95966694 12.79361512 28.12995829 12.79017504 23.30015564 12.78239822 C20.98127701 12.78039503 18.66239012 12.78285964 16.34352112 12.78983688 C13.10431932 12.79744405 9.86574212 12.78585688 6.62658691 12.76913452 C5.66542465 12.77520721 4.70426239 12.78127991 3.713974 12.78753662 C2.38916771 12.77484741 2.38916771 12.77484741 1.03759766 12.76190186 C0.272174 12.76077078 -0.49324966 12.7596397 -1.28186798 12.75847435 C-4.01597286 12.27178621 -5.40204511 11.28313437 -7.40270996 9.38095093 C-7.84020996 6.38095093 -7.84020996 6.38095093 -7.40270996 3.38095093 C-5.18848209 0.43903638 -3.61276911 0.00522285 0 0 Z " transform="translate(113.4027099609375,173.61904907226563)" style="fill: rgb(71, 111, 255);"/><path d="M0 0 C0.900103 -0.00845947 1.80020599 -0.01691895 2.72758484 -0.02563477 C3.7126149 -0.01956207 4.69764496 -0.01348938 5.71252441 -0.00723267 C7.27140129 -0.0151181 7.27140129 -0.0151181 8.86177063 -0.02316284 C12.30501227 -0.03639174 15.7477935 -0.02761429 19.19104004 -0.01748657 C21.57853281 -0.01950647 23.96602497 -0.0224172 26.35351562 -0.02618408 C31.36045193 -0.03061136 36.36722783 -0.02416323 41.37414551 -0.01016235 C47.80060341 0.00692956 54.22668547 -0.00290943 60.65312958 -0.02087975 C65.58411505 -0.03170656 70.51501102 -0.02827627 75.44599915 -0.02049637 C77.81594385 -0.01849132 80.18589661 -0.02096427 82.55583191 -0.02793503 C85.86479295 -0.03553121 89.17314046 -0.02397051 92.48205566 -0.00723267 C93.46708572 -0.01330536 94.45211578 -0.01937805 95.46699524 -0.02563477 C96.36709824 -0.01717529 97.26720123 -0.00871582 98.19458008 0 C99.36816952 0.00169662 99.36816952 0.00169662 100.56546783 0.00342751 C103.14833858 0.48333869 104.03148178 1.30055343 105.59729004 3.38095093 C106.03479004 6.38095093 106.03479004 6.38095093 105.59729004 9.38095093 C102.84043863 12.00209815 100.9237112 12.75633571 97.15698242 12.76190186 C96.27377823 12.77036133 95.39057404 12.7788208 94.48060608 12.78753662 C93.51944382 12.78146393 92.55828156 12.77539124 91.56799316 12.76913452 C90.0405674 12.77701996 90.0405674 12.77701996 88.48228455 12.7850647 C85.11421397 12.79827524 81.74661548 12.78952262 78.37854004 12.77938843 C76.03971262 12.78140885 73.70088581 12.78432003 71.36206055 12.78808594 C66.45945236 12.79251073 61.55700809 12.78607307 56.65441895 12.77206421 C50.36596885 12.75497244 44.07790286 12.76481276 37.78946686 12.7827816 C32.95966694 12.79361512 28.12995829 12.79017504 23.30015564 12.78239822 C20.98127701 12.78039503 18.66239012 12.78285964 16.34352112 12.78983688 C13.10431932 12.79744405 9.86574212 12.78585688 6.62658691 12.76913452 C5.66542465 12.77520721 4.70426239 12.78127991 3.713974 12.78753662 C2.38916771 12.77484741 2.38916771 12.77484741 1.03759766 12.76190186 C0.272174 12.76077078 -0.49324966 12.7596397 -1.28186798 12.75847435 C-4.01597286 12.27178621 -5.40204511 11.28313437 -7.40270996 9.38095093 C-7.84020996 6.38095093 -7.84020996 6.38095093 -7.40270996 3.38095093 C-5.18848209 0.43903638 -3.61276911 0.00522285 0 0 Z " transform="translate(300.4027099609375,334.6190490722656)" style="fill: rgb(71, 111, 255);"/><path d="M0 0 C0.900103 -0.00845947 1.80020599 -0.01691895 2.72758484 -0.02563477 C3.7126149 -0.01956207 4.69764496 -0.01348938 5.71252441 -0.00723267 C7.27140129 -0.0151181 7.27140129 -0.0151181 8.86177063 -0.02316284 C12.30501227 -0.03639174 15.7477935 -0.02761429 19.19104004 -0.01748657 C21.57853281 -0.01950647 23.96602497 -0.0224172 26.35351562 -0.02618408 C31.36045193 -0.03061136 36.36722783 -0.02416323 41.37414551 -0.01016235 C47.80060341 0.00692956 54.22668547 -0.00290943 60.65312958 -0.02087975 C65.58411505 -0.03170656 70.51501102 -0.02827627 75.44599915 -0.02049637 C77.81594385 -0.01849132 80.18589661 -0.02096427 82.55583191 -0.02793503 C85.86479295 -0.03553121 89.17314046 -0.02397051 92.48205566 -0.00723267 C93.46708572 -0.01330536 94.45211578 -0.01937805 95.46699524 -0.02563477 C96.36709824 -0.01717529 97.26720123 -0.00871582 98.19458008 0 C99.36816952 0.00169662 99.36816952 0.00169662 100.56546783 0.00342751 C103.14833858 0.48333869 104.03148178 1.30055343 105.59729004 3.38095093 C106.03479004 6.38095093 106.03479004 6.38095093 105.59729004 9.38095093 C102.84043863 12.00209815 100.9237112 12.75633571 97.15698242 12.76190186 C96.27377823 12.77036133 95.39057404 12.7788208 94.48060608 12.78753662 C93.51944382 12.78146393 92.55828156 12.77539124 91.56799316 12.76913452 C90.0405674 12.77701996 90.0405674 12.77701996 88.48228455 12.7850647 C85.11421397 12.79827524 81.74661548 12.78952262 78.37854004 12.77938843 C76.03971262 12.78140885 73.70088581 12.78432003 71.36206055 12.78808594 C66.45945236 12.79251073 61.55700809 12.78607307 56.65441895 12.77206421 C50.36596885 12.75497244 44.07790286 12.76481276 37.78946686 12.7827816 C32.95966694 12.79361512 28.12995829 12.79017504 23.30015564 12.78239822 C20.98127701 12.78039503 18.66239012 12.78285964 16.34352112 12.78983688 C13.10431932 12.79744405 9.86574212 12.78585688 6.62658691 12.76913452 C5.66542465 12.77520721 4.70426239 12.78127991 3.713974 12.78753662 C2.38916771 12.77484741 2.38916771 12.77484741 1.03759766 12.76190186 C0.272174 12.76077078 -0.49324966 12.7596397 -1.28186798 12.75847435 C-4.01597286 12.27178621 -5.40204511 11.28313437 -7.40270996 9.38095093 C-7.84020996 6.38095093 -7.84020996 6.38095093 -7.40270996 3.38095093 C-5.18848209 0.43903638 -3.61276911 0.00522285 0 0 Z " transform="translate(113.4027099609375,334.6190490722656)" style="fill: rgb(71, 111, 255);"/><path d="M0 0 C1.36494347 -0.01052147 1.36494347 -0.01052147 2.75746155 -0.02125549 C4.25138931 -0.00978989 4.25138931 -0.00978989 5.77549744 0.00190735 C6.82610855 -0.00174332 7.87671967 -0.00539398 8.95916748 -0.00915527 C12.43969269 -0.01727622 15.91975464 -0.00363839 19.4002533 0.01094055 C21.81256103 0.01145893 24.2248692 0.01094209 26.63717651 0.00942993 C31.69539182 0.00951972 36.75344796 0.01996397 41.81163025 0.03804016 C48.30762691 0.06073956 54.80339113 0.06126993 61.29941654 0.05452251 C66.28096598 0.0511874 71.26246205 0.05780378 76.24400139 0.06765175 C78.6398891 0.07151104 81.03578275 0.07264896 83.43167305 0.0710659 C86.77426169 0.07069665 90.11654781 0.08327589 93.45909119 0.0995636 C94.9560553 0.09584747 94.9560553 0.09584747 96.48326111 0.09205627 C97.39040359 0.09914108 98.29754608 0.10622589 99.23217773 0.11352539 C100.02286683 0.11557826 100.81355593 0.11763113 101.6282053 0.11974621 C103.55259705 0.3742218 103.55259705 0.3742218 105.55259705 2.3742218 C105.80259705 5.8742218 105.80259705 5.8742218 105.55259705 9.3742218 C103.1183951 11.80842374 102.52140656 11.62504415 99.18748474 11.62818909 C98.27048294 11.63382874 97.35348114 11.63946838 96.40869141 11.64527893 C95.39979355 11.64123047 94.39089569 11.63718201 93.35142517 11.63301086 C91.76109718 11.63826782 91.76109718 11.63826782 90.13864136 11.64363098 C86.62031075 11.65246179 83.10217984 11.64659432 79.58384705 11.6398468 C77.14768942 11.64119306 74.71153206 11.64313326 72.27537537 11.64564514 C67.16414335 11.64859824 62.05298112 11.64429277 56.9417572 11.63496399 C50.37736201 11.62356941 43.81313034 11.63012789 37.24874115 11.64210892 C32.21658589 11.64932249 27.18446964 11.6470419 22.15231323 11.64185333 C19.7313027 11.64051544 17.31028867 11.64216939 14.88928223 11.64681244 C11.51068179 11.65186937 8.13234931 11.64417904 4.75376892 11.63301086 C3.24042213 11.63908356 3.24042213 11.63908356 1.69650269 11.64527893 C0.77950089 11.63963928 -0.13750092 11.63399963 -1.08229065 11.62818909 C-2.28133404 11.62705801 -2.28133404 11.62705801 -3.50460052 11.62590408 C-5.44740295 11.3742218 -5.44740295 11.3742218 -7.44740295 9.3742218 C-8.00588143 4.12452415 -8.00588143 4.12452415 -6.20583439 1.70620441 C-3.980926 0.02087326 -2.7737014 -0.00058815 0 0 Z " transform="translate(300.44740295410156,227.6257781982422)" style="fill: rgb(71, 111, 255);"/><path d="M0 0 C1.36071373 -0.01062721 1.36071373 -0.01062721 2.74891663 -0.02146912 C3.7468927 -0.0189917 4.74486877 -0.01651428 5.77308655 -0.01396179 C6.82194534 -0.01907272 7.87080414 -0.02418365 8.95144653 -0.02944946 C12.43249657 -0.04339539 15.91334972 -0.04238493 19.39442444 -0.04008484 C21.80576654 -0.04396902 24.21710796 -0.04830311 26.62844849 -0.05307007 C31.68840246 -0.06054305 36.74828668 -0.06023319 41.8082428 -0.05497742 C48.30309147 -0.04918144 54.7976551 -0.06611192 61.29245663 -0.08932209 C66.27404459 -0.10403039 71.25556344 -0.10493509 76.23716927 -0.10181236 C78.63223905 -0.10232704 81.02731255 -0.10759202 83.42236137 -0.11762428 C86.76732454 -0.12991497 90.11172659 -0.12324109 93.4566803 -0.11161804 C94.45263214 -0.11926178 95.44858398 -0.12690552 96.47471619 -0.13478088 C97.3846785 -0.12776657 98.29464081 -0.12075226 99.23217773 -0.11352539 C100.41877692 -0.113777 100.41877692 -0.113777 101.6293478 -0.1140337 C104.22807125 0.36094645 105.11547773 1.15936185 106.67958069 3.26069641 C106.99208069 6.32319641 106.99208069 6.32319641 106.67958069 9.26069641 C104.24537875 11.69489835 103.6483902 11.51151875 100.31446838 11.5146637 C99.39746658 11.52030334 98.48046478 11.52594299 97.53567505 11.53175354 C96.52677719 11.52770508 95.51787933 11.52365662 94.47840881 11.51948547 C92.88808083 11.52474243 92.88808083 11.52474243 91.265625 11.53010559 C87.74729439 11.5389364 84.22916348 11.53306893 80.71083069 11.52632141 C78.27467307 11.52766767 75.83851571 11.52960787 73.40235901 11.53211975 C68.29112699 11.53507285 63.17996477 11.53076738 58.06874084 11.5214386 C51.50434565 11.51004402 44.94011398 11.5166025 38.37572479 11.52858353 C33.34356953 11.53579709 28.31145329 11.53351651 23.27929688 11.52832794 C20.85828635 11.52699005 18.43727232 11.528644 16.01626587 11.53328705 C12.63766543 11.53834398 9.25933295 11.53065364 5.88075256 11.51948547 C4.36740578 11.52555817 4.36740578 11.52555817 2.82348633 11.53175354 C1.90648453 11.52611389 0.98948273 11.52047424 0.04469299 11.5146637 C-1.1543504 11.51353262 -1.1543504 11.51353262 -2.37761688 11.51237869 C-4.32041931 11.26069641 -4.32041931 11.26069641 -6.32041931 9.26069641 C-6.57041931 5.76069641 -6.57041931 5.76069641 -6.32041931 2.26069641 C-3.89581563 -0.16390727 -3.31714847 0.00861233 0 0 Z " transform="translate(112.32041931152344,227.7393035888672)" style="fill: rgb(71, 111, 255);"/><path d="M0 0 C0.900103 -0.00701431 1.80020599 -0.01402863 2.72758484 -0.02125549 C3.7126149 -0.01361176 4.69764496 -0.00596802 5.71252441 0.00190735 C6.75177567 -0.00174332 7.79102692 -0.00539398 8.86177063 -0.00915527 C12.30502546 -0.01727664 15.74781204 -0.00363715 19.19104004 0.01094055 C21.5785319 0.01145897 23.96602419 0.01094199 26.35351562 0.00942993 C31.36045696 0.00951973 36.36723752 0.01996414 41.37414551 0.03804016 C47.80054221 0.06072743 54.22670386 0.06127216 60.65312958 0.05452251 C65.58410745 0.05118518 70.51503148 0.0578082 75.44599915 0.06765175 C77.81594054 0.0715081 80.18588791 0.07265017 82.55583191 0.0710659 C85.86468979 0.07069612 89.17324338 0.0832912 92.48205566 0.0995636 C93.95960075 0.09584747 93.95960075 0.09584747 95.46699524 0.09205627 C96.36709824 0.09914108 97.26720123 0.10622589 98.19458008 0.11352539 C98.97697304 0.11557826 99.759366 0.11763113 100.56546783 0.11974621 C102.59729004 0.3742218 102.59729004 0.3742218 105.59729004 2.3742218 C105.90979004 5.8742218 105.90979004 5.8742218 105.59729004 9.3742218 C103.1630881 11.80842374 102.56609955 11.62504415 99.23217773 11.62818909 C98.31517593 11.63382874 97.39817413 11.63946838 96.4533844 11.64527893 C95.44448654 11.64123047 94.43558868 11.63718201 93.39611816 11.63301086 C91.80579018 11.63826782 91.80579018 11.63826782 90.18333435 11.64363098 C86.66500374 11.65246179 83.14687283 11.64659432 79.62854004 11.6398468 C77.19238242 11.64119306 74.75622506 11.64313326 72.32006836 11.64564514 C67.20883634 11.64859824 62.09767412 11.64429277 56.9864502 11.63496399 C50.422055 11.62356941 43.85782333 11.63012789 37.29343414 11.64210892 C32.26127888 11.64932249 27.22916264 11.6470419 22.19700623 11.64185333 C19.7759957 11.64051544 17.35498167 11.64216939 14.93397522 11.64681244 C11.55537479 11.65186937 8.1770423 11.64417904 4.79846191 11.63301086 C3.28511513 11.63908356 3.28511513 11.63908356 1.74119568 11.64527893 C0.82419388 11.63963928 -0.09280792 11.63399963 -1.03759766 11.62818909 C-2.23664104 11.62705801 -2.23664104 11.62705801 -3.45990753 11.62590408 C-5.40270996 11.3742218 -5.40270996 11.3742218 -7.40270996 9.3742218 C-7.96134525 4.12305009 -7.96134525 4.12305009 -6.15834808 1.70620441 C-3.94607492 0.02777801 -2.75891771 -0.0005915 0 0 Z " transform="translate(300.4027099609375,388.6257781982422)" style="fill: rgb(71, 111, 255);"/><path d="M0 0 C0.900103 -0.00708481 1.80020599 -0.01416962 2.72758484 -0.02146912 C3.7126149 -0.0189917 4.69764496 -0.01651428 5.71252441 -0.01396179 C7.27140129 -0.02162819 7.27140129 -0.02162819 8.86177063 -0.02944946 C12.30491863 -0.04337591 15.74786718 -0.04238654 19.19104004 -0.04008484 C21.57853266 -0.04396975 23.9660246 -0.04830399 26.35351562 -0.05307007 C31.36041504 -0.06053861 36.36724394 -0.06023614 41.37414551 -0.05497742 C47.80058533 -0.04917839 54.22673736 -0.06612142 60.65312958 -0.08932209 C65.58410336 -0.10402941 70.51500732 -0.10493528 75.44599915 -0.10181236 C77.81594921 -0.10232697 80.18590303 -0.10759064 82.55583191 -0.11762428 C85.86476543 -0.12991469 89.17313172 -0.12324158 92.48205566 -0.11161804 C93.46708572 -0.11926178 94.45211578 -0.12690552 95.46699524 -0.13478088 C96.81714973 -0.12425941 96.81714973 -0.12425941 98.19458008 -0.11352539 C98.97697304 -0.11369313 99.759366 -0.11386087 100.56546783 -0.1140337 C103.15104684 0.36282609 104.0385074 1.17121055 105.59729004 3.26069641 C105.90979004 6.32319641 105.90979004 6.32319641 105.59729004 9.26069641 C103.1630881 11.69489835 102.56609955 11.51151875 99.23217773 11.5146637 C98.31517593 11.52030334 97.39817413 11.52594299 96.4533844 11.53175354 C95.44448654 11.52770508 94.43558868 11.52365662 93.39611816 11.51948547 C91.80579018 11.52474243 91.80579018 11.52474243 90.18333435 11.53010559 C86.66500374 11.5389364 83.14687283 11.53306893 79.62854004 11.52632141 C77.19238242 11.52766767 74.75622506 11.52960787 72.32006836 11.53211975 C67.20883634 11.53507285 62.09767412 11.53076738 56.9864502 11.5214386 C50.422055 11.51004402 43.85782333 11.5166025 37.29343414 11.52858353 C32.26127888 11.53579709 27.22916264 11.53351651 22.19700623 11.52832794 C19.7759957 11.52699005 17.35498167 11.528644 14.93397522 11.53328705 C11.55537479 11.53834398 8.1770423 11.53065364 4.79846191 11.51948547 C3.28511513 11.52555817 3.28511513 11.52555817 1.74119568 11.53175354 C0.82419388 11.52611389 -0.09280792 11.52047424 -1.03759766 11.5146637 C-2.23664104 11.51353262 -2.23664104 11.51353262 -3.45990753 11.51237869 C-5.40270996 11.26069641 -5.40270996 11.26069641 -7.40270996 9.26069641 C-7.71520996 5.76069641 -7.71520996 5.76069641 -7.40270996 2.26069641 C-4.26997356 0.17220548 -3.5633992 0.00934977 0 0 Z " transform="translate(113.4027099609375,388.7393035888672)" style="fill: rgb(71, 111, 255);"/><path d="M0 0 C0.9170018 -0.00563965 1.8340036 -0.0112793 2.77879333 -0.01708984 C4.29214012 -0.01101715 4.29214012 -0.01101715 5.83605957 -0.00482178 C7.42638756 -0.01007874 7.42638756 -0.01007874 9.04884338 -0.01544189 C12.56717399 -0.0242727 16.0853049 -0.01840523 19.6036377 -0.01165771 C22.03979532 -0.01300398 24.47595268 -0.01494418 26.91210938 -0.01745605 C32.02334139 -0.02040915 37.13450362 -0.01610368 42.24572754 -0.0067749 C48.81012273 0.00461967 55.3743544 -0.0019388 61.93874359 -0.01391983 C66.97089885 -0.0211334 72.0030151 -0.01885281 77.03517151 -0.01366425 C79.45618204 -0.01232636 81.87719607 -0.0139803 84.29820251 -0.01862335 C87.67680295 -0.02368029 91.05513544 -0.01598995 94.43371582 -0.00482178 C95.44261368 -0.00887024 96.45151154 -0.0129187 97.49098206 -0.01708984 C98.40798386 -0.0114502 99.32498566 -0.00581055 100.26977539 0 C101.46881878 0.00113108 101.46881878 0.00113108 102.69208527 0.002285 C104.6348877 0.25396729 104.6348877 0.25396729 106.6348877 2.25396729 C106.9473877 5.75396729 106.9473877 5.75396729 106.6348877 9.25396729 C103.5021513 11.34245822 102.79557693 11.50531393 99.23217773 11.5146637 C98.33207474 11.5217485 97.43197174 11.52883331 96.5045929 11.53613281 C95.51956284 11.5336554 94.53453278 11.53117798 93.51965332 11.52862549 C91.96077644 11.53629189 91.96077644 11.53629189 90.3704071 11.54411316 C86.9272591 11.55803961 83.48431055 11.55705024 80.0411377 11.55474854 C77.65364507 11.55863344 75.26615314 11.56296769 72.87866211 11.56773376 C67.8717627 11.57520231 62.8649338 11.57489984 57.85803223 11.56964111 C51.4315924 11.56384209 45.00544037 11.58078512 38.57904816 11.60398579 C33.64807438 11.61869311 28.71717041 11.61959898 23.78617859 11.61647606 C21.41622853 11.61699066 19.0462747 11.62225434 16.67634583 11.63228798 C13.36741231 11.64457838 10.05904602 11.63790527 6.75012207 11.62628174 C5.76509201 11.63392548 4.78006195 11.64156921 3.7651825 11.64944458 C2.8650795 11.64243027 1.9649765 11.63541595 1.03759766 11.62818909 C0.2552047 11.62835683 -0.52718826 11.62852457 -1.3332901 11.6286974 C-3.9188691 11.15183761 -4.80632966 10.34345315 -6.3651123 8.25396729 C-6.6776123 5.19146729 -6.6776123 5.19146729 -6.3651123 2.25396729 C-3.93091036 -0.18023466 -3.33392182 0.00314494 0 0 Z " transform="translate(299.3651123046875,281.74603271484375)" style="fill: rgb(71, 111, 255);"/><path d="M0 0 C0.9170018 -0.00563965 1.8340036 -0.0112793 2.77879333 -0.01708984 C4.29214012 -0.01101715 4.29214012 -0.01101715 5.83605957 -0.00482178 C7.42638756 -0.01007874 7.42638756 -0.01007874 9.04884338 -0.01544189 C12.56717399 -0.0242727 16.0853049 -0.01840523 19.6036377 -0.01165771 C22.03979532 -0.01300398 24.47595268 -0.01494418 26.91210938 -0.01745605 C32.02334139 -0.02040915 37.13450362 -0.01610368 42.24572754 -0.0067749 C48.81012273 0.00461967 55.3743544 -0.0019388 61.93874359 -0.01391983 C66.97089885 -0.0211334 72.0030151 -0.01885281 77.03517151 -0.01366425 C79.45618204 -0.01232636 81.87719607 -0.0139803 84.29820251 -0.01862335 C87.67680295 -0.02368029 91.05513544 -0.01598995 94.43371582 -0.00482178 C95.44261368 -0.00887024 96.45151154 -0.0129187 97.49098206 -0.01708984 C98.40798386 -0.0114502 99.32498566 -0.00581055 100.26977539 0 C101.46881878 0.00113108 101.46881878 0.00113108 102.69208527 0.002285 C104.6348877 0.25396729 104.6348877 0.25396729 106.6348877 2.25396729 C107.19352298 7.505139 107.19352298 7.505139 105.39052582 9.92198467 C103.17825266 11.60041108 101.99109545 11.62878059 99.23217773 11.62818909 C97.88202324 11.63871056 97.88202324 11.63871056 96.5045929 11.64944458 C95.51956284 11.64180084 94.53453278 11.6341571 93.51965332 11.62628174 C92.48040207 11.6299324 91.44115082 11.63358307 90.3704071 11.63734436 C86.92715227 11.64546573 83.48436569 11.63182623 80.0411377 11.61724854 C77.65364584 11.61673012 75.26615355 11.6172471 72.87866211 11.61875916 C67.87172078 11.61866936 62.86494022 11.60822495 57.85803223 11.59014893 C51.43163553 11.56746166 45.00547388 11.56691693 38.57904816 11.57366657 C33.64807029 11.57700391 28.71714626 11.57038089 23.78617859 11.56053734 C21.4162372 11.55668099 19.04628982 11.55553892 16.67634583 11.55712318 C13.36748795 11.55749296 10.05893436 11.54489789 6.75012207 11.52862549 C5.76509201 11.53110291 4.78006195 11.53358032 3.7651825 11.53613281 C2.8650795 11.529048 1.9649765 11.5219632 1.03759766 11.5146637 C0.2552047 11.51261083 -0.52718826 11.51055796 -1.3332901 11.50844288 C-3.3651123 11.25396729 -3.3651123 11.25396729 -6.3651123 9.25396729 C-6.6776123 5.75396729 -6.6776123 5.75396729 -6.3651123 2.25396729 C-3.93091036 -0.18023466 -3.33392182 0.00314494 0 0 Z " transform="translate(112.3651123046875,281.74603271484375)" style="fill: rgb(71, 111, 255);"/></svg>