<svg xmlns="http://www.w3.org/2000/svg" viewBox="0 0 512 512"><rect width="512" height="512" fill="#00000000"/><path d="M80.100 0L38.700 0L38.700-297L80.100-297L80.100-155.250Q104.850-163.800 128.475-178.425Q152.100-193.050 171.900-211.725Q191.700-230.400 206.550-252.225Q221.400-274.050 229.050-297L229.050-297L274.950-297Q265.950-270.900 251.325-247.950Q236.700-225 218.025-206.100Q199.350-187.200 179.325-173.250Q159.300-159.300 139.500-150.750L139.500-150.750L139.500-144.900Q161.550-144.900 179.325-139.050Q197.100-133.200 211.725-121.950Q226.350-110.700 237.825-93.150Q249.300-75.600 258.750-51.750L258.750-51.750L277.650 0L231.300 0L219.150-39.600Q208.800-67.950 195.075-86.175Q181.350-104.400 160.425-113.625Q139.500-122.850 106.650-122.850L106.650-122.850L80.100-122.850L80.100 0ZM375.300 0L333.900 0L333.900-297L375.300-297L375.300-155.250Q400.050-163.800 423.675-178.425Q447.300-193.050 467.100-211.725Q486.900-230.400 501.750-252.225Q516.600-274.050 524.250-297L524.250-297L570.150-297Q561.150-270.900 546.525-247.950Q531.900-225 513.225-206.100Q494.550-187.200 474.525-173.250Q454.500-159.300 434.700-150.750L434.700-150.750L434.700-144.900Q456.750-144.900 474.525-139.050Q492.300-133.200 506.925-121.950Q521.550-110.700 533.025-93.150Q544.500-75.600 553.950-51.750L553.950-51.750L572.850 0L526.500 0L514.350-39.600Q504-67.950 490.275-86.175Q476.550-104.400 455.625-113.625Q434.700-122.850 401.850-122.850L401.850-122.850L375.300-122.850L375.300 0Z" fill="#476fff" transform="translate(-49.77498245239258, 404.5)"/></svg>