<?xml version="1.0" encoding="utf-8"?>
<svg version="1.1" xmlns="http://www.w3.org/2000/svg" width="512" height="512" xmlns:bx="https://boxy-svg.com" viewBox="0 0 512 512"><defs><bx:export><bx:file format="svg" path="Bez nazwy.svg"/></bx:export></defs><path d="M0 0 C0.7186437 -0.00205263 1.4372874 -0.00410527 2.17770818 -0.0062201 C4.59235261 -0.01188681 7.00693994 -0.01043326 9.42158985 -0.00901413 C11.16769422 -0.01159795 12.913798 -0.01461116 14.65990096 -0.01801753 C19.46356834 -0.02608874 24.26722077 -0.02787717 29.07089412 -0.028615 C34.24964574 -0.03046534 39.42838959 -0.03801257 44.60713673 -0.04475021 C55.93359608 -0.05833485 67.2600519 -0.06435844 78.58651805 -0.06876087 C85.65804637 -0.07152303 92.72957333 -0.07576033 99.80110073 -0.08026505 C119.37795615 -0.0924578 138.95481048 -0.10275715 158.53166962 -0.10614014 C159.78474556 -0.1063597 161.03782151 -0.10657927 162.32886945 -0.10680549 C163.5849523 -0.10702377 164.84103516 -0.10724204 166.13518113 -0.10746694 C168.68050524 -0.1079104 171.22582934 -0.10835697 173.77115345 -0.10880661 C175.0337235 -0.10902804 176.29629355 -0.10924947 177.5971233 -0.10947761 C198.05662246 -0.11342587 218.51608601 -0.13088074 238.97557142 -0.15416613 C259.97818989 -0.17787685 280.9807905 -0.19034186 301.98342258 -0.19150805 C313.77676254 -0.19242496 325.57005611 -0.19818128 337.36338329 -0.21632767 C347.4054301 -0.23172485 357.44741617 -0.23685135 367.48947253 -0.22858956 C372.61269104 -0.22468175 377.7357872 -0.22561916 382.85899067 -0.23964691 C387.5514417 -0.25237769 392.24367837 -0.25119547 396.93612907 -0.2390562 C398.63130314 -0.23709779 400.32649236 -0.24018429 402.02164515 -0.24890056 C414.73689332 -0.31012768 425.72361105 0.56842183 435.79092884 9.13142776 C442.72544695 16.58073543 445.90989892 24.82366624 445.92235661 34.98178768 C445.92619775 36.15948024 445.9300389 37.33717281 445.93399644 38.55055302 C445.93312996 39.84041719 445.93226347 41.13028137 445.93137074 42.45923233 C445.93395539 43.84647924 445.93696883 45.23372541 445.94037414 46.62097055 C445.94843565 50.43270179 445.95023323 54.24441419 445.9509716 58.05615294 C445.95282364 62.16741097 445.96037174 66.27865926 445.96710682 70.38991165 C445.98068468 79.37966838 445.98671402 88.36942065 445.99111748 97.35918593 C445.99388085 102.97337994 445.99811838 108.58757222 446.00262165 114.20176506 C446.01481365 129.74850704 446.02511307 145.29524763 446.02849674 160.84199429 C446.02871631 161.83688805 446.02893587 162.83178182 446.02916209 163.85682388 C446.02938037 164.85408626 446.02959865 165.85134864 446.02982354 166.87883109 C446.03026701 168.8996348 446.03071357 170.92043851 446.03116322 172.94124222 C446.03138465 173.94362878 446.03160608 174.94601535 446.03183421 175.97877727 C446.03578173 192.2188722 446.05323466 208.45892225 446.07652274 224.69899984 C446.10024405 241.37593122 446.11269895 258.05284008 446.11386466 274.7297886 C446.11478099 284.09185977 446.12052262 293.45387246 446.13868427 302.81592751 C446.15409578 310.78837304 446.15919952 318.76074202 446.15094617 326.73319962 C446.14704338 330.79924094 446.14795109 334.86512814 446.16200352 338.93115044 C446.17476467 342.6576991 446.17352567 346.38397819 446.16141281 350.1105266 C446.15853849 352.08822369 446.17037479 354.06592555 446.18283486 356.04358548 C446.11518035 368.26820543 443.59242938 378.30341065 434.78702259 387.14314651 C425.04624328 395.45504586 413.72246419 395.56924402 401.40543079 395.47200394 C399.88658636 395.47115595 398.3677407 395.47163614 396.84889698 395.47333145 C392.75865971 395.47418615 388.66869067 395.45664636 384.57851529 395.43560958 C380.29176456 395.4167544 376.00500652 395.41508541 371.71822071 395.41153336 C363.61535494 395.40223871 355.51261175 395.37766017 347.40979975 395.34748489 C338.17878237 395.31386016 328.94775889 395.29743464 319.71669543 395.28239858 C300.74137061 395.25110809 281.76615961 395.19839823 262.79092884 395.13142776 C263.06356556 396.93945877 263.06356556 396.93945877 263.34171009 398.78401566 C264.0177669 403.27657977 264.68707787 407.77012778 265.3544054 412.26399612 C265.64359451 414.20502434 265.93458718 416.14578477 266.22745228 418.08626175 C266.64924901 420.88317576 267.06444802 423.68100379 267.47842884 426.47908401 C267.60967152 427.33977997 267.74091419 428.20047592 267.87613392 429.08725357 C268.57030694 433.82771389 268.92660144 438.34048899 268.79092884 443.13142776 C270.45768665 443.07922073 270.45768665 443.07922073 272.15811634 443.02595901 C283.47211622 442.77524383 294.08261188 442.88962778 302.79092884 451.13142776 C308.44629294 457.55387582 310.14200901 463.95551845 310.10342884 472.38142776 C310.11954212 473.10072464 310.1356554 473.82002151 310.15225697 474.56111526 C310.15421009 476.64705276 310.15421009 476.64705276 309.79092884 480.13142776 C306.01625963 482.64787391 303.03921917 482.4131205 298.6677599 482.39212418 C297.83018508 482.39594972 296.99261027 482.39977527 296.12965441 482.40371674 C293.31290667 482.41406547 290.49636206 482.41005107 287.67960072 482.40608597 C285.66434509 482.41043137 283.64909111 482.41561394 281.63383961 482.42157364 C276.15256713 482.43499241 270.67136349 482.43553918 265.19007778 482.43301034 C260.61968569 482.43194272 256.04930764 482.43681855 251.47891855 482.44161576 C240.70058713 482.4527206 229.92229056 482.45314266 219.14395618 482.44710159 C208.01094231 482.44105788 196.87805468 482.45338071 185.74506235 482.47467166 C176.19767972 482.49226138 166.65033738 482.49829324 157.10293913 482.49503392 C151.39578699 482.49321694 145.68872494 482.49589856 139.98158741 482.50974846 C134.61688058 482.52227971 129.25237129 482.52042747 123.88766766 482.50733757 C121.91515443 482.50496206 119.9426275 482.50774109 117.97012997 482.51596069 C115.28455331 482.52634764 112.59964949 482.51839287 109.91409779 482.50564957 C109.12723827 482.51302385 108.34037875 482.52039814 107.52967501 482.52799588 C102.29219079 482.47544346 102.29219079 482.47544346 99.80813313 480.77063656 C97.06594459 476.35164263 98.34625191 469.51044936 99.25967884 464.62361526 C101.64681584 456.46756385 106.34221726 450.52703607 113.56827259 446.13924026 C122.46752803 442.10407699 129.5378785 442.73454837 139.79092884 442.13142776 C142.10092884 426.62142776 144.41092884 411.11142776 146.79092884 395.13142776 C142.17817982 395.14713821 137.56543079 395.16284866 132.8129015 395.17903519 C117.56586558 395.22876285 102.31882645 395.26204246 87.07173061 395.28686428 C77.82818554 395.30231344 68.58471746 395.32336555 59.34122181 395.35774612 C51.28177696 395.38770833 43.22238789 395.40701694 35.16288888 395.41369325 C30.89798949 395.41759397 26.63324964 395.42672031 22.36840153 395.44861794 C18.34815134 395.46909102 14.32812532 395.47523987 10.30782795 395.47075081 C8.83813856 395.4715712 7.3684411 395.47747215 5.89879704 395.48904419 C-6.37057255 395.58085542 -16.6236262 394.28456486 -26.20907116 386.13142776 C-33.48761928 378.31255075 -36.3302917 369.82167853 -36.33770561 359.18646145 C-36.34093006 358.01312793 -36.3441545 356.83979441 -36.34747666 355.63090533 C-36.34592806 354.35105378 -36.34437946 353.07120222 -36.34278393 351.75256729 C-36.344653 350.37199444 -36.34695408 348.99142212 -36.34964925 347.61085063 C-36.35576181 343.82224896 -36.3556343 340.03366938 -36.35445487 336.2450639 C-36.35425073 332.15702101 -36.35977093 328.06898518 -36.36451244 323.98094559 C-36.37281655 315.97363305 -36.37556718 307.96632788 -36.37612482 299.9590114 C-36.37660009 293.44988611 -36.37865539 286.94076324 -36.38182545 280.43163872 C-36.39063133 261.97460533 -36.39524492 243.51757775 -36.39449497 225.06054225 C-36.39445502 224.06565566 -36.39441506 223.07076907 -36.39437389 222.04573441 C-36.39431257 220.55158119 -36.39431257 220.55158119 -36.39425001 219.02724306 C-36.39384355 202.88354475 -36.4034133 186.73986976 -36.41751226 170.5961782 C-36.43187677 154.0175312 -36.4387824 137.43889557 -36.43791848 120.86024219 C-36.43758654 111.55356506 -36.4403324 102.24691238 -36.45109653 92.94024086 C-36.46020251 85.01647669 -36.46237598 77.09274806 -36.45558711 69.16898092 C-36.45232242 65.12739257 -36.45226341 61.0858724 -36.46094036 57.04429054 C-36.46880847 53.34132102 -36.46737077 49.63847371 -36.45865623 45.93550716 C-36.45639751 43.96806126 -36.46394745 42.00061156 -36.47189587 40.03318042 C-36.42577597 28.18772397 -34.71636035 18.40153315 -26.57625866 9.30720901 C-18.97219108 2.28670941 -10.12999109 0.00985952 0 0 Z M-21.08407116 18.06892776 C-21.63836803 18.7173262 -22.19266491 19.36572464 -22.76375866 20.03377151 C-25.52248238 24.03764892 -26.45921404 27.58589612 -26.45516682 32.41626072 C-26.45914891 33.46775124 -26.46313101 34.51924176 -26.46723378 35.60259563 C-26.46140809 36.75142496 -26.45558241 37.90025429 -26.44958019 39.08389664 C-26.45128904 40.30915092 -26.45299789 41.5344052 -26.45475852 42.79678839 C-26.45748341 46.19464826 -26.45123217 49.59227779 -26.4412024 52.9901098 C-26.43256634 56.65535944 -26.43548817 60.32060196 -26.43700695 63.98585892 C-26.4380557 70.33514275 -26.43178012 76.68438548 -26.42053127 83.03365898 C-26.40427793 92.21363921 -26.39906844 101.39359957 -26.39655529 110.57359263 C-26.39217793 125.46747537 -26.3788677 140.36133621 -26.35995007 155.25520706 C-26.34159233 169.7233049 -26.3274353 184.1913968 -26.31893444 198.65950394 C-26.31840899 199.551302 -26.31788355 200.44310006 -26.31734218 201.3619223 C-26.3147321 205.8358064 -26.31220469 210.30969053 -26.30971837 214.7835747 C-26.28898459 251.89954134 -26.25360927 289.01548249 -26.20907116 326.13142776 C-18.94907116 326.13142776 -11.68907116 326.13142776 -4.20907116 326.13142776 C-4.20483922 324.6068448 -4.20060728 323.08226183 -4.1962471 321.51147938 C-4.0956755 285.35981601 -3.98998632 249.20817082 -3.87795422 213.05654109 C-3.86418385 208.61153273 -3.85045687 204.16652423 -3.83675671 199.72151566 C-3.8340284 198.83655599 -3.8313001 197.95159633 -3.82848912 197.03981971 C-3.78435659 182.69128034 -3.74374282 168.34273305 -3.70441855 153.99417979 C-3.66402125 139.28253135 -3.61986787 124.57089767 -3.57219261 109.85927099 C-3.54286948 100.77388458 -3.51651237 91.68849935 -3.49389219 82.60309374 C-3.47812235 76.38160675 -3.45871995 70.16013786 -3.43640275 63.93867094 C-3.42361621 60.3436999 -3.41248701 56.74874289 -3.40565205 53.15375519 C-3.39821786 49.26547361 -3.38316285 45.37724378 -3.36728954 41.48898697 C-3.36631144 40.34017911 -3.36533333 39.19137126 -3.36432558 38.00775105 C-3.35611392 36.45813684 -3.35611392 36.45813684 -3.34773636 34.87721729 C-3.3437493 33.52902026 -3.3437493 33.52902026 -3.33968168 32.15358692 C-3.20907116 30.13142776 -3.20907116 30.13142776 -2.20907116 29.13142776 C-0.01562085 29.03244145 2.1810921 29.00587028 4.37677479 29.00558662 C5.42653622 29.00340646 5.42653622 29.00340646 6.49750495 29.00118226 C8.87218955 28.99749628 11.24681099 29.00102061 13.62149525 29.00444412 C15.3293133 29.00329333 17.03713111 29.00170609 18.74494839 28.99971688 C23.46101664 28.99551783 28.17706481 28.99761683 32.89313316 29.0007031 C37.9702115 29.00295465 43.04728626 28.99947881 48.1243639 28.99672318 C58.07948782 28.99226385 68.03460423 28.99324266 77.98972845 28.99613582 C86.07655906 28.99838921 94.16338756 28.99870265 102.25021839 28.997612 C103.39879373 28.99745877 104.54736907 28.99730553 105.73074973 28.99714766 C108.06366046 28.99682795 110.3965712 28.99650374 112.72948194 28.99617507 C134.63321395 28.9933198 156.53694178 28.99660803 178.44067311 29.00197543 C197.25729691 29.00644351 216.07391453 29.00566759 234.89053822 29.00105667 C256.71298226 28.99571173 278.53542264 28.99359449 300.35786724 28.99666893 C302.68245792 28.9969875 305.00704861 28.99730187 307.33163929 28.997612 C308.47554524 28.99776628 309.61945119 28.99792055 310.79802096 28.9980795 C318.88023219 28.9989449 326.96244111 28.99748129 335.04465199 28.99513245 C344.88684903 28.99233514 354.7290381 28.99307124 364.57123423 28.99841319 C369.59808097 29.00105115 374.62491439 29.00205369 379.65176105 28.99876404 C384.24576609 28.995803 388.83974534 28.99739065 393.43374801 29.00274159 C395.10330738 29.0038666 396.7728689 29.00327276 398.44242692 29.0008658 C400.6966774 28.99786307 402.95083731 29.00090497 405.20508289 29.00558662 C407.0901508 29.00583015 407.0901508 29.00583015 409.0133009 29.0060786 C411.79092884 29.13142776 411.79092884 29.13142776 412.79092884 30.13142776 C412.89293616 31.71074185 412.92491378 33.29461925 412.92959404 34.87721729 C412.93506848 35.91029343 412.94054293 36.94336957 412.94618326 38.00775105 C412.94765042 39.73096283 412.94765042 39.73096283 412.94914722 41.48898697 C412.9540852 42.69857289 412.95902318 43.90815882 412.96411079 45.15439886 C412.97686835 48.5270144 412.98512524 51.89958822 412.99153745 55.27221835 C412.9995186 58.90346701 413.01322418 62.53469445 413.02624989 66.16592789 C413.04804519 72.46232885 413.06617845 78.75873193 413.08185482 85.05515099 C413.10452572 94.15882004 413.13267234 103.26246561 413.1621741 112.36611479 C413.20988418 127.1346365 413.25313907 141.90316779 413.29361439 156.67171097 C413.33295196 171.02165345 413.37437399 185.37158741 413.41861439 199.72151566 C413.42133866 200.60540362 413.42406293 201.48929159 413.42686976 202.39996404 C413.44054895 206.83397861 413.45426928 211.26799304 413.46801007 215.70200741 C413.5820285 252.51179655 413.68875209 289.32160396 413.79092884 326.13142776 C421.05092884 326.13142776 428.31092884 326.13142776 435.79092884 326.13142776 C435.88218212 288.17679172 435.95296903 250.2221752 435.99519016 212.26745158 C436.00019298 207.7864005 436.00537027 203.30534962 436.0106554 198.82429886 C436.01170464 197.93220353 436.01275389 197.04010819 436.01383492 196.12097967 C436.03123945 181.676897 436.06277741 167.23287803 436.09954002 152.78883314 C436.13694811 137.96755584 436.15916441 123.14631189 436.16728282 108.32498932 C436.17277087 99.17965529 436.19010346 90.03450129 436.22259471 80.88922268 C436.24374095 74.61768553 436.25012864 68.34624142 436.24493435 62.07467121 C436.24237273 58.45643055 436.24629533 54.83850445 436.26775074 51.22031975 C436.29085719 47.29498384 436.28287347 43.37005666 436.27194691 39.44466019 C436.28359827 38.30456938 436.29524964 37.16447857 436.30725408 35.98983955 C436.24890325 28.24217777 435.07357534 22.87742993 429.82608509 16.88924026 C429.17510853 16.35041214 428.52413197 15.81158401 427.85342884 15.25642776 C427.2050304 14.70213089 426.55663197 14.14783401 425.88858509 13.57674026 C421.1849292 10.33586005 417.17233074 9.88031996 411.51380157 9.87415886 C410.78780519 9.87065278 410.0618088 9.86714671 409.31381252 9.86353439 C406.87411701 9.85420928 404.43465962 9.85914654 401.99495411 9.86400223 C400.23092384 9.86026653 398.46689522 9.85566533 396.70286924 9.85027158 C391.84971838 9.83801626 386.99663632 9.83830503 382.14347351 9.84066033 C376.91158314 9.84106786 371.67971502 9.8300355 366.44783497 9.8205452 C356.19546328 9.8039204 345.94311458 9.79843498 335.69073053 9.79732044 C327.35853431 9.79637068 319.02634569 9.79226398 310.69415188 9.78591919 C287.07975191 9.76830283 263.46537014 9.75908095 239.85096356 9.76058014 C238.57745825 9.76066005 237.30395295 9.76073996 235.99185658 9.7608223 C234.71679944 9.76090406 233.44174231 9.76098582 232.12804709 9.76107006 C211.46025309 9.7618831 190.79253196 9.74274198 170.12475904 9.71454556 C148.91196413 9.68583355 127.69920477 9.67200434 106.48638994 9.67373312 C94.57349466 9.67439759 82.66067576 9.66887998 70.74779797 9.64737701 C60.60539913 9.62918738 50.46311129 9.62479966 40.32070323 9.63839586 C35.14504366 9.64493666 29.96959716 9.64500255 24.79395771 9.62768936 C20.05590834 9.61200285 15.3182418 9.614777 10.58020202 9.63225763 C8.86622148 9.63533728 7.15221269 9.63165892 5.43826547 9.62053747 C-9.40522411 9.47073944 -9.40522411 9.47073944 -21.08407116 18.06892776 Z M4.79092884 37.13142776 C4.79092884 132.50142776 4.79092884 227.87142776 4.79092884 326.13142776 C136.79092884 326.13142776 268.79092884 326.13142776 404.79092884 326.13142776 C404.79092884 230.76142776 404.79092884 135.39142776 404.79092884 37.13142776 C272.79092884 37.13142776 140.79092884 37.13142776 4.79092884 37.13142776 Z M-26.20907116 335.13142776 C-28.79199852 359.41765494 -28.79199852 359.41765494 -20.27938366 378.37361526 C-19.63743053 378.91244339 -18.99547741 379.45127151 -18.33407116 380.00642776 C-17.69727428 380.56072464 -17.06047741 381.11502151 -16.40438366 381.68611526 C-11.46366386 384.93890232 -6.65049196 385.38233891 -0.84292412 385.38869667 C-0.11945023 385.39220275 0.60402366 385.39570882 1.34942099 385.39932114 C3.7745246 385.40862759 6.19938768 385.40371381 8.62450123 385.3988533 C10.38043227 385.40258994 12.13636165 385.40719151 13.89228839 385.41258395 C18.71844627 385.42482762 23.5445349 385.42455187 28.37070477 385.4221952 C33.57532994 385.42178738 38.77993281 385.43282282 43.98454762 385.44231033 C54.18163817 385.45892865 64.3787056 385.46442025 74.57580856 385.46553509 C82.86363589 385.46648514 91.15145559 385.47059328 99.43928051 385.47693634 C122.93203163 385.49455077 146.42476446 385.50377486 169.91752223 385.50227539 C171.18422541 385.50219548 172.4509286 385.50211557 173.75601673 385.50203323 C175.65838887 385.50191059 175.65838887 385.50191059 177.59919276 385.50178547 C198.15631683 385.50097244 218.71336766 385.52011383 239.27047054 385.54830997 C260.37369076 385.57702699 281.47687524 385.59085092 302.5801155 385.58912241 C314.42987071 385.58845812 326.27954914 385.59396775 338.12928677 385.61547852 C348.21783418 385.63367471 358.30626998 385.63805044 368.39482669 385.62445967 C373.54226381 385.61792226 378.68948672 385.61784083 383.83690357 385.63516617 C388.55029364 385.65086752 393.26329912 385.64806325 397.97667965 385.6305979 C399.68055395 385.62752155 401.38445676 385.6311843 403.08829746 385.64231806 C412.79732325 385.70155304 421.33840276 385.71009324 429.13077259 379.16658401 C429.92161243 378.19011917 429.92161243 378.19011917 430.72842884 377.19392776 C431.27370228 376.54552933 431.81897572 375.89713089 432.38077259 375.22908401 C440.43222605 363.2522682 435.79092884 350.14514283 435.79092884 335.13142776 C283.33092884 335.13142776 130.87092884 335.13142776 -26.20907116 335.13142776 Z M155.79092884 396.13142776 C155.272579 399.1664699 154.80881016 402.19265695 154.38077259 405.24080276 C154.24901127 406.15976334 154.11724995 407.07872391 153.98149586 408.02553177 C153.70296049 409.97557906 153.4265287 411.92592777 153.15201283 413.87654495 C152.73207146 416.85558723 152.30400532 419.8333789 151.87491322 422.81111526 C151.60554245 424.7042747 151.33664691 426.59750182 151.06827259 428.49080276 C150.94016697 429.38055801 150.81206135 430.27031326 150.68007374 431.18703079 C150.56317692 432.02429703 150.4462801 432.86156326 150.32584095 433.7242012 C150.2222678 434.45620743 150.11869465 435.18821365 150.01198292 435.94240189 C149.77110417 438.32774497 149.79092884 440.73395321 149.79092884 443.13142776 C186.09092884 443.13142776 222.39092884 443.13142776 259.79092884 443.13142776 C258.56449923 432.0935613 257.31214318 421.11505875 255.72842884 410.13142776 C255.55504993 408.89392776 255.38167103 407.65642776 255.20303822 406.38142776 C255.03481556 405.20580276 254.8665929 404.03017776 254.69327259 402.81892776 C254.46885487 401.24691605 254.46885487 401.24691605 254.23990345 399.64314651 C253.91553124 397.14492448 253.91553124 397.14492448 252.79092884 395.13142776 C240.29135784 395.10830633 227.79179189 395.0905137 215.2922039 395.07961559 C209.48879271 395.07438633 203.68539609 395.06728789 197.88199329 395.05598831 C192.28642031 395.04516098 186.69086139 395.03915126 181.09527874 395.03655052 C178.9553394 395.03469599 176.81540088 395.03107486 174.67546749 395.02569771 C171.68927918 395.01848932 168.70314977 395.01743674 165.71695423 395.01790237 C164.82287861 395.0143071 163.92880299 395.01071182 163.00763416 395.0070076 C159.08550961 394.62147911 159.08550961 394.62147911 155.79092884 396.13142776 Z M112.47842884 459.25642776 C111.98729603 459.77463089 111.49616322 460.29283401 110.99014759 460.82674026 C109.14210106 464.03990189 109.14210106 464.03990189 108.79092884 472.13142776 C172.15092884 472.13142776 235.51092884 472.13142776 300.79092884 472.13142776 C299.73293922 463.22230808 299.73293922 463.22230808 294.36719418 456.7846489 C287.57169205 451.70182013 279.8252491 452.44286451 271.73965931 452.51619339 C270.11276134 452.51268862 268.48586681 452.50702604 266.85898304 452.4993782 C262.45813842 452.48517382 258.05792188 452.50214741 253.65713739 452.52566338 C249.04484647 452.54582105 244.43258038 452.53989038 239.82025623 452.53755569 C232.07811637 452.5376092 224.33622108 452.55733041 216.5941515 452.58943558 C207.64856906 452.62635163 198.70330656 452.63510687 189.75765789 452.62813807 C181.14202716 452.62182975 172.52650589 452.63259176 163.91089725 452.65210342 C160.24835237 452.66026906 156.5858635 452.66298853 152.92331028 452.66141129 C148.61070156 452.66053137 144.29839618 452.67477729 139.9858675 452.70063782 C138.40486465 452.70778985 136.82382951 452.70988787 135.24281406 452.70652008 C133.08175702 452.70279522 130.92158036 452.71758613 128.76062489 452.73701859 C126.94829522 452.74261166 126.94829522 452.74261166 125.09935284 452.74831772 C119.97685907 453.34149406 115.91948502 455.41654298 112.47842884 459.25642776 Z " transform="translate(51.20907115936279,14.868572235107422)" style="fill: rgb(71, 111, 255);"/><path d="M0 0 C2.41359143 3.62038715 2.35729889 6.01148768 2.8125 10.3125 C3.48336556 14.74625367 4.31678869 17.43875796 7.91015625 20.390625 C13.98899902 23.50527826 13.98899902 23.50527826 20.5703125 23.3515625 C24.31533598 21.26831793 27.77476111 18.82077838 31.28125 16.36328125 C34 15 34 15 36.42578125 14.96484375 C40.05070942 16.42251593 42.78155494 18.70485081 45.6875 21.25 C46.29601807 21.77996582 46.90453613 22.30993164 47.53149414 22.85595703 C53.40505554 28.12403639 59.27596124 33.98897349 63 41 C62.96266284 46.86940086 59.94726562 50.06107955 56.3984375 54.4375 C54.59252327 57.74666127 55.01818113 59.42974958 56 63 C56.33 63.66 56.66 64.32 57 65 C57.35191406 64.36191406 57.70382812 63.72382813 58.06640625 63.06640625 C58.56011719 62.24011719 59.05382812 61.41382813 59.5625 60.5625 C60.03816406 59.73878906 60.51382813 58.91507813 61.00390625 58.06640625 C63 56 63 56 66.21484375 55.05078125 C70.71596114 54.99039474 73.87871479 55.94328381 78 57.625 C79.05175415 58.05039063 79.05175415 58.05039063 80.12475586 58.484375 C81.4903351 59.05096038 82.85124721 59.62896513 84.20654297 60.21972656 C85.66638262 60.85485419 87.14534568 61.44588495 88.62890625 62.0234375 C90.5625 63 90.5625 63 93 66 C92.96499093 69.60155837 92.54567214 73.08053683 92.125 76.65625 C91.99994845 80.00137898 92.01235779 81.35041579 94.0625 83.9375 C96.64958421 85.98764221 97.99862102 86.00005155 101.34375 85.875 C102.5709375 85.730625 103.798125 85.58625 105.0625 85.4375 C111.48233593 84.71594281 111.48233593 84.71594281 113.84375 86.01171875 C115.30075197 87.94037841 116.11748706 89.74468917 117 92 C117.44730469 93.01707031 117.89460937 94.03414063 118.35546875 95.08203125 C123.40480345 107.23155087 123.40480345 107.23155087 123 113 C120.05590934 116.82480155 116.74132 119.0853773 112 120 C111.76205387 123.87012381 111.86650489 127.2749456 113 131 C115.99181965 133.98672285 119.27959082 136.02163359 123 138 C122.8853415 144.42087617 121.21422071 149.48882162 118.6875 155.3125 C118.39157959 156.00601563 118.09565918 156.69953125 117.79077148 157.4140625 C116.08028053 161.22028596 114.54858922 164.60910655 111 167 C107.72265625 166.99609375 107.72265625 166.99609375 104.0625 166.4375 C98.6453185 165.87770421 98.6453185 165.87770421 93.5625 167.5625 C91.33704367 172.45850393 92.15531328 176.57407736 92.8984375 181.8203125 C93 185 93 185 91.8984375 186.73828125 C85.60444974 190.92132249 78.44543605 194.54011058 71 196 C69.845 196.2475 68.69 196.495 67.5 196.75 C64 196 64 196 62.3203125 193.765625 C61.76085937 192.85296875 61.20140625 191.9403125 60.625 191 C58.33612007 187.29960063 58.33612007 187.29960063 54.8046875 184.984375 C52.04068023 184.70328951 50.53287657 184.82611781 48 186 C45.99139869 188.46297835 44.40152082 191.05777978 42.72265625 193.75390625 C41 196 41 196 37.375 196.9375 C28.88288579 195.78098639 18.46331648 191.75723989 12 186 C10.22457556 182.03140419 11.25904263 178.19875844 12 174 C9.28883738 174.82554433 7.30680592 175.43387455 5 177 C3.99139882 179.75580877 3.50328826 181.6660028 3.1875 184.5 C2.17405063 191.73892405 2.17405063 191.73892405 0 195 C-11.60627445 199.23074722 -27.24923625 197.84251737 -39 195 C-41.11293829 188.63460728 -42.46048934 182.68993219 -43 176 C-43.58007812 175.80664062 -44.16015625 175.61328125 -44.7578125 175.4140625 C-52 173 -52 173 -54.92578125 171.66015625 C-58.08450067 170.64662302 -58.08450067 170.64662302 -61.03515625 172.51953125 C-62.53369141 173.65455078 -62.53369141 173.65455078 -64.0625 174.8125 C-70.93956835 179.95481237 -70.93956835 179.95481237 -75 180 C-84.48270684 175.08623373 -96.18830519 164.75547536 -101 155 C-101.56372882 151.08580747 -101.29770011 149.46441218 -99.14453125 146.10546875 C-98.37496094 145.14253906 -97.60539062 144.17960938 -96.8125 143.1875 C-93.8107054 139.17750785 -93.8107054 139.17750785 -93.06640625 134.43359375 C-93.86880433 132.14268907 -94.86248686 130.14166267 -96 128 C-96.69239708 126.00876151 -97.36433717 124.01006896 -98 122 C-99.03640625 121.81824219 -100.0728125 121.63648438 -101.140625 121.44921875 C-102.51052204 121.19588163 -103.88030806 120.9419437 -105.25 120.6875 C-105.93191406 120.56955078 -106.61382812 120.45160156 -107.31640625 120.33007812 C-111.21206947 119.59254965 -114.29746397 119.00060985 -117 116 C-120.73100737 103.61023968 -119.04409859 90.50185301 -117 78 C-115.71139947 77.53311575 -114.41883668 77.07717129 -113.125 76.625 C-112.30773437 76.33625 -111.49046875 76.0475 -110.6484375 75.75 C-108 75 -108 75 -105.3515625 74.8125 C-102.47178088 74.60494817 -100.56659046 74.35013353 -98 73 C-95.3908461 68.91195068 -93.80174843 64.78185671 -93 60 C-94.19579368 55.4586712 -96.98169884 52.09146016 -99.7578125 48.37890625 C-101.36150784 45.30767839 -101.44823337 43.42610063 -101 40 C-95.62068057 30.78040348 -85.01762938 19.20447949 -75 15 C-70.34776476 15.1500721 -67.985256 17.49296139 -64.5 20.375 C-59.87664674 23.62411689 -59.87664674 23.62411689 -54.3984375 23.4140625 C-51.14806968 22.10959116 -48.09783427 20.6275189 -45 19 C-44.34 19 -43.68 19 -43 19 C-42.814375 17.0509375 -42.814375 17.0509375 -42.625 15.0625 C-42.23782032 11.71047863 -41.7964187 8.38191523 -41.1875 5.0625 C-41.05730469 4.33160156 -40.92710937 3.60070312 -40.79296875 2.84765625 C-40 1 -40 1 -38.36328125 -0.19140625 C-28.24538426 -3.65323216 -9.98219684 -4.25209751 0 0 Z M-32 8 C-32.18175781 9.12019531 -32.36351562 10.24039063 -32.55078125 11.39453125 C-32.80405921 12.86729569 -33.05800016 14.33994622 -33.3125 15.8125 C-33.43044922 16.55048828 -33.54839844 17.28847656 -33.66992188 18.04882812 C-34.62104889 23.4385479 -34.62104889 23.4385479 -36.2734375 25.88671875 C-38.53012003 27.34181947 -40.76448871 28.15418712 -43.3125 29 C-46.50682602 30.09279574 -49.31735827 31.16766097 -52.3125 32.75 C-55.58693243 34.27299183 -57.40574088 34.3650759 -61 34 C-64.2109375 32.25 -64.2109375 32.25 -67.375 30 C-68.43460938 29.2575 -69.49421875 28.515 -70.5859375 27.75 C-71.38257813 27.1725 -72.17921875 26.595 -73 26 C-77.47506476 28.3867012 -80.72808636 31.42629352 -84.25 35 C-84.79140625 35.53367187 -85.3328125 36.06734375 -85.890625 36.6171875 C-88.30832895 39.04697997 -89.90179449 40.70538346 -91 44 C-89.36833459 46.67708596 -89.36833459 46.67708596 -87.125 49.4375 C-82.52519933 55.32748866 -82.52519933 55.32748866 -82 59 C-82.49731445 60.93530273 -82.49731445 60.93530273 -83.36328125 62.93359375 C-83.67330078 63.66513672 -83.98332031 64.39667969 -84.30273438 65.15039062 C-84.63595703 65.90513672 -84.96917969 66.65988281 -85.3125 67.4375 C-85.95443086 68.9361963 -86.59635804 70.43489418 -87.23828125 71.93359375 C-87.55434326 72.63758301 -87.87040527 73.34157227 -88.19604492 74.06689453 C-89.10901951 76.11882218 -89.10901951 76.11882218 -89.6953125 78.89453125 C-91.28896294 81.46632043 -92.02955714 81.54632493 -94.87890625 82.328125 C-96.43564624 82.65725673 -97.99729968 82.96379194 -99.5625 83.25 C-104.69292154 83.85004434 -104.69292154 83.85004434 -109 86 C-109.08713831 87.70772358 -109.10700007 89.41898649 -109.09765625 91.12890625 C-109.09443359 92.16337891 -109.09121094 93.19785156 -109.08789062 94.26367188 C-109.07532227 95.8965918 -109.07532227 95.8965918 -109.0625 97.5625 C-109.05798828 98.65498047 -109.05347656 99.74746094 -109.04882812 100.87304688 C-109.03699826 103.58208495 -109.02051543 106.29101599 -109 109 C-106.36312637 110.43735043 -104.82310257 111.01768974 -101.7578125 111.32421875 C-97.73235044 111.72676496 -94.68056289 112.29009854 -91 114 C-88.57055215 117.68178618 -87.29253594 121.08374241 -86.078125 125.2890625 C-85.17312748 128.40409021 -84.23150158 130.37094111 -82.5625 133.0625 C-81.92789903 137.50470676 -81.92789903 137.50470676 -83.828125 140.58984375 C-84.22185303 141.23236084 -84.61558105 141.87487793 -85.02124023 142.53686523 C-86.92469672 145.43073811 -88.92914726 148.22326337 -91 151 C-88.22838503 155.42278984 -85.16484139 159.14552041 -81.4375 162.8125 C-80.71530273 163.54629883 -80.71530273 163.54629883 -79.97851562 164.29492188 C-77.66256209 166.59813288 -76.1430292 167.9523236 -73 169 C-69.89181355 167.10279529 -67.03333953 164.94858929 -64.10546875 162.78515625 C-60.57707083 160.75688222 -58.99563126 160.42624182 -55 161 C-51.78125 162.2421875 -51.78125 162.2421875 -48.5 163.875 C-45.19486908 165.50395738 -42.29351738 166.9286227 -38.70703125 167.80078125 C-36 169 -36 169 -34.79296875 171.86328125 C-34.59316406 173.00152344 -34.39335937 174.13976562 -34.1875 175.3125 C-33.86845703 177.00826172 -33.86845703 177.00826172 -33.54296875 178.73828125 C-33.36378906 179.81464844 -33.18460937 180.89101563 -33 182 C-32.67182022 183.6676891 -32.34053995 185.33479088 -32 187 C-23.47747173 187.73861912 -15.50048579 188.20400323 -7 187 C-6.78085938 185.80761719 -6.56171875 184.61523438 -6.3359375 183.38671875 C-6.01697247 181.82003756 -5.69658524 180.25364545 -5.375 178.6875 C-5.23449219 177.90181641 -5.09398437 177.11613281 -4.94921875 176.30664062 C-4.46942205 174.05159612 -3.98578706 172.08608475 -3 170 C0.1484375 167.95703125 0.1484375 167.95703125 3 167 C3 166.67 3 166.34 3 166 C-0.63 166 -4.26 166 -8 166 C-16 150 -16 150 -16.94213867 147.79980469 C-17.29123291 147.20586914 -17.64032715 146.61193359 -18 146 C-20.96120284 145.21649983 -20.96120284 145.21649983 -24.4375 145 C-38.97190684 143.26122127 -48.72303359 137.55145275 -58.2109375 126.45703125 C-66.1772098 115.51645204 -68.06398806 103.22005159 -67 90 C-64.89883165 79.27926601 -60.3166254 69.27704722 -52 62 C-51.113125 61.175 -50.22625 60.35 -49.3125 59.5 C-37.82908241 50.11792944 -24.2282777 48.80437211 -10 50 C-2.15857694 51.45340472 4.08476937 54.95658388 10.625 59.4140625 C11.40875 59.93742187 12.1925 60.46078125 13 61 C13.65355469 61.44601563 14.30710937 61.89203125 14.98046875 62.3515625 C17.08933732 63.24580603 17.08933732 63.24580603 19.55078125 62.171875 C20.46214844 61.70265625 21.37351562 61.2334375 22.3125 60.75 C33.79582425 55.13830892 33.79582425 55.13830892 40 56 C41.640625 57.51953125 41.640625 57.51953125 43 59 C43.31453125 58.41992188 43.6290625 57.83984375 43.953125 57.2421875 C46.45354343 52.67817073 49.03772765 48.27883784 52 44 C48.59573688 36.5272273 42.25350037 31.10489826 36 26 C32.39486929 27.2965821 29.66635091 28.8762929 26.625 31.1875 C23.60719235 33.20928246 22.38111076 33.97842769 18.6875 34.1875 C13.30891063 32.4554119 8.14013528 30.34319737 3 28 C1.93652344 27.63003906 0.87304688 27.26007813 -0.22265625 26.87890625 C-3.76362082 24.48340139 -4.0866635 22.74736906 -4.94921875 18.69335938 C-5.08972656 17.90767578 -5.23023438 17.12199219 -5.375 16.3125 C-5.62056641 15.11657227 -5.62056641 15.11657227 -5.87109375 13.89648438 C-6.27033203 11.93551986 -6.63827142 9.96822902 -7 8 C-19.515464 6.98490005 -19.515464 6.98490005 -32 8 Z M-49.3125 71.125 C-55.90029984 78.99302006 -59.44393754 89.10060359 -59.2734375 99.34765625 C-58.05304449 111.18546844 -52.79971257 121.27612309 -43.6875 128.875 C-36.38824211 134.17446121 -27.47904821 137.57141141 -18.39453125 137.390625 C-13.87650576 136.65358985 -10.7065422 134.6862541 -8 131 C-6.78475644 127.05630094 -6.68917171 123.92663297 -8 120 C-10.17923565 117.92717234 -12.24746644 116.65736809 -14.93359375 115.31640625 C-17 114 -17 114 -17.91796875 112.2890625 C-18.03960121 108.89493765 -16.98565727 105.9711163 -15.875 102.8125 C-15.64852783 102.14919678 -15.42205566 101.48589355 -15.1887207 100.80249023 C-13.33154737 95.54337996 -11.00067343 90.71169573 -8 86 C-4.10948065 85.91894751 -0.69036615 86.04362393 3.125 86.8125 C7.12604118 87.43695292 7.12604118 87.43695292 9.9375 84.625 C10.618125 83.75875 11.29875 82.8925 12 82 C12.495 81.505 12.495 81.505 13 81 C13.0949899 75.58557549 12.30898853 72.78559066 8.5625 68.8125 C-0.06319095 60.9442622 -10.38348855 57.50905268 -21.94921875 57.75390625 C-32.56861794 58.61052872 -41.94400698 63.49384025 -49.3125 71.125 Z M69 65 C67.99421411 66.28716647 66.99553202 67.57988658 66 68.875 C65.443125 69.59429687 64.88625 70.31359375 64.3125 71.0546875 C62.81356623 72.8852085 62.81356623 72.8852085 63 75 C44.0160181 76.47956693 44.0160181 76.47956693 39.26953125 72.99609375 C37.80342259 70.68290009 36.76555563 68.62476216 36 66 C30.22621075 66.4811491 26.04140164 68.18467181 21 71 C21.0721875 71.91523438 21.144375 72.83046875 21.21875 73.7734375 C21.3115625 74.96195313 21.404375 76.15046875 21.5 77.375 C21.5928125 78.55835938 21.685625 79.74171875 21.78125 80.9609375 C21.90195454 82.63786843 22 84.31873056 22 86 C21.39929688 86.25652344 20.79859375 86.51304687 20.1796875 86.77734375 C17.79205267 88.11664429 16.738932 89.37867676 15.125 91.5625 C13.07652828 94.01964438 12.27128627 94.90354266 9.1875 96 C5.06962013 96 1.0723757 95.58823204 -3 95 C-5.53309233 99.64203897 -7.46515599 103.65155992 -8 109 C-7.3503125 109.26167969 -6.700625 109.52335937 -6.03125 109.79296875 C-2.76761277 111.59099112 -1.11572905 112.8820835 1 116 C2.22575123 122.87993245 1.54481927 130.07008519 1 137 C0.22269531 137.29648438 -0.55460937 137.59296875 -1.35546875 137.8984375 C-3.94750259 138.97813254 -5.83376775 140.23492187 -8 142 C-7.5188509 147.77378925 -5.81532819 151.95859836 -3 157 C-2.175 156.835 -1.35 156.67 -0.5 156.5 C0.655 156.335 1.81 156.17 3 156 C4.216875 155.7525 5.43375 155.505 6.6875 155.25 C11.22653705 155.27644099 13.9039562 158.06565322 17 161.0625 C17.73996216 161.76004395 17.73996216 161.76004395 18.49487305 162.47167969 C21.13683242 165.22533697 21.98074338 166.79693019 22.34375 170.625 C21.98948946 174.10319435 21.56337677 177.54931726 21 181 C22.74552473 181.84266711 24.4966208 182.67380038 26.25 183.5 C27.22453125 183.9640625 28.1990625 184.428125 29.203125 184.90625 C32.12035776 186.24280211 32.12035776 186.24280211 36 186 C37.07019807 183.96911069 37.07019807 183.96911069 38 181.5 C39.68553397 178.74185351 40.94754766 177.28405288 44.11669922 176.42871094 C51.06834 175.46522588 58.96275594 174.8370513 64.86328125 179.0390625 C66.59548595 181.29845994 67.89801665 183.38019054 69 186 C74.34844008 185.46515599 78.35796103 183.53309233 83 181 C82.835 180.07058594 82.67 179.14117187 82.5 178.18359375 C81.16908032 168.21209399 81.16908032 168.21209399 83.609375 164.65234375 C85.75 162.875 85.75 162.875 87.921875 161.4296875 C90.12055639 160.09335212 90.12055639 160.09335212 91.52734375 157.83984375 C92.01332031 157.23269531 92.49929688 156.62554687 93 156 C97.86360359 155.60134397 102.20653152 156.0413063 107 157 C107.82011312 155.44148245 108.63076213 153.87798284 109.4375 152.3125 C109.88996094 151.44238281 110.34242188 150.57226562 110.80859375 149.67578125 C111.95991928 147.09001736 112.56320753 144.78643472 113 142 C112.36191406 141.57847656 111.72382813 141.15695313 111.06640625 140.72265625 C110.24011719 140.17480469 109.41382813 139.62695312 108.5625 139.0625 C107.73878906 138.51722656 106.91507812 137.97195312 106.06640625 137.41015625 C104 136 104 136 103 135 C102.81938395 132.04796394 102.72182421 129.14167037 102.6875 126.1875 C102.64399414 124.95676758 102.64399414 124.95676758 102.59960938 123.70117188 C102.53551753 117.62230662 102.53551753 117.62230662 104.81640625 114.56640625 C107.50280854 112.63930908 110.21051815 110.77512481 113 109 C112.38003999 107.2273959 111.75384007 105.45697333 111.125 103.6875 C110.77695312 102.70136719 110.42890625 101.71523437 110.0703125 100.69921875 C109.04694076 97.84405623 109.04694076 97.84405623 107 95 C106.20078125 95.21140625 105.4015625 95.4228125 104.578125 95.640625 C100.25311054 96.43252906 96.26174857 97.15101398 92.19042969 95.07910156 C88.0113627 92.16557566 84.32625152 88.57109658 82 84 C81.34445473 79.3720461 81.80950602 75.50064798 83 71 C81.41925436 70.18247697 79.83528777 69.37118003 78.25 68.5625 C77.36828125 68.11003906 76.4865625 67.65757812 75.578125 67.19140625 C73.35801434 66.16544602 71.38555381 65.48491397 69 65 Z " transform="translate(254,99)" style="fill: rgb(71, 111, 255);"/><path d="M0 0 C9.87059859 6.32600219 16.51866726 14.04441167 19.2734375 25.45703125 C20.48785042 37.76734326 18.97524981 48.02369247 10.9609375 57.89453125 C3.01103092 66.15283938 -6.37572947 69.52519829 -17.7265625 69.89453125 C-27.61825359 69.6477754 -35.49481717 66.19003552 -42.7265625 59.45703125 C-50.28036159 51.34369148 -53.39168633 42.52182309 -53.26513672 31.49780273 C-52.79076461 21.40130494 -48.77564627 13.56388133 -41.8359375 6.36328125 C-31.06421107 -3.37116782 -13.36585294 -6.45484024 0 0 Z M-38.7265625 17.45703125 C-42.68009119 23.47990003 -44.19903888 29.25176639 -43.7265625 36.45703125 C-41.98166158 44.67876781 -37.94890606 51.5147757 -30.9765625 56.33203125 C-26.50157019 58.90775357 -21.79539259 59.76110581 -16.7265625 60.45703125 C-18.0231446 56.85190054 -19.6028554 54.12338216 -21.9140625 51.08203125 C-23.95991699 48.03330692 -24.70631139 46.8215513 -24.9140625 43.08203125 C-23.57660684 38.99927188 -21.93446768 35.17290709 -20.078125 31.30078125 C-18.60305204 28.37842129 -18.60305204 28.37842129 -17.60546875 24.765625 C-15.58850526 21.21392422 -15.36551152 20.94884236 -11.71484375 19.8984375 C-10.16234407 19.5747248 -8.60299107 19.2825381 -7.0390625 19.01953125 C-6.24177734 18.86033203 -5.44449219 18.70113281 -4.62304688 18.53710938 C-2.66275644 18.14974659 -0.69516212 17.799674 1.2734375 17.45703125 C0.89354807 13.64749051 0.89354807 13.64749051 -1.6171875 10.91015625 C-2.39578125 10.513125 -3.174375 10.11609375 -3.9765625 9.70703125 C-4.74484375 9.2996875 -5.513125 8.89234375 -6.3046875 8.47265625 C-18.8008231 3.23234132 -30.15781041 7.8236246 -38.7265625 17.45703125 Z M8.2734375 24.45703125 C-0.99023087 25.42927545 -0.99023087 25.42927545 -9.7265625 28.45703125 C-13.35532052 33.0776498 -14.98300317 38.11304486 -14.53125 44.00390625 C-13.50980824 47.11781607 -11.97243405 49.54053419 -10.1640625 52.26953125 C-9.52339844 53.24535156 -8.88273437 54.22117187 -8.22265625 55.2265625 C-7.48208984 56.33064453 -7.48208984 56.33064453 -6.7265625 57.45703125 C0.5847013 55.4753763 4.68615249 50.90097261 8.44921875 44.4375 C10.63497237 39.35122024 10.98908468 33.92197335 10.2734375 28.45703125 C9.32998758 26.22377046 9.32998758 26.22377046 8.2734375 24.45703125 Z " transform="translate(322.7265625,191.54296875)" style="fill: rgb(71, 111, 255);"/></svg>