<?xml version="1.0" encoding="utf-8"?>
<svg version="1.1" xmlns="http://www.w3.org/2000/svg" width="512" height="512" xmlns:bx="https://boxy-svg.com" viewBox="0 0 512 512"><defs><bx:export><bx:file format="svg" path="Bez nazwy.svg"/></bx:export></defs><path d="M0 0 C1.8065938 -0.00417554 3.61318498 -0.00965426 5.41977131 -0.01631981 C10.3721422 -0.03076427 15.32434652 -0.02653278 20.27672648 -0.019153 C25.62244778 -0.01442117 30.96813304 -0.02693133 36.31384277 -0.03717041 C46.78192022 -0.05436348 57.24993765 -0.05519735 67.71802555 -0.04995751 C76.22697201 -0.04591549 84.73590073 -0.04735975 93.24484634 -0.05270576 C95.06166564 -0.0538284 95.06166564 -0.0538284 96.91518835 -0.05497371 C99.3757975 -0.05650519 101.83640665 -0.05804354 104.2970158 -0.05958868 C127.37043775 -0.07331559 150.4438258 -0.0678747 173.51724698 -0.05640347 C194.62248619 -0.04647112 215.72763774 -0.05941148 236.83286344 -0.08333766 C258.50797846 -0.10772461 280.18305265 -0.1173375 301.85818112 -0.11068493 C314.02541282 -0.10719179 326.1925771 -0.10943107 338.35979843 -0.12693596 C348.71758071 -0.14165286 359.07524808 -0.14230001 369.43302809 -0.12486505 C374.71642055 -0.1163485 379.9996077 -0.11422165 385.2829895 -0.1295166 C390.12281323 -0.14335391 394.96225555 -0.13861266 399.80205716 -0.11927737 C401.54961586 -0.11551414 403.29720504 -0.11844863 405.04473661 -0.12888902 C417.04473274 -0.19546368 427.81814821 0.69294624 437.51199341 8.55174255 C443.4067601 14.39676438 447.96347168 21.23058034 448.61655557 29.64885455 C448.61866885 31.43343681 448.61866885 31.43343681 448.62082481 33.25407124 C448.62433089 33.92351716 448.62783696 34.59296309 448.63144928 35.28269526 C448.64074689 37.52401643 448.63584429 39.76507683 448.63098145 42.00640869 C448.63471853 43.63034628 448.63932029 45.25428207 448.64471209 46.87821501 C448.65695023 51.33952411 448.65668066 55.80075826 448.65432334 60.26208031 C448.65391538 65.07406466 448.6649523 69.88602491 448.67443848 74.69799805 C448.69105378 84.12505792 448.69654826 93.55209278 448.69766323 102.97916607 C448.69861343 110.64151684 448.7027223 118.30385935 448.70906448 125.9662075 C448.72667812 147.68815803 448.73590313 169.41008878 448.73440354 191.1320465 C448.73432362 192.30316583 448.73424371 193.47428515 448.73416138 194.68089294 C448.73407962 195.85344136 448.73399785 197.02598978 448.73391362 198.23406997 C448.73310062 217.23923026 448.75224143 236.24431132 448.78043811 255.24944869 C448.80915872 274.76161188 448.82297887 294.27373641 448.82125056 313.78592128 C448.82058639 324.74141739 448.82609066 335.69683043 448.84760666 346.65230751 C448.86580758 355.97962342 448.8701747 365.30681861 448.85658781 374.63414458 C448.85005276 379.39273693 448.84996039 384.15109759 448.86729431 388.90966797 C448.88300622 393.26778747 448.8801807 397.62549121 448.86272605 401.98360046 C448.85965201 403.55826984 448.86330378 405.13297011 448.8744462 406.70760307 C448.92920352 414.99629172 448.76077211 422.11509861 444.36355591 429.38768005 C443.90593872 430.18560974 443.44832153 430.98353943 442.97683716 431.8056488 C437.29336383 439.53722063 429.78475982 444.34936287 420.36355591 446.38768005 C414.48462154 446.83332957 408.62004904 446.79749132 402.72711182 446.77536011 C400.92051801 446.77953564 399.11392683 446.78501437 397.3073405 446.79167992 C392.35496962 446.80612437 387.4027653 446.80189289 382.45038533 446.79451311 C377.10466404 446.78978128 371.75897877 446.80229144 366.41326904 446.81253052 C355.9451916 446.82972359 345.47717417 446.83055745 335.00908627 446.82531761 C326.50013981 446.8212756 317.99121108 446.82271986 309.48226547 446.82806587 C307.66544618 446.82918851 307.66544618 446.82918851 305.81192347 446.83033382 C303.35131431 446.8318653 300.89070516 446.83340365 298.43009602 446.83494879 C275.35667406 446.84867569 252.28328602 446.84323481 229.20986484 446.83176357 C208.10462562 446.82183122 186.99947408 446.83477159 165.89424838 446.85869776 C144.21913336 446.88308472 122.54405917 446.89269761 100.8689307 446.88604504 C88.70169899 446.8825519 76.53453472 446.88479118 64.36731339 446.90229607 C54.00953111 446.91701297 43.65186374 446.91766011 33.29408373 446.90022516 C28.01069126 446.89170861 22.72750411 446.88958176 17.44412231 446.90487671 C12.60429859 446.91871401 7.76485626 446.91397276 2.92505465 446.89463747 C1.17749595 446.89087424 -0.57009323 446.89380874 -2.31762479 446.90424912 C-14.31762092 446.97082379 -25.0910364 446.08241386 -34.78488159 438.22361755 C-40.67964828 432.37859573 -45.23635986 425.54477976 -45.88944376 417.12650555 C-45.89085261 415.93678405 -45.89226146 414.74706254 -45.893713 413.52128887 C-45.89721907 412.85184294 -45.90072515 412.18239701 -45.90433747 411.49266484 C-45.91363508 409.25134368 -45.90873247 407.01028328 -45.90386963 404.76895142 C-45.90760672 403.14501383 -45.91220847 401.52107803 -45.91760027 399.89714509 C-45.92983842 395.435836 -45.92956885 390.97460185 -45.92721152 386.5132798 C-45.92680356 381.70129545 -45.93784048 376.8893352 -45.94732666 372.07736206 C-45.96394196 362.65030219 -45.96943644 353.22326733 -45.97055142 343.79619404 C-45.97150161 336.13384327 -45.97561048 328.47150076 -45.98195267 320.8091526 C-45.99956631 299.08720208 -46.00879131 277.36527132 -46.00729172 255.64331361 C-46.00721181 254.47219428 -46.00713189 253.30107495 -46.00704956 252.09446716 C-46.0069678 250.92191875 -46.00688604 249.74937033 -46.0068018 248.54129014 C-46.0059888 229.53612985 -46.02512962 210.53104879 -46.05332629 191.52591141 C-46.08204691 172.01374823 -46.09586705 152.5016237 -46.09413874 132.98943883 C-46.09347457 122.03394272 -46.09897884 111.07852968 -46.12049484 100.1230526 C-46.13869576 90.79573668 -46.14306289 81.4685415 -46.129476 72.14121553 C-46.12294095 67.38262318 -46.12284857 62.62426252 -46.1401825 57.86569214 C-46.1558944 53.50757263 -46.15306888 49.1498689 -46.13561423 44.79175965 C-46.13254019 43.21709026 -46.13619196 41.64238999 -46.14733438 40.06775703 C-46.2020917 31.77906839 -46.03366029 24.6602615 -41.63644409 17.38768005 C-41.1788269 16.58975037 -40.72120972 15.79182068 -40.24972534 14.9697113 C-30.00394267 1.0317547 -16.01580439 -0.06014812 0 0 Z M-27.01144409 22.57518005 C-27.47292847 23.08435974 -27.93441284 23.59353943 -28.40988159 24.1181488 C-39.87489623 45.33207716 -31.63644409 72.27383928 -31.63644409 96.38768005 C122.14355591 96.38768005 275.92355591 96.38768005 434.36355591 96.38768005 C440.19247416 55.91003221 440.19247416 55.91003221 429.17605591 22.01268005 C428.35041138 21.07295349 428.35041138 21.07295349 427.50808716 20.11424255 C422.28958043 15.91282184 417.32190463 15.01252333 410.74662876 15.00736332 C410.00819444 15.0027034 409.26976013 14.99804348 408.50894901 14.99324235 C406.03887991 14.98130811 403.56936247 14.9906815 401.09928894 15 C399.30878234 14.9958264 397.51827838 14.99034873 395.72777933 14.98368019 C390.81070396 14.96921044 385.89379599 14.9734751 380.97671139 14.980847 C375.67259398 14.98557255 370.3685131 14.97307427 365.06440735 14.96282959 C354.67460021 14.94562444 344.2848535 14.94480511 333.89503581 14.95004249 C325.45132844 14.9540821 317.00763894 14.95264312 308.56393242 14.94729424 C307.36268385 14.94654581 306.16143529 14.94579739 304.92378525 14.94502629 C302.48354383 14.94349483 300.04330242 14.94195648 297.60306101 14.94041132 C274.71381941 14.92668016 251.82461198 14.93212839 228.93537115 14.94359653 C207.989641 14.95353036 187.04399917 14.94058672 166.09828264 14.91666234 C144.59613724 14.89228724 123.09403301 14.88265951 101.59187406 14.88931507 C89.5180466 14.89281072 77.44428708 14.89055237 65.37047005 14.87306404 C55.09270238 14.85836198 44.8150505 14.85768055 34.53728516 14.87513495 C29.2927578 14.88366359 24.04843746 14.88574897 18.80392075 14.8704834 C14.00303167 14.85668201 9.20252786 14.86134082 4.40166133 14.88072263 C2.66486334 14.88449693 0.92803482 14.88151966 -0.80873608 14.87111098 C-15.32997117 14.61074457 -15.32997117 14.61074457 -27.01144409 22.57518005 Z M-31.63644409 111.38768005 C-31.67769409 160.70205505 -31.71894409 210.01643005 -31.76144409 260.82518005 C-31.7796521 276.40535339 -31.79786011 291.98552673 -31.81661987 308.03782654 C-31.82330809 321.9846721 -31.82330809 321.9846721 -31.82733154 335.93151855 C-31.82919737 342.1511384 -31.83653698 348.37072236 -31.84759521 354.59033203 C-31.86033144 361.76432321 -31.86611466 368.93827995 -31.86333399 376.11228252 C-31.86212983 379.78160029 -31.86403111 383.45084109 -31.87487435 387.12014472 C-31.8864233 391.05220192 -31.88242708 394.98415695 -31.87695312 398.91622925 C-31.88277845 400.05696931 -31.88860378 401.19770937 -31.89460564 402.37301731 C-31.94273612 414.44069519 -31.94273612 414.44069519 -26.44894409 424.76268005 C-25.8985144 425.38916443 -25.34808472 426.0156488 -24.78097534 426.66111755 C-19.56246861 430.86253827 -14.59479282 431.76283678 -8.01951694 431.76799679 C-7.28108263 431.77265671 -6.54264831 431.77731663 -5.7818372 431.78211775 C-3.3117681 431.794052 -0.84225065 431.78467861 1.62782288 431.77536011 C3.41832948 431.77953371 5.20883344 431.78501137 6.99933249 431.79167992 C11.91640786 431.80614967 16.83331583 431.801885 21.75040042 431.79451311 C27.05451784 431.78978756 32.35859872 431.80228584 37.66270447 431.81253052 C48.05251161 431.82973566 58.44225832 431.83055499 68.83207601 431.82531761 C77.27578338 431.821278 85.71947288 431.82271699 94.1631794 431.82806587 C95.36442796 431.82881429 96.56567653 431.82956272 97.80332657 431.83033382 C100.24356798 431.83186528 102.6838094 431.83340362 105.1240508 431.83494879 C128.01329241 431.84867995 150.90249984 431.84323172 173.79174066 431.83176357 C194.73747081 431.82182975 215.68311265 431.83477338 236.62882917 431.85869776 C258.13097457 431.88307287 279.63307881 431.89270059 301.13523775 431.88604504 C313.20906522 431.88254939 325.28282474 431.88480773 337.35664177 431.90229607 C347.63440944 431.91699813 357.91206131 431.91767955 368.18982666 431.90022516 C373.43435402 431.89169652 378.67867436 431.88961114 383.92319107 431.90487671 C388.72408015 431.9186781 393.52458395 431.91401929 398.32545049 431.89463747 C400.06224848 431.89086318 401.79907699 431.89384044 403.53584789 431.90424912 C416.82624063 431.98021823 416.82624063 431.98021823 428.38699341 425.7822113 C428.83300903 425.26014099 429.27902466 424.73807068 429.73855591 424.20018005 C430.20004028 423.69100037 430.66152466 423.18182068 431.13699341 422.6572113 C435.04913816 415.41849761 434.64489532 406.91180326 434.60406494 398.91622925 C434.60577698 397.68643341 434.60748901 396.45663757 434.60925293 395.1895752 C434.61197644 391.79076201 434.6057452 388.39218158 434.59570137 384.99339657 C434.5869372 381.26643969 434.58989262 377.53948821 434.5913372 373.81252384 C434.59239843 366.58535031 434.58318417 359.35822667 434.57033455 352.13106594 C434.55591069 343.76742105 434.55434374 335.40380594 434.55276489 327.04014587 C434.5422726 304.96848272 434.51435028 282.89683063 434.48855591 260.82518005 C434.44730591 211.51080505 434.40605591 162.19643005 434.36355591 111.38768005 C280.58355591 111.38768005 126.80355591 111.38768005 -31.63644409 111.38768005 Z " transform="translate(54.636444091796875,32.61231994628906)" style="fill: rgb(71, 111, 255);"/><path d="M0 0 C1.55487373 -0.01564648 1.55487373 -0.01564648 3.14115906 -0.03160906 C4.27849991 -0.02268617 5.41584076 -0.01376328 6.58764648 -0.00457001 C8.40163689 -0.01392995 8.40163689 -0.01392995 10.25227356 -0.02347898 C13.61069497 -0.0366909 16.96822396 -0.03191306 20.32659149 -0.01953411 C23.94765828 -0.01049813 27.56864608 -0.02444609 31.18969727 -0.0354538 C38.28392102 -0.05325923 45.37797568 -0.04939009 52.47220612 -0.03780323 C58.2367746 -0.02877711 64.00129562 -0.02754134 69.76586914 -0.0318985 C70.99558425 -0.0328179 70.99558425 -0.0328179 72.2501421 -0.03375587 C73.91546505 -0.03503474 75.58078799 -0.0363316 77.24611092 -0.03764623 C92.869301 -0.04905796 108.49239727 -0.03592906 124.11557198 -0.01444477 C137.52688339 0.00342676 150.93805632 0.00032282 164.34936523 -0.01811981 C179.91587098 -0.03951609 195.48229447 -0.04795927 211.04881287 -0.03567076 C212.70807901 -0.03439653 214.36734516 -0.03313905 216.02661133 -0.0318985 C216.84304517 -0.0312814 217.65947901 -0.03066429 218.50065327 -0.03002849 C224.25965153 -0.02657186 230.0185977 -0.03241067 235.77758789 -0.04181671 C242.7939737 -0.0530243 249.81018047 -0.05002293 256.82654572 -0.02869374 C260.40784054 -0.01816643 263.98883664 -0.01408969 267.57012939 -0.02729034 C271.44853395 -0.04137015 275.32644715 -0.02458196 279.20483398 -0.00457001 C280.91084526 -0.01795434 280.91084526 -0.01795434 282.65132141 -0.03160906 C283.6879039 -0.02117807 284.72448639 -0.01074708 285.79248047 0 C286.68797104 0.00064941 287.58346161 0.00129882 288.50608826 0.00196791 C291.7043643 0.67288964 292.904583 1.95917231 294.89624023 4.50336456 C295.39624023 8.00336456 295.39624023 8.00336456 294.89624023 11.50336456 C292.904583 14.04755681 291.7043643 15.33383948 288.50608826 16.00476122 C287.61059769 16.00541063 286.71510712 16.00606004 285.79248047 16.00672913 C284.23760674 16.02237561 284.23760674 16.02237561 282.65132141 16.03833818 C281.51398056 16.0294153 280.37663971 16.02049241 279.20483398 16.01129913 C277.39084358 16.02065908 277.39084358 16.02065908 275.54020691 16.03020811 C272.1817855 16.04342003 268.82425651 16.03864218 265.46588898 16.02626324 C261.84482218 16.01722725 258.22383439 16.03117522 254.6027832 16.04218292 C247.50855945 16.05998835 240.41450478 16.05611922 233.32027435 16.04453236 C227.55570587 16.03550624 221.79118484 16.03427047 216.02661133 16.03862762 C214.79689621 16.03954702 214.79689621 16.03954702 213.54233837 16.04048499 C211.87701542 16.04176387 210.21169248 16.04306072 208.54636955 16.04437536 C192.92317947 16.05578708 177.30008319 16.04265819 161.67690849 16.02117389 C148.26559708 16.00330236 134.85442415 16.0064063 121.44311523 16.02484894 C105.87660948 16.04624522 90.310186 16.05468839 74.7436676 16.04239988 C73.08440146 16.04112566 71.42513531 16.03986818 69.76586914 16.03862762 C68.9494353 16.03801052 68.13300146 16.03739342 67.2918272 16.03675762 C61.53282894 16.03330098 55.77388277 16.0391398 50.01489258 16.04854584 C42.99850677 16.05975342 35.9823 16.05675205 28.96593475 16.03542286 C25.38463993 16.02489556 21.80364383 16.02081882 18.22235107 16.03401947 C14.34394652 16.04809928 10.46603332 16.03131108 6.58764648 16.01129913 C4.88163521 16.02468346 4.88163521 16.02468346 3.14115906 16.03833818 C2.10457657 16.0279072 1.06799408 16.01747621 0 16.00672913 C-0.89549057 16.00607972 -1.79098114 16.00543031 -2.71360779 16.00476122 C-5.91188383 15.33383948 -7.11210253 14.04755681 -9.10375977 11.50336456 C-9.60375977 8.00336456 -9.60375977 8.00336456 -9.10375977 4.50336456 C-6.30433941 0.92731571 -4.50262926 0.0032653 0 0 Z " transform="translate(149.103759765625,191.49663543701172)" style="fill: rgb(71, 111, 255);"/><path d="M0 0 C1.04217493 -0.00782324 2.08434986 -0.01564648 3.15810585 -0.02370679 C4.88118241 -0.01366855 4.88118241 -0.01366855 6.6390686 -0.00342751 C7.85641378 -0.00810748 9.07375896 -0.01278745 10.32799339 -0.01760924 C13.71326808 -0.02752864 17.09804583 -0.02392677 20.48329067 -0.01465058 C24.13160886 -0.00788057 27.77988268 -0.01833111 31.42819214 -0.02659035 C38.57767311 -0.03995184 45.72705976 -0.03703923 52.87654448 -0.02835242 C58.68547561 -0.02158576 64.49438026 -0.02065474 70.30331421 -0.02392387 C71.54199173 -0.02461342 71.54199173 -0.02461342 72.80569303 -0.0253169 C74.48309724 -0.02627605 76.16050145 -0.02724869 77.83790565 -0.02823468 C93.57836061 -0.03679564 109.31876321 -0.02694337 125.05920959 -0.01083358 C138.5742995 0.00257025 152.08931212 0.00024236 165.60440063 -0.01358986 C181.28734168 -0.02963321 196.97023679 -0.03597161 212.65318489 -0.02675307 C214.32452519 -0.02579739 215.9958655 -0.02485428 217.66720581 -0.02392387 C218.48960357 -0.02346105 219.31200133 -0.02299822 220.15932024 -0.02252137 C225.96335155 -0.01992774 231.7673538 -0.0243105 237.57138062 -0.03136253 C244.64158865 -0.03976392 251.71169672 -0.03752618 258.78189325 -0.0215203 C262.39136668 -0.01361914 266.00067326 -0.01057715 269.61014557 -0.02046776 C273.51734251 -0.03101251 277.42426439 -0.01844833 281.33145142 -0.00342751 C282.48016912 -0.01011967 283.62888683 -0.01681184 284.81241417 -0.02370679 C286.37567657 -0.01197193 286.37567657 -0.01197193 287.97052002 0 C288.87300791 0.00048706 289.7754958 0.00097411 290.7053318 0.00147593 C292.98526001 0.37752342 292.98526001 0.37752342 294.76743126 1.65502489 C296.4728813 4.0672156 296.44551163 6.45546471 296.57901001 9.34236717 C295.58961499 12.73364879 294.01678157 13.57096381 290.98526001 15.37752342 C287.0799066 15.98342471 283.20156458 15.91672324 279.2562561 15.88545799 C278.05494741 15.89169796 276.85363873 15.89793792 275.61592674 15.90436697 C272.28449509 15.9175642 268.95396508 15.91281152 265.62258816 15.9004221 C262.02878652 15.89137669 258.43506402 15.90533877 254.84127808 15.91634178 C247.80233502 15.93413712 240.76356248 15.93028256 233.72461271 15.91869122 C228.00441303 15.90966114 222.28426116 15.90843105 216.5640564 15.91278648 C215.75022126 15.91339942 214.93638612 15.91401235 214.0978893 15.91464385 C212.44464762 15.91592274 210.79140594 15.9172196 209.13816428 15.91853422 C193.63225487 15.92994298 178.12644001 15.91682168 162.6205461 15.89533275 C149.31303359 15.87746149 136.00566063 15.88056551 122.69815063 15.8990078 C107.24809025 15.92040929 91.79811276 15.92884432 76.34803963 15.91655874 C74.70084764 15.91528453 73.05365564 15.91402705 71.40646362 15.91278648 C70.5959937 15.91216938 69.78552378 15.91155228 68.95049417 15.91091648 C63.23653766 15.90746141 57.52263368 15.91329529 51.8086853 15.9227047 C44.8461506 15.93391807 37.8837963 15.93089869 30.92128229 15.90958172 C27.3682096 15.89906223 23.81543778 15.89496443 20.26236725 15.90817833 C16.41282896 15.92227838 12.5637844 15.90545357 8.71426392 15.88545799 C7.58829992 15.89438088 6.46233593 15.90330377 5.30225182 15.91249704 C-2.24515816 15.83613651 -2.24515816 15.83613651 -6.21069336 13.47297478 C-8.18290664 11.18219309 -8.65246032 10.29322564 -8.51473999 7.31502342 C-8.01473999 3.37752342 -8.01473999 3.37752342 -6.79691124 1.65502489 C-4.41961309 -0.04907727 -2.9143757 0.00157284 0 0 Z " transform="translate(148.01473999023438,289.6224765777588)" style="fill: rgb(71, 111, 255);"/><path d="M0 0 C1.03658249 -0.00843994 2.07316498 -0.01687988 3.14115906 -0.02557558 C4.27849991 -0.01956553 5.41584076 -0.01355549 6.58764648 -0.00736332 C7.79697342 -0.01274886 9.00630035 -0.01813439 10.25227356 -0.02368313 C13.610551 -0.0355306 16.96833336 -0.03388382 20.32659149 -0.02651632 C23.94765035 -0.02179446 27.5686555 -0.0342857 31.18969727 -0.04453373 C38.28389122 -0.06174591 45.3779967 -0.06255681 52.47220612 -0.05732083 C58.23676961 -0.0532827 64.00130691 -0.05471842 69.76586914 -0.06006908 C70.58567922 -0.06081751 71.40548929 -0.06156593 72.2501421 -0.06233703 C73.91546504 -0.06386847 75.58078798 -0.06540682 77.24611092 -0.066952 C92.86928166 -0.08068557 108.49240236 -0.07523314 124.11557198 -0.06376678 C138.41662169 -0.05383152 152.71754209 -0.0667786 167.01857185 -0.09070098 C181.69533235 -0.11506734 196.37203254 -0.12470605 211.04881287 -0.11804825 C219.29177613 -0.11455079 227.53463988 -0.1168228 235.77758789 -0.13429928 C242.79396484 -0.14899044 249.8101722 -0.14969723 256.82654572 -0.13222837 C260.40784656 -0.12369071 263.98884404 -0.12163562 267.57012939 -0.13687992 C271.44852119 -0.15318487 275.3264402 -0.1386379 279.20483398 -0.12088871 C280.34217484 -0.13049372 281.47951569 -0.14009872 282.65132141 -0.14999479 C283.6879039 -0.1401805 284.72448639 -0.13036621 285.79248047 -0.12025452 C286.68797104 -0.12014718 287.58346161 -0.12003984 288.50608826 -0.11992925 C291.7069412 0.5499921 292.90801253 1.82994867 294.89624023 4.38031673 C295.63257903 10.37621837 295.63257903 10.37621837 293.52124023 13.25531673 C290.53581371 15.32215048 288.66763443 15.50610411 285.06981087 15.50895119 C283.53136047 15.51378786 283.53136047 15.51378786 281.96183026 15.51872224 C280.82644562 15.51717363 279.69106098 15.51562503 278.52127075 15.5140295 C277.32181977 15.51629506 276.12236879 15.51856062 274.88657081 15.52089483 C271.54673151 15.52614762 268.20694585 15.52687672 264.8671062 15.52570045 C261.2692086 15.52549698 257.67131913 15.53101004 254.07342529 15.53575802 C247.02042289 15.54407698 239.96742883 15.54681342 232.91442193 15.5473704 C227.18319002 15.54784499 221.45196087 15.54989687 215.72072983 15.55307102 C199.48357402 15.56188114 183.24642484 15.56648986 167.00926663 15.56574055 C166.13327163 15.56570059 165.25727663 15.56566064 164.35473633 15.56561947 C163.03914558 15.56555815 163.03914558 15.56555815 161.69697724 15.56549559 C147.4799036 15.56508906 133.26285643 15.57465944 119.04579045 15.58875784 C104.45950586 15.60310861 89.87323419 15.61002873 75.28694236 15.60916406 C67.09316063 15.60883163 58.89940665 15.61159872 50.70563126 15.62234211 C43.72950875 15.63143008 36.75342658 15.63363646 29.77730073 15.62683269 C26.21634449 15.62355877 22.65546571 15.62354201 19.09451675 15.63218594 C15.23803392 15.64145115 11.38166528 15.63529761 7.525177 15.62755489 C6.39425381 15.63269846 5.26333061 15.63784202 4.09813702 15.64314145 C3.06728793 15.63854265 2.03643883 15.63394386 0.97435188 15.6292057 C0.08385269 15.62942307 -0.8066465 15.62964044 -1.72413051 15.62986439 C-4.30877471 15.35881717 -5.9178759 14.76997444 -8.10375977 13.38031673 C-9.65836281 10.27111064 -9.8309667 6.74948646 -9.10375977 3.38031673 C-6.10436748 0.57080772 -4.06047294 0.00466644 0 0 Z " transform="translate(149.103759765625,240.61968326568604)" style="fill: rgb(71, 111, 255);"/><path d="M0 0 C0.74224198 -0.00226556 1.48448395 -0.00453111 2.24921811 -0.00686532 C4.74340109 -0.01320977 7.2375298 -0.01237567 9.73171997 -0.0115509 C11.51713125 -0.01454212 13.30254188 -0.01794456 15.08795166 -0.02172852 C19.94333023 -0.03057663 24.7986912 -0.03290697 29.65407705 -0.0335443 C33.70484324 -0.0344929 37.7556053 -0.03817064 41.8063699 -0.0417164 C51.36221787 -0.04986408 60.91805642 -0.05230035 70.47390747 -0.05158997 C80.33672388 -0.05098912 90.1994856 -0.06154163 100.06228817 -0.07733363 C108.52520438 -0.09040214 116.98810271 -0.09577415 125.45102894 -0.09513456 C130.5076541 -0.09487936 135.56423067 -0.09774241 140.62084579 -0.10831261 C145.37650689 -0.11798196 150.13207286 -0.11808076 154.88773727 -0.11079597 C156.63365314 -0.10974868 158.3795749 -0.11212161 160.12548065 -0.11815643 C162.50808258 -0.12585888 164.89035454 -0.12124322 167.27294922 -0.11352539 C167.96449124 -0.11866895 168.65603327 -0.12381252 169.36853111 -0.12911195 C173.25935978 -0.10124464 176.32240037 0.26381156 179.76345825 2.13371277 C182.0909517 5.62495294 182.26645141 7.02593528 181.76345825 11.13371277 C180.21489811 13.29379368 180.21489811 13.29379368 177.76345825 15.13371277 C175.0925256 15.52466019 172.8340844 15.67062804 170.16542053 15.63491821 C169.39641169 15.64045261 168.62740284 15.64598701 167.8350907 15.65168911 C165.25611642 15.66531161 162.67810725 15.65031836 160.09915161 15.63542175 C158.25123177 15.63920433 156.40331477 15.64470386 154.55540466 15.65179443 C149.53481882 15.66577338 144.51457474 15.65456257 139.49400783 15.63808322 C134.24500037 15.62425051 128.99601311 15.63069069 123.74699402 15.63421631 C114.9326831 15.6369196 106.11850827 15.62343175 97.30422974 15.6002655 C87.1055973 15.5736468 76.90719232 15.57191085 66.70853704 15.58365387 C56.90651274 15.59442252 47.10457092 15.58825229 37.30255318 15.57409859 C33.12675597 15.56833169 28.95101898 15.56842697 24.77522087 15.57316399 C19.86107444 15.57792656 14.94717799 15.56786203 10.03307915 15.54620934 C8.22666772 15.54063176 6.42023231 15.54018502 4.61381912 15.5451622 C2.15377022 15.55109169 -0.30550832 15.53865562 -2.76548767 15.52139282 C-3.48551895 15.52740287 -4.20555022 15.53341291 -4.94740063 15.53960508 C-7.8617493 15.50224557 -9.77494963 15.46721626 -12.17858028 13.73057652 C-14.14386518 10.76421875 -13.77045959 7.54366804 -13.23654175 4.13371277 C-10.08399193 -0.52005125 -5.10128554 -0.01135032 0 0 Z " transform="translate(81.23654174804688,386.8662872314453)" style="fill: rgb(71, 111, 255);"/><path d="M0 0 C1.15117328 -0.00807831 1.15117328 -0.00807831 2.32560259 -0.01631981 C4.90518272 -0.03066283 7.48425427 -0.02348022 10.06385803 -0.01637268 C11.91000788 -0.02207295 13.7561542 -0.02903587 15.60229492 -0.03717041 C20.62293746 -0.05515508 25.64340573 -0.05392346 30.66407084 -0.04822803 C34.85163533 -0.04514377 39.03916596 -0.05122011 43.22672564 -0.05726677 C53.10378002 -0.07132788 62.98074793 -0.06973758 72.85780334 -0.05836487 C83.05585797 -0.0468822 93.25364966 -0.06095826 103.45166963 -0.08776134 C112.19993443 -0.10989532 120.94811656 -0.11656092 129.69640738 -0.11068493 C134.92463159 -0.10730861 140.15268724 -0.10977508 145.38088799 -0.12693596 C150.296702 -0.14236633 155.21212559 -0.13849311 160.12792397 -0.11963081 C161.93392231 -0.11593405 163.73994933 -0.11908491 165.54592133 -0.1295166 C168.00803804 -0.14265439 170.46884846 -0.13124432 172.9309082 -0.11352539 C173.64870876 -0.1231304 174.36650931 -0.1327354 175.1060614 -0.14263147 C178.47646015 -0.09258843 180.25183347 0.17892012 182.97647953 2.23150539 C185.08106855 5.15450684 185.0435406 6.85903085 184.52894592 10.38768005 C183.24711727 12.75906306 182.44481026 14.05638984 179.87937069 14.98437119 C176.64334924 15.53963939 173.44475035 15.53221326 170.17214966 15.52812195 C169.42905326 15.53109307 168.68595686 15.53406419 167.92034239 15.53712535 C165.42926979 15.54580004 162.93824532 15.54731954 160.44715881 15.54881287 C158.66159971 15.55344181 156.87604159 15.55846657 155.09048462 15.56385803 C150.23930118 15.57697428 145.38813158 15.58342515 140.53693318 15.58786869 C137.506955 15.59079988 134.4769806 15.59490471 131.44700432 15.59937286 C121.96911037 15.61304401 112.49122506 15.62271328 103.01332194 15.62657475 C92.06774956 15.63105864 81.12230187 15.64862348 70.17676741 15.67757535 C61.71807729 15.69917401 53.25942231 15.70927802 44.8007049 15.71061587 C39.74741888 15.71166495 34.69425014 15.7175948 29.64099312 15.73543549 C24.88939074 15.75188539 20.13799419 15.7540867 15.38637352 15.74529648 C13.64206517 15.74452452 11.89774589 15.74888962 10.15346527 15.75875473 C7.77297231 15.77142919 5.39321338 15.76562243 3.01272583 15.75517273 C1.97643597 15.76725734 1.97643597 15.76725734 0.91921097 15.77958608 C-3.75979765 15.73151819 -7.11072829 14.74800584 -10.47105408 11.38768005 C-10.94109361 4.10206722 -10.94109361 4.10206722 -9.41748714 1.78642178 C-6.47534556 -0.32785395 -3.48970139 -0.02912827 0 0 Z " transform="translate(78.47105407714844,338.61231994628906)" style="fill: rgb(71, 111, 255);"/><path d="M0 0 C1.875 1.0625 1.875 1.0625 3 3 C3.27973187 8.85365392 2.59864255 14.10063595 1.39526367 19.81518555 C1.22451828 20.65688293 1.05377289 21.49858032 0.87785339 22.36578369 C0.3158975 25.12447197 -0.25757736 27.88060805 -0.83203125 30.63671875 C-1.22882908 32.56378172 -1.62519999 34.49093263 -2.02116394 36.41816711 C-2.85074136 40.44630665 -3.68616807 44.47317779 -4.52563477 48.49926758 C-5.60003913 53.65498208 -6.65869577 58.81378443 -7.71288013 63.97366619 C-8.52717799 67.9496197 -9.35032329 71.92370197 -10.17609215 75.89728737 C-10.57005272 77.79886923 -10.96114192 79.70104834 -11.34928322 81.60382652 C-11.89282648 84.2621954 -12.44837381 86.91778059 -13.00708008 89.57299805 C-13.16460754 90.35596756 -13.32213501 91.13893707 -13.48443604 91.94563293 C-14.72524825 97.74653143 -15.98259186 101.65506124 -21 105 C-24.09115927 104.80680255 -26.24171368 104.52295608 -28.8125 102.75 C-31.18496764 99.2537319 -31.11863333 95.96764547 -30.41912842 91.93296814 C-30.09507925 90.30347132 -29.76027306 88.67609117 -29.41699219 87.05053711 C-29.14646278 85.71308693 -29.14646278 85.71308693 -28.87046814 84.34861755 C-28.27242662 81.40608694 -27.66016422 78.46673127 -27.046875 75.52734375 C-26.62609674 73.481523 -26.20587751 71.4355872 -25.78619385 69.38954163 C-24.90469595 65.10364275 -24.01609612 60.81929312 -23.12255859 56.53588867 C-21.97781944 51.0451902 -20.85127615 45.5509447 -19.73008347 40.05539608 C-18.86596294 35.83053988 -17.99198204 31.60777027 -17.11502838 27.38556099 C-16.69569316 25.36039699 -16.27949209 23.3345814 -15.86647797 21.30811882 C-15.28788703 18.47656989 -14.69602408 15.64811547 -14.10058594 12.82006836 C-13.93213669 11.98203674 -13.76368744 11.14400513 -13.59013367 10.28057861 C-12.01529026 2.92816177 -12.01529026 2.92816177 -9 0 C-5.45026831 -1.1832439 -3.60040463 -0.90010116 0 0 Z " transform="translate(385,333)" style="fill: rgb(71, 111, 255);"/><path d="M0 0 C2.3125 1.125 2.3125 1.125 4 3 C4.9375 5.875 4.9375 5.875 5 9 C3.13847846 12.63582416 0.88649091 15.35240369 -2.01171875 18.20703125 C-2.76904297 18.95791016 -3.52636719 19.70878906 -4.30664062 20.48242188 C-5.48516602 21.63581055 -5.48516602 21.63581055 -6.6875 22.8125 C-7.48478516 23.60076172 -8.28207031 24.38902344 -9.10351562 25.20117188 C-11.0645551 27.13872585 -13.03011881 29.07144276 -15 31 C-13.55802498 34.34307711 -11.76530444 36.41506688 -9.12109375 38.8984375 C-8.36505859 39.62546875 -7.60902344 40.3525 -6.83007812 41.1015625 C-5.23686289 42.61544212 -3.63789455 44.1232904 -2.03320312 45.625 C3.74391301 51.20971005 3.74391301 51.20971005 5.08984375 55.36328125 C4.97066137 58.86102506 4.37025539 60.40753317 2 63 C-1.3125 64.0625 -1.3125 64.0625 -5 64 C-9.33224323 61.47687351 -12.78936721 58.46716073 -16.328125 54.9375 C-16.80320496 54.4643335 -17.27828491 53.99116699 -17.76776123 53.50366211 C-18.76169352 52.51108044 -19.75314651 51.5160103 -20.7421875 50.51855469 C-22.2530195 48.99695899 -23.77430136 47.48639903 -25.296875 45.9765625 C-26.2662673 45.00584934 -27.23503942 44.03451635 -28.203125 43.0625 C-29.07614258 42.18722656 -29.94916016 41.31195313 -30.84863281 40.41015625 C-33.58899208 37.34015776 -34.96859955 35.38161994 -35.0625 31.25 C-32.31892345 22.85788348 -23.30631587 16.15309689 -17.1875 10.0625 C-16.32962891 9.20076172 -15.47175781 8.33902344 -14.58789062 7.45117188 C-13.76869141 6.63326172 -12.94949219 5.81535156 -12.10546875 4.97265625 C-11.36449951 4.23281494 -10.62353027 3.49297363 -9.86010742 2.73071289 C-6.63646232 -0.268686 -4.33905979 -0.34712478 0 0 Z " transform="translate(333,353)" style="fill: rgb(71, 111, 255);"/><path d="M0 0 C2.4863224 1.62792474 4.50442759 3.61515737 6.58984375 5.72265625 C7.17923233 6.30156113 7.76862091 6.880466 8.37586975 7.47691345 C9.61268196 8.70092514 10.84186396 9.93268972 12.0637207 11.17163086 C13.9324498 13.05740374 15.83547226 14.90281229 17.74414062 16.74804688 C18.94497054 17.94565265 20.14361604 19.14545355 21.33984375 20.34765625 C21.90847641 20.89382095 22.47710907 21.43998566 23.06297302 22.00270081 C25.79768937 24.83647469 27.39065194 27.00065763 27.70751953 31 C27.32362822 35.84528184 24.72233458 38.40350274 21.33984375 41.65234375 C20.75715225 42.23794571 20.17446075 42.82354767 19.57411194 43.42689514 C18.34197886 44.65572004 17.09997121 45.87471385 15.84887695 47.08422852 C13.9428672 48.93229596 12.07702455 50.81487928 10.21289062 52.70507812 C9.00742016 53.89807244 7.79980513 55.08890446 6.58984375 56.27734375 C6.03538071 56.83767807 5.48091766 57.39801239 4.90965271 57.97532654 C1.15088051 61.55752788 -1.59827559 62.9778304 -7 63 C-9.9375 60.9375 -9.9375 60.9375 -12 58 C-12.52907309 54.2213651 -12.43714203 52.59932637 -10.1640625 49.48291016 C-9.32617188 48.67644043 -8.48828125 47.8699707 -7.625 47.0390625 C-6.72265625 46.15605469 -5.8203125 45.27304687 -4.890625 44.36328125 C-3.93671875 43.45964844 -2.9828125 42.55601562 -2 41.625 C-1.03509474 40.69020755 -0.07153637 39.75402269 0.890625 38.81640625 C3.24751942 36.53021866 5.61724979 34.25917673 8 32 C6.52894843 28.53930033 4.61393402 26.46146198 1.8671875 23.91796875 C1.06152344 23.15033203 0.25585938 22.38269531 -0.57421875 21.59179688 C-2.2730575 19.99051778 -3.98143297 18.39929576 -5.69921875 16.81835938 C-11.8395722 10.9194805 -11.8395722 10.9194805 -12.68359375 6.08203125 C-12 3 -12 3 -9.9375 0.5 C-6.02222962 -1.499287 -4.23848683 -1.08161765 0 0 Z " transform="translate(417,354)" style="fill: rgb(71, 111, 255);"/><path d="M0 0 C0.9077417 -0.01591187 1.8154834 -0.03182373 2.75073242 -0.04821777 C3.72373291 -0.04841919 4.6967334 -0.04862061 5.69921875 -0.04882812 C6.70509033 -0.05644165 7.71096191 -0.06405518 8.74731445 -0.07189941 C10.87220784 -0.08269613 12.99715427 -0.08555527 15.12207031 -0.08105469 C18.37524633 -0.08008156 21.62607029 -0.12172588 24.87890625 -0.16601562 C26.9440055 -0.17122203 29.00911294 -0.17391083 31.07421875 -0.17382812 C32.04721924 -0.19022339 33.02021973 -0.20661865 34.02270508 -0.22351074 C40.72994675 -0.15475363 40.72994675 -0.15475363 44.02734375 2.73046875 C45.90698475 6.44924125 45.62658159 8.48153403 44.38671875 12.41992188 C39.93369117 16.26180406 35.20329137 15.840066 29.6328125 15.78320312 C28.694944 15.78370163 27.7570755 15.78420013 26.79078674 15.78471375 C24.81305822 15.78237842 22.83532643 15.77268193 20.85766602 15.75610352 C17.83127277 15.73247694 14.80575916 15.73555106 11.77929688 15.7421875 C9.8554635 15.73661146 7.93163383 15.72950205 6.0078125 15.72070312 C5.1035704 15.72161453 4.19932831 15.72252594 3.26768494 15.72346497 C2.42323318 15.71393295 1.57878143 15.70440094 0.70874023 15.69458008 C-0.03118668 15.68997269 -0.77111359 15.6853653 -1.53346252 15.68061829 C-3.94612133 15.37820179 -5.5502924 14.69501811 -7.61328125 13.41992188 C-9.1678843 10.31071578 -9.34048818 6.7890916 -8.61328125 3.41992188 C-5.76044352 0.79887721 -3.84412559 0.04064668 0 0 Z " transform="translate(76.61328125,240.580078125)" style="fill: rgb(71, 111, 255);"/><path d="M0 0 C1.47551331 -0.00218285 1.47551331 -0.00218285 2.98083496 -0.00440979 C5.05870529 -0.00275124 7.13658795 0.00880513 9.21435547 0.02954102 C12.39473659 0.05848895 15.57345014 0.05015008 18.75390625 0.03710938 C20.7734456 0.04334709 22.79297969 0.05173829 24.8125 0.0625 C25.76362671 0.05956436 26.71475342 0.05662872 27.69470215 0.05360413 C28.5824231 0.0662883 29.47014404 0.07897247 30.38476562 0.09204102 C31.16323853 0.097444 31.94171143 0.10284698 32.74377441 0.1084137 C35.49475787 0.60159911 36.87390699 1.60286405 38.90625 3.49609375 C40.09933162 7.15487737 40.23292744 8.79607067 38.59375 12.30859375 C36.90625 14.49609375 36.90625 14.49609375 34.90625 15.49609375 C33.47773863 15.60547936 32.04439642 15.65508272 30.61181641 15.6730957 C29.7239444 15.68593094 28.83607239 15.69876617 27.92129517 15.71199036 C26.47912125 15.72307076 26.47912125 15.72307076 25.0078125 15.734375 C24.02130707 15.74244675 23.03480164 15.75051849 22.0184021 15.75883484 C19.92862712 15.77267913 17.83882949 15.78339973 15.74902344 15.79125977 C12.55099784 15.80848737 9.35400195 15.85237235 6.15625 15.89648438 C4.12761178 15.90660984 2.09896476 15.9151264 0.0703125 15.921875 C-1.36578873 15.94813713 -1.36578873 15.94813713 -2.8309021 15.97492981 C-9.43516849 15.95332196 -9.43516849 15.95332196 -12.69775391 13.68823242 C-14.75728081 10.45414847 -14.6292104 8.24431656 -14.09375 4.49609375 C-10.66318938 -0.86326011 -5.73770103 -0.06776932 0 0 Z " transform="translate(82.09375,191.50390625)" style="fill: rgb(71, 111, 255);"/><path d="M0 0 C0.92783798 -0.01591187 1.85567596 -0.03182373 2.81163025 -0.04821777 C4.31168358 -0.0485199 4.31168358 -0.0485199 5.84204102 -0.04882812 C6.87152359 -0.05644165 7.90100616 -0.06405518 8.96168518 -0.07189941 C11.13963393 -0.08270835 13.31763454 -0.08555031 15.49560547 -0.08105469 C18.83006156 -0.08008276 22.16221444 -0.1216887 25.49633789 -0.16601562 C27.61156746 -0.17122276 29.72680504 -0.17391082 31.84204102 -0.17382812 C32.84005234 -0.19022339 33.83806366 -0.20661865 34.86631775 -0.22351074 C41.7547349 -0.15465973 41.7547349 -0.15465973 45.07275391 2.76171875 C46.79047464 6.18020593 46.58394279 7.81506894 45.40844727 11.41992188 C43.82777832 13.41293924 42.67758025 14.28535538 40.40844727 15.41992188 C39.04653522 15.52889427 37.67962187 15.57885667 36.31347656 15.59692383 C35.46887375 15.60975906 34.62427094 15.6225943 33.7540741 15.63581848 C32.3822271 15.64689888 32.3822271 15.64689888 30.98266602 15.65820312 C30.04292435 15.66627487 29.10318268 15.67434662 28.13496399 15.68266296 C26.14354296 15.6965074 24.15209817 15.70722794 22.16064453 15.71508789 C19.11843759 15.73229467 16.07731901 15.77617669 13.03540039 15.8203125 C11.1011636 15.83043992 9.16691756 15.83895587 7.23266602 15.84570312 C6.32417404 15.86321121 5.41568207 15.8807193 4.47966003 15.89875793 C0.25187166 15.88427571 -1.99744162 15.78667459 -5.66845703 13.52050781 C-7.59155273 11.41992188 -7.59155273 11.41992188 -8.18530273 9.38476562 C-7.93117977 3.88935645 -7.93117977 3.88935645 -6.34727478 1.70007324 C-4.0991008 0.0608599 -2.76909633 0.02856271 0 0 Z " transform="translate(75.591552734375,289.580078125)" style="fill: rgb(71, 111, 255);"/><path d="M0 0 C2.5625 2.0625 2.5625 2.0625 4 5 C4 8.8137751 3.84985071 11.02424548 1.3125 13.9375 C-1.7864448 15.3613395 -3.62182812 15.55153827 -7 15 C-9.9375 12.9375 -9.9375 12.9375 -12 10 C-12 6.48044581 -11.63108355 4.15079941 -9.9375 1.0625 C-6.72094003 -0.70141999 -3.50614591 -0.73924763 0 0 Z " transform="translate(174,81)" style="fill: rgb(71, 111, 255);"/><path d="M0 0 C1.90625 0.41796875 1.90625 0.41796875 4.40625 2.04296875 C6.38823314 5.18110873 6.57689058 6.7667034 5.90625 10.41796875 C3.41540752 13.7879321 2.02036135 15.23607302 -2.15625 15.91796875 C-5.48545557 15.35129546 -6.87209456 14.96875833 -9.09375 12.41796875 C-10.301394 8.34217026 -10.53985971 6.32958424 -8.65625 2.48046875 C-5.56946993 -0.00401277 -3.8711918 -0.26722779 0 0 Z " transform="translate(119.09375,80.58203125)" style="fill: rgb(71, 111, 255);"/><path d="M0 0 C2.4375 1.5625 2.4375 1.5625 4 4 C4.5625 7.5 4.5625 7.5 4 11 C2 13.5 2 13.5 -1 15 C-3.88700848 15.27522065 -6.27825726 15.01110097 -9 14 C-11.65277119 11.1864548 -12.01455028 9.72751404 -11.9375 5.875 C-11 3 -11 3 -9.375 1.125 C-6.02604821 -0.46134558 -3.65973254 -0.45746657 0 0 Z " transform="translate(68,81)" style="fill: rgb(71, 111, 255);"/></svg>