<?xml version="1.0" encoding="utf-8"?>
<svg version="1.1" xmlns="http://www.w3.org/2000/svg" width="512" height="512" xmlns:bx="https://boxy-svg.com" viewBox="0 0 512 512"><defs><bx:export><bx:file format="svg" path="Bez nazwy.svg"/></bx:export></defs><path d="M0 0 C1.25856831 -0.00576172 1.25856831 -0.00576172 2.54256225 -0.01163983 C3.91764115 -0.01034011 3.91764115 -0.01034011 5.32049942 -0.00901413 C6.78723803 -0.01347081 6.78723803 -0.01347081 8.28360772 -0.01801753 C11.56920865 -0.02670827 14.85477316 -0.0282131 18.14038467 -0.02970505 C20.49249728 -0.03433295 22.84460914 -0.03935757 25.19672012 -0.04475021 C32.26078089 -0.05924827 39.32483385 -0.06525881 46.38890684 -0.07014573 C49.71716165 -0.07272447 53.04541497 -0.07654192 56.37366867 -0.08026505 C67.43989663 -0.09245659 78.50612265 -0.10275605 89.57235718 -0.10614014 C90.2804309 -0.1063597 90.98850462 -0.10657927 91.71803512 -0.10680549 C92.42778656 -0.10702377 93.137538 -0.10724204 93.86879706 -0.10746694 C95.30698252 -0.1079104 96.74516797 -0.10835696 98.18335342 -0.10880661 C98.89674048 -0.10902804 99.61012754 -0.10924947 100.34513238 -0.10947761 C111.90165201 -0.11342468 123.45810856 -0.13087643 135.01460382 -0.15416613 C146.88442186 -0.17789383 158.75420825 -0.19034264 170.62405038 -0.19150805 C177.28652479 -0.19242403 183.9489281 -0.19847629 190.61138535 -0.21632767 C196.87895489 -0.23279411 203.14636842 -0.23497067 209.41395187 -0.22618866 C211.71333102 -0.22541753 214.0127185 -0.22977096 216.31207657 -0.23964691 C219.45341653 -0.25234711 222.59420231 -0.24649971 225.73553848 -0.23606491 C227.09723305 -0.24814952 227.09723305 -0.24814952 228.48643661 -0.26047826 C237.71419151 -0.18889362 244.03025816 2.6121405 250.79761124 8.93611526 C256.18148469 14.89229022 257.9364282 21.49820843 257.89551163 29.35676956 C257.89565765 30.08872543 257.89580368 30.8206813 257.89595413 31.57481766 C257.89525763 33.99345745 257.88747752 36.41202018 257.87964249 38.83064651 C257.87777737 40.50787692 257.87635391 42.18510787 257.87535477 43.86233902 C257.87153694 48.27643208 257.8617129 52.69049223 257.85065079 57.1045723 C257.8404209 61.6089623 257.83585376 66.11335762 257.83081436 70.61775589 C257.82008999 79.45566097 257.80302235 88.29354163 257.78198624 97.13142776 C258.53652084 97.12032471 259.29105545 97.10922165 260.06845474 97.09778214 C267.21732833 96.99714158 274.36585318 96.9212427 281.51525307 96.87236691 C285.1899235 96.84639339 288.86400329 96.81122473 292.53833389 96.7542305 C296.09159049 96.6994661 299.64428297 96.66991541 303.19792938 96.65704155 C305.19752252 96.643455 307.19689212 96.60449372 309.19614029 96.56494522 C317.77200514 96.56233447 324.76715467 97.73841475 331.38901138 103.53918839 C336.95299547 109.67511538 338.23126419 116.01043932 338.20190811 123.93733597 C338.21037766 124.79036301 338.2188472 125.64339005 338.22757339 126.52226639 C338.25085909 129.32573477 338.25196744 132.12865147 338.25073624 134.93220901 C338.25784376 136.89365225 338.26554362 138.85509343 338.27380753 140.81653214 C338.28723364 144.92277686 338.28882988 149.02882938 338.2829628 153.13508987 C338.2770737 158.37720316 338.30763456 163.61838807 338.34807968 168.860322 C338.37402959 172.91060665 338.37682739 176.96067007 338.37318802 181.01102638 C338.37487297 182.94259025 338.38445483 184.87416503 338.40233231 186.8056469 C338.56791848 206.90925016 338.56791848 206.90925016 332.78198624 214.13142776 C326.77896337 219.81966483 320.86430328 222.39318012 312.50122452 222.35847855 C310.67000549 222.35825195 310.67000549 222.35825195 308.80179214 222.35802078 C306.84679291 222.34253693 306.84679291 222.34253693 304.85229874 222.32674026 C303.49324121 222.32300578 302.13418097 222.32016087 300.77511978 222.31816483 C297.21424174 222.3105626 293.65352926 222.29094386 290.09271622 222.26875687 C286.452704 222.24822456 282.81266479 222.23914738 279.17261124 222.22908401 C272.04233556 222.20769439 264.91217176 222.1736001 257.78198624 222.13142776 C257.78567341 223.15387809 257.78936058 224.17632841 257.79315948 225.22976208 C257.88199223 250.1182745 257.94770566 275.00676634 257.98923492 299.89540386 C258.00985242 311.93141123 258.03795766 323.96731382 258.08374405 336.00325394 C258.12363649 346.4948501 258.14942495 356.98637037 258.15834022 367.47804028 C258.16355084 373.03234666 258.1757811 378.58643594 258.20490646 384.14067268 C258.23211341 389.37158575 258.24042048 394.60219283 258.23441696 399.83316994 C258.23551483 401.74996225 258.2434371 403.6667651 258.25880814 405.58349609 C258.35688164 418.44706955 257.76335562 427.58658349 248.64917374 437.40486526 C243.69137519 441.98927313 238.29754191 444.25124976 231.56397247 444.26285553 C230.72492693 444.26669667 229.88588139 444.27053782 229.02141023 444.27449536 C227.64633133 444.27319564 227.64633133 444.27319564 226.24347305 444.27186966 C224.77673444 444.27632634 224.77673444 444.27632634 223.28036475 444.28087306 C219.99476382 444.2895638 216.70919932 444.29106863 213.4235878 444.29256058 C211.07147519 444.29718848 208.71936333 444.3022131 206.36725235 444.30760574 C199.30319159 444.3221038 192.23913863 444.32811434 185.17506564 444.33300126 C181.84681082 444.33558 178.5185575 444.33939745 175.1903038 444.34312057 C164.12407585 444.35531212 153.05784982 444.36561158 141.9916153 444.36899567 C141.28354158 444.36921523 140.57546786 444.3694348 139.84593736 444.36966102 C138.78131019 444.36998843 138.78131019 444.36998843 137.69517541 444.37032247 C136.25698995 444.37076593 134.8188045 444.37121249 133.38061905 444.37166214 C132.66723199 444.37188357 131.95384494 444.372105 131.21884009 444.37233314 C119.66232046 444.37628021 108.10586392 444.39373196 96.54936865 444.41702166 C84.67955062 444.44074936 72.80976422 444.45319817 60.93992209 444.45436358 C54.27744768 444.45527956 47.61504437 444.46133182 40.95258713 444.4791832 C34.68501758 444.49564964 28.41760405 444.4978262 22.1500206 444.48904419 C19.85064145 444.48827306 17.55125397 444.49262649 15.2518959 444.50250244 C12.11055594 444.51520264 8.96977016 444.50935524 5.82843399 444.49892044 C4.46673942 444.51100505 4.46673942 444.51100505 3.07753587 444.52333379 C-6.15021903 444.45174915 -12.46628569 441.65071503 -19.23363876 435.32674026 C-24.06687539 429.97973439 -26.34491554 423.80464426 -26.33826828 416.64554214 C-26.34033028 414.93548996 -26.34033028 414.93548996 -26.34243393 413.19089127 C-26.33704102 411.31354546 -26.33704102 411.31354546 -26.33153915 409.39827347 C-26.33168518 408.08110336 -26.33183121 406.76393326 -26.33198166 405.40684891 C-26.33226892 401.79349183 -26.32638371 398.18016785 -26.3194077 394.56681848 C-26.31316229 390.79117134 -26.31256942 387.01552348 -26.31138229 383.23987198 C-26.30827249 376.08948076 -26.30006381 368.9391048 -26.2900328 361.78872031 C-26.2788608 353.6485417 -26.27335847 345.50836237 -26.26833737 337.36817801 C-26.25788092 320.62258566 -26.24028824 303.87700866 -26.21801376 287.13142776 C-26.93718475 287.14031021 -27.65635574 287.14919266 -28.39731979 287.15834427 C-35.20799845 287.23882516 -42.0186051 287.2995613 -48.82963848 287.33867645 C-52.33048009 287.35946296 -55.8309255 287.38761376 -59.33153915 287.43318558 C-63.36534843 287.48536404 -67.39874804 287.50444662 -71.43285751 287.52205276 C-72.67695892 287.54269791 -73.92106033 287.56334305 -75.20286179 287.5846138 C-85.10757428 287.58714861 -92.33955333 285.53454115 -99.71410751 278.77595901 C-104.20203584 273.86838025 -106.32190057 268.44682518 -106.37191391 261.84538651 C-106.38481461 260.57145035 -106.38481461 260.57145035 -106.39797592 259.27177811 C-106.40223587 258.34809433 -106.40649582 257.42441055 -106.41088486 256.47273636 C-106.42315109 255.00365829 -106.42315109 255.00365829 -106.43566513 253.50490189 C-106.46047894 250.26322917 -106.47702656 247.02160018 -106.49145126 243.77986526 C-106.49677494 242.6706937 -106.50209862 241.56152214 -106.50758362 240.41873932 C-106.53430005 234.54579485 -106.55367826 228.6728715 -106.56811142 222.7998848 C-106.58144042 217.94813009 -106.60927677 213.09679696 -106.65014267 208.2451973 C-106.69955037 202.37907424 -106.72424276 196.51333304 -106.7313385 190.6470108 C-106.73803669 188.41678194 -106.75322117 186.18656111 -106.77722931 183.95645142 C-106.80900236 180.82601616 -106.8088988 177.69704186 -106.80150986 174.56648636 C-106.81791519 173.65494797 -106.83432053 172.74340958 -106.85122299 171.80424881 C-106.77783166 164.16195484 -104.46696069 157.65237709 -99.22810555 151.97492409 C-90.91375388 144.11969397 -83.47510217 143.70421179 -72.40942001 143.83845901 C-71.07421472 143.84406275 -69.73900321 143.84832917 -68.40378952 143.85132217 C-64.9102298 143.86270997 -61.41705149 143.89212353 -57.9236412 143.92543411 C-54.3505939 143.95626695 -50.77748423 143.96985557 -47.20434189 143.98494339 C-40.20874371 144.01700015 -33.21339711 144.06812178 -26.21801376 144.13142776 C-26.22170094 143.51096856 -26.22538811 142.89050936 -26.22918701 142.25124836 C-26.31767608 127.12662412 -26.38379025 112.00207977 -26.42526245 96.87726307 C-26.44585323 89.56288267 -26.47390665 82.24867548 -26.51977158 74.93440628 C-26.55974667 68.5563512 -26.58547189 62.17842163 -26.59436774 55.80024475 C-26.59956458 52.42563865 -26.611705 49.05139148 -26.64093399 45.67690086 C-26.67004377 41.90184398 -26.6739664 38.12752641 -26.67211533 34.35237503 C-26.68649643 33.24394241 -26.70087753 32.1355098 -26.71569443 30.99348831 C-26.6633025 21.09472382 -23.80993188 14.10222796 -17.08520126 6.85799026 C-12.12740272 2.2735824 -6.73356943 0.01160577 0 0 Z M-14.21801376 15.13142776 C-20.00686815 25.21842454 -20.00686815 25.21842454 -18.21801376 47.13142776 C70.22198624 47.13142776 158.66198624 47.13142776 249.78198624 47.13142776 C251.58362618 28.01771958 251.58362618 28.01771958 243.92261124 13.10799026 C243.29870499 12.66197464 242.67479874 12.21595901 242.03198624 11.75642776 C241.11159561 11.0642012 241.11159561 11.0642012 240.17261124 10.35799026 C233.80113377 7.08896424 227.23372592 6.83985227 220.23147964 6.87073135 C219.30064997 6.86690581 218.36982029 6.86308026 217.41078365 6.85913879 C214.30805979 6.84886326 211.20552286 6.85279057 208.10278702 6.85676956 C205.8715536 6.85242008 203.64032167 6.84723614 201.40909195 6.84128189 C195.35948353 6.82790613 189.30993765 6.82731165 183.26031733 6.82984519 C178.20569573 6.83091587 173.15108674 6.82602905 168.09646785 6.82123977 C155.48799652 6.80951577 142.8795634 6.81036685 130.27109264 6.81679658 C119.33695854 6.82196447 108.40291357 6.81071165 97.4687971 6.79169836 C86.22486543 6.77229716 74.98097472 6.76435904 63.73702228 6.76782161 C57.43112824 6.76963299 51.12531582 6.76701266 44.81943512 6.75310707 C38.8883115 6.74051696 32.95736605 6.7424842 27.02624512 6.75551796 C24.85348576 6.75788069 22.68071382 6.75515996 20.5079689 6.74689484 C17.5339274 6.73640014 14.56048072 6.74455007 11.58646011 6.75720596 C10.73390927 6.74983168 9.88135844 6.74245739 9.00297272 6.73485965 C0.19309903 6.81331915 -8.06546074 8.53940667 -14.21801376 15.13142776 Z M-18.21801376 55.13142776 C-18.21801376 84.50142776 -18.21801376 113.87142776 -18.21801376 144.13142776 C8.97599595 144.26227285 8.97599595 144.26227285 36.17016983 144.33919144 C41.45703506 144.38008499 41.45703506 144.38008499 43.94034195 144.40555191 C45.65652456 144.41853975 47.37279779 144.42191394 49.08902359 144.41739273 C69.49080737 144.37874727 69.49080737 144.37874727 77.66928482 151.85718155 C84.14506779 158.4856261 85.23031219 166.30191159 85.18603897 175.168293 C85.19290222 176.1401152 85.19976547 177.11193741 85.2068367 178.11320877 C85.2250441 181.30563095 85.22127583 184.49755886 85.21557999 187.69002151 C85.2201446 189.92147353 85.22545101 192.15292413 85.23146439 194.38437271 C85.24038356 199.05377805 85.23798577 203.72301225 85.22803116 208.39241409 C85.21654183 214.36198195 85.23675904 220.33095824 85.2659483 226.30044842 C85.28433596 230.90655617 85.2840127 235.51252281 85.27831078 240.11865807 C85.27815788 242.31897753 85.28417554 244.51930676 85.29660225 246.71959114 C85.31155901 249.80182258 85.3008003 252.88296939 85.28369522 255.965168 C85.29336319 256.86466675 85.30303116 257.7641655 85.3129921 258.69092178 C85.21074738 267.53495852 82.11977843 274.93767631 75.78198624 281.13142776 C71.32174096 283.92946983 66.79410406 285.46072182 61.78198624 287.13142776 C61.45198624 303.30142776 61.12198624 319.47142776 60.78198624 336.13142776 C59.13198624 336.46142776 57.48198624 336.79142776 55.78198624 337.13142776 C53.44401932 335.35348892 53.44401932 335.35348892 51.00537491 332.65510941 C50.55551727 332.1675769 50.10565964 331.6800444 49.64216995 331.17773819 C48.66423999 330.11666515 47.69279184 329.04959022 46.72710609 327.97736168 C45.18246579 326.27227821 43.61225262 324.59525637 42.03084183 322.92425919 C37.53537194 318.17307726 33.05476043 313.41175692 28.6801796 308.54866409 C25.99846819 305.57165988 23.25803543 302.66032439 20.4734478 299.77946663 C19.43443283 298.68189065 18.41747393 297.56290752 17.42647743 296.42178917 C13.71950053 292.16774292 10.85692126 290.36202163 5.78198624 287.13142776 C-2.13801376 287.13142776 -10.05801376 287.13142776 -18.21801376 287.13142776 C-18.21801376 314.19142776 -18.21801376 341.25142776 -18.21801376 369.13142776 C70.22198624 369.13142776 158.66198624 369.13142776 249.78198624 369.13142776 C249.78198624 320.62142776 249.78198624 272.11142776 249.78198624 222.13142776 C241.55402057 221.35756562 241.55402057 221.35756562 238.14558792 223.71918106 C237.43754517 224.46229034 236.72950241 225.20539963 236.00000381 225.97102737 C235.17917816 226.80867126 234.35835251 227.64631516 233.51265335 228.50934219 C232.65922852 229.42490387 231.80580368 230.34046555 230.92651749 231.28377151 C229.5434247 232.70443794 228.16031864 234.12509172 226.7764349 235.54498768 C224.85155857 237.53092755 222.9478392 239.53653375 221.04413223 241.54274368 C217.7069937 245.05607571 214.35032761 248.55035836 210.97356033 252.02560806 C209.18020286 253.87544482 207.39994899 255.73809548 205.63447952 257.6145668 C204.82311035 258.45536285 204.01174118 259.29615891 203.17578506 260.16243362 C202.47012909 260.9063385 201.76447311 261.65024338 201.03743362 262.41669083 C198.27822687 264.51441821 196.20966117 264.89851614 192.78198624 265.13142776 C190.60415942 262.95360095 191.52108707 257.88039698 191.46557999 254.84627151 C191.44479889 253.91545258 191.42401779 252.98463364 191.40260696 252.02560806 C191.33700693 249.04012594 191.27817822 246.05455293 191.21948624 243.06892776 C191.17631094 241.050038 191.13269699 239.03115757 191.08862686 237.01228714 C190.98131495 232.0520948 190.88007736 227.09181068 190.78198624 222.13142776 C189.9577919 221.74325882 189.13359756 221.35508987 188.28442764 220.95515823 C187.2033876 220.43324905 186.12234756 219.91133987 185.00854874 219.37361526 C183.9368544 218.86169632 182.86516006 218.34977737 181.76099014 217.82234573 C176.14424959 214.63421714 173.49936835 210.61221407 171.73128128 204.4979744 C170.71713292 200.31334399 170.49240755 196.24010129 170.50732803 191.94636917 C170.5022171 191.17122467 170.49710617 190.39608017 170.49184036 189.59744644 C170.47804861 187.05921374 170.47889328 184.52125577 170.48120499 181.98299026 C170.47731221 180.20233944 170.47297635 178.42168953 170.46821976 176.6410408 C170.46077983 172.91742817 170.46103252 169.19391039 170.46631241 165.47029495 C170.47210268 160.72054828 170.45517589 155.97119211 170.43196774 151.22150993 C170.41716899 147.54612875 170.41636704 143.87084028 170.41947746 140.19543457 C170.41896729 138.44530718 170.4137872 136.69517418 170.40366554 134.94507599 C170.28983411 112.51159457 170.28983411 112.51159457 177.79370499 103.70174026 C185.52784164 97.59344373 192.56618128 97.53098529 202.12573624 97.52205276 C203.5043772 97.50704914 204.88300034 97.49031744 206.26160049 97.4719429 C209.86512514 97.4285009 213.46840744 97.4083224 217.07214737 97.39320755 C220.75942402 97.37355212 224.44644852 97.33180513 228.13354874 97.29158401 C235.3498547 97.21446938 242.56506078 97.17388027 249.78198624 97.13142776 C249.78198624 83.27142776 249.78198624 69.41142776 249.78198624 55.13142776 C161.34198624 55.13142776 72.90198624 55.13142776 -18.21801376 55.13142776 Z M182.96948624 109.38142776 C178.46810087 115.04031222 177.33390746 120.13689801 177.39380264 127.25056839 C177.38854568 128.03038574 177.38328873 128.81020309 177.37787247 129.61365128 C177.36475074 132.17186847 177.37338245 134.72945508 177.38354874 137.28767776 C177.38152575 139.07694492 177.37861243 140.86621127 177.37485123 142.65547562 C177.37043848 146.39770262 177.37682504 150.13971417 177.39087296 153.88191605 C177.40796423 158.66676103 177.39811741 163.4511011 177.38015556 168.23592758 C177.36928931 171.92836146 177.37277708 175.62067661 177.38053894 179.31311417 C177.3825331 181.07687821 177.38010937 182.84065321 177.37310028 184.60440445 C177.36543883 187.07398709 177.37715493 189.54276414 177.39380264 192.01228714 C177.38772995 192.73353271 177.38165726 193.45477829 177.37540054 194.19787979 C177.44624058 199.90105128 178.71523978 204.4780981 182.25464249 209.02205276 C187.54079094 213.54190452 190.37280473 213.90867331 197.78198624 216.13142776 C198.11198624 228.01142776 198.44198624 239.89142776 198.78198624 252.13142776 C204.19657234 247.54439481 204.19657234 247.54439481 209.29883194 242.71223831 C209.8924704 242.11529663 210.48610886 241.51835495 211.09773636 240.90332413 C212.01845177 239.97016121 212.01845177 239.97016121 212.95776749 239.01814651 C213.60900085 238.36312653 214.26023422 237.70810654 214.93120193 237.03323746 C216.98809851 234.96423395 219.04168737 232.89199643 221.09448624 230.81892776 C223.81689302 228.06998249 226.5425604 225.32433132 229.27026749 222.58064651 C229.89419891 221.94841675 230.51813034 221.31618698 231.16096878 220.66479874 C235.40817674 216.3933132 237.07868864 215.02372857 243.10454178 214.98797989 C244.21573128 214.98877296 244.21573128 214.98877296 245.34936905 214.98958206 C246.13006256 214.98610764 246.91075607 214.98263321 247.71510696 214.9790535 C249.41370555 214.97169223 251.11231378 214.96634883 252.81092453 214.96276283 C255.50120742 214.95560368 258.19130724 214.93994049 260.88153458 214.92142105 C268.53175696 214.86893132 276.1818807 214.8209883 283.83227921 214.80550003 C288.50968491 214.79540895 293.18663263 214.76605355 297.86385727 214.72418022 C299.64515847 214.71187875 301.42652439 214.70674741 303.20786667 214.70897865 C305.70474828 214.7113361 308.20032083 214.68913208 310.6970253 214.66145706 C311.42972137 214.66805847 312.16241745 214.67465988 312.91731644 214.68146133 C319.1952155 214.56751435 322.74841846 212.22148353 327.03198624 207.81892776 C330.54688918 202.4210411 331.0795806 196.71320293 331.05664444 190.41121292 C331.06175537 189.67362244 331.0668663 188.93603195 331.07213211 188.17609024 C331.08593957 185.75747248 331.08507796 183.33914256 331.08276749 180.92049026 C331.08665948 179.22569551 331.09099519 177.53090171 331.09575272 175.83610916 C331.10319607 172.29063627 331.10293751 168.74526299 331.09766006 165.19978714 C331.09187016 160.67522719 331.10879394 156.15107723 331.13200474 151.62658501 C331.14679744 148.12795537 331.14760624 144.6294232 331.14449501 141.13076782 C331.14500551 139.46354613 331.15019196 137.79631859 331.16030693 136.1291275 C331.56717389 122.34590124 331.56717389 122.34590124 326.16870499 110.01033401 C325.6079628 109.57591995 325.04722061 109.14150589 324.46948624 108.69392776 C323.63997452 108.01523636 323.63997452 108.01523636 322.79370499 107.32283401 C316.49785861 103.59422596 310.2139177 103.84075416 303.12036514 103.85676956 C301.95215729 103.85165863 300.78394943 103.8465477 299.58034134 103.84128189 C295.72302485 103.82739499 291.86588723 103.82834208 288.00854874 103.83064651 C286.00230893 103.82774188 283.99606906 103.82483239 281.98983037 103.82123977 C275.68387716 103.81015971 269.37798353 103.80969849 263.0720253 103.81575394 C256.58158123 103.82179105 250.09135409 103.8094861 243.60094702 103.78818387 C238.01517062 103.7705295 232.42946302 103.76457259 226.84365976 103.76782161 C223.51339316 103.76962878 220.18340445 103.76572967 216.85314178 103.75310707 C213.13605753 103.7407477 209.41947288 103.74753214 205.70239639 103.75911331 C204.06252007 103.74764771 204.06252007 103.74764771 202.38951492 103.73595047 C194.88622596 103.78752672 189.00978335 104.54919007 182.96948624 109.38142776 Z M-92.09301376 156.56892776 C-92.79426376 157.41455276 -93.49551376 158.26017776 -94.21801376 159.13142776 C-94.77488876 159.72955276 -95.33176376 160.32767776 -95.90551376 160.94392776 C-99.39450482 166.75891287 -99.51339133 173.46273635 -99.49267197 180.05086136 C-99.4977829 180.90403442 -99.50289383 181.75720749 -99.50815964 182.63623428 C-99.5219686 185.43418424 -99.52110539 188.23188545 -99.51879501 191.02986526 C-99.52268681 192.98987798 -99.52702248 194.94988986 -99.53178024 196.90990067 C-99.53922384 201.01013808 -99.53896475 205.11028936 -99.53368759 209.21052933 C-99.52789653 214.44453521 -99.54482437 219.67818681 -99.56803226 224.91213417 C-99.58282024 228.95809844 -99.58363441 233.00397839 -99.58052254 237.0499649 C-99.58103324 238.97872112 -99.58622342 240.90748237 -99.59633446 242.83621216 C-100.08204174 258.38606288 -100.08204174 258.38606288 -94.56957626 272.56892776 C-86.02516326 280.30142822 -77.64507271 280.28115876 -66.50707626 280.19392776 C-64.14013609 280.18135064 -61.77319245 280.16941246 -59.40624619 280.15803909 C-58.17135452 280.15140244 -56.93646286 280.14476578 -55.66415024 280.13792801 C-51.81198208 280.13137498 -47.96178557 280.1625178 -44.10985947 280.20442581 C-29.5958509 280.54648517 -29.5958509 280.54648517 -15.17873764 279.20384598 C-5.34340857 277.62024174 4.24164041 277.66634026 12.88798904 283.07400894 C15.82999192 285.50986867 18.53246674 288.06560006 21.22729874 290.77205276 C22.2180771 291.72657661 23.21067263 292.67921745 24.20497513 293.63006973 C33.6911526 302.79644436 42.56627099 312.57844959 51.24461746 322.5057106 C51.75194916 323.04219727 52.25928085 323.57868393 52.78198624 324.13142776 C53.11198624 324.13142776 53.44198624 324.13142776 53.78198624 324.13142776 C54.11198624 309.61142776 54.44198624 295.09142776 54.78198624 280.13142776 C58.74198624 279.47142776 62.70198624 278.81142776 66.78198624 278.13142776 C72.83389389 273.82047985 76.76815874 269.95347167 78.33931351 262.48062515 C78.86395092 258.51129491 78.92957785 254.60220809 78.92724991 250.60676956 C78.93060852 249.7717894 78.93396713 248.93680923 78.93742752 248.07652664 C78.94689303 245.32788462 78.94887846 242.57930381 78.94995499 239.83064651 C78.95317076 237.91022085 78.95653508 235.98979543 78.96004105 234.06937027 C78.96602141 230.04716296 78.96788208 226.0249771 78.96728897 222.00276566 C78.96718744 216.8650905 78.98083486 211.72755383 78.99806118 206.58991146 C79.00921523 202.62377677 79.01120713 198.65767518 79.01067924 194.69152641 C79.01185441 192.79823009 79.01625 190.90493277 79.02401161 189.01165199 C79.03387987 186.35576102 79.03090662 183.70016596 79.02490616 181.04426956 C79.03052567 180.27253906 79.03614517 179.50080856 79.04193497 178.70569229 C78.99708707 170.8391666 78.07069191 163.25519223 72.78198624 157.13142776 C66.71214961 152.43589377 61.5835258 151.01340231 53.92633438 150.99098587 C52.75448593 150.98527573 51.58263748 150.97956558 50.37527847 150.9736824 C49.09829086 150.97256454 47.82130325 150.97144669 46.50561905 150.97029495 C45.14019004 150.96566295 43.77476232 150.96063778 42.40933609 150.95524979 C38.7066671 150.94216014 35.00401621 150.9356875 31.30132771 150.93123913 C28.98507127 150.92830271 26.66881973 150.92419683 24.35256577 150.91973495 C17.09690858 150.90606877 9.84126263 150.89639794 2.58559346 150.89253306 C-5.77395252 150.888055 -14.13333478 150.87051517 -22.49283099 150.84153247 C-28.96520912 150.8198758 -35.43754131 150.80982665 -41.90995526 150.80849195 C-45.77064777 150.80744672 -49.63118619 150.80159951 -53.49184036 150.78367233 C-57.12641152 150.76712259 -60.7607139 150.76506931 -64.39530945 150.77381134 C-66.35329019 150.7749416 -68.3112623 150.7612775 -70.26919174 150.74705887 C-78.42295188 150.78543979 -85.68253708 151.13395841 -92.09301376 156.56892776 Z M-18.21801376 377.13142776 C-21.86001913 405.38451009 -21.86001913 405.38451009 -12.35863876 431.15486526 C-11.42277939 431.8238887 -11.42277939 431.8238887 -10.46801376 432.50642776 C-9.85442001 432.96791214 -9.24082626 433.42939651 -8.60863876 433.90486526 C-2.23716129 437.17389129 4.33024655 437.42300326 11.33249283 437.39212418 C12.26332251 437.39594972 13.19415219 437.39977527 14.15318882 437.40371674 C17.25591269 437.41399227 20.35844961 437.41006496 23.46118546 437.40608597 C25.69241888 437.41043545 27.92365081 437.41561939 30.15488052 437.42157364 C36.20448894 437.4349494 42.25403483 437.43554388 48.30365515 437.43301034 C53.35827674 437.43193966 58.41288573 437.43682648 63.46750462 437.44161576 C76.07597595 437.45333976 88.68440907 437.45248868 101.29287983 437.44605895 C112.22701393 437.44089106 123.1610589 437.45214388 134.09517537 437.47115717 C145.33910704 437.49055837 156.58299775 437.49849649 167.82695019 437.49503392 C174.13284424 437.49322254 180.43865665 437.49584287 186.74453735 437.50974846 C192.67566097 437.52233857 198.60660642 437.52037133 204.53772736 437.50733757 C206.71048671 437.50497484 208.88325865 437.50769557 211.05600357 437.51596069 C214.03004508 437.52645539 217.00349175 437.51830546 219.97751236 437.50564957 C221.25633862 437.51671099 221.25633862 437.51671099 222.56099975 437.52799588 C229.71269141 437.46430391 236.5450643 436.17209595 242.65698624 432.31892776 C257.40874848 417.13329016 249.78198624 400.19792052 249.78198624 377.13142776 C161.34198624 377.13142776 72.90198624 377.13142776 -18.21801376 377.13142776 Z " transform="translate(140.21801376342773,33.86857223510742)" style="fill: rgb(71, 111, 255);"/><path d="M0 0 C5.45607989 5.21384378 8.59085344 9.66304643 9.3125 17.3125 C8.80741997 23.27244437 7.52231164 28.1485399 3.6875 32.8125 C-3.18016309 38.40245833 -8.05795264 40.89258186 -17 40 C-24.12228287 38.33419903 -27.93683236 34.8082004 -32.25 28.9375 C-35.45072382 23.56485645 -35.84428834 18.06652639 -34.57421875 11.94921875 C-32.58390705 5.66081063 -28.71402967 1.00516258 -22.89453125 -2.13671875 C-15.31881027 -5.09996536 -6.78104679 -4.67138779 0 0 Z M-24.3125 9.125 C-26.60935017 13.03815214 -27.19954025 16.48240876 -27 21 C-25.40594023 25.69362043 -23.28109703 28.48718218 -19 31 C-14.53237966 32.20567943 -11.08964934 32.37006959 -6.6875 30.875 C-3.06558441 28.34808215 -0.61415022 26.27572103 0.5703125 21.88671875 C1.3828797 16.74334129 1.06955337 13.39969317 -2 9 C-5.51840149 5.17115133 -8.75704807 4.2450557 -13.7890625 3.90234375 C-18.34800965 4.10371067 -21.05259418 6.12941086 -24.3125 9.125 Z " transform="translate(269,423)" style="fill: rgb(71, 111, 255);"/><path d="M0 0 C0.89182983 -0.00281982 1.78365967 -0.00563965 2.70251465 -0.00854492 C4.18153259 -0.00550858 4.18153259 -0.00550858 5.69042969 -0.00241089 C6.7228479 -0.00416321 7.75526611 -0.00591553 8.81896973 -0.00772095 C12.25009821 -0.01214168 15.68117563 -0.00920069 19.11230469 -0.00582886 C21.48502614 -0.00650183 23.85774753 -0.0074718 26.23046875 -0.00872803 C31.21061864 -0.0102053 36.19075063 -0.00804949 41.17089844 -0.00338745 C47.57059148 0.00230985 53.97024258 -0.000969 60.36993408 -0.00695992 C65.27165038 -0.01056473 70.17335665 -0.00942731 75.07507324 -0.00683212 C77.43550623 -0.00616263 79.79594012 -0.00699204 82.15637207 -0.00931168 C85.44899931 -0.0118369 88.74155761 -0.00799944 92.03417969 -0.00241089 C93.02019165 -0.00443512 94.00620361 -0.00645935 95.02209473 -0.00854492 C95.91392456 -0.0057251 96.80575439 -0.00290527 97.72460938 0 C98.50406921 0.00037703 99.28352905 0.00075405 100.08660889 0.0011425 C101.86230469 0.12698364 101.86230469 0.12698364 102.86230469 1.12698364 C102.90311252 3.12656728 102.90484825 5.12743618 102.86230469 7.12698364 C100.54800312 8.28413442 99.22467777 8.25508977 96.64904785 8.26069641 C95.32403008 8.26709389 95.32403008 8.26709389 93.97224426 8.27362061 C93.00074936 8.27316742 92.02925446 8.27271423 91.02832031 8.27224731 C89.49651375 8.27728523 89.49651375 8.27728523 87.9337616 8.28242493 C84.54534705 8.29195352 81.15698181 8.29387889 77.76855469 8.29495239 C75.42207824 8.29816326 73.07560199 8.30152719 70.72912598 8.30503845 C65.806229 8.31103423 60.88334959 8.31287785 55.96044922 8.31228638 C49.63820097 8.31218464 43.31606474 8.32584683 36.99384308 8.34305859 C32.14698769 8.35415084 27.30015963 8.35620646 22.45329285 8.35567665 C20.12159336 8.35686058 17.78989324 8.3613053 15.45820618 8.36900902 C12.2041528 8.37875456 8.950346 8.37595262 5.69628906 8.36990356 C4.23904671 8.37833282 4.23904671 8.37833282 2.75236511 8.38693237 C1.42734734 8.38064064 1.42734734 8.38064064 0.07556152 8.3742218 C-1.0792358 8.37503895 -1.0792358 8.37503895 -2.25736237 8.37587261 C-4.13769531 8.12698364 -4.13769531 8.12698364 -6.13769531 6.12698364 C-5.51457239 1.01737569 -5.06745492 0.00245113 0 0 Z " transform="translate(348.1376953125,168.87301635742188)" style="fill: rgb(71, 111, 255);"/><path d="M0 0 C1.35036598 -0.00422974 1.35036598 -0.00422974 2.72801208 -0.00854492 C3.72337479 -0.00652069 4.71873749 -0.00449646 5.7442627 -0.00241089 C6.78643448 -0.00416321 7.82860626 -0.00591553 8.90235901 -0.00772095 C12.36595295 -0.01214174 15.82949631 -0.00920067 19.29309082 -0.00582886 C21.68823252 -0.00650183 24.08337416 -0.0074718 26.47851562 -0.00872803 C31.5057439 -0.01020531 36.53295444 -0.00804947 41.56018066 -0.00338745 C48.02040773 0.00230985 54.48059325 -0.000969 60.94081879 -0.00695992 C65.88885819 -0.01056471 70.83688767 -0.00942732 75.78492737 -0.00683212 C78.16768905 -0.00616263 80.55045163 -0.00699206 82.93321228 -0.00931168 C86.25697231 -0.01183687 89.58066404 -0.00799949 92.90441895 -0.00241089 C93.89978165 -0.00443512 94.89514435 -0.00645935 95.92066956 -0.00854492 C96.82091354 -0.0057251 97.72115753 -0.00290527 98.64868164 0 C99.43551582 0.00037703 100.22235001 0.00075405 101.03302765 0.0011425 C102.82434082 0.12698364 102.82434082 0.12698364 103.82434082 1.12698364 C103.94934082 3.62698364 103.94934082 3.62698364 103.82434082 6.12698364 C102.27259636 7.6787281 100.80846106 7.25293239 98.64868164 7.25396729 C97.29831566 7.25819702 97.29831566 7.25819702 95.92066956 7.26251221 C94.92530685 7.26048798 93.92994415 7.25846375 92.90441895 7.25637817 C91.34116127 7.25900665 91.34116127 7.25900665 89.74632263 7.26168823 C86.28272869 7.26610902 82.81918533 7.26316796 79.35559082 7.25979614 C76.96044912 7.26046912 74.56530748 7.26143909 72.17016602 7.26269531 C67.14293774 7.26417259 62.1157272 7.26201676 57.08850098 7.25735474 C50.62827391 7.25165744 44.16808839 7.25493628 37.70786285 7.2609272 C32.75982345 7.264532 27.81179397 7.2633946 22.86375427 7.26079941 C20.48099259 7.26012991 18.09823001 7.26095934 15.71546936 7.26327896 C12.39170933 7.26580415 9.06801761 7.26196677 5.7442627 7.25637817 C4.74889999 7.2584024 3.75353729 7.26042664 2.72801208 7.26251221 C1.8277681 7.25969238 0.92752411 7.25687256 0 7.25396729 C-0.78683418 7.25359026 -1.57366837 7.25321323 -2.38434601 7.25282478 C-4.17565918 7.12698364 -4.17565918 7.12698364 -5.17565918 6.12698364 C-5.30065918 3.62698364 -5.30065918 3.62698364 -5.17565918 1.12698364 C-3.62391472 -0.42476081 -2.15977942 0.0010349 0 0 Z " transform="translate(347.1756591796875,212.87301635742188)" style="fill: rgb(71, 111, 255);"/><path d="M 197.375 235.688 C 201.987 238.347 204.314 241.3 206.313 246.25 C 207.408 252.225 207.107 256.905 204.25 262.313 C 200.429 266.877 196.899 269.752 191 271 C 184.979 271.099 179.646 269.966 175 266 C 171.135 261.852 169.677 258.034 169.5 252.375 C 169.79 246.984 170.741 243.264 174.652 239.344 C 181.254 233.426 189.074 231.825 197.375 235.688 Z M 179 247 C 178.67 247.33 178.34 247.66 178 248 C 177.497 252.949 177.465 255.08 180 259.438 C 183.206 262.176 184.888 263.017 189.004 263.234 C 192.489 262.825 194.448 261.309 197 259 C 198.777 256.065 199.018 254.427 198.875 251 C 197.865 247.538 196.461 245.61 194 243 C 187.643 239.821 183.141 241.855 179 247 Z" style="fill: rgb(71, 111, 255);"/><path d="M0 0 C4.41854291 3.11306432 8.02390999 6.75922996 9.75 11.9375 C10.49421256 18.8062159 9.78884049 24.23560754 5.75 29.9375 C1.72614994 34.07010276 -2.68363986 35.88148387 -8.48828125 35.97265625 C-14.99794022 35.52409151 -18.97492321 33.33896995 -23.5 28.5625 C-26.93157989 23.41513016 -27.66786174 19.20643534 -26.78515625 13.1796875 C-25.57293926 8.10076377 -23.3692304 4.8054746 -19.1875 1.5625 C-13.06576033 -1.82399429 -6.63743975 -2.16993223 0 0 Z M-18.25 11.9375 C-19.31111908 14.68624996 -19.59920887 17.01216014 -19.25 19.9375 C-17.6665167 23.1044666 -16.22595724 25.13582084 -13.5 27.375 C-9.91498744 28.27125314 -6.71638537 28.09753788 -3.25 26.9375 C-0.37866199 24.48489878 1.33677254 22.67170049 2.2265625 18.9375 C2.5155257 14.92243232 1.89668625 13.11892773 -0.625 10 C-7.0134014 4.98054176 -12.87056109 5.78956982 -18.25 11.9375 Z " transform="translate(80.25,235.0625)" style="fill: rgb(71, 111, 255);"/><path d="M0 0 C4.05523038 2.85709413 7.51585617 6.46921234 9.75 10.9375 C10.43911981 18.38225339 10.38396217 23.9258734 5.75 29.9375 C1.79099374 33.79232188 -2.03552237 35.89030539 -7.64453125 35.97265625 C-14.63543866 35.54293031 -18.79385692 33.65917206 -23.5625 28.375 C-27.22001691 23.09192001 -26.83358499 17.13500821 -26.25 10.9375 C-23.93026575 6.03036985 -20.53223069 3.1263952 -16.25 -0.0625 C-10.88620867 -1.85043044 -5.36227662 -1.75305197 0 0 Z M-17.25 10.9375 C-19.16101752 15.1576637 -19.44957139 17.1891073 -18.25 21.6875 C-15.89562889 25.51335305 -14.52358325 26.62255131 -10.25 27.9375 C-5.83474717 27.9375 -3.86603926 27.41961768 -0.375 24.6875 C1.86072135 21.79421355 2.75 20.56623694 2.75 16.9375 C1.60727877 13.44919309 0.48075059 10.77650994 -1.9375 8 C-7.80391705 5.30461919 -13.04617423 6.11546456 -17.25 10.9375 Z " transform="translate(138.25,235.0625)" style="fill: rgb(71, 111, 255);"/><path d="M0 0 C1.15790039 -0.00315216 2.31580078 -0.00630432 3.50878906 -0.009552 C4.76916992 -0.00752777 6.02955078 -0.00550354 7.328125 -0.00341797 C8.61170898 -0.00437469 9.89529297 -0.00533142 11.21777344 -0.00631714 C13.93816324 -0.00779378 16.65852025 -0.00564066 19.37890625 -0.00097656 C22.87297169 0.00472073 26.36696033 0.00144154 29.86102295 -0.00454903 C33.18339653 -0.00902301 36.50574923 -0.00589432 39.828125 -0.00341797 C41.08850586 -0.0054422 42.34888672 -0.00746643 43.64746094 -0.009552 C44.80536133 -0.00639984 45.96326172 -0.00324768 47.15625 0 C48.18137695 0.00079559 49.20650391 0.00159119 50.26269531 0.00241089 C52.578125 0.12939453 52.578125 0.12939453 53.578125 1.12939453 C53.765625 3.56689453 53.765625 3.56689453 53.578125 6.12939453 C50.9700727 8.73744683 49.8743056 8.38231239 46.2421875 8.38818359 C45.12763184 8.39448792 44.01307617 8.40079224 42.86474609 8.4072876 C41.65641113 8.40323914 40.44807617 8.39919067 39.203125 8.39501953 C37.35001709 8.39788971 37.35001709 8.39788971 35.45947266 8.40081787 C32.17221093 8.40253064 28.88513713 8.39446152 25.59790039 8.38330078 C23.5801797 8.37939851 21.56263299 8.38328624 19.54492188 8.39013672 C15.68090672 8.40245457 11.81715072 8.40100431 7.953125 8.39501953 C6.74479004 8.39906799 5.53645508 8.40311646 4.29150391 8.4072876 C3.17694824 8.40098328 2.06239258 8.39467896 0.9140625 8.38818359 C-0.07029785 8.38659241 -1.0546582 8.38500122 -2.06884766 8.38336182 C-4.421875 8.12939453 -4.421875 8.12939453 -6.421875 6.12939453 C-6.609375 3.56689453 -6.609375 3.56689453 -6.421875 1.12939453 C-4.69119801 -0.60128246 -2.35698696 0.00182924 0 0 Z " transform="translate(232.421875,58.87060546875)" style="fill: rgb(71, 111, 255);"/></svg>