<?xml version="1.0" encoding="utf-8"?>
<svg version="1.1" xmlns="http://www.w3.org/2000/svg" width="512" height="512" xmlns:bx="https://boxy-svg.com" viewBox="0 0 512 512"><defs><bx:export><bx:file format="svg" path="Bez nazwy.svg"/></bx:export></defs><path d="M0 0 C1.86622183 -0.0057685 3.73243798 -0.01371449 5.59864235 -0.02363622 C10.7020303 -0.04443264 15.80494837 -0.03422714 20.90833759 -0.01870513 C26.4217319 -0.00736602 31.93504688 -0.02486703 37.44842529 -0.03860474 C48.23931788 -0.06081431 59.03003638 -0.05604606 69.82093573 -0.04154153 C78.59249135 -0.03024035 87.36399826 -0.02872221 96.13555908 -0.03416061 C98.00961817 -0.03530986 98.00961817 -0.03530986 99.92153704 -0.03648233 C102.45977387 -0.03808099 104.99801069 -0.03970205 107.53624749 -0.04134528 C130.64813403 -0.05519003 153.75992969 -0.0408431 176.87179533 -0.0146323 C197.95348074 0.00909435 219.03501512 0.00697115 240.11669922 -0.01693726 C263.82252199 -0.04373204 287.52827167 -0.05422288 311.23411369 -0.03887594 C313.76290765 -0.03728323 316.29170162 -0.03571137 318.82049561 -0.03416061 C320.06464505 -0.03338924 321.30879449 -0.03261786 322.59064543 -0.03182311 C331.34961517 -0.02750964 340.10853125 -0.03478507 348.86749268 -0.04655838 C359.54470164 -0.06059489 370.22172685 -0.05675904 380.89891481 -0.03015466 C386.34450421 -0.01703217 391.78978746 -0.01183761 397.23537445 -0.02840042 C402.22447768 -0.04334511 407.2129922 -0.0350371 412.20204234 -0.00851266 C414.00268689 -0.00294686 415.80338161 -0.00572522 417.60399365 -0.0178916 C431.78778912 -0.10634566 442.67099441 1.91662755 453.28271484 12.17007446 C462.03041916 21.99178518 463.77950068 31.24160554 463.74545288 43.98838806 C463.74998399 45.23279685 463.75451511 46.47720563 463.75918353 47.75932378 C463.76963527 51.20175164 463.77115655 54.64397016 463.76879478 58.08639896 C463.76838587 61.80362681 463.77943276 65.52082374 463.78890991 69.23803711 C463.80550461 76.51629526 463.81101876 83.79452101 463.81213467 91.0727965 C463.81308583 96.99026427 463.81719951 102.90772138 463.82353592 108.82518578 C463.84114382 125.61112368 463.85037545 142.39703605 463.84887497 159.18298326 C463.8487551 160.53965615 463.8487551 160.53965615 463.84863281 161.92373657 C463.84855105 162.82929246 463.84846929 163.73484835 463.84838505 164.66784533 C463.84757218 179.34293708 463.86671121 194.01792619 463.89490955 208.69298825 C463.9236509 223.76989092 463.93744917 238.84674354 463.93572199 253.92367429 C463.93505855 262.3847663 463.94053108 270.8457507 463.96207809 279.30681801 C463.98030633 286.51068749 463.98462375 293.71440056 463.97105925 300.91828314 C463.96453795 304.5914885 463.96438171 308.26439391 463.98176575 311.93757057 C464.00044451 315.92543882 463.98792035 319.91261533 463.97250366 323.90049744 C463.98279079 325.05333341 463.99307791 326.20616939 464.00367677 327.39393979 C463.90174246 339.34143336 459.77667102 347.85610888 451.73583984 356.50991821 C441.65326645 366.21596397 430.07598289 367.36383371 416.78564453 367.20254517 C415.13857568 367.20113183 413.49150368 367.20193223 411.84443665 367.20475769 C407.4090564 367.20618214 402.97436333 367.17695136 398.53914165 367.1418879 C393.89073432 367.110461 389.24230822 367.10768086 384.59381104 367.10176086 C375.80735858 367.08627014 367.02122016 367.0453068 358.23490548 366.99501342 C348.22518862 366.93897076 338.21545614 366.91159605 328.20562124 366.88653624 C307.62954283 366.83438621 287.05389446 366.74275471 266.47802734 366.63491821 C266.47802734 383.79491821 266.47802734 400.95491821 266.47802734 418.63491821 C271.65232422 418.61171509 276.82662109 418.58851196 282.15771484 418.56460571 C285.42985526 418.55439028 288.70197609 418.54476262 291.97412109 418.53726196 C297.17126534 418.52529238 302.36833931 418.5111113 307.56542969 418.48403931 C311.75401709 418.46235647 315.94252918 418.45035925 320.13116837 418.44516373 C321.73161124 418.44145975 323.33204986 418.43422708 324.93246078 418.4234581 C327.16893267 418.40900358 329.40509072 418.4069377 331.64160156 418.40786743 C332.9162326 418.40342621 334.19086365 418.39898499 335.50411987 418.39440918 C338.47802734 418.63491821 338.47802734 418.63491821 340.47802734 420.63491821 C340.73872375 422.56361389 340.73872375 422.56361389 340.75268555 424.94522095 C340.76221756 425.83632065 340.77174957 426.72742035 340.78157043 427.64552307 C340.78020332 429.09240257 340.78020332 429.09240257 340.77880859 430.56851196 C340.78309372 431.55738907 340.78737885 432.54626617 340.79179382 433.56510925 C340.79754371 435.65909051 340.79803256 437.75309174 340.79370117 439.84707642 C340.7905435 443.05599981 340.81398452 446.26399969 340.83935547 449.47280884 C340.84162857 451.50470871 340.84233191 453.53661107 340.84130859 455.56851196 C340.85051834 456.53107407 340.85972809 457.49363617 340.86921692 458.48536682 C340.85987373 459.82674461 340.85987373 459.82674461 340.8503418 461.19522095 C340.85097122 461.98194687 340.85160065 462.76867279 340.85224915 463.57923889 C340.3708568 466.2236286 339.56623095 466.97427528 337.47802734 468.63491821 C335.43419355 469.00981504 335.43419355 469.00981504 333.03833675 469.00964832 C332.12443076 469.01685487 331.21052477 469.02406141 330.26892465 469.03148633 C328.76077254 469.02042491 328.76077254 469.02042491 327.22215271 469.00914001 C326.1551934 469.01311442 325.08823409 469.01708883 323.98894268 469.02118367 C320.39589663 469.03084647 316.8032404 469.0189643 313.21020508 469.00723267 C310.64161023 469.0096593 308.07301633 469.01337736 305.50442505 469.01829529 C299.24160639 469.027794 292.97890277 469.02117431 286.71609264 469.00903235 C279.42788546 468.99542742 272.13970584 468.99704884 264.85148919 468.99916568 C251.85108306 469.00235707 238.85073169 468.99067881 225.8503418 468.97109985 C213.22532483 468.95209112 200.60037205 468.94501314 187.9753418 468.95059204 C174.23748254 468.95664471 160.49965153 468.95648247 146.76179463 468.94510621 C145.29801977 468.94389888 143.83424491 468.94269289 142.37047005 468.94148827 C141.65020365 468.94088473 140.92993726 468.94028119 140.18784462 468.93965936 C135.10320235 468.93577419 130.01857057 468.93617613 124.93392754 468.93807411 C118.09596389 468.94041316 111.25808452 468.93189499 104.42013931 468.91601372 C101.90377838 468.91175506 99.38740907 468.91093084 96.87104607 468.91370392 C93.44957787 468.91690359 90.0283607 468.90790005 86.60691833 468.89561462 C85.09542014 468.90128361 85.09542014 468.90128361 83.55338663 468.90706712 C82.64208838 468.90123493 81.73079014 468.89540273 80.79187679 468.88939381 C79.60617121 468.88809364 79.60617121 468.88809364 78.39651197 468.88676721 C76.47802734 468.63491821 76.47802734 468.63491821 74.47802734 466.63491821 C74.22406006 464.66152954 74.22406006 464.66152954 74.21923828 462.21694946 C74.21293396 461.30260132 74.20662964 460.38825317 74.20013428 459.44619751 C74.20418274 458.45660034 74.2082312 457.46700317 74.21240234 456.44741821 C74.21048889 455.43397339 74.20857544 454.42052856 74.206604 453.37637329 C74.20524143 451.2311071 74.20894287 449.08583268 74.21728516 446.94058228 C74.22798352 443.64840249 74.21739215 440.35676843 74.20458984 437.06460571 C74.20591143 434.98387534 74.20847379 432.9031453 74.21240234 430.82241821 C74.20835388 429.83282104 74.20430542 428.84322388 74.20013428 427.82363892 C74.20959076 426.4521167 74.20959076 426.4521167 74.21923828 425.05288696 C74.22082947 424.24617554 74.22242065 423.43946411 74.22406006 422.60830688 C74.47802734 420.63491821 74.47802734 420.63491821 76.47802734 418.63491821 C79.45193481 418.39440918 79.45193481 418.39440918 83.31445312 418.40786743 C84.01700226 418.40757538 84.71955139 418.40728333 85.44338989 418.40698242 C87.77016466 418.40837798 90.09662088 418.42394949 92.42333984 418.43960571 C94.0347374 418.44333505 95.64613721 418.44618239 97.25753784 418.44818115 C101.50236248 418.4558239 105.74705064 418.47547782 109.99182129 418.49758911 C115.08290283 418.52162722 120.17402995 418.53082548 125.26515198 418.54249573 C133.00287207 418.56190193 140.7402926 418.60021985 148.47802734 418.63491821 C148.47802734 401.47491821 148.47802734 384.31491821 148.47802734 366.63491821 C140.96819092 366.66633911 140.96819092 366.66633911 133.30664062 366.69839478 C116.76241505 366.76468274 100.21818423 366.80906483 83.67386055 366.8421669 C73.64334456 366.86277055 63.61295461 366.89084911 53.58251953 366.93667603 C44.83748407 366.9766111 36.09253992 367.00236699 27.3474158 367.01127219 C22.71917786 367.01647565 18.09120107 367.02865973 13.46304703 367.05783844 C9.10131642 367.08511305 4.73995301 367.09333901 0.37814522 367.08734894 C-1.21733156 367.08844381 -2.81282141 367.09632578 -4.40822411 367.11174011 C-13.17905126 367.19228067 -20.62732865 366.7969867 -28.52197266 362.63491821 C-29.25001539 362.27754704 -29.97805813 361.92017586 -30.72816277 361.55197525 C-39.29926001 357.17640961 -44.26953597 348.20402432 -47.6634351 339.53224289 C-49.19725538 334.35602746 -49.06775285 329.23777893 -49.0231781 323.87599182 C-49.0314797 321.99835005 -49.0314797 321.99835005 -49.039949 320.08277613 C-49.05461806 316.633705 -49.04457409 313.18509441 -49.03021228 309.73603857 C-49.01905737 306.00660553 -49.03105991 302.27723472 -49.04005432 298.54780579 C-49.05395776 291.25219121 -49.04645229 283.9567502 -49.03137874 276.66114395 C-49.01448386 268.15912436 -49.01773325 259.65714758 -49.02147282 251.15511639 C-49.027346 235.98257718 -49.01320064 220.81012107 -48.98852539 205.63760376 C-48.96460198 190.92565802 -48.95752348 176.21382327 -48.96801758 161.50186157 C-48.97943445 145.46758895 -48.98134767 129.43336761 -48.96691948 113.39909559 C-48.9653937 111.68843782 -48.96387334 109.97778005 -48.96235847 108.26712227 C-48.96160066 107.42552081 -48.96084285 106.58391936 -48.96006207 105.71681483 C-48.95532552 99.79479828 -48.95716618 93.87280469 -48.96142387 87.9507885 C-48.96635743 80.73159692 -48.96033536 73.51251014 -48.94052958 66.29334252 C-48.93067814 62.61219839 -48.92552915 58.9312136 -48.93342209 55.25006104 C-48.9418116 51.25551074 -48.92686006 47.26138297 -48.90965271 43.26686096 C-48.91566276 42.10926755 -48.9216728 40.95167415 -48.92786497 39.75900215 C-48.82970576 27.22533766 -45.16271214 19.76226361 -36.70947266 10.68960571 C-26.04667367 0.42666169 -13.92490326 -0.09408782 0 0 Z M-31.34228516 20.63101196 C-39.08642759 30.52630507 -38.52197266 38.95151835 -38.52197266 51.63491821 C123.83802734 51.63491821 286.19802734 51.63491821 453.47802734 51.63491821 C453.47802734 38.89538855 453.10463342 31.10596751 446.47802734 20.63491821 C445.81802734 20.63491821 445.15802734 20.63491821 444.47802734 20.63491821 C444.47802734 19.97491821 444.47802734 19.31491821 444.47802734 18.63491821 C442.85186344 17.09659117 442.85186344 17.09659117 440.66552734 15.63491821 C439.60398437 14.86148071 439.60398437 14.86148071 438.52099609 14.07241821 C428.74437046 9.45393524 417.32148606 10.35123705 406.75292969 10.38095093 C404.96111105 10.37864383 403.16929337 10.37546563 401.37747765 10.37149644 C396.47525826 10.36317411 391.57311709 10.36726205 386.67089748 10.37346888 C381.37566545 10.37800286 376.08044667 10.37100491 370.78521729 10.36550903 C360.42035938 10.3566235 350.05553047 10.35853331 339.69067144 10.36433432 C331.26568203 10.3688541 322.84070073 10.36946234 314.41571045 10.36728668 C313.21587001 10.36698022 312.01602957 10.36667375 310.77983034 10.366358 C308.34225225 10.36571854 305.90467417 10.36507011 303.46709609 10.36441281 C280.61876413 10.35871198 257.77044823 10.36526355 234.9221189 10.37601355 C215.32421055 10.38494883 195.72632589 10.38339672 176.12841797 10.37417603 C153.36091789 10.36346905 130.59343188 10.35926128 107.82592964 10.36540055 C105.39740118 10.36603764 102.96887271 10.36666638 100.54034424 10.36728668 C99.34551308 10.36759523 98.15068192 10.36790378 96.91964376 10.36822169 C88.5063826 10.36994734 80.09313038 10.36703631 71.67987061 10.36232758 C61.42463835 10.35671401 51.1694367 10.35824524 40.91420794 10.36888906 C35.68351335 10.37413933 30.45286978 10.37621347 25.2221756 10.36959076 C20.43064151 10.3636159 15.63920556 10.36693178 10.84768033 10.37754586 C9.1176778 10.37977337 7.38766691 10.37865824 5.65766978 10.37379429 C-14.72755667 10.04041832 -14.72755667 10.04041832 -31.34228516 20.63101196 Z M-38.52197266 61.63491821 C-38.52197266 131.59491821 -38.52197266 201.55491821 -38.52197266 273.63491821 C123.83802734 273.63491821 286.19802734 273.63491821 453.47802734 273.63491821 C453.47802734 203.67491821 453.47802734 133.71491821 453.47802734 61.63491821 C291.11802734 61.63491821 128.75802734 61.63491821 -38.52197266 61.63491821 Z M-38.52197266 283.63491821 C-41.47116441 316.9528806 -41.47116441 316.9528806 -30.52197266 347.63491821 C-22.35101808 355.37413937 -13.93528533 356.75763113 -2.89501476 356.76355267 C-2.15549126 356.7653057 -1.41596777 356.76705874 -0.65403447 356.7688649 C1.81959591 356.77351022 4.29316714 356.77106319 6.76679993 356.76863098 C8.56000303 356.77049969 10.35320573 356.77280063 12.14640778 356.7754963 C17.07097546 356.78161326 21.99552615 356.78148083 26.92009676 356.78030193 C32.23241905 356.7800979 37.5447359 356.7856169 42.85705566 356.7903595 C53.26356051 356.79866593 63.67005969 356.80141433 74.07656757 356.80197188 C82.53503113 356.80244702 90.99349282 356.80450168 99.4519558 356.8076725 C123.43176793 356.81647889 147.41157559 356.82109188 171.39138935 356.82034203 C172.68414737 356.82030207 173.97690539 356.82026211 175.30883789 356.82022095 C176.6031737 356.82018007 177.89750951 356.82013919 179.23106762 356.82009707 C200.21098627 356.81969055 221.19088697 356.82926147 242.17080043 356.84335931 C263.71136798 356.85771974 285.25192678 356.86462969 306.79249924 356.86376554 C318.88649293 356.86343346 330.9804678 356.86618518 343.07445717 356.87694359 C353.37080151 356.88604416 363.66711851 356.88822746 373.96346513 356.88143416 C379.21628795 356.8781668 384.4690583 356.87812016 389.72187614 356.88678741 C394.53263504 356.89464361 399.34329976 356.89322994 404.15405633 356.88450328 C405.89223735 356.88296637 407.63042537 356.88479167 409.36859814 356.89036336 C423.7032098 356.933261 435.29402689 356.59757696 446.47802734 346.63491821 C448.30699568 343.88156654 448.30699568 343.88156654 449.72802734 340.82241821 C450.22818359 339.8259729 450.72833984 338.82952759 451.24365234 337.80288696 C457.18977776 322.54241953 453.47802734 292.47794571 453.47802734 283.63491821 C291.11802734 283.63491821 128.75802734 283.63491821 -38.52197266 283.63491821 Z M158.47802734 366.63491821 C158.47802734 383.79491821 158.47802734 400.95491821 158.47802734 418.63491821 C190.81802734 418.63491821 223.15802734 418.63491821 256.47802734 418.63491821 C256.47802734 401.47491821 256.47802734 384.31491821 256.47802734 366.63491821 C224.13802734 366.63491821 191.79802734 366.63491821 158.47802734 366.63491821 Z M84.47802734 428.63491821 C84.47802734 438.53491821 84.47802734 448.43491821 84.47802734 458.63491821 C165.65802734 458.63491821 246.83802734 458.63491821 330.47802734 458.63491821 C330.47802734 448.73491821 330.47802734 438.83491821 330.47802734 428.63491821 C249.29802734 428.63491821 168.11802734 428.63491821 84.47802734 428.63491821 Z " fill="#476EFE" transform="translate(48.52197265625,21.365081787109375)"/><path d="M0 0 C2 3 2 3 1.83125496 5.44823742 C0.88839389 8.34260523 -0.16681619 9.67624611 -2.30007935 11.82820129 C-3.00654099 12.55027771 -3.71300262 13.27235413 -4.44087219 14.01631165 C-5.22109238 14.79314804 -6.00131256 15.56998444 -6.80517578 16.37036133 C-7.62313126 17.20014496 -8.44108673 18.02992859 -9.28382874 18.88485718 C-11.99387453 21.6278323 -14.71867882 24.35555108 -17.4453125 27.08203125 C-18.85614341 28.50056722 -20.26697048 29.91910718 -21.67719734 31.33824366 C-26.11095582 35.79936607 -30.55564276 40.24939432 -35.00683594 44.69311523 C-39.59580293 49.27483889 -44.16404811 53.87651605 -48.72287571 58.48821241 C-52.64079043 62.44991118 -56.57211685 66.39795003 -60.51424968 70.33555049 C-62.86724753 72.68622681 -65.21297375 75.04341453 -67.54880142 77.41117287 C-70.15569752 80.04993936 -72.78378233 82.6656205 -75.41845703 85.27661133 C-76.57056923 86.45704765 -76.57056923 86.45704765 -77.74595642 87.66133118 C-83.03115287 92.83398741 -83.03115287 92.83398741 -87.91134644 93.67021179 C-91 93 -91 93 -93 90 C-92.72512616 85.96097459 -91.49142881 83.99285622 -88.66627502 81.17852783 C-87.95258759 80.45789658 -87.23890015 79.73726532 -86.50358582 78.99479675 C-85.71551041 78.2195314 -84.927435 77.44426605 -84.11547852 76.64550781 C-83.28949158 75.81733047 -82.46350464 74.98915314 -81.61248779 74.13587952 C-78.87748697 71.39856556 -76.12846321 68.67581118 -73.37890625 65.953125 C-71.47860097 64.05774184 -69.57904514 62.16163532 -67.68040466 60.2645874 C-63.69970158 56.29032882 -59.71167866 52.32354402 -55.71850586 48.36181641 C-50.59015895 43.27380046 -45.47334602 38.17435071 -40.360322 33.07094193 C-35.49543288 28.21523748 -30.62481232 23.36529236 -25.75390625 18.515625 C-24.81955812 17.58467262 -23.88521 16.65372025 -22.92254829 15.69455719 C-20.28905224 13.07259289 -17.65210306 10.45415725 -15.01391602 7.83691406 C-14.22786484 7.05355179 -13.44181366 6.27018951 -12.63194275 5.46308899 C-11.91543549 4.75373703 -11.19892822 4.04438507 -10.46070862 3.3135376 C-9.83703179 2.69413425 -9.21335497 2.07473091 -8.57077885 1.43655777 C-5.55808745 -1.31870294 -3.827794 -1.1483382 0 0 Z " fill="#466EFE" transform="translate(307,148)"/><path d="M0 0 C2 3 2 3 2.00579834 5.27336121 C0.53111095 9.27112069 -2.09680571 11.66253195 -5.09277344 14.6262207 C-6.04654877 15.59291939 -6.04654877 15.59291939 -7.01959229 16.57914734 C-9.12275315 18.70499804 -11.24031557 20.81578629 -13.359375 22.92578125 C-14.82621873 24.3978586 -16.29254066 25.87045605 -17.75836182 27.34355164 C-20.83195556 30.42755481 -23.91292642 33.50394985 -26.99902344 36.57543945 C-30.95671941 40.51593424 -34.89368945 44.47642842 -38.82516098 48.4430666 C-41.84804912 51.48789182 -44.88251613 54.52096328 -47.92053986 57.55068016 C-49.37723113 59.00655016 -50.83006966 60.4662855 -52.27898407 61.9298954 C-54.30411019 63.97240062 -56.34447776 65.99834491 -58.38964844 68.02075195 C-58.98724976 68.63004547 -59.58485107 69.23933899 -60.20056152 69.86709595 C-62.67239979 72.2831556 -64.33102424 73.88535088 -67.79595947 74.47917175 C-70 74 -70 74 -71.875 72.3125 C-73.37128696 69.23679902 -73.11105867 68.23690966 -72 65 C-70.19158556 62.61770181 -68.08613933 60.5706725 -65.95141602 58.48144531 C-65.32050049 57.84833939 -64.68958496 57.21523346 -64.03955078 56.5629425 C-61.9538284 54.47491051 -59.85418206 52.4015094 -57.75390625 50.328125 C-56.30201081 48.88115288 -54.85092582 47.43336715 -53.40061951 45.98480225 C-50.3608722 42.95269421 -47.31478157 39.92716527 -44.26342773 36.90673828 C-40.3461101 33.02904817 -36.43968795 29.14061585 -32.53729343 25.24791336 C-28.8213578 21.54193626 -25.100471 17.840948 -21.37890625 14.140625 C-20.66601503 13.43112953 -19.95312382 12.72163406 -19.21862984 11.99063873 C-17.20778444 9.99133365 -15.19350117 7.99556501 -13.17797852 6.00097656 C-12.57894211 5.40462906 -11.9799057 4.80828156 -11.36271667 4.19386292 C-5.45519233 -1.6365577 -5.45519233 -1.6365577 0 0 Z " fill="#466EFF" transform="translate(276,137)"/><path d="M0 0 C1.37152222 -0.00945648 1.37152222 -0.00945648 2.77075195 -0.019104 C3.76034912 -0.01505554 4.74994629 -0.01100708 5.76953125 -0.00683594 C6.78297607 -0.00874939 7.7964209 -0.01066284 8.84057617 -0.01263428 C10.98584237 -0.01399685 13.13111678 -0.01029541 15.27636719 -0.00195312 C18.56854697 0.00874524 21.86018103 -0.00184613 25.15234375 -0.01464844 C27.23307413 -0.01332686 29.31380416 -0.01076449 31.39453125 -0.00683594 C32.38412842 -0.0108844 33.37372559 -0.01493286 34.39331055 -0.019104 C35.30765869 -0.01279968 36.22200684 -0.00649536 37.1640625 0 C38.37412964 0.00238678 38.37412964 0.00238678 39.60864258 0.00482178 C41.58203125 0.25878906 41.58203125 0.25878906 43.58203125 2.25878906 C43.83203125 5.25878906 43.83203125 5.25878906 43.58203125 8.25878906 C41.14074456 10.70007575 40.51122311 10.51097607 37.1640625 10.51757812 C35.79254028 10.52703461 35.79254028 10.52703461 34.39331055 10.53668213 C32.90891479 10.53060944 32.90891479 10.53060944 31.39453125 10.52441406 C30.38108643 10.52632751 29.3676416 10.52824097 28.32348633 10.5302124 C26.17822013 10.53157497 24.03294572 10.52787353 21.88769531 10.51953125 C18.59551553 10.50883288 15.30388147 10.51942425 12.01171875 10.53222656 C9.93098837 10.53090498 7.85025834 10.52834262 5.76953125 10.52441406 C4.77993408 10.52846252 3.79033691 10.53251099 2.77075195 10.53668213 C1.85640381 10.53037781 0.94205566 10.52407349 0 10.51757812 C-0.80671143 10.51598694 -1.61342285 10.51439575 -2.44458008 10.51275635 C-4.41796875 10.25878906 -4.41796875 10.25878906 -6.41796875 8.25878906 C-6.66796875 5.25878906 -6.66796875 5.25878906 -6.41796875 2.25878906 C-3.97668206 -0.18249762 -3.34716061 0.00660206 0 0 Z " fill="#466EFE" transform="translate(237.41796875,335.7412109375)"/></svg>