<svg xmlns="http://www.w3.org/2000/svg" xml:space="preserve" width="1.70666in" height="1.70666in" version="1.1" style="shape-rendering:geometricPrecision; text-rendering:geometricPrecision; image-rendering:optimizeQuality; fill-rule:evenodd; clip-rule:evenodd" viewBox="0 0 1707 1707" xmlns:xlink="http://www.w3.org/1999/xlink">
 <defs>
  <style type="text/css">
   
    .fil0 {fill:black;fill-rule:nonzero}
   
  </style>
 </defs>
 <g id="Layer_x0020_1">
  <metadata id="CorelCorpID_0Corel-Layer"></metadata>
  <g id="_716568216">
   <g>
    <g>
     <path class="fil0" d="M1682 1233c-14,0 -25,-11 -25,-25 0,-443 -361,-804 -804,-804 -444,0 -805,361 -805,804 0,14 -11,25 -25,25 -14,0 -23,-11 -23,-25 0,-470 382,-853 853,-853 470,0 853,383 853,853 0,14 -12,25 -24,25z" id="id_101" style="fill: rgb(71, 112, 254);"></path>
    </g>
    <g>
     <path class="fil0" d="M163 999c-2,0 -5,0 -8,-1 -12,-5 -19,-18 -15,-31 83,-245 292,-435 545,-494 12,-2 26,6 29,18 3,13 -6,27 -18,29 -236,56 -431,233 -510,462 -3,11 -13,17 -23,17z" id="id_102" style="fill: rgb(71, 112, 254);"></path>
    </g>
    <g>
     <path class="fil0" d="M1682 1233l-1657 0c-14,0 -25,-11 -25,-25 0,-13 11,-25 25,-25l1657 0c14,0 25,12 25,25 0,14 -13,25 -25,25z" id="id_103" style="fill: rgb(71, 112, 254);"></path>
    </g>
    <g>
     <path class="fil0" d="M1047 1233c-14,0 -25,-11 -25,-25 0,-93 -76,-169 -169,-169 -93,0 -170,76 -170,169 0,14 -11,25 -25,25 -13,0 -23,-11 -23,-25 0,-120 97,-217 218,-217 120,0 217,97 217,217 0,14 -11,25 -23,25z" id="id_104" style="fill: rgb(71, 112, 254);"></path>
    </g>
    <g>
     <path class="fil0" d="M1403 1351l-1101 0c-14,0 -25,-11 -25,-25 0,-14 11,-25 25,-25l1101 0c14,0 25,11 25,25 0,14 -11,25 -25,25z" id="id_105" style="fill: rgb(71, 112, 254);"></path>
    </g>
    <g>
     <path class="fil0" d="M726 1086c-12,0 -23,-11 -23,-23 0,-16 -2,-43 -2,-78 -2,-115 -6,-306 -12,-355 -1,-12 7,-24 18,-26 11,-3 24,2 29,14 22,49 137,258 186,346 19,35 25,45 26,49l0 0c2,4 3,7 3,10 4,11 -1,24 -12,30 -13,6 -27,1 -34,-11 -1,-4 -2,-7 -2,-8 -3,-6 -13,-23 -25,-46 -35,-63 -92,-167 -135,-248 3,77 4,176 7,245 1,35 1,62 1,78 0,12 -9,23 -25,23 2,0 0,0 0,0zm178 -52c0,0 0,0 0,0 0,0 0,0 0,0zm46 -14c0,0 0,0 0,0 0,0 0,0 0,0z" id="id_106" style="fill: rgb(71, 112, 254);"></path>
    </g>
    <g>
     <path class="fil0" d="M853 619c-14,0 -25,-11 -25,-25l0 -214c0,-13 11,-25 25,-25 14,0 25,12 25,25l0 215c0,13 -11,24 -25,24z" id="id_107" style="fill: rgb(71, 112, 254);"></path>
    </g>
    <g>
     <path class="fil0" d="M1161 701c-5,0 -9,-2 -13,-3 -11,-7 -15,-22 -8,-33l107 -186c6,-11 20,-15 33,-8 11,7 15,22 8,33l-107 186c-4,7 -12,11 -20,11z" id="id_108" style="fill: rgb(71, 112, 254);"></path>
    </g>
    <g>
     <path class="fil0" d="M1385 927c-8,0 -16,-4 -21,-13 -7,-11 -2,-26 9,-33l186 -108c11,-7 26,-3 33,8 7,11 3,27 -8,34l-186 108c-4,2 -9,4 -13,4z" id="id_109" style="fill: rgb(71, 112, 254);"></path>
    </g>
   </g>
  </g>
 </g>
</svg>