<?xml version="1.0" encoding="UTF-8"?>
<svg version="1.1" xmlns="http://www.w3.org/2000/svg" width="510" height="510">
<path d="M0 0 C168.3 0 336.6 0 510 0 C510 33.66 510 67.32 510 102 C341.7 102 173.4 102 0 102 C0 68.34 0 34.68 0 0 Z " fill="#FCFCFC" transform="translate(0,204)"/>
<path d="M0 0 C168.3 0 336.6 0 510 0 C510 33.66 510 67.32 510 102 C509.34 102 508.68 102 508 102 C508 69.33 508 36.66 508 3 C397.78 3 287.56 3 174 3 C174.99 4.32 175.98 5.64 177 7 C176.88633506 11.56933049 174.47796418 14.64294063 171.9375 18.3125 C171.20402344 19.38113281 170.47054687 20.44976562 169.71484375 21.55078125 C169.14894531 22.35902344 168.58304688 23.16726562 168 24 C169.41602213 27.14906415 171.13735082 29.49523672 173.4375 32.0625 C174.03433594 32.73410156 174.63117188 33.40570313 175.24609375 34.09765625 C176.94331887 35.99525271 176.94331887 35.99525271 178.72265625 37.5625 C180 39 180 39 180 41.9375 C179.14782816 46.55098205 177.04021953 50.71601959 175.05859375 54.9375 C172.7150159 61.71744477 174.35724671 66.82762843 177 73.125 C180.8091444 82.30469485 180.8091444 82.30469485 180 86 C177.84765625 88.1328125 177.84765625 88.1328125 175.0625 90.125 C171.06195803 92.82526726 171.06195803 92.82526726 169 97 C169.33 98.65 169.66 100.3 170 102 C113.9 102 57.8 102 0 102 C0 68.34 0 34.68 0 0 Z " fill="#8C9093" transform="translate(0,204)"/>
<path d="M0 0 C5.17039239 0.00998145 8.42500315 3.13111983 12.125 6.4375 C12.455 4.7875 12.785 3.1375 13.125 1.4375 C17.415 1.4375 21.705 1.4375 26.125 1.4375 C26.24899459 8.41171857 26.33952836 15.38528942 26.3996582 22.36035156 C26.42473575 24.73090804 26.45880632 27.1013877 26.50219727 29.47167969 C26.56314397 32.88756305 26.5912785 36.30242036 26.61328125 39.71875 C26.63908768 40.77114868 26.6648941 41.82354736 26.69148254 42.90783691 C26.69405096 49.71175227 25.56432761 54.18846709 21.125 59.4375 C15.84619288 64.33924947 11.41502932 64.6653897 4.4375 64.75 C3.65955078 64.77900391 2.88160156 64.80800781 2.08007812 64.83789062 C-4.99789207 64.91463259 -10.27786364 62.96970795 -15.375 58 C-17.05522892 55.12960893 -17.00514586 53.68572366 -16.875 50.4375 C-14.41601345 50.35673037 -11.95966258 50.29712857 -9.5 50.25 C-8.80132812 50.22486328 -8.10265625 50.19972656 -7.3828125 50.17382812 C-5.3515625 50.14453125 -5.3515625 50.14453125 -1.875 50.4375 C-1.215 51.4275 -0.555 52.4175 0.125 53.4375 C5.2800541 54.12804214 5.2800541 54.12804214 9.8359375 52.23828125 C11.52493539 49.87880238 11.62565161 48.12746525 11.8125 45.25 C11.87824219 44.34894531 11.94398438 43.44789063 12.01171875 42.51953125 C12.04910156 41.83246094 12.08648437 41.14539063 12.125 40.4375 C10.7328125 41.3965625 10.7328125 41.3965625 9.3125 42.375 C3.54918551 46.1042035 -2.16322032 46.34050787 -8.875 45.4375 C-13.32780562 43.26160895 -15.44354219 40.24288792 -17.75 35.9375 C-20.77880078 26.51456425 -20.86554458 17.56547797 -16.875 8.4375 C-14.3125 5.4375 -14.3125 5.4375 -11.875 3.4375 C-11.215 2.7775 -10.555 2.1175 -9.875 1.4375 C-6.60287182 0.65842186 -3.34242309 0.37737035 0 0 Z " fill="#8D9093" transform="translate(371.875,239.5625)"/>
<path d="M0 0 C5.259375 -0.12375 10.51875 -0.2475 15.9375 -0.375 C17.578396 -0.42962402 19.21929199 -0.48424805 20.90991211 -0.54052734 C28.44134422 -0.6261903 34.21071455 -0.49453535 40.38085938 4.33447266 C44.61464503 8.68955193 46.19914016 12.96523077 46.375 19 C46.09194026 24.9442545 45.58226647 30.02216691 41.75 34.8125 C33.41655658 41.44137545 26.27606353 41.10276064 16 41 C16 47.6 16 54.2 16 61 C10.72 61 5.44 61 0 61 C0 40.87 0 20.74 0 0 Z " fill="#FBFBFB" transform="translate(15,220)"/>
<path d="M0 0 C2.84872026 1.39323965 4.62441001 2.84037273 7 5 C7.33 3.68 7.66 2.36 8 1 C12.62 1 17.24 1 22 1 C22 14.86 22 28.72 22 43 C17.38 43 12.76 43 8 43 C7.67 41.68 7.34 40.36 7 39 C6.113125 39.825 5.22625 40.65 4.3125 41.5 C-0.19364717 44.70294371 -4.49829971 44.77023388 -9.90234375 44.546875 C-14.59605309 43.71822518 -17.21215999 41.79889665 -20 38 C-23.7529325 32.50341828 -24.63285834 28.59863068 -24.5 22 C-24.51546875 21.23171875 -24.5309375 20.4634375 -24.546875 19.671875 C-24.50209096 13.08862073 -22.61668728 9.03892546 -18.28125 4.00390625 C-12.60280002 -0.59115525 -7.15083987 -1.35973562 0 0 Z " fill="#8F9295" transform="translate(470,240)"/>
<path d="M0 0 C4.36720695 2.47567782 7.59098727 4.90511189 10.6875 8.875 C11.5625 12.75 11.5625 12.75 11.6875 15.875 C12.3475 15.875 13.0075 15.875 13.6875 15.875 C14.29795954 23.44469836 12.95947643 28.5477402 8.6875 34.875 C4.23697331 39.90694942 -1.10154878 43.29104683 -7.84765625 44.2265625 C-14.96430994 44.60691811 -20.51449664 43.06708156 -26.3125 38.875 C-28.77767859 36.28767292 -31.3125 33.61686653 -31.3125 29.875 C-31.9725 29.875 -32.6325 29.875 -33.3125 29.875 C-35.32281205 23.84406385 -35.41955457 16.46124014 -32.875 10.5625 C-26.10155265 -1.02493314 -12.07109932 -5.67086388 0 0 Z " fill="#F9FAFA" transform="translate(139.3125,239.125)"/>
<path d="M0 0 C112.53 0 225.06 0 341 0 C341 33.66 341 67.32 341 102 C340.34 102 339.68 102 339 102 C339 69.33 339 36.66 339 3 C228.78 3 118.56 3 5 3 C5.99 4.32 6.98 5.64 8 7 C7.88633506 11.56933049 5.47796418 14.64294063 2.9375 18.3125 C2.20402344 19.38113281 1.47054687 20.44976562 0.71484375 21.55078125 C0.14894531 22.35902344 -0.41695312 23.16726562 -1 24 C0.41602213 27.14906415 2.13735082 29.49523672 4.4375 32.0625 C5.33275391 33.06990234 5.33275391 33.06990234 6.24609375 34.09765625 C7.94331887 35.99525271 7.94331887 35.99525271 9.72265625 37.5625 C11 39 11 39 11 41.9375 C10.14782816 46.55098205 8.04021953 50.71601959 6.05859375 54.9375 C3.7150159 61.71744477 5.35724671 66.82762843 8 73.125 C11.8091444 82.30469485 11.8091444 82.30469485 11 86 C8.84765625 88.1328125 8.84765625 88.1328125 6.0625 90.125 C2.06195803 92.82526726 2.06195803 92.82526726 0 97 C0.39397335 99.63804589 0.39397335 99.63804589 1 102 C0.01 102 -0.98 102 -2 102 C-4.04491206 97.66959799 -4.04491206 97.66959799 -3.87109375 95.078125 C-2.26976775 91.25792127 1.48666086 89.37333756 4.75 87 C7.03494291 85.21359851 7.03494291 85.21359851 7.95703125 83.12109375 C8.01955577 80.03465631 6.94284024 77.86668257 5.6875 75.0625 C5.23761719 74.04285156 4.78773438 73.02320313 4.32421875 71.97265625 C3.50453564 70.13260065 2.65795366 68.30396284 1.76953125 66.49609375 C0.0999675 61.08060524 2.60572506 55.97412382 4.5 50.875 C5.34595761 48.58796343 6.18090259 46.29679341 7 44 C7.24548584 43.34435059 7.49097168 42.68870117 7.74389648 42.01318359 C8.22146584 39.94888248 8.22146584 39.94888248 6.92016602 38.26074219 C6.09536743 37.41237793 6.09536743 37.41237793 5.25390625 36.546875 C4.66416016 35.928125 4.07441406 35.309375 3.46679688 34.671875 C2.83837891 34.03765625 2.20996094 33.4034375 1.5625 32.75 C0.93794922 32.1003125 0.31339844 31.450625 -0.33007812 30.78125 C-1.87592741 29.17639883 -3.43248791 27.58365243 -5 26 C-3.33243304 21.21627256 -0.7343936 18.07578686 2.5390625 14.28125 C4.35119465 11.45161049 4.57421195 10.30901802 4 7 C2.02 3.535 2.02 3.535 0 0 Z " fill="#8E9090" transform="translate(169,204)"/>
<path d="M0 0 C4.66263434 3.26065773 7.79106234 6.83288113 9.71484375 12.19921875 C9.71484375 15.49921875 9.71484375 18.79921875 9.71484375 22.19921875 C-0.51515625 22.19921875 -10.74515625 22.19921875 -21.28515625 22.19921875 C-20.29515625 25.16921875 -19.30515625 28.13921875 -18.28515625 31.19921875 C-11.75971519 31.78542125 -11.75971519 31.78542125 -5.84765625 29.69921875 C-2.66864872 27.83833629 -0.62306566 27.89137558 3.02734375 28.01171875 C4.63029297 28.05232422 4.63029297 28.05232422 6.265625 28.09375 C7.07386719 28.12855469 7.88210938 28.16335938 8.71484375 28.19921875 C6.7808386 33.27174104 4.83418722 36.88965428 0.09765625 39.81640625 C-3.98715473 41.48617887 -7.29248571 41.73688774 -11.66015625 41.69921875 C-12.41458008 41.69422363 -13.16900391 41.68922852 -13.94628906 41.68408203 C-19.8513583 41.49850877 -23.97887812 40.44971607 -28.28515625 36.19921875 C-28.78273438 35.71839844 -29.2803125 35.23757813 -29.79296875 34.7421875 C-34.91579162 29.19490216 -35.81896192 23.31076058 -35.66015625 16.015625 C-34.93890377 10.59871836 -32.55175042 6.35511878 -28.60546875 2.6015625 C-20.28338548 -3.74171431 -9.24258051 -5.38678005 0 0 Z " fill="#8D9093" transform="translate(334.28515625,241.80078125)"/>
<path d="M0 0 C6.35729446 5.23541896 6.35729446 5.23541896 7.125 9.75 C7.20742194 12.21237767 7.23243299 14.67688768 7.22265625 17.140625 C7.2212413 17.84523865 7.21982635 18.54985229 7.21836853 19.27581787 C7.21278933 21.51725584 7.20024073 23.75859243 7.1875 26 C7.18248231 27.52343605 7.17791987 29.04687368 7.17382812 30.5703125 C7.16367934 34.2969451 7.14410009 38.0233596 7.125 41.75 C2.175 41.75 -2.775 41.75 -7.875 41.75 C-7.93558594 39.69136719 -7.99617188 37.63273437 -8.05859375 35.51171875 C-8.12117658 33.51602171 -8.18379126 31.52032553 -8.24731445 29.5246582 C-8.29060218 28.13864017 -8.33228164 26.75257094 -8.37231445 25.36645508 C-8.43016584 23.37308202 -8.49429776 21.37989435 -8.55859375 19.38671875 C-8.59525146 18.18748779 -8.63190918 16.98825684 -8.66967773 15.75268555 C-8.75233025 12.70005651 -8.75233025 12.70005651 -9.875 9.75 C-11.133125 9.853125 -12.39125 9.95625 -13.6875 10.0625 C-14.74904297 10.14951172 -14.74904297 10.14951172 -15.83203125 10.23828125 C-18.4583363 10.89611292 -19.245897 11.58163898 -20.875 13.75 C-21.38218056 16.7488613 -21.38218056 16.7488613 -21.38671875 20.16796875 C-21.42216797 21.42158203 -21.45761719 22.67519531 -21.49414062 23.96679688 C-21.52797852 25.93229492 -21.52797852 25.93229492 -21.5625 27.9375 C-21.59567666 29.27282013 -21.63016666 30.60810832 -21.66601562 31.94335938 C-21.74861509 35.21193825 -21.81348004 38.48095644 -21.875 41.75 C-26.825 41.75 -31.775 41.75 -36.875 41.75 C-36.875 27.89 -36.875 14.03 -36.875 -0.25 C-32.255 -0.25 -27.635 -0.25 -22.875 -0.25 C-22.545 1.4 -22.215 3.05 -21.875 4.75 C-21.42125 4.255 -20.9675 3.76 -20.5 3.25 C-18.875 1.75 -18.875 1.75 -16.875 1.75 C-16.875 1.09 -16.875 0.43 -16.875 -0.25 C-11.34930721 -1.83241549 -5.32933942 -2.31710409 0 0 Z " fill="#909396" transform="translate(252.875,241.25)"/>
<path d="M0 0 C5.61 0 11.22 0 17 0 C17 20.13 17 40.26 17 61 C11.39 61 5.78 61 0 61 C0 40.87 0 20.74 0 0 Z " fill="#919497" transform="translate(189,222)"/>
<path d="M0 0 C4.95 0 9.9 0 15 0 C15 4.29 15 8.58 15 13 C16.98 13 18.96 13 21 13 C21 16.63 21 20.26 21 24 C19.02 24 17.04 24 15 24 C15 34.23 15 44.46 15 55 C10.05 55 5.1 55 0 55 C0 44.44 0 33.88 0 23 C-1.98 23 -3.96 23 -6 23 C-6 19.7 -6 16.4 -6 13 C-4.02 13 -2.04 13 0 13 C0 8.71 0 4.42 0 0 Z " fill="#929598" transform="translate(272,228)"/>
<path d="M0 0 C21.9483819 -0.16346683 43.89666354 -0.2869342 65.84553051 -0.3626852 C76.03663154 -0.3987915 86.22735451 -0.44802327 96.41821289 -0.52807617 C105.29980716 -0.59781112 114.18112768 -0.64299912 123.0629881 -0.65861946 C127.76674968 -0.6677516 132.46972804 -0.68923605 137.17323875 -0.7401104 C141.59999025 -0.78760359 146.02563558 -0.80228542 150.45261765 -0.79175377 C152.07764891 -0.79368052 153.70271692 -0.80761886 155.327528 -0.83443832 C167.59890816 -1.02706674 167.59890816 -1.02706674 171.07680702 1.52239799 C172.93752947 4.0213476 173.88861113 6.52293319 174.59375 9.54296875 C173.7403126 13.07462745 171.74081287 15.54344746 169.5 18.3125 C169.07074219 18.86228516 168.64148438 19.41207031 168.19921875 19.97851562 C167.14352235 21.32746102 166.07317559 22.66491846 165 24 C166.88462293 28.75153417 170.71833992 32.04295038 174.27539062 35.578125 C175.76171875 37.125 175.76171875 37.125 178 40 C177.91796875 42.140625 177.91796875 42.140625 177 44 C176.54625 45.2375 176.0925 46.475 175.625 47.75 C174.82861262 49.87501386 174.01228623 51.97195535 173.1015625 54.05078125 C169.51950639 62.51297803 172.53714203 68.83170891 175.84375 77.01171875 C176.75022644 79.35447035 177.47581832 81.55183329 178 84 C176.56458334 85.29398147 175.12658648 86.58510111 173.6875 87.875 C172.48673828 88.95394531 172.48673828 88.95394531 171.26171875 90.0546875 C169 92 169 92 166 94 C166.33 96.64 166.66 99.28 167 102 C165.02 102 163.04 102 161 102 C160.01 97.545 160.01 97.545 159 93 C159.87785156 92.3709375 160.75570312 91.741875 161.66015625 91.09375 C168.46672393 86.36083732 168.46672393 86.36083732 171.5625 79.125 C171.00005453 77.12423614 171.00005453 77.12423614 170 75 C169.58363281 74.02546875 169.16726562 73.0509375 168.73828125 72.046875 C167.85400404 69.98947358 166.9301632 67.94846147 165.9609375 65.9296875 C163.8005073 59.34301006 167.3053275 53.74036625 170.0390625 47.8046875 C171.05510471 44.83916593 171.26995391 43.81161889 170 41 C168.60950004 39.11085463 168.60950004 39.11085463 166.9375 37.375 C164 34.20941176 164 34.20941176 164 32 C163.01 31.67 162.02 31.34 161 31 C159.61423077 29.37667033 158.27358732 27.71275535 157 26 C158.76096047 20.55172451 162.21599283 17.46464166 166.19921875 13.5 C168.27094678 11.16623759 168.27094678 11.16623759 167.89453125 8.4375 C166.93673858 5.68733248 166.93673858 5.68733248 165 2 C110.55 2 56.1 2 0 2 C0 1.34 0 0.68 0 0 Z " fill="#F2F3F4" transform="translate(0,204)"/>
<path d="M0 0 C4.62 0 9.24 0 14 0 C14.33 2.31 14.66 4.62 15 7 C15.763125 6.21625 16.52625 5.4325 17.3125 4.625 C21.95525081 0.09022014 21.95525081 0.09022014 25.26171875 -0.1953125 C27.5078125 -0.13020833 29.75390625 -0.06510417 32 0 C31.67 4.29 31.34 8.58 31 13 C28.23307292 13.22786458 25.46614583 13.45572917 22.69921875 13.68359375 C19.90624401 13.91812559 19.90624401 13.91812559 17 15 C15.78782415 18.10423388 15.80655547 21.33822455 15.68359375 24.640625 C15.62075195 26.24550781 15.62075195 26.24550781 15.55664062 27.8828125 C15.51732422 28.99398438 15.47800781 30.10515625 15.4375 31.25 C15.39431641 32.37664062 15.35113281 33.50328125 15.30664062 34.6640625 C15.20068067 37.44256799 15.0998474 40.22126814 15 43 C10.05 43 5.1 43 0 43 C0 28.81 0 14.62 0 0 Z " fill="#919498" transform="translate(408,241)"/>
<path d="M0 0 C-0.33 4.29 -0.66 8.58 -1 13 C-5.15039062 13.24414062 -5.15039062 13.24414062 -9.30078125 13.48828125 C-12.29337508 14.05561814 -13.2223993 14.57809095 -15 17 C-15.99455909 19.98367726 -16.19559632 22.2004192 -16.31640625 25.32421875 C-16.35830078 26.35224609 -16.40019531 27.38027344 -16.44335938 28.43945312 C-16.48267578 29.51130859 -16.52199219 30.58316406 -16.5625 31.6875 C-16.60568359 32.77095703 -16.64886719 33.85441406 -16.69335938 34.97070312 C-16.79946742 37.64698385 -16.90024055 40.32347511 -17 43 C-21.95 43 -26.9 43 -32 43 C-32 29.14 -32 15.28 -32 1 C-27.71 1 -23.42 1 -19 1 C-19 3.97 -19 6.94 -19 10 C-18.34 10 -17.68 10 -17 10 C-16.938125 9.2575 -16.87625 8.515 -16.8125 7.75 C-15.74919061 4.15110668 -14.04777533 3.08140754 -11 1 C-7.57067929 -0.71466036 -3.78283935 -0.05404056 0 0 Z " fill="#FBFBFB" transform="translate(100,238)"/>
<path d="M0 0 C103.29 0 206.58 0 313 0 C313 0.33 313 0.66 313 1 C210.04 1 107.08 1 1 1 C1.99 2.32 2.98 3.64 4 5 C3.88633506 9.56933049 1.47796418 12.64294063 -1.0625 16.3125 C-1.79597656 17.38113281 -2.52945313 18.44976562 -3.28515625 19.55078125 C-3.85105469 20.35902344 -4.41695312 21.16726562 -5 22 C-3.58397787 25.14906415 -1.86264918 27.49523672 0.4375 30.0625 C1.03433594 30.73410156 1.63117188 31.40570313 2.24609375 32.09765625 C3.94331887 33.99525271 3.94331887 33.99525271 5.72265625 35.5625 C7 37 7 37 7 39.9375 C6.14782816 44.55098205 4.04021953 48.71601959 2.05859375 52.9375 C-0.2849841 59.71744477 1.35724671 64.82762843 4 71.125 C7.8091444 80.30469485 7.8091444 80.30469485 7 84 C4.84765625 86.1328125 4.84765625 86.1328125 2.0625 88.125 C-1.93804197 90.82526726 -1.93804197 90.82526726 -4 95 C-3.60602665 97.63804589 -3.60602665 97.63804589 -3 100 C-3.99 100 -4.98 100 -6 100 C-8.04491206 95.66959799 -8.04491206 95.66959799 -7.87109375 93.078125 C-6.26976775 89.25792127 -2.51333914 87.37333756 0.75 85 C3.03494291 83.21359851 3.03494291 83.21359851 3.95703125 81.12109375 C4.01955577 78.03465631 2.94284024 75.86668257 1.6875 73.0625 C1.23761719 72.04285156 0.78773438 71.02320313 0.32421875 69.97265625 C-0.49546436 68.13260065 -1.34204634 66.30396284 -2.23046875 64.49609375 C-3.9000325 59.08060524 -1.39427494 53.97412382 0.5 48.875 C1.34595761 46.58796343 2.18090259 44.29679341 3 42 C3.24548584 41.34435059 3.49097168 40.68870117 3.74389648 40.01318359 C4.22146584 37.94888248 4.22146584 37.94888248 2.92016602 36.26074219 C2.09536743 35.41237793 2.09536743 35.41237793 1.25390625 34.546875 C0.66416016 33.928125 0.07441406 33.309375 -0.53320312 32.671875 C-1.16162109 32.03765625 -1.79003906 31.4034375 -2.4375 30.75 C-3.06205078 30.1003125 -3.68660156 29.450625 -4.33007812 28.78125 C-5.87592741 27.17639883 -7.43248791 25.58365243 -9 24 C-7.33243304 19.21627256 -4.7343936 16.07578686 -1.4609375 12.28125 C0.26490751 9.58634764 0.36663006 8.14254337 0 5 C-0.33 4.34 -0.66 3.68 -1 3 C-0.67 2.01 -0.34 1.02 0 0 Z " fill="#9D9E9E" transform="translate(173,206)"/>
<path d="M0 0 C2.875 1.1875 2.875 1.1875 5 3 C5.8125 5.125 5.8125 5.125 6 8 C6.08507812 8.70898438 6.17015625 9.41796875 6.2578125 10.1484375 C6.6086256 14.73951331 6.49550088 16.40781602 3.4375 20.0625 C-0.52138322 22.29387054 -2.53151792 22.74474701 -7 22 C-9.4375 20.125 -9.4375 20.125 -11 18 C-11 17.34 -11 16.68 -11 16 C-11.66 16 -12.32 16 -13 16 C-13.62739631 7.0247473 -13.62739631 7.0247473 -11.125 2.9375 C-7.45699529 -0.40685724 -4.91549687 -0.33325402 0 0 Z " fill="#F7F8F8" transform="translate(379,252)"/>
<path d="M0 0 C1.15628906 -0.03867188 1.15628906 -0.03867188 2.3359375 -0.078125 C5.2630349 0.34145893 6.54600333 1.15726547 8.625 3.25 C9.90277763 7.11660835 10.39612871 11.37832838 8.8203125 15.203125 C7.59128313 17.05115456 6.19515787 18.67984213 4.625 20.25 C1.54862417 20.75213572 -1.30284382 20.78723614 -4.375 20.25 C-7.53340511 17.67171012 -8.98279542 16.20340729 -9.77734375 12.24609375 C-9.98894788 7.78547868 -9.1181067 4.73163542 -6.375 1.25 C-4.06222219 0.09361109 -2.57408779 0.05131072 0 0 Z " fill="#FAFAFB" transform="translate(469.375,251.75)"/>
<path d="M0 0 C3.60067126 0.87838956 4.94522296 2.42198203 6.9375 5.47265625 C7.89232759 10.14539656 7.60052995 13.41180833 5.0625 17.47265625 C2.29348281 20.07879008 1.40766715 20.42912225 -2.4375 20.78515625 C-6.0625 20.47265625 -6.0625 20.47265625 -8.4375 18.59765625 C-11.23539905 14.93886518 -11.47139355 12.26155652 -11.3984375 7.73828125 C-11.0625 5.47265625 -11.0625 5.47265625 -9.0625 2.41015625 C-5.74095169 0.26498963 -3.88381981 -0.28687305 0 0 Z " fill="#909295" transform="translate(131.0625,249.52734375)"/>
<path d="M0 0 C4.02080292 1.41472695 5.85518388 2.75138711 8.375 6.1875 C8.97360081 9.77910485 8.62803004 11.63083391 7.125 14.9375 C4.49206623 18.32270056 2.63557818 18.99975431 -1.5625 19.625 C-5.6657637 19.03881947 -7.0206523 17.31271724 -9.625 14.1875 C-11.11605779 11.20538442 -11.13494661 9.50215295 -10.625 6.1875 C-7.6586612 2.21771127 -4.98266423 0.25772401 0 0 Z " fill="#EFF0F0" transform="translate(495.625,212.8125)"/>
<path d="M0 0 C1.588125 -0.061875 3.17625 -0.12375 4.8125 -0.1875 C6.15248047 -0.23970703 6.15248047 -0.23970703 7.51953125 -0.29296875 C10 0 10 0 11.80078125 1.26171875 C13.23613172 3.34227562 13.40352591 4.48971967 13.375 7 C13.38273437 7.680625 13.39046875 8.36125 13.3984375 9.0625 C12.86968681 11.63367981 12.14595327 12.49643621 10 14 C7.51953125 14.29296875 7.51953125 14.29296875 4.8125 14.1875 C3.224375 14.125625 1.63625 14.06375 0 14 C0 9.38 0 4.76 0 0 Z " fill="#8D8F92" transform="translate(31,233)"/>
<path d="M0 0 C0.66 0 1.32 0 2 0 C1.37695259 4.07453229 -0.76532621 6.89539701 -3.0625 10.25 C-3.79597656 11.32765625 -4.52945313 12.4053125 -5.28515625 13.515625 C-5.85105469 14.33546875 -6.41695312 15.1553125 -7 16 C-5.58397787 19.14906415 -3.86264918 21.49523672 -1.5625 24.0625 C-0.96566406 24.73410156 -0.36882812 25.40570313 0.24609375 26.09765625 C1.94069624 27.99628807 1.94069624 27.99628807 3.7265625 29.546875 C5 31 5 31 4.9375 34.1875 C3.86764649 38.53823763 2.17318924 42.10847507 0 46 C-1.30363166 42.08910502 -0.21021213 40.65129353 1.40625 37.03515625 C2.13312875 34.54368368 1.83178779 33.44023625 1 31 C-0.19663837 29.30630388 -0.19663837 29.30630388 -1.72265625 27.765625 C-2.26083984 27.19199219 -2.79902344 26.61835938 -3.35351562 26.02734375 C-3.91748047 25.44082031 -4.48144531 24.85429687 -5.0625 24.25 C-5.63033203 23.64800781 -6.19816406 23.04601562 -6.78320312 22.42578125 C-8.18231575 20.94436788 -9.59030947 19.4713512 -11 18 C-9.61004133 13.93928304 -7.69439989 11.14725505 -4.9375 7.875 C-1.88863502 4.26943048 -1.88863502 4.26943048 0 0 Z " fill="#9C9D9D" transform="translate(175,212)"/>
<path d="M0 0 C2.9375 1.75 2.9375 1.75 5 4 C5 5.32 5 6.64 5 8 C-0.61 8 -6.22 8 -12 8 C-11 3 -11 3 -9.375 1.1875 C-6.01623433 -0.49188284 -3.71022229 -0.45564133 0 0 Z " fill="#EEEEEF" transform="translate(325,248)"/>
<path d="M0 0 C4.02080292 1.41472695 5.85518388 2.75138711 8.375 6.1875 C8.97360081 9.77910485 8.62803004 11.63083391 7.125 14.9375 C4.49206623 18.32270056 2.63557818 18.99975431 -1.5625 19.625 C-5.6657637 19.03881947 -7.0206523 17.31271724 -9.625 14.1875 C-11.11605779 11.20538442 -11.13494661 9.50215295 -10.625 6.1875 C-7.6586612 2.21771127 -4.98266423 0.25772401 0 0 Z M-7.125 4.25 C-9.08140324 8.08128967 -8.76391039 10.0874226 -7.625 14.1875 C-6.64451062 16.25152685 -6.64451062 16.25152685 -4.625 17.1875 C-0.69405293 17.68780235 1.4755787 17.7871142 4.8125 15.5625 C6.85884007 12.45206309 6.97307728 10.85072334 6.375 7.1875 C4.96621904 4.1973357 4.96621904 4.1973357 2.375 2.1875 C-1.91510245 1.42141028 -3.73017912 1.44927278 -7.125 4.25 Z " fill="#A2A2A3" transform="translate(495.625,212.8125)"/>
<path d="M0 0 C2.31 0 4.62 0 7 0 C7.77842938 3.40562852 8.09978121 6.50765756 8 10 C6.35 8.68 4.7 7.36 3 6 C3 7.32 3 8.64 3 10 C2.01 10 1.02 10 0 10 C0 6.7 0 3.4 0 0 Z " fill="#AEAFB1" transform="translate(490,218)"/>
<path d="M0 0 C1.0625 1.875 1.0625 1.875 2 4 C1.67 4.66 1.34 5.32 1 6 C0.51511446 11.93984781 1.91933053 16.53824265 4 22 C3.01 22.33 2.02 22.66 1 23 C-3.7806228 11.46905574 -3.7806228 11.46905574 -2 6 C-1.4740625 4.329375 -1.4740625 4.329375 -0.9375 2.625 C-0.4734375 1.325625 -0.4734375 1.325625 0 0 Z " fill="#A3A2A5" transform="translate(173,256)"/>
<path d="M0 0 C0.66 0.66 1.32 1.32 2 2 C1.484375 2.350625 0.96875 2.70125 0.4375 3.0625 C-1.40146383 5.09468727 -1.40146383 5.09468727 -0.6875 8.6875 C-0.3471875 10.3271875 -0.3471875 10.3271875 0 12 C-0.99 12 -1.98 12 -3 12 C-4.17686789 9.50780916 -5.03861725 7.65649326 -4.875 4.875 C-3.73807378 2.43872954 -2.23057287 1.43907927 0 0 Z " fill="#A2A3A5" transform="translate(170,294)"/>
<path d="M0 0 C3.63 0 7.26 0 11 0 C10.67 1.32 10.34 2.64 10 4 C6.37 3.67 2.74 3.34 -1 3 C-0.67 2.01 -0.34 1.02 0 0 Z " fill="#94979A" transform="translate(499,204)"/>
<path d="M0 0 C0.66 0 1.32 0 2 0 C2 0.66 2 1.32 2 2 C2.598125 2.268125 3.19625 2.53625 3.8125 2.8125 C6.01819033 4.00987475 7.43583187 5.04478984 9 7 C9 7.99 9 8.98 9 10 C7 10 7 10 5.2734375 8.3203125 C4.64695313 7.59585938 4.02046875 6.87140625 3.375 6.125 C2.74335938 5.40570313 2.11171875 4.68640625 1.4609375 3.9453125 C0 2 0 2 0 0 Z " fill="#959698" transform="translate(164,228)"/>
<path d="M0 0 C1.99097846 2.98646769 2.94124926 5.59687262 4 9 C3.01 9.33 2.02 9.66 1 10 C0.63720544 8.71073008 0.28503302 7.41846728 -0.0625 6.125 C-0.35833984 5.04605469 -0.35833984 5.04605469 -0.66015625 3.9453125 C-1 2 -1 2 0 0 Z " fill="#ADADAE" transform="translate(173,269)"/>
<path d="M0 0 C0.66 0.33 1.32 0.66 2 1 C0.88121617 2.17262904 -0.24523051 3.33795138 -1.375 4.5 C-2.00148438 5.1496875 -2.62796875 5.799375 -3.2734375 6.46875 C-5 8 -5 8 -7 8 C-5.50902342 4.2047869 -3.24299151 2.38957269 0 0 Z " fill="#EAEBEB" transform="translate(116,240)"/>
<path d="M0 0 C0.99 0.33 1.98 0.66 3 1 C-2.75 6 -2.75 6 -5 6 C-5 5.34 -5 4.68 -5 4 C-2.6875 1.8125 -2.6875 1.8125 0 0 Z " fill="#989898" transform="translate(176,289)"/>
</svg>
