<?xml version="1.0" encoding="utf-8"?>
<svg version="1.1" xmlns="http://www.w3.org/2000/svg" width="512" height="512" xmlns:bx="https://boxy-svg.com" viewBox="0 0 512 512"><defs><bx:export><bx:file format="svg" path="Bez nazwy.svg"/></bx:export></defs><path d="M0 0 C0.81845901 -0.00705963 1.63691803 -0.01411926 2.48017883 -0.02139282 C36.7461519 -0.24987728 36.7461519 -0.24987728 52.109375 3.203125 C53.01816406 3.40180176 53.92695313 3.60047852 54.86328125 3.80517578 C93.59666128 12.50454697 127.66969151 31.6984448 156.109375 59.203125 C156.90601563 59.94820312 157.70265625 60.69328125 158.5234375 61.4609375 C173.23356786 75.54731675 184.68909583 93.26378471 194.109375 111.203125 C194.45355469 111.85732422 194.79773438 112.51152344 195.15234375 113.18554688 C204.54800844 131.34689874 210.73380447 151.06467358 214.109375 171.203125 C214.44582031 173.08064453 214.44582031 173.08064453 214.7890625 174.99609375 C217.87606135 195.73818877 217.36578061 218.53076439 214.109375 239.203125 C214.7384375 239.41066406 215.3675 239.61820313 216.015625 239.83203125 C225.68015556 243.31068005 232.59770362 248.84752737 237.109375 258.203125 C238.93094266 262.823949 239.40633973 266.9703681 239.39990234 271.88574219 C239.40661957 272.63133392 239.41333679 273.37692566 239.42025757 274.14511108 C239.43917037 276.59680957 239.44315862 279.04823321 239.4453125 281.5 C239.45174613 283.21624867 239.45847491 284.93249626 239.46548462 286.64874268 C239.47744135 290.24306783 239.4811672 293.837297 239.47998047 297.43164062 C239.47977761 302.01564115 239.50705248 306.59901942 239.54152489 311.18287277 C239.56387151 314.72787243 239.56781561 318.27272432 239.56676102 321.81778717 C239.56910635 323.50652455 239.57786911 325.19526667 239.59342575 326.88393402 C239.69557002 339.1190136 238.87151527 349.14930394 230.09765625 358.44921875 C220.6024329 366.82516234 210.28910757 367.50719599 198.109375 367.203125 C197.861875 367.80125 197.614375 368.399375 197.359375 369.015625 C195.85162831 371.65418171 194.73699286 372.65956864 192.109375 374.203125 C187.57565034 374.78066954 183.03092625 374.71822092 178.46533203 374.70410156 C176.24769566 374.70313083 174.03354178 374.74472964 171.81640625 374.7890625 C170.3958405 374.79427154 168.9752628 374.79695766 167.5546875 374.796875 C165.62906982 374.80750977 165.62906982 374.80750977 163.66455078 374.81835938 C158.98839527 374.00913592 157.40531173 372.56660396 154.109375 369.203125 C153.11161678 366.20985033 152.97905749 364.22581323 152.96893311 361.09928894 C152.96322296 360.0436525 152.95751282 358.98801605 152.95162964 357.90039062 C152.95051178 356.74240967 152.94939392 355.58442871 152.94824219 354.39135742 C152.94327728 353.17160721 152.93831238 351.95185699 152.93319702 350.69514465 C152.92108732 347.34790275 152.91362991 344.00072332 152.90918636 340.65346694 C152.90625389 338.5613724 152.90214874 336.46928333 152.89768219 334.37719154 C152.88400942 327.82899889 152.87434185 321.28081873 152.8704803 314.73261279 C152.86600081 307.1784064 152.8484572 299.62438106 152.8194797 292.07022971 C152.79784881 286.22808182 152.78777526 280.38598482 152.78643918 274.54379731 C152.7853921 271.05595933 152.77950515 267.56829159 152.76161957 264.08049583 C152.74204672 260.18796346 152.74643349 256.29565656 152.75292969 252.40307617 C152.7437149 251.25116791 152.73450012 250.09925964 152.7250061 248.91244507 C152.77724846 238.9305177 152.77724846 238.9305177 156.109375 234.203125 C159.73228896 231.78784903 162.46996589 231.86359679 166.6640625 231.83203125 C167.40262482 231.82300278 168.14118713 231.8139743 168.90213013 231.80467224 C170.46384634 231.7901747 172.02562322 231.78128422 173.58740234 231.77758789 C175.9694732 231.76569937 178.3489453 231.71652383 180.73046875 231.66601562 C182.24998739 231.65654981 183.76952191 231.64931553 185.2890625 231.64453125 C185.99755341 231.62499893 186.70604431 231.60546661 187.43600464 231.58534241 C191.37969402 231.62108215 192.98684296 232.10432466 196.09814453 234.61303711 C198.109375 237.203125 198.109375 237.203125 198.109375 239.203125 C199.429375 239.203125 200.749375 239.203125 202.109375 239.203125 C209.81117476 185.2217606 198.2574626 132.41732093 165.60083008 88.41015625 C159.92080869 80.88594307 153.61458669 74.01544969 147.109375 67.203125 C146.50738281 66.54828125 145.90539062 65.8934375 145.28515625 65.21875 C113.29307538 31.37322364 63.39646135 13.0165666 17.6953125 11.29248047 C-30.5870174 10.12584122 -78.41735975 26.20903267 -114.890625 58.203125 C-115.75042969 58.95335937 -116.61023438 59.70359375 -117.49609375 60.4765625 C-126.45963417 68.42305976 -134.58878091 76.6891113 -141.890625 86.203125 C-142.34453613 86.79174316 -142.79844727 87.38036133 -143.26611328 87.98681641 C-175.74940038 130.64108192 -187.17902556 183.44263651 -180.328125 236.13671875 C-180.18375 237.14863281 -180.039375 238.16054688 -179.890625 239.203125 C-178.570625 239.203125 -177.250625 239.203125 -175.890625 239.203125 C-175.6225 238.419375 -175.354375 237.635625 -175.078125 236.828125 C-173.890625 234.203125 -173.890625 234.203125 -170.890625 232.203125 C-168.3361119 231.9717179 -165.89291574 231.85127554 -163.3359375 231.83203125 C-162.59737518 231.82300278 -161.85881287 231.8139743 -161.09786987 231.80467224 C-159.53615366 231.7901747 -157.97437678 231.78128422 -156.41259766 231.77758789 C-154.0305268 231.76569937 -151.6510547 231.71652383 -149.26953125 231.66601562 C-147.75001261 231.65654981 -146.23047809 231.64931553 -144.7109375 231.64453125 C-144.00244659 231.62499893 -143.29395569 231.60546661 -142.56399536 231.58534241 C-138.67769165 231.62056209 -137.0326627 232.08918436 -133.96435547 234.55053711 C-131.09850473 238.21635631 -130.76478115 240.79927664 -130.75018311 245.31369019 C-130.74447296 246.37077179 -130.73876282 247.42785339 -130.73287964 248.51696777 C-130.73120285 250.25629578 -130.73120285 250.25629578 -130.72949219 252.03076172 C-130.72204483 253.86279648 -130.72204483 253.86279648 -130.71444702 255.73184204 C-130.70233792 259.08314889 -130.69488025 262.43439333 -130.69043636 265.78571463 C-130.6875042 267.87981148 -130.68339914 269.97390287 -130.67893219 272.06799698 C-130.66526061 278.620993 -130.65559205 285.17397652 -130.6517303 291.72698581 C-130.64724891 299.28969214 -130.62969598 306.8522178 -130.6007297 314.41486919 C-130.57911161 320.26209695 -130.56902597 326.10927388 -130.56768918 331.95654118 C-130.56664132 335.44825953 -130.56073772 338.93980797 -130.54286957 342.43148422 C-130.52332417 346.32661519 -130.52767838 350.22152036 -130.53417969 354.11669922 C-130.5249649 355.27220276 -130.51575012 356.4277063 -130.5062561 357.6182251 C-130.51182526 358.68094635 -130.51739441 359.7436676 -130.52313232 360.83859253 C-130.52093248 362.21958539 -130.52093248 362.21958539 -130.5186882 363.6284771 C-131.08401553 367.54182697 -132.90249678 370.18974554 -135.62939453 372.98632812 C-140.36586507 375.53508317 -146.25701116 374.72042301 -151.53466797 374.70410156 C-153.75230434 374.70313083 -155.96645822 374.74472964 -158.18359375 374.7890625 C-159.6041595 374.79427154 -161.0247372 374.79695766 -162.4453125 374.796875 C-164.37093018 374.80750977 -164.37093018 374.80750977 -166.33544922 374.81835938 C-170.98380847 374.01394615 -172.6206966 372.54171496 -175.890625 369.203125 C-175.890625 368.543125 -175.890625 367.883125 -175.890625 367.203125 C-176.550625 367.203125 -177.210625 367.203125 -177.890625 367.203125 C-171.20971576 384.18049435 -158.18162622 393.83238923 -141.890625 401.203125 C-124.27326385 408.85620637 -104.98067532 414.04058024 -85.890625 416.203125 C-85.5503125 415.4296875 -85.21 414.65625 -84.859375 413.859375 C-79.63256783 402.62730002 -73.52010015 395.81140342 -61.890625 391.203125 C-53.60015321 388.56908508 -44.30660886 389.59975596 -36.390625 392.87890625 C-28.80652166 396.89611099 -22.01214599 403.79925079 -18.85546875 411.83984375 C-15.69635408 422.37512385 -16.05950458 431.70051419 -21.109375 441.58984375 C-25.48639149 448.75112906 -32.19505761 455.15008126 -40.3359375 457.765625 C-51.72053718 459.71528121 -62.58766983 459.16722525 -72.28125 452.578125 C-80.30181297 446.20416767 -83.76428168 437.71822636 -86.890625 428.203125 C-87.6340918 428.08308105 -88.37755859 427.96303711 -89.14355469 427.83935547 C-122.32616852 422.40436032 -161.38755232 413.91349378 -182.828125 385.265625 C-186.52159993 379.65438424 -189.890625 373.03050734 -189.890625 366.203125 C-190.86 366.14125 -191.829375 366.079375 -192.828125 366.015625 C-200.43203713 364.87887854 -206.61155405 360.48059295 -211.2755127 354.49902344 C-217.77714315 345.25689015 -217.48249717 335.35338234 -217.421875 324.515625 C-217.42457533 322.80509216 -217.42846224 321.09456083 -217.43347168 319.3840332 C-217.43934132 315.81348944 -217.43088627 312.24334821 -217.41210938 308.67285156 C-217.38932111 304.12028452 -217.40245791 299.56866105 -217.42639923 295.01612854 C-217.44092624 291.488251 -217.4362198 287.96059328 -217.42588806 284.43270874 C-217.42323979 282.7551563 -217.42642284 281.07758322 -217.43580627 279.40005493 C-217.48915772 267.18449366 -216.54205571 257.20584599 -207.81640625 247.95703125 C-203.00192484 243.57223987 -198.07427844 241.150318 -191.890625 239.203125 C-192.035 238.28660156 -192.179375 237.37007812 -192.328125 236.42578125 C-195.57167416 213.46433636 -195.35986248 188.95400714 -190.890625 166.203125 C-190.72433594 165.34396484 -190.55804688 164.48480469 -190.38671875 163.59960938 C-180.75250716 115.53559822 -153.06132704 70.82456163 -113.63037109 41.49853516 C-111.9415493 40.24104309 -110.26972329 38.9632318 -108.59765625 37.68359375 C-93.16790259 26.07310861 -76.01430647 17.70619214 -57.890625 11.203125 C-57.21644531 10.95868652 -56.54226562 10.71424805 -55.84765625 10.46240234 C-38.11521109 4.15443567 -18.84437254 0.10885574 0 0 Z M-165.890625 242.203125 C-165.890625 282.133125 -165.890625 322.063125 -165.890625 363.203125 C-157.970625 363.203125 -150.050625 363.203125 -141.890625 363.203125 C-141.890625 323.273125 -141.890625 283.343125 -141.890625 242.203125 C-149.810625 242.203125 -157.730625 242.203125 -165.890625 242.203125 Z M164.109375 242.203125 C164.109375 282.133125 164.109375 322.063125 164.109375 363.203125 C172.029375 363.203125 179.949375 363.203125 188.109375 363.203125 C188.109375 323.273125 188.109375 283.343125 188.109375 242.203125 C180.189375 242.203125 172.269375 242.203125 164.109375 242.203125 Z M-198.890625 255.203125 C-204.3083871 260.64874192 -206.13615568 264.74587268 -206.18115234 272.41503906 C-206.18786957 273.13429062 -206.19458679 273.85354218 -206.20150757 274.59458923 C-206.22048401 276.96938007 -206.22441197 279.34388808 -206.2265625 281.71875 C-206.2329922 283.37538772 -206.23972069 285.03202431 -206.24673462 286.68865967 C-206.25870757 290.16209544 -206.26241558 293.63543177 -206.26123047 297.10888672 C-206.26102763 301.54517805 -206.2882934 305.98082628 -206.32277489 310.41696548 C-206.3450913 313.84007657 -206.34906652 317.26303427 -206.34801102 320.68621063 C-206.35036124 322.32078002 -206.35915203 323.95535401 -206.37467575 325.58985138 C-206.61587492 337.49860487 -206.61587492 337.49860487 -201.890625 348.203125 C-197.96574747 352.12800253 -194.20044141 354.5759232 -188.890625 356.203125 C-184.930625 356.203125 -180.970625 356.203125 -176.890625 356.203125 C-176.890625 321.223125 -176.890625 286.243125 -176.890625 250.203125 C-189.56893351 249.48031069 -189.56893351 249.48031069 -198.890625 255.203125 Z M199.109375 250.203125 C199.109375 285.183125 199.109375 320.163125 199.109375 356.203125 C211.1956938 356.40902673 211.1956938 356.40902673 221.109375 351.203125 C226.53307407 345.52536264 228.22615928 341.04968728 228.28637695 333.1965332 C228.29294815 332.48718124 228.29951935 331.77782928 228.30628967 331.04698181 C228.32599928 328.69928882 228.33768176 326.35165983 228.34765625 324.00390625 C228.35173178 323.20023306 228.3558073 322.39655987 228.36000633 321.56853294 C228.38085995 317.3123742 228.39516312 313.0562476 228.40454102 308.80004883 C228.41558691 304.41645093 228.4499674 300.03336324 228.48971272 295.64994526 C228.51593599 292.26888627 228.52423803 288.88794761 228.52782249 285.50679588 C228.53267596 283.89175164 228.54425445 282.27671232 228.56286049 280.66176796 C228.76776394 267.45780276 228.76776394 267.45780276 222.328125 256.1796875 C221.47734375 255.51066406 221.47734375 255.51066406 220.609375 254.828125 C220.0421875 254.36664063 219.475 253.90515625 218.890625 253.4296875 C211.74517593 248.50935634 209.82551714 250.203125 199.109375 250.203125 Z M-69.41796875 409.390625 C-73.80490866 414.78993566 -75.04578214 420.35552344 -74.890625 427.203125 C-73.79742094 433.71989483 -70.87970569 438.87700774 -65.890625 443.203125 C-59.84234484 447.24760502 -53.69715123 448.84382799 -46.453125 447.640625 C-39.82834656 445.93646564 -34.91045406 442.0377432 -30.953125 436.515625 C-27.88983652 431.08477797 -27.22279883 425.11964721 -28.265625 419.00390625 C-30.32771765 412.44387399 -35.07864072 407.23036948 -40.578125 403.265625 C-51.04484467 398.45659164 -61.80912821 401.07116382 -69.41796875 409.390625 Z " transform="translate(244.890625,26.796875)" style="fill: rgb(71, 111, 255);"/><path d="M0 0 C1.24644287 -0.01429802 1.24644287 -0.01429802 2.51806641 -0.02888489 C3.41187012 -0.02797348 4.30567383 -0.02706207 5.2265625 -0.02612305 C6.14743652 -0.03040817 7.06831055 -0.0346933 8.01708984 -0.03910828 C9.96385882 -0.04485068 11.91064926 -0.04535249 13.85742188 -0.04101562 C16.84021457 -0.03785383 19.82201733 -0.06132215 22.8046875 -0.08666992 C24.69531125 -0.08894269 26.58593766 -0.08964652 28.4765625 -0.08862305 C29.37036621 -0.09783279 30.26416992 -0.10704254 31.18505859 -0.11653137 C32.43150146 -0.10718819 32.43150146 -0.10718819 33.703125 -0.09765625 C34.43354004 -0.09828568 35.16395508 -0.0989151 35.91650391 -0.0995636 C38.41296755 0.38322856 39.30567704 1.29209239 40.8515625 3.2746582 C41.19213867 5.54296875 41.19213867 5.54296875 41.14453125 8.16137695 C41.13486328 9.09916992 41.12519531 10.03696289 41.11523438 11.00317383 C41.09009766 11.97963867 41.06496094 12.95610352 41.0390625 13.9621582 C41.02552734 14.95022461 41.01199219 15.93829102 40.99804688 16.95629883 C40.96268453 19.39630051 40.91333283 21.83520539 40.8515625 24.2746582 C41.4084375 24.37552734 41.9653125 24.47639648 42.5390625 24.58032227 C48.11591901 25.68957033 52.82565182 27.3931321 57.8515625 30.0246582 C58.54507813 30.38100342 59.23859375 30.73734863 59.953125 31.10449219 C68.48260049 35.55391544 75.77275439 40.75521095 82.8515625 47.2746582 C87.55170049 45.52695346 91.65302374 43.09740921 95.9375 40.5168457 C99.60911584 38.95173332 101.90343423 38.61061375 105.8515625 39.2746582 C107.7353904 41.44755625 108.82233845 43.08253573 110.1015625 45.5871582 C110.8564363 46.95453044 111.61166236 48.32170825 112.3671875 49.6887207 C112.76228516 50.42509766 113.15738281 51.16147461 113.56445312 51.92016602 C114.93784986 54.43250254 116.37674633 56.89715965 117.8359375 59.3605957 C118.33706055 60.208396 118.83818359 61.05619629 119.35449219 61.9296875 C120.33918524 63.59541174 121.32420217 65.26094456 122.30957031 66.92626953 C122.75655273 67.69479248 123.20353516 68.46331543 123.6640625 69.25512695 C124.06238281 69.93470459 124.46070313 70.61428223 124.87109375 71.31445312 C125.87827909 73.32807143 126.50002003 75.05135878 126.8515625 77.2746582 C124.87991344 82.18445096 121.2630906 84.18856938 116.7890625 86.5871582 C115.83290039 87.12566406 115.83290039 87.12566406 114.85742188 87.67504883 C110.15831845 90.2746582 110.15831845 90.2746582 107.8515625 90.2746582 C108.1815625 91.5946582 108.5115625 92.9146582 108.8515625 94.2746582 C118.85879758 94.59747586 118.85879758 94.59747586 127.2265625 89.8996582 C127.84273438 89.27188477 128.45890625 88.64411133 129.09375 87.99731445 C134.5217897 82.67783555 141.70102052 82.80039827 148.91796875 82.85253906 C154.72151252 83.05971145 158.99570311 84.14748476 163.8515625 87.2746582 C164.91117187 87.92821289 164.91117187 87.92821289 165.9921875 88.5949707 C170.83843812 91.87965168 174.75701719 95.7070148 176.8515625 101.2746582 C176.95073782 103.89784539 176.54771179 105.70426083 175.8515625 108.2746582 C168.19614555 110.1825129 160.7337827 111.75866636 152.8515625 112.2746582 C153.1815625 113.9246582 153.5115625 115.5746582 153.8515625 117.2746582 C154.47724121 117.38535645 155.10291992 117.49605469 155.74755859 117.61010742 C158.57542019 118.11513901 161.40094236 118.63223945 164.2265625 119.1496582 C165.70382812 119.41069336 165.70382812 119.41069336 167.2109375 119.67700195 C168.15195312 119.85102539 169.09296875 120.02504883 170.0625 120.2043457 C171.36646729 120.44000244 171.36646729 120.44000244 172.69677734 120.68041992 C174.8515625 121.2746582 174.8515625 121.2746582 176.8515625 123.2746582 C177.68682455 127.55537622 176.6051801 130.17539855 174.4140625 133.7746582 C170.97505941 138.58117076 167.02130878 141.49847776 161.8515625 144.2746582 C161.23667969 144.6149707 160.62179687 144.9552832 159.98828125 145.3059082 C152.22866723 148.89493738 142.32337131 148.53565027 134.4140625 145.6496582 C131.18751844 144.19536775 129.05312333 142.61171836 126.6015625 140.0871582 C121.84771196 135.51747621 115.07007146 136.29190788 108.8515625 136.2746582 C108.5215625 137.5946582 108.1915625 138.9146582 107.8515625 140.2746582 C108.72296875 140.53633789 109.594375 140.79801758 110.4921875 141.06762695 C113.84319806 142.27165284 116.58407979 143.7074832 119.6015625 145.5871582 C120.54515625 146.16079102 121.48875 146.73442383 122.4609375 147.32543945 C125.19665074 149.55602917 126.14544117 150.82193259 126.8515625 154.2746582 C126.0859375 156.7902832 126.0859375 156.7902832 124.6015625 159.5246582 C124.04210937 160.56493164 123.48265625 161.60520508 122.90625 162.67700195 C119.36193934 168.93531273 115.71559782 175.13378893 112.01464844 181.30053711 C110.86264442 183.25584871 109.76675845 185.23617226 108.671875 187.22387695 C106.8515625 190.2746582 106.8515625 190.2746582 104.8515625 191.2746582 C98.65730333 192.01507985 94.82441188 189.18200525 89.88671875 185.94262695 C86.57597464 183.73334302 86.57597464 183.73334302 82.78125 183.7434082 C82.14445313 184.2487207 81.50765625 184.7540332 80.8515625 185.2746582 C79.96984375 185.96817383 79.088125 186.66168945 78.1796875 187.3762207 C76.65601563 188.62532227 76.65601563 188.62532227 75.1015625 189.8996582 C66.43205801 196.77240664 52.32062017 206.2746582 40.8515625 206.2746582 C40.87250977 206.8951001 40.89345703 207.51554199 40.91503906 208.15478516 C40.99817656 210.96541138 41.05021311 213.77577916 41.1015625 216.5871582 C41.13507813 217.56362305 41.16859375 218.54008789 41.203125 219.54614258 C41.21601563 220.48393555 41.22890625 221.42172852 41.2421875 222.38793945 C41.26313477 223.25201416 41.28408203 224.11608887 41.30566406 225.00634766 C40.8515625 227.2746582 40.8515625 227.2746582 39.38964844 229.05517578 C35.58084593 230.88520353 32.02623725 230.70321306 27.8515625 230.6730957 C26.54251953 230.67740097 26.54251953 230.67740097 25.20703125 230.68179321 C23.36457672 230.68383187 21.52210045 230.67831585 19.6796875 230.66577148 C16.86148629 230.64971474 14.04471917 230.66562658 11.2265625 230.68481445 C9.43489267 230.68283199 7.64322374 230.67898824 5.8515625 230.6730957 C5.00980469 230.6791684 4.16804687 230.68524109 3.30078125 230.6914978 C-0.13503494 230.65024587 -2.5613337 230.55674588 -5.68652344 229.05517578 C-7.61193414 226.71014902 -7.61209033 225.4003374 -7.5390625 222.38793945 C-7.52617187 221.45014648 -7.51328125 220.51235352 -7.5 219.54614258 C-7.44972656 218.08144531 -7.44972656 218.08144531 -7.3984375 216.5871582 C-7.38039062 215.5990918 -7.36234375 214.61102539 -7.34375 213.59301758 C-7.29659197 211.15258978 -7.23079792 208.71411051 -7.1484375 206.2746582 C-7.82817627 206.12706055 -8.50791504 205.97946289 -9.20825195 205.82739258 C-23.0940703 202.68207064 -34.57170264 195.53771309 -45.35546875 186.49731445 C-47.99645678 184.13459698 -47.99645678 184.13459698 -51.1484375 183.2746582 C-54.13881074 184.84599719 -56.94813653 186.56470059 -59.79101562 188.38208008 C-63.73739924 190.79069096 -66.52046899 192.0206788 -71.1484375 191.2746582 C-74.25246683 188.81920846 -75.90555575 185.46708599 -77.8359375 182.06762695 C-78.35160278 181.16310539 -78.35160278 181.16310539 -78.87768555 180.24031067 C-79.60269646 178.96651134 -80.32538637 177.69138851 -81.04589844 176.41503906 C-82.1402213 174.47671121 -83.24130266 172.54235886 -84.34375 170.60864258 C-93.25262953 154.93126458 -93.25262953 154.93126458 -92.734375 151.6652832 C-90.63653963 148.5030289 -87.99745399 146.87101126 -84.7734375 145.0246582 C-84.1959375 144.6740332 -83.6184375 144.3234082 -83.0234375 143.9621582 C-80.1308068 142.24507149 -77.48512584 140.83351241 -74.1484375 140.2746582 C-74.4784375 138.9546582 -74.8084375 137.6346582 -75.1484375 136.2746582 C-84.75576671 135.90469205 -84.75576671 135.90469205 -92.8984375 140.0871582 C-93.41792969 140.62211914 -93.93742187 141.15708008 -94.47265625 141.70825195 C-100.56379047 147.40182963 -108.80763895 147.91589894 -116.75 147.6574707 C-125.69684977 146.64966464 -134.00448045 142.31596848 -139.75390625 135.3215332 C-142.48034646 131.31969939 -143.97645556 128.24276657 -143.1484375 123.2746582 C-140.77189842 120.89811912 -139.61607859 120.79290659 -136.359375 120.2043457 C-134.94785156 119.94331055 -134.94785156 119.94331055 -133.5078125 119.67700195 C-132.03054687 119.4159668 -132.03054687 119.4159668 -130.5234375 119.1496582 C-129.53085938 118.96790039 -128.53828125 118.78614258 -127.515625 118.59887695 C-125.06108063 118.15045058 -122.60544256 117.70936397 -120.1484375 117.2746582 C-120.1484375 115.9546582 -120.1484375 114.6346582 -120.1484375 113.2746582 C-120.73858643 113.16919678 -121.32873535 113.06373535 -121.93676758 112.95507812 C-124.61386335 112.46960262 -127.28726041 111.96610693 -129.9609375 111.4621582 C-130.88970703 111.29651367 -131.81847656 111.13086914 -132.77539062 110.96020508 C-133.66806641 110.7894043 -134.56074219 110.61860352 -135.48046875 110.44262695 C-136.30264893 110.29075928 -137.1248291 110.1388916 -137.97192383 109.98242188 C-140.4720616 109.16942138 -141.58231156 108.37575888 -143.1484375 106.2746582 C-143.25628655 100.77435669 -141.36943055 97.3427145 -138.0234375 93.20043945 C-131.77745583 86.78529578 -124.39827086 83.09541448 -115.38842773 82.89428711 C-107.59086286 82.9146923 -100.42574558 83.09124226 -94.546875 88.84106445 C-93.76183594 89.64350586 -93.76183594 89.64350586 -92.9609375 90.4621582 C-88.15348037 95.00634982 -81.39681769 94.25732566 -75.1484375 94.2746582 C-74.6534375 92.2946582 -74.6534375 92.2946582 -74.1484375 90.2746582 C-74.84582031 90.01297852 -75.54320312 89.75129883 -76.26171875 89.48168945 C-79.41942923 88.16134772 -82.34994733 86.63505456 -85.3359375 84.9621582 C-86.38136719 84.38852539 -87.42679688 83.81489258 -88.50390625 83.22387695 C-91.53977724 80.98621133 -92.23923712 79.8910173 -93.1484375 76.2746582 C-92.29272461 73.62719727 -92.29272461 73.62719727 -90.73828125 70.7902832 C-90.17093262 69.73905273 -89.60358398 68.68782227 -89.01904297 67.60473633 C-88.40174316 66.50581055 -87.78444336 65.40688477 -87.1484375 64.2746582 C-86.55562988 63.18088867 -85.96282227 62.08711914 -85.35205078 60.96020508 C-83.51909517 57.61899726 -81.62361879 54.32077428 -79.7109375 51.0246582 C-79.08123047 49.88641602 -78.45152344 48.74817383 -77.80273438 47.57543945 C-73.11351797 39.54642144 -73.11351797 39.54642144 -68.625 38.2824707 C-63.85268418 39.64445747 -60.24164058 41.89219884 -56.13476562 44.60668945 C-52.85241714 46.81676848 -52.85241714 46.81676848 -49.08203125 46.8059082 C-48.44394531 46.3005957 -47.80585938 45.7952832 -47.1484375 45.2746582 C-45.82585937 44.23438477 -45.82585937 44.23438477 -44.4765625 43.1730957 C-42.95289063 41.92399414 -42.95289063 41.92399414 -41.3984375 40.6496582 C-32.7380354 33.77519007 -18.56070703 24.2746582 -7.1484375 24.2746582 C-7.17200317 23.29070068 -7.17200317 23.29070068 -7.19604492 22.28686523 C-7.25827402 19.32455004 -7.29738918 16.3623721 -7.3359375 13.3996582 C-7.36107422 12.36711914 -7.38621094 11.33458008 -7.41210938 10.27075195 C-7.42661133 8.79155273 -7.42661133 8.79155273 -7.44140625 7.2824707 C-7.46497192 5.91566162 -7.46497192 5.91566162 -7.48901367 4.52124023 C-7.37662354 3.77986816 -7.2642334 3.03849609 -7.1484375 2.2746582 C-4.08700868 0.23370566 -3.45102254 0.02176873 0 0 Z M3.8515625 11.2746582 C3.64180359 17.3919874 3.64180359 17.3919874 3.46362305 23.51025391 C3.41395386 24.65627075 3.41395386 24.65627075 3.36328125 25.82543945 C3.33709717 26.6057251 3.31091309 27.38601074 3.28393555 28.18994141 C2.74441972 30.7912546 1.93788333 31.66595821 -0.1484375 33.2746582 C-2.58810693 34.09173092 -4.98094467 34.79932588 -7.4609375 35.4621582 C-20.76982167 39.33748996 -32.07855725 46.55914395 -42.10546875 56.14575195 C-42.99298828 56.98299805 -42.99298828 56.98299805 -43.8984375 57.8371582 C-44.38828125 58.33344727 -44.878125 58.82973633 -45.3828125 59.34106445 C-48.22164193 60.84212691 -50.11480305 60.1074206 -53.1484375 59.2746582 C-56.2890625 57.64575195 -56.2890625 57.64575195 -59.3984375 55.7121582 C-63.02467269 53.17956216 -63.02467269 53.17956216 -67.1484375 52.2746582 C-69.18580336 55.70261418 -71.20039949 59.14340985 -73.2109375 62.5871582 C-73.79166016 63.56362305 -74.37238281 64.54008789 -74.97070312 65.54614258 C-75.51533203 66.48393555 -76.05996094 67.42172852 -76.62109375 68.38793945 C-77.12906494 69.25201416 -77.63703613 70.11608887 -78.16040039 71.00634766 C-79.48930925 73.36665658 -79.48930925 73.36665658 -78.1484375 76.2746582 C-75.8335546 77.76197046 -73.56460785 79.10120445 -71.1484375 80.3996582 C-64.21612309 84.20697261 -64.21612309 84.20697261 -63.1484375 85.2746582 C-63.07663786 86.79393858 -63.06451743 88.31633302 -63.0859375 89.8371582 C-63.09496094 90.66344727 -63.10398437 91.48973633 -63.11328125 92.34106445 C-63.12488281 92.97915039 -63.13648438 93.61723633 -63.1484375 94.2746582 C-58.719877 94.57303232 -54.29671888 94.78971459 -49.86108398 94.93383789 C-48.35581597 94.99392585 -46.8512413 95.07564203 -45.34838867 95.17993164 C-40.38532293 95.51551845 -35.97484345 95.59512744 -31.1484375 94.2746582 C-27.70844481 90.67416871 -26.08514363 86.80256923 -24.1484375 82.2746582 C-16.21956803 71.94020747 -3.57939633 65.84456078 9.04296875 63.7434082 C23.49059 62.21345553 37.40058867 65.11943753 49.1015625 73.9621582 C55.95912641 79.80378672 60.83278778 86.23710877 64.8515625 94.2746582 C75.4115625 94.2746582 85.9715625 94.2746582 96.8515625 94.2746582 C96.8515625 91.3046582 96.8515625 88.3346582 96.8515625 85.2746582 C98.57421875 83.22387695 98.57421875 83.22387695 100.9140625 81.9621582 C101.72875 81.49938477 102.5434375 81.03661133 103.3828125 80.55981445 C104.1975 80.13571289 105.0121875 79.71161133 105.8515625 79.2746582 C107.20755331 78.48612007 108.56196195 77.69484848 109.9140625 76.8996582 C110.8834375 76.3634082 111.8528125 75.8271582 112.8515625 75.2746582 C111.0526122 70.19830994 108.36129795 65.63752209 105.7265625 60.9621582 C105.25863281 60.12620117 104.79070312 59.29024414 104.30859375 58.42895508 C103.1589366 56.37599588 102.00652448 54.32463618 100.8515625 52.2746582 C96.69562485 53.51298265 93.43831952 55.04224681 89.8515625 57.4621582 C86.88647619 59.25448649 85.19221836 60.2337795 81.7265625 60.6496582 C78.03143163 58.8824217 75.82053963 56.40917916 73.0234375 53.4543457 C62.80859854 43.20276272 48.06393855 36.69606737 34.23046875 33.0637207 C33.44542969 32.80333008 32.66039062 32.54293945 31.8515625 32.2746582 C30.70501768 29.98156857 30.65427133 28.47556164 30.53515625 25.9230957 C30.49704834 25.15658691 30.45894043 24.39007813 30.41967773 23.6003418 C30.35502319 22.13975342 30.35502319 22.13975342 30.2890625 20.6496582 C30.0725 16.0090332 30.0725 16.0090332 29.8515625 11.2746582 C21.2715625 11.2746582 12.6915625 11.2746582 3.8515625 11.2746582 Z M-14.046875 86.95825195 C-16.55791223 89.4553887 -16.55791223 89.4553887 -18.1484375 94.2746582 C4.9515625 94.2746582 28.0515625 94.2746582 51.8515625 94.2746582 C48.32889119 85.46797993 41.3027867 80.17408481 32.765625 76.3371582 C15.18502427 69.73649945 -0.60128669 74.99042954 -14.046875 86.95825195 Z M-127.1484375 98.2746582 C-127.4784375 98.9346582 -127.8084375 99.5946582 -128.1484375 100.2746582 C-127.35179688 100.36102539 -126.55515625 100.44739258 -125.734375 100.53637695 C-118.99462006 101.43009142 -114.82070994 102.22355286 -110.1484375 107.2746582 C-108.18577226 111.19998868 -108.80702971 115.98533493 -109.1484375 120.2746582 C-110.84259892 124.55464495 -112.97311365 126.40908797 -117.1484375 128.2746582 C-120.45993169 129.08729482 -123.784906 129.71951223 -127.1484375 130.2746582 C-123.71402844 134.09066827 -121.04410838 135.94458173 -115.88671875 136.5324707 C-109.81100638 136.81159991 -105.09406785 135.91573252 -100.1484375 132.2746582 C-98.88365145 130.76823997 -98.88365145 130.76823997 -97.59331417 129.23138905 C-94.40081403 126.03754323 -92.02737533 125.55981611 -87.59615284 125.46753567 C-86.33384489 125.48658899 -86.33384489 125.48658899 -85.04603577 125.50602722 C-84.13929955 125.49596171 -83.23256334 125.4858962 -82.29835027 125.47552568 C-79.26481142 125.44928454 -76.23304752 125.46585661 -73.19946289 125.48242188 C-71.02275869 125.47265298 -68.84606462 125.46034702 -66.66938782 125.44569397 C-60.76018149 125.41406068 -54.85158602 125.42056259 -48.94233632 125.43577361 C-44.00927882 125.44492018 -39.07633344 125.43522428 -34.14328283 125.42543489 C-22.50598054 125.4025207 -10.86897451 125.41011275 0.76831055 125.4375 C12.77463617 125.46530561 24.7800975 125.4459462 36.78637308 125.40262431 C47.09485736 125.36685786 57.40311164 125.35829466 67.711649 125.37201673 C73.86836998 125.38006533 80.02467316 125.37825579 86.1813488 125.35115623 C91.97075244 125.3270301 97.75911734 125.33697853 103.54844856 125.37314415 C105.67246755 125.38079878 107.79656804 125.37654073 109.92053223 125.35947037 C112.82227039 125.33807384 115.7206152 125.35987192 118.62217712 125.39250183 C119.46148504 125.37620466 120.30079295 125.35990749 121.16553444 125.34311646 C125.96863227 125.45123297 128.30253061 126.24586658 131.72136784 129.70869923 C132.51333265 130.63757331 132.51333265 130.63757331 133.32129675 131.58521253 C136.33035082 134.90727171 139.88190347 136.01634226 144.234375 136.5871582 C150.20214787 136.87915932 154.94624164 135.7839478 159.8515625 132.2746582 C160.1815625 131.6146582 160.5115625 130.9546582 160.8515625 130.2746582 C159.95953125 130.10450195 159.0675 129.9343457 158.1484375 129.7590332 C156.97796875 129.51668945 155.8075 129.2743457 154.6015625 129.0246582 C153.44140625 128.79262695 152.28125 128.5605957 151.0859375 128.3215332 C147.58352854 127.18790325 146.11100272 126.13661582 143.8515625 123.2746582 C142.18593463 118.2777746 141.55644723 112.22496563 143.72265625 107.2902832 C147.63180625 102.11226157 152.76358082 101.60608387 158.7890625 100.6496582 C159.7996875 100.5259082 160.8103125 100.4021582 161.8515625 100.2746582 C158.30094289 96.3295253 155.29230967 94.5606313 149.984375 93.9387207 C143.27353744 93.85156697 139.23881349 94.18034745 133.8515625 98.2746582 C132.97126778 99.30401836 132.09594246 100.33764516 131.22515011 101.37505627 C128.07202214 104.54182999 125.68365394 104.99047587 121.29927784 105.08178073 C120.45773921 105.06907852 119.61620057 105.05637631 118.74916077 105.04328918 C117.84242455 105.05335469 116.93568834 105.0634202 116.00147527 105.07379073 C112.96793642 105.10003186 109.93617252 105.0834598 106.90258789 105.06689453 C104.72588369 105.07666343 102.54918962 105.08896938 100.37251282 105.10362244 C94.46330649 105.13525572 88.55471102 105.12875382 82.64546132 105.1135428 C77.71240382 105.10439623 72.77945844 105.11409213 67.84640783 105.12388152 C56.20910554 105.14679571 44.57209951 105.13920366 32.93481445 105.11181641 C20.92848883 105.08401079 8.9230275 105.10337021 -3.08324808 105.1466921 C-13.39173236 105.18245854 -23.69998664 105.19102174 -34.008524 105.17729968 C-40.16524498 105.16925108 -46.32154816 105.17106062 -52.4782238 105.19816017 C-58.26762744 105.22228631 -64.05599234 105.21233788 -69.84532356 105.17617226 C-71.96934255 105.16851762 -74.09344304 105.17277567 -76.21740723 105.18984604 C-79.11914539 105.21124257 -82.0174902 105.18944449 -84.91905212 105.15681458 C-86.17801399 105.18126033 -86.17801399 105.18126033 -87.46240944 105.20619994 C-92.26912967 105.0980019 -94.620062 104.29041386 -98.05730534 100.84061718 C-98.59253285 100.22136779 -99.12776037 99.6021184 -99.67920691 98.96410388 C-102.611641 95.59214298 -105.52380628 94.458492 -109.91015625 93.9621582 C-116.80033885 93.68551348 -121.33565644 94.54570431 -127.1484375 98.2746582 Z M-63.1484375 136.2746582 C-63.1484375 138.9146582 -63.1484375 141.5546582 -63.1484375 144.2746582 C-65.26017611 147.66716246 -69.44425326 149.43008736 -72.8359375 151.4621582 C-73.44244141 151.83018555 -74.04894531 152.19821289 -74.67382812 152.57739258 C-76.16305138 153.48030747 -77.65543565 154.37800516 -79.1484375 155.2746582 C-77.3494872 160.35100647 -74.65817295 164.91179431 -72.0234375 169.5871582 C-71.55550781 170.42311523 -71.08757812 171.25907227 -70.60546875 172.12036133 C-69.4558116 174.17332053 -68.30339948 176.22468022 -67.1484375 178.2746582 C-62.4079521 176.50556401 -58.22032862 174.07248192 -53.8671875 171.5168457 C-50.93570809 170.17746287 -49.32073713 169.7476808 -46.1484375 170.2746582 C-44.3671875 171.70825195 -44.3671875 171.70825195 -42.6484375 173.7121582 C-31.94976312 185.07447215 -17.74044097 192.177401 -2.95947266 196.62719727 C-1.33905789 197.12480159 0.25901338 197.69401942 1.8515625 198.2746582 C2.99810732 200.56774784 3.04885367 202.07375477 3.16796875 204.6262207 C3.20607666 205.39272949 3.24418457 206.15923828 3.28344727 206.94897461 C3.34810181 208.40956299 3.34810181 208.40956299 3.4140625 209.8996582 C3.630625 214.5402832 3.630625 214.5402832 3.8515625 219.2746582 C12.4315625 219.2746582 21.0115625 219.2746582 29.8515625 219.2746582 C30.06132141 213.15732901 30.06132141 213.15732901 30.23950195 207.0390625 C30.28917114 205.89304565 30.28917114 205.89304565 30.33984375 204.72387695 C30.36602783 203.94359131 30.39221191 203.16330566 30.41918945 202.359375 C30.96094233 199.74727572 31.75006614 198.88527207 33.8515625 197.2746582 C36.59744017 196.31881471 39.31517885 195.4648036 42.1015625 194.6496582 C55.28251274 190.48223943 65.95852894 184.19529025 75.37817383 173.99682617 C78.09965266 171.2054502 79.37255656 170.28272228 83.33203125 170.21606445 C87.04627207 171.33322235 89.88554831 172.77506859 93.1640625 174.8371582 C96.75731637 177.37195999 96.75731637 177.37195999 100.8515625 178.2746582 C102.481523 175.38159057 104.10463418 172.48473537 105.7265625 169.5871582 C106.18675781 168.77053711 106.64695312 167.95391602 107.12109375 167.11254883 C109.28453788 163.24029739 111.36489839 159.46978509 112.8515625 155.2746582 C111.78035156 154.70618164 110.70914063 154.13770508 109.60546875 153.55200195 C108.20761944 152.77333422 106.81052245 151.99331486 105.4140625 151.2121582 C104.70701172 150.84155273 103.99996094 150.47094727 103.27148438 150.08911133 C101.25359549 148.94016981 99.53895175 147.8723928 97.8515625 146.2746582 C96.90242408 142.74111878 96.8515625 139.90260633 96.8515625 136.2746582 C92.4045204 136.02636948 87.96119356 135.84555988 83.50927734 135.7253418 C81.99749486 135.67521853 80.48619337 135.60708979 78.97607422 135.52026367 C74.1053894 135.24735121 69.62441886 135.16813204 64.8515625 136.2746582 C61.72141904 139.22119752 60.46506172 142.35960352 58.8515625 146.2746582 C52.18264722 155.7599134 41.17210432 163.00865175 29.8671875 165.87231445 C17.99726685 167.45599558 5.80272278 167.55440214 -5.1484375 162.2746582 C-6.67017578 161.54569336 -6.67017578 161.54569336 -8.22265625 160.80200195 C-19.42236463 154.85786563 -25.03172747 147.28473626 -31.1484375 136.2746582 C-41.7084375 136.2746582 -52.2684375 136.2746582 -63.1484375 136.2746582 Z M-18.1484375 136.2746582 C-13.35491299 145.86170723 -5.85112406 151.12838684 3.9765625 155.1496582 C14.40716144 158.23815115 26.23422486 157.19800116 35.8515625 152.2746582 C42.30985066 148.75951908 47.60948037 144.33087835 51.8515625 138.2746582 C51.8515625 137.6146582 51.8515625 136.9546582 51.8515625 136.2746582 C28.7515625 136.2746582 5.6515625 136.2746582 -18.1484375 136.2746582 Z " transform="translate(239.1484375,99.725341796875)" style="fill: rgb(71, 111, 255);"/></svg>