<svg xmlns="http://www.w3.org/2000/svg" xmlns:xlink="http://www.w3.org/1999/xlink" width="64" zoomAndPan="magnify" viewBox="0 0 48 48" height="64" preserveAspectRatio="xMidYMid meet" version="1.0"><path fill="#476fff" d="M 37.414062 46.257812 C 34.984375 46.257812 32.585938 45.308594 30.792969 43.519531 C 28.300781 41.023438 27.429688 37.3125 28.527344 33.980469 L 13.527344 18.984375 C 10.191406 20.082031 6.484375 19.210938 3.992188 16.71875 C 1.195312 13.921875 0.457031 9.644531 2.164062 6.078125 C 2.238281 5.925781 2.382812 5.8125 2.550781 5.785156 C 2.726562 5.757812 2.894531 5.8125 3.015625 5.933594 L 8.894531 11.8125 C 9.835938 12.75 11.363281 12.753906 12.304688 11.8125 C 13.242188 10.875 13.242188 9.34375 12.304688 8.40625 L 6.421875 2.523438 C 6.300781 2.402344 6.246094 2.230469 6.273438 2.0625 C 6.304688 1.890625 6.414062 1.75 6.570312 1.671875 C 10.136719 -0.03125 14.410156 0.703125 17.207031 3.5 C 19.699219 5.996094 20.574219 9.707031 19.472656 13.042969 L 34.46875 28.039062 C 37.804688 26.933594 41.515625 27.808594 44.007812 30.304688 C 46.804688 33.097656 47.539062 37.375 45.835938 40.941406 C 45.761719 41.097656 45.617188 41.207031 45.445312 41.234375 C 45.285156 41.265625 45.105469 41.207031 44.984375 41.085938 L 39.101562 35.207031 C 38.164062 34.269531 36.632812 34.269531 35.695312 35.207031 C 34.757812 36.148438 34.757812 37.675781 35.695312 38.613281 L 41.578125 44.492188 C 41.699219 44.613281 41.753906 44.785156 41.722656 44.957031 C 41.695312 45.125 41.585938 45.269531 41.429688 45.34375 C 40.148438 45.957031 38.777344 46.257812 37.414062 46.257812 Z M 13.667969 17.847656 C 13.804688 17.847656 13.941406 17.902344 14.039062 18 L 29.511719 33.464844 C 29.65625 33.613281 29.703125 33.828125 29.632812 34.023438 C 28.507812 37.054688 29.257812 40.488281 31.542969 42.769531 C 33.839844 45.070312 37.265625 45.796875 40.273438 44.6875 L 34.949219 39.363281 C 33.597656 38.011719 33.597656 35.8125 34.949219 34.457031 C 36.304688 33.109375 38.503906 33.109375 39.851562 34.457031 L 45.179688 39.785156 C 46.289062 36.777344 45.558594 33.351562 43.261719 31.050781 C 40.976562 28.769531 37.546875 28.019531 34.511719 29.140625 C 34.320312 29.214844 34.101562 29.167969 33.957031 29.019531 L 18.488281 13.554688 C 18.34375 13.410156 18.296875 13.191406 18.367188 12.996094 C 19.492188 9.96875 18.742188 6.53125 16.460938 4.246094 C 14.160156 1.949219 10.734375 1.222656 7.726562 2.332031 L 13.050781 7.65625 C 13.703125 8.308594 14.0625 9.179688 14.0625 10.109375 C 14.0625 11.039062 13.703125 11.910156 13.050781 12.558594 C 11.746094 13.867188 9.449219 13.863281 8.148438 12.558594 L 2.820312 7.238281 C 1.710938 10.242188 2.441406 13.667969 4.738281 15.96875 C 7.019531 18.253906 10.457031 19.003906 13.484375 17.878906 C 13.542969 17.859375 13.605469 17.847656 13.667969 17.847656 Z M 4.6875 45.902344 C 4.554688 45.902344 4.417969 45.851562 4.316406 45.75 L 1.753906 43.1875 C 1.554688 42.988281 1.546875 42.667969 1.738281 42.457031 L 6.050781 37.714844 C 6.148438 37.605469 6.285156 37.542969 6.429688 37.539062 C 6.542969 37.539062 6.714844 37.59375 6.816406 37.695312 L 7.941406 38.816406 L 18.925781 27.832031 L 19.671875 28.578125 L 8.6875 39.566406 L 9.808594 40.6875 C 9.910156 40.789062 9.96875 40.929688 9.964844 41.074219 C 9.957031 41.222656 9.898438 41.355469 9.789062 41.453125 L 5.042969 45.769531 C 4.945312 45.859375 4.816406 45.902344 4.6875 45.902344 Z M 2.859375 42.796875 L 4.707031 44.644531 L 8.667969 41.042969 L 6.460938 38.835938 Z M 31.878906 21.332031 L 31.128906 20.585938 L 44.808594 6.902344 C 45.375 6.339844 45.683594 5.59375 45.683594 4.796875 C 45.683594 4.003906 45.375 3.253906 44.808594 2.691406 C 43.652344 1.535156 41.761719 1.53125 40.601562 2.691406 L 26.917969 16.375 L 26.171875 15.625 L 39.851562 1.945312 C 41.378906 0.417969 44.035156 0.421875 45.558594 1.945312 C 46.320312 2.707031 46.742188 3.71875 46.742188 4.796875 C 46.742188 5.875 46.320312 6.886719 45.558594 7.652344 Z M 29.398438 18.855469 L 28.648438 18.105469 L 42.289062 4.46875 L 43.039062 5.214844 Z M 29.398438 18.855469 " fill-opacity="1" fill-rule="nonzero"/></svg>