<?xml version="1.0" encoding="utf-8"?>
<svg version="1.1" xmlns="http://www.w3.org/2000/svg" width="512" height="512" xmlns:bx="https://boxy-svg.com" viewBox="0 0 512 512"><defs><bx:export><bx:file format="svg" path="Bez nazwy.svg"/></bx:export></defs><path d="M0 0 C1.94912683 -0.0046122 3.89825017 -0.01096726 5.84736627 -0.01890898 C11.18903523 -0.03558132 16.53041772 -0.02736536 21.8720876 -0.0149641 C27.63834694 -0.00590748 33.4045573 -0.01988636 39.17080688 -0.03088379 C50.46093059 -0.04866666 61.75094791 -0.04483011 73.04107577 -0.03323323 C82.21649427 -0.02419874 91.39188295 -0.02297498 100.56730461 -0.02732849 C102.52633026 -0.02824789 102.52633026 -0.02824789 104.52493219 -0.02918586 C107.17808927 -0.03046476 109.83124635 -0.03176162 112.48440342 -0.03307623 C136.65134901 -0.04455769 160.81824083 -0.0326674 184.98517724 -0.01170584 C207.03990813 0.00727821 229.09454664 0.00557556 251.14927673 -0.0135498 C275.93800701 -0.03497427 300.72668547 -0.04338481 325.51542372 -0.03110075 C328.15850062 -0.02982655 330.80157754 -0.02856907 333.44465446 -0.02732849 C335.3953201 -0.02640284 335.3953201 -0.02640284 337.38539313 -0.02545848 C346.55050076 -0.02200448 355.71557562 -0.027835 364.88067818 -0.0372467 C376.04877146 -0.04846323 387.21675229 -0.04543373 398.38483269 -0.02412373 C404.08315491 -0.0136091 409.7812896 -0.00949875 415.47961044 -0.02272034 C420.69615593 -0.03464107 425.91234006 -0.02808661 431.12885278 -0.00681013 C433.0156427 -0.00234279 434.90246317 -0.00461327 436.78923345 -0.01431328 C454.97789985 -0.10064797 454.97789985 -0.10064797 461.93907166 4.50793457 C462.50287995 4.86596145 463.06668824 5.22398833 463.64758164 5.59286451 C468.64805365 9.22499448 471.31566709 14.31150715 472.47829026 20.27270919 C472.9205944 23.37820256 473.06772258 26.29755015 473.07329273 29.43169689 C473.07775058 30.60031362 473.08220842 31.76893034 473.08680135 32.9729597 C473.08652481 34.88485424 473.08652481 34.88485424 473.08624268 36.83537292 C473.08954458 38.21039601 473.09327084 39.58541813 473.09738415 40.96043903 C473.10737473 44.73377332 473.11111618 48.50709171 473.11377347 52.28043735 C473.11768516 56.3521618 473.12726273 60.42387376 473.13598633 64.49559021 C473.15572407 74.32488834 473.16581254 84.15418746 473.17471412 93.98350045 C473.17910054 98.61488917 473.18446635 103.24627675 473.18970299 107.87766457 C473.20671091 123.27689597 473.22120529 138.67612667 473.22845173 154.07536602 C473.23036154 158.06908354 473.23228189 162.06280106 473.23423767 166.05651855 C473.23472141 167.04910546 473.23520515 168.04169237 473.23570355 169.06435768 C473.24400475 185.14529844 473.26934514 201.22616485 473.30181835 217.30707314 C473.33490109 233.82470896 473.3529015 250.34230699 473.35609597 266.85997611 C473.3582597 276.13098345 473.36698858 285.40188227 473.39255714 294.67285728 C473.41428055 302.56767728 473.42230641 310.46236238 473.41259036 318.35720887 C473.4080507 322.38292351 473.40991231 326.40835991 473.42935181 330.43403625 C473.44702013 334.12489094 473.44595653 337.81526514 473.43045451 341.50612519 C473.42696754 343.46216938 473.44307717 345.41821883 473.46005899 347.37419242 C473.39535875 356.28391681 471.78671297 363.65639752 467.25157166 371.38293457 C461.13181703 377.00649287 454.51023607 379.63440337 446.27630615 379.62818909 C445.2556567 379.62947072 445.2556567 379.62947072 444.21438807 379.63077825 C441.92963685 379.6324281 439.64495871 379.62691977 437.36021423 379.62145996 C435.72432456 379.62117796 434.08843476 379.62133608 432.45254517 379.62190247 C428.00657257 379.62218992 423.56062684 379.61630151 419.1146605 379.60932851 C414.47016933 379.6030864 409.82567758 379.60249049 405.18118286 379.6013031 C396.38395054 379.59819232 387.58673061 379.58998233 378.78950375 379.57995361 C368.77511613 379.56878463 358.76072792 379.56328004 348.74633563 379.55825818 C328.14390584 379.54779952 307.54149306 379.52945717 286.93907166 379.50793457 C287.26907166 399.30793457 287.59907166 419.10793457 287.93907166 439.50793457 C298.42210455 444.3612451 298.42210455 444.3612451 308.91148376 449.20080566 C310.22169332 449.81049542 311.53168573 450.42065212 312.84141541 451.03137207 C313.52723694 451.34501709 314.21305847 451.65866211 314.91966248 451.98181152 C319.82499985 454.27979097 319.82499985 454.27979097 320.93907166 456.50793457 C321.18050606 460.31529425 321.12426703 464.13127167 321.12657166 467.94543457 C321.13881775 469.0082666 321.15106384 470.07109863 321.16368103 471.1661377 C321.16561462 472.1851416 321.16754822 473.20414551 321.16954041 474.25402832 C321.17364929 475.1891626 321.17775818 476.12429688 321.18199158 477.08776855 C320.93907166 479.50793457 320.93907166 479.50793457 318.93907166 482.50793457 C316.19282055 482.80444324 313.67151392 482.90341933 310.92269897 482.87542725 C309.6655017 482.88033051 309.6655017 482.88033051 308.3829065 482.88533282 C305.55826699 482.89264928 302.73413893 482.8784225 299.90953064 482.86437988 C297.8911785 482.86517024 295.87282651 482.86726593 293.85447693 482.87057495 C288.36082965 482.87572291 282.86736868 482.86214619 277.3737514 482.84504795 C271.63666397 482.83005134 265.89957934 482.83118693 260.16247559 482.8303833 C250.5275096 482.82668701 240.8926147 482.81170081 231.25767517 482.78918457 C218.87298153 482.76030216 206.48834515 482.74996136 194.10362148 482.74550247 C183.47830603 482.74152834 172.85300314 482.72902553 162.22769666 482.7151556 C158.80140985 482.71104908 155.3751235 482.70812729 151.94883537 482.70536041 C146.57516897 482.70048076 141.20153762 482.69030004 135.82788849 482.67592239 C133.84970224 482.6713851 131.87151126 482.66855737 129.89332008 482.6675148 C127.20499796 482.66577944 124.51676472 482.6579241 121.82846069 482.64837646 C121.03509337 482.64924295 120.24172605 482.65010943 119.4243173 482.65100217 C114.05327889 482.62214181 114.05327889 482.62214181 112.93907166 481.50793457 C112.57398309 477.24600595 112.5674177 472.97088633 112.50157166 468.69543457 C112.45580994 467.49338379 112.41004822 466.29133301 112.36289978 465.05285645 C112.34066345 463.31938965 112.34066345 463.31938965 112.31797791 461.55090332 C112.29292175 460.48895752 112.2678656 459.42701172 112.24205017 458.33288574 C112.93907166 455.50793457 112.93907166 455.50793457 118.93907166 451.50793457 C127.51907166 447.54793457 136.09907166 443.58793457 144.93907166 439.50793457 C145.43407166 409.80793457 145.43407166 409.80793457 145.93907166 379.50793457 C138.46681946 379.53935547 138.46681946 379.53935547 130.84361267 379.57141113 C114.38719108 379.63768171 97.93076426 379.68207418 81.47424412 379.71518326 C71.49638623 379.7357922 61.51865493 379.76388092 51.5408783 379.80969238 C42.84236421 379.8496112 34.14394181 379.87537951 25.44533867 379.88428855 C20.8411654 379.88949475 16.23725442 379.90169642 11.63316536 379.9308548 C7.29523982 379.95810367 2.9576834 379.96636051 -1.3803196 379.9603653 C-2.96815373 379.96146131 -4.55600083 379.96935874 -6.14376068 379.98475647 C-16.04611303 380.07603716 -24.05682073 379.73362544 -31.87342834 373.13293457 C-36.62129776 367.43549128 -39.18337695 363.26549787 -39.19235611 355.81720352 C-39.19619725 354.62422598 -39.2000384 353.43124844 -39.20399594 352.20212007 C-39.20312946 350.88492911 -39.20226298 349.56773816 -39.20137024 348.21063232 C-39.20395325 346.80234945 -39.20696623 345.39406732 -39.21037364 343.9857862 C-39.21845451 340.10673663 -39.22023382 336.22770554 -39.22097111 332.34864855 C-39.22281978 328.16856418 -39.23036619 323.98848945 -39.23710632 319.80841064 C-39.25069802 310.66378315 -39.2567157 301.51916003 -39.26111698 292.37452412 C-39.26387807 286.66622385 -39.26811518 280.95792528 -39.27262115 275.24962616 C-39.28481506 259.44989758 -39.29511404 243.65017035 -39.29849625 227.85043716 C-39.29871581 226.83888041 -39.29893538 225.82732366 -39.2991616 224.78511368 C-39.29937988 223.77111398 -39.29959815 222.75711428 -39.29982305 221.71238732 C-39.30026651 219.65758276 -39.30071308 217.6027782 -39.30116272 215.54797363 C-39.30138415 214.52871606 -39.30160558 213.50945848 -39.30183372 212.45931432 C-39.30578205 195.94223852 -39.32323662 179.42520683 -39.34652224 162.90814808 C-39.37022766 145.95670152 -39.38269773 129.0052771 -39.38386416 112.0538137 C-39.3847814 102.5336363 -39.39054579 93.01351638 -39.40868378 83.4933548 C-39.42407386 75.38682741 -39.4292117 67.28037524 -39.42094567 59.17383602 C-39.41703525 55.03729699 -39.41798782 50.90090949 -39.43200302 46.76438904 C-39.4447185 42.97685481 -39.44356527 39.18958634 -39.43141231 35.40205261 C-39.42852283 33.38426541 -39.44040892 31.36647371 -39.45283437 29.3487227 C-39.40658934 20.90365845 -38.57010984 14.9599076 -32.99842834 8.32043457 C-32.238526 7.37104004 -32.238526 7.37104004 -31.46327209 6.40246582 C-22.14406199 -0.94682995 -11.2334525 -0.05782626 0 0 Z M-27.58436584 16.28918457 C-30.02810816 21.22150851 -31.18641549 24.91478549 -31.18397617 30.38860703 C-31.18596704 31.37571419 -31.18795792 32.36282135 -31.19000912 33.37984085 C-31.18709645 34.46123714 -31.18418379 35.54263344 -31.18118286 36.65679932 C-31.18203888 37.80491592 -31.1828949 38.95303253 -31.18377686 40.13594055 C-31.18514546 43.32943473 -31.18200374 46.52288851 -31.17700107 49.71637791 C-31.1726392 53.21051692 -31.17409537 56.70465434 -31.17481899 60.19879532 C-31.17535101 66.98374079 -31.17073023 73.76867304 -31.16431766 80.55361511 C-31.15712314 88.4005315 -31.15632321 96.24743993 -31.15553284 104.09436035 C-31.15028057 124.81555386 -31.13631948 145.53674441 -31.12342834 166.25793457 C-31.10280334 212.54043457 -31.08217834 258.82293457 -31.06092834 306.50793457 C132.28907166 306.50793457 295.63907166 306.50793457 463.93907166 306.50793457 C464.00094666 260.32855957 464.06282166 214.14918457 464.12657166 166.57043457 C464.15388367 151.98219482 464.18119568 137.39395508 464.20933533 122.36364746 C464.21936783 109.30162918 464.21936783 109.30162918 464.22540283 96.23960876 C464.22820092 90.41580068 464.23920747 84.5920789 464.25579834 78.76829529 C464.27490878 72.05014079 464.28357611 65.33206909 464.27940651 58.61388722 C464.277601 55.17801135 464.28044262 51.74232047 464.29671705 48.30647862 C464.31163638 44.62352566 464.30804249 40.94103547 464.29983521 37.2580719 C464.3085732 36.19123893 464.31731119 35.12440596 464.32631397 34.02524471 C464.28264863 26.73580152 463.87780776 19.44667067 458.50157166 14.07043457 C457.65594666 13.55480957 456.81032166 13.03918457 455.93907166 12.50793457 C455.11198605 11.97255398 455.11198605 11.97255398 454.26819164 11.42635763 C450.91815963 10.10536658 447.65810674 10.23104306 444.11065197 10.25066566 C443.31290976 10.24715959 442.51516756 10.24365352 441.69325134 10.2400412 C439.00349104 10.2306913 436.31394555 10.23565973 433.62417603 10.24050903 C431.68292988 10.23677458 429.74168523 10.23217388 427.80044299 10.22677839 C422.45283628 10.21450762 417.10529193 10.21481364 411.75767434 10.21716714 C405.99544753 10.21757428 400.23324099 10.20654601 394.47102356 10.197052 C383.17676885 10.18041868 371.88253501 10.1749414 360.58826908 10.17382725 C351.41031206 10.17287787 342.23236195 10.16877313 333.05440712 10.16242599 C311.28324084 10.14767563 289.51208048 10.13537695 267.74090862 10.13642311 C266.69617874 10.13646985 266.69617874 10.13646985 265.6303432 10.13651753 C262.10014753 10.13668375 258.56995187 10.13688183 255.0397562 10.13708694 C253.98806594 10.13714678 253.98806594 10.13714678 252.91512941 10.13720782 C251.49727946 10.1372887 250.07942951 10.13737229 248.66157957 10.13745861 C226.60113716 10.13868417 204.54075623 10.12367102 182.48033142 10.09631348 C157.70339135 10.0655999 132.92649198 10.04840589 108.14953166 10.05023992 C95.02772627 10.05090468 81.90599021 10.04537484 68.78420067 10.02388382 C57.61262193 10.00570457 46.44114394 10.00129787 35.26955684 10.01490267 C29.56746601 10.02144877 23.86556864 10.02149032 18.16349602 10.00419617 C12.94559463 9.98853298 7.72804118 9.99125982 2.51014862 10.00876443 C0.62051801 10.01184926 -1.26913814 10.00814652 -3.15873865 9.99704428 C-5.7245774 9.98296497 -8.28918865 9.99347606 -10.85498524 10.01015663 C-11.59109945 10.00022027 -12.32721367 9.99028391 -13.08563438 9.98004645 C-18.9371689 10.06064285 -23.69700056 11.74395747 -27.58436584 16.28918457 Z M-31.06092834 314.50793457 C-33.88844938 340.21677975 -33.88844938 340.21677975 -25.62342834 366.44543457 C-20.83893375 370.29636924 -17.28981282 370.79872324 -11.21689129 370.76520348 C-10.41746071 370.76870955 -9.61803013 370.77221563 -8.79437438 370.77582794 C-6.09887082 370.78517798 -3.40358161 370.78020937 -0.70806885 370.77536011 C1.2373021 370.77909455 3.18267154 370.78369525 5.12803859 370.78909075 C10.48704684 370.80136161 15.84599286 370.80105549 21.20501196 370.798702 C26.97950881 370.79829486 32.75398542 370.80932311 38.5284729 370.81881714 C49.84679107 370.8354505 61.16508842 370.84092774 72.48341779 370.84204189 C81.68092095 370.84299127 90.87841722 370.84709599 100.0759182 370.85344315 C121.89340741 370.86819351 143.71089125 370.88049219 165.52838612 370.87944603 C166.22635557 370.87941487 166.92432501 370.87938371 167.64344505 370.87935161 C171.18115727 370.87918539 174.71886949 370.87898731 178.2565817 370.8787822 C178.95920148 370.87874231 179.66182126 370.87870242 180.38573255 370.87866132 C181.80660159 370.87858044 183.22747063 370.87849685 184.64833967 370.87841053 C206.75577468 370.87718497 228.86314834 370.89219814 250.9705658 370.91955566 C275.80024357 370.95026917 300.62988072 370.96746325 325.45957869 370.96562922 C338.6093297 370.96496446 351.75901153 370.97049439 364.90874672 370.99198532 C376.10411396 371.01016448 387.29938067 371.01457134 398.49475626 371.00096647 C404.20899854 370.99442033 409.92304777 370.99437898 415.63727188 371.01167297 C420.86627556 371.02733597 426.09493203 371.02460952 431.32392689 371.00710471 C433.21759515 371.00401984 435.1112889 371.00772278 437.00492714 371.01882486 C439.57621083 371.03290378 442.14626956 371.02239336 444.71751118 371.00571251 C445.82408902 371.02061705 445.82408902 371.02061705 446.95302197 371.03582269 C452.44737103 370.96030292 455.49684574 369.50369333 459.93907166 366.50793457 C470.77555788 354.0876542 464.93907166 322.98700339 464.93907166 314.50793457 C301.25907166 314.50793457 137.57907166 314.50793457 -31.06092834 314.50793457 Z M154.93907166 380.50793457 C154.93907166 399.64793457 154.93907166 418.78793457 154.93907166 438.50793457 C195.85907166 438.50793457 236.77907166 438.50793457 278.93907166 438.50793457 C278.93907166 419.36793457 278.93907166 400.22793457 278.93907166 380.50793457 C238.01907166 380.50793457 197.09907166 380.50793457 154.93907166 380.50793457 Z M120.93907166 462.50793457 C120.93907166 466.79793457 120.93907166 471.08793457 120.93907166 475.50793457 C184.29907166 475.50793457 247.65907166 475.50793457 312.93907166 475.50793457 C312.93907166 471.21793457 312.93907166 466.92793457 312.93907166 462.50793457 C310.58628963 461.31763092 308.23187744 460.13072747 305.87657166 458.94543457 C305.23913025 458.62252441 304.60168884 458.29961426 303.94493103 457.96691895 C302.52812094 457.2551244 301.10175092 456.56216919 299.668396 455.88430786 C296.93907166 454.50793457 296.93907166 454.50793457 294.19607544 452.78036499 C281.83864739 445.7388292 268.8064132 446.35585828 254.9204669 446.33713508 C252.81661331 446.33210334 250.71306411 446.31705539 248.60928726 446.29865456 C241.21641056 446.23413327 233.82440802 446.20527282 226.43125916 446.21081543 C219.62763737 446.21499643 212.82794472 446.14157949 206.02531374 446.03060979 C200.1169982 445.93779751 194.20993515 445.90158091 188.3009001 445.9060033 C184.8016647 445.90775438 181.30591418 445.88979998 177.80743027 445.81375694 C159.34249528 445.48313136 135.04751284 448.39949338 120.93907166 462.50793457 Z " fill="#476FFE" transform="translate(39.06092834472656,13.4920654296875)"/><path d="M0 0 C0.96067242 -0.00262956 0.96067242 -0.00262956 1.94075236 -0.00531223 C4.11340829 -0.01000994 6.2859984 -0.00749714 8.45865726 -0.00507832 C10.02139483 -0.0069444 11.58413194 -0.00924428 13.14686829 -0.01194364 C17.46194948 -0.01809316 21.77701139 -0.01792437 26.09209597 -0.01674926 C30.73769822 -0.01654605 35.38329414 -0.02205639 40.02889347 -0.02680683 C49.1381196 -0.03513113 58.24733926 -0.03786247 67.35656887 -0.03841921 C74.75689223 -0.03889352 82.15721344 -0.04094399 89.55753613 -0.04411983 C110.514421 -0.05293116 131.47130074 -0.05753845 152.42818748 -0.05678936 C153.55916796 -0.0567494 154.69014843 -0.05670945 155.85540104 -0.05666828 C156.98775392 -0.0566274 158.12010679 -0.05658652 159.28677339 -0.0565444 C177.64706936 -0.05613777 196.00734484 -0.06571045 214.36763489 -0.07980665 C233.19594428 -0.09414872 252.02424367 -0.10107804 270.85255867 -0.10021287 C281.43284982 -0.09988016 292.01311948 -0.10265976 302.59340572 -0.11339092 C311.60041891 -0.12246745 320.60740088 -0.12469475 329.61441665 -0.1178815 C334.21407346 -0.11460184 338.81367028 -0.11461129 343.4133215 -0.12323475 C347.61820088 -0.13103734 351.82297207 -0.12973303 356.02784861 -0.12095062 C357.55476257 -0.11940173 359.08168436 -0.12128329 360.60858911 -0.12681069 C362.67294982 -0.13379287 364.73692274 -0.12863951 366.80126953 -0.12025452 C367.95128006 -0.12047188 369.10129059 -0.12068925 370.28614992 -0.12091321 C372.96355534 0.12863445 372.96355534 0.12863445 374.96355534 2.12863445 C374.71355534 5.19113445 374.71355534 5.19113445 373.96355534 8.12863445 C371.18971329 9.51555547 368.94377843 9.25667487 365.8380909 9.26006222 C364.52271876 9.26390336 363.20734663 9.26774451 361.85211474 9.27170205 C360.37836169 9.27092171 358.90460869 9.27004291 357.43085575 9.26907635 C355.87621723 9.2716584 354.32157937 9.27467111 352.76694244 9.27807975 C348.47885633 9.28617158 344.19078694 9.28794053 339.90269411 9.28867722 C335.28435557 9.29052395 330.66602579 9.29806929 326.0476923 9.30481243 C315.94256086 9.31841111 305.83743339 9.32442268 295.73229432 9.32882309 C289.42752863 9.33158256 283.12276449 9.33581933 276.81799984 9.34032726 C259.37554775 9.35252124 241.9330969 9.36282075 224.49064064 9.36620235 C223.37367613 9.36642192 222.25671161 9.36664149 221.10589969 9.36686771 C219.98620687 9.36708598 218.86651406 9.36730426 217.71289116 9.36752915 C215.44382544 9.36797263 213.17475973 9.36841919 210.90569401 9.36886883 C209.78015017 9.36909026 208.65460634 9.36931169 207.49495512 9.36953983 C189.24531961 9.37349028 170.99572398 9.39095124 152.74610389 9.41422835 C134.02736908 9.43791193 115.3086543 9.45040281 96.58990425 9.45157027 C86.07274006 9.45248865 75.55562782 9.45828182 65.0384779 9.47638988 C56.08530674 9.49175044 47.1322036 9.49693532 38.17902178 9.48865178 C33.60755845 9.48473105 29.03623225 9.48574382 24.46478558 9.49970913 C20.28452237 9.51236315 16.10450054 9.51132615 11.92423808 9.49911842 C10.40742856 9.49714657 8.89060243 9.5003077 7.37381632 9.50896278 C5.32085863 9.51994092 3.26782229 9.51083597 1.21486092 9.50057125 C0.07184771 9.50116834 -1.0711655 9.50176543 -2.24881548 9.50238061 C-5.03644466 9.12863445 -5.03644466 9.12863445 -6.94277626 7.7694509 C-8.03644466 6.12863445 -8.03644466 6.12863445 -7.78644466 3.50363445 C-6.38688387 -0.92830805 -4.38127426 0.00268408 0 0 Z " fill="#466EFF" transform="translate(72.03644466400146,285.8713655471802)"/><path d="M0 0 C1.31537213 -0.00583219 2.63074427 -0.01166439 3.98597616 -0.01767331 C5.45972962 -0.01403953 6.93348262 -0.01021512 8.40723515 -0.00622082 C9.96187479 -0.00923856 11.51651295 -0.01312614 13.07114846 -0.01781338 C17.35925659 -0.02815079 21.64728166 -0.02589706 25.93539679 -0.02163279 C30.55374005 -0.01917592 35.17206276 -0.02816673 39.7903986 -0.03567028 C48.84434994 -0.04844834 57.89827167 -0.05020712 66.95223051 -0.04787002 C74.30818739 -0.04609017 81.66413525 -0.04782931 89.02009106 -0.05209446 C90.58785212 -0.05298724 90.58785212 -0.05298724 92.18728511 -0.05389806 C94.31025385 -0.05510976 96.43322259 -0.05632389 98.55619133 -0.05754044 C118.48517813 -0.06842793 138.41414803 -0.06624776 158.34313578 -0.06015559 C176.59277416 -0.05498525 194.84235918 -0.06624283 213.09198701 -0.08525381 C231.81072529 -0.10460466 250.52943829 -0.11289307 269.24818665 -0.10913056 C279.76534662 -0.10721434 290.28246116 -0.10974691 300.799613 -0.1238451 C309.75278918 -0.13572486 318.70589198 -0.13720224 327.65906911 -0.12505493 C332.23052891 -0.11914221 336.80185426 -0.1181324 341.37330532 -0.13005733 C345.55357449 -0.14083548 349.73359565 -0.13791006 353.91385282 -0.12379565 C355.43065991 -0.12112628 356.94748595 -0.12358467 358.46427458 -0.13153151 C360.51723873 -0.14154565 362.57027209 -0.13147982 364.62322998 -0.12025452 C365.76624319 -0.12030953 366.9092564 -0.12036455 368.08690637 -0.12042123 C370.87453556 0.25447559 370.87453556 0.25447559 372.78086716 1.61383373 C373.87453556 3.25447559 373.87453556 3.25447559 373.62453556 5.87947559 C372.87453556 8.25447559 372.87453556 8.25447559 371.87453556 9.25447559 C369.86442343 9.35501876 367.85071479 9.38372157 365.8380909 9.38590336 C365.19764262 9.38795599 364.55719434 9.39000863 363.89733854 9.39212346 C361.72468479 9.39783356 359.55209363 9.39633132 357.37943363 9.39491749 C355.81669587 9.39749883 354.25395878 9.40051133 352.69122261 9.40392089 C348.37614341 9.41202123 344.06108082 9.41378214 339.74599493 9.41451836 C335.10039118 9.41636364 330.45479616 9.42390824 325.80919743 9.43065357 C315.64209241 9.44425848 305.47499133 9.45026484 295.30787873 9.45466423 C288.96543656 9.45742276 282.62299591 9.46165936 276.28055477 9.4661684 C258.73691656 9.47836341 241.19327958 9.48866258 223.64963722 9.4920435 C222.5259508 9.49226306 221.40226438 9.49248263 220.24452686 9.49270885 C219.11808059 9.49292712 217.99163432 9.4931454 216.83105332 9.49337029 C214.5482655 9.49381377 212.26547768 9.49426033 209.98268986 9.49470997 C208.85033698 9.4949314 207.71798411 9.49515283 206.55131751 9.49538097 C188.19101202 9.49933146 169.83074617 9.51679211 151.47045601 9.54006949 C132.64214649 9.56374855 113.81385689 9.57624375 94.98553222 9.57741141 C84.40522794 9.57833007 73.82497529 9.58413013 63.24468517 9.60223103 C54.23766253 9.61758554 45.23070748 9.62278009 36.22367425 9.61449292 C31.62398835 9.61056996 27.02443876 9.61159561 22.4247694 9.62555027 C18.21984674 9.63819127 14.01516415 9.63717905 9.81024229 9.62495956 C8.28332654 9.6229854 6.75639434 9.62615918 5.22950179 9.63480392 C3.16497694 9.64575902 1.10132025 9.63850902 -0.96317863 9.62641239 C-2.11318916 9.62700948 -3.26319969 9.62760657 -4.44805902 9.62822175 C-5.33160281 9.50488552 -6.2151466 9.38154929 -7.12546444 9.25447559 C-9.12546444 6.25447559 -9.12546444 6.25447559 -8.87546444 4.19197559 C-7.08996806 -0.42055673 -4.46821519 0.00338885 0 0 Z " fill="#466EFE" transform="translate(73.12546443939209,51.745524406433105)"/><path d="M0 0 C1.2375 0.1546875 1.2375 0.1546875 2.5 0.3125 C4.90696956 3.92295434 4.75591277 5.58074858 4.77124023 9.87597656 C4.77646698 10.53816696 4.78169373 11.20035736 4.78707886 11.88261414 C4.79731443 13.31980267 4.8030985 14.75702823 4.80496025 16.19425201 C4.80862624 18.47332496 4.82536071 20.75196361 4.84571838 23.03094482 C4.90109493 29.51029356 4.93174597 35.98970729 4.95629883 42.46923828 C4.97222936 46.43451919 5.00251026 50.39949441 5.04106331 54.36461639 C5.05267025 55.87156666 5.05864328 57.37857175 5.05874443 58.88556671 C5.05893784 61.00118118 5.07730291 63.11596134 5.09936523 65.23144531 C5.10443588 66.43263 5.10950653 67.6338147 5.11473083 68.87139893 C5.91737899 76.04039577 9.40836696 81.34944355 14.5 86.3125 C20.44171157 90.55657969 26.36950322 90.91296289 33.5 90.3125 C39.40927889 88.9196717 44.41395097 86.40907136 47.87890625 81.265625 C51.72032703 74.74287063 52.6111831 69.16936946 52.67358398 61.60449219 C52.68707382 60.29003113 52.70056366 58.97557007 52.71446228 57.62127686 C52.71952223 56.92664085 52.72458218 56.23200485 52.72979546 55.51631927 C52.74630902 53.33088552 52.76954452 51.14561659 52.79469299 48.96026611 C52.86522522 42.75093869 52.92580641 36.54154963 52.97680664 30.33203125 C53.00853916 26.52544517 53.04978174 22.71905976 53.09700203 18.9126358 C53.11303555 17.46296015 53.12535088 16.01323851 53.13390923 14.56349945 C53.1460199 12.54323629 53.17119746 10.52306409 53.19702148 8.50292969 C53.20732895 7.35298523 53.21763641 6.20304077 53.22825623 5.01824951 C53.5 2.3125 53.5 2.3125 55.5 0.3125 C60.05555556 0.86805556 60.05555556 0.86805556 61.5 2.3125 C61.6154513 4.49831813 61.65971861 6.68791224 61.67700195 8.87670898 C61.68357315 9.56304916 61.69014435 10.24938934 61.69691467 10.95652771 C61.71670878 13.24055077 61.72833016 15.52450756 61.73828125 17.80859375 C61.74235678 18.58953966 61.7464323 19.37048557 61.75063133 20.17509651 C61.77152848 24.31684227 61.78580842 28.45855465 61.79516602 32.6003418 C61.80617522 36.86049856 61.84049992 41.12012496 61.88033772 45.38009548 C61.90662512 48.66859334 61.91486904 51.95696794 61.91844749 55.2455616 C61.9232905 56.81429648 61.93483861 58.38302672 61.95348549 59.95165825 C62.08303087 71.58231143 60.96204874 82.50506151 52.5 91.3125 C44.56905925 97.98456126 35.63954927 100.98577805 25.30078125 100.6640625 C16.7599844 99.59199595 8.38175161 96.02015621 2.84765625 89.30859375 C-4.46806029 79.02366218 -4.94307816 69.17870992 -4.86328125 56.97265625 C-4.86276183 55.39847311 -4.8632827 53.82428931 -4.86479187 52.25010681 C-4.86470263 48.96961646 -4.85436527 45.68937437 -4.83618164 42.40893555 C-4.81336439 38.19992097 -4.81297908 33.99126422 -4.81969929 29.78220463 C-4.82303371 26.54034731 -4.81642136 23.29857204 -4.80657005 20.05673027 C-4.80271847 18.5037523 -4.80156967 16.95076522 -4.8031559 15.39778328 C-4.80352546 13.23644555 -4.79094223 11.07557444 -4.7746582 8.91430664 C-4.77005081 7.68458633 -4.76544342 6.45486603 -4.76069641 5.18788147 C-4.42498911 1.4851586 -3.73538315 0.46692289 0 0 Z " fill="#476FFF" transform="translate(74.5,121.6875)"/><path d="M0 0 C3.0625 0.25 3.0625 0.25 6 1 C7.42283817 3.84567633 7.1404958 6.26833845 7.15771484 9.44995117 C7.16533592 10.44301773 7.16533592 10.44301773 7.17311096 11.45614624 C7.18382086 12.89609131 7.19243861 14.33605308 7.19923019 15.77602196 C7.21102095 18.05912828 7.23047652 20.34204558 7.25234985 22.62507629 C7.3139427 29.11725518 7.36790959 35.60941707 7.40136719 42.10180664 C7.42238047 46.07244252 7.45774209 50.04273751 7.50212479 54.01317787 C7.51623859 55.52291141 7.52499675 57.0327053 7.52817917 58.54250145 C7.53311986 60.66305229 7.55635842 62.78270885 7.58349609 64.90307617 C7.59158295 66.10727707 7.5996698 67.31147797 7.60800171 68.5521698 C8.42332672 75.72338017 11.90436565 81.03304328 17 86 C22.94171157 90.24407969 28.86950322 90.60046289 36 90 C41.90927889 88.6071717 46.91395097 86.09657136 50.37890625 80.953125 C54.22032703 74.43037063 55.1111831 68.85686946 55.17358398 61.29199219 C55.18707382 59.97753113 55.20056366 58.66307007 55.21446228 57.30877686 C55.21952223 56.61414085 55.22458218 55.91950485 55.22979546 55.20381927 C55.24630902 53.01838552 55.26954452 50.83311659 55.29469299 48.64776611 C55.36522522 42.43843869 55.42580641 36.22904963 55.47680664 30.01953125 C55.50853916 26.21294517 55.54978174 22.40655976 55.59700203 18.6001358 C55.61303555 17.15046015 55.62535088 15.70073851 55.63390923 14.25099945 C55.6460199 12.23073629 55.67119746 10.21056409 55.69702148 8.19042969 C55.70732895 7.04048523 55.71763641 5.89054077 55.72825623 4.70574951 C56 2 56 2 58 0 C62.55555556 0.55555556 62.55555556 0.55555556 64 2 C64.1154513 4.18581813 64.15971861 6.37541224 64.17700195 8.56420898 C64.18357315 9.25054916 64.19014435 9.93688934 64.19691467 10.64402771 C64.21670878 12.92805077 64.22833016 15.21200756 64.23828125 17.49609375 C64.24235678 18.27703966 64.2464323 19.05798557 64.25063133 19.86259651 C64.27152848 24.00434227 64.28580842 28.14605465 64.29516602 32.2878418 C64.30617522 36.54799856 64.34049992 40.80762496 64.38033772 45.06759548 C64.40662512 48.35609334 64.41486904 51.64446794 64.41844749 54.9330616 C64.4232905 56.50179648 64.43483861 58.07052672 64.45348549 59.63915825 C64.58303087 71.26981143 63.46204874 82.19256151 55 91 C47.06905925 97.67206126 38.13954927 100.67327805 27.80078125 100.3515625 C19.2599844 99.27949595 10.88175161 95.70765621 5.34765625 88.99609375 C-1.96806029 78.71116218 -2.44307816 68.86620992 -2.36328125 56.66015625 C-2.36276183 55.08597311 -2.3632827 53.51178931 -2.36479187 51.93760681 C-2.36470263 48.65711646 -2.35436527 45.37687437 -2.33618164 42.09643555 C-2.31336439 37.88742097 -2.31297908 33.67876422 -2.31969929 29.46970463 C-2.32303371 26.22784731 -2.31642136 22.98607204 -2.30657005 19.74423027 C-2.30271847 18.1912523 -2.30156967 16.63826522 -2.3031559 15.08528328 C-2.30352546 12.92394555 -2.29094223 10.76307444 -2.2746582 8.60180664 C-2.27005081 7.37208633 -2.26544342 6.14236603 -2.26069641 4.87538147 C-2 2 -2 2 0 0 Z " fill="#476FFF" transform="translate(340,122)"/><path d="M0 0 C2.6875 0.625 2.6875 0.625 4.96875 3.875 C8.30883361 9.47848291 11.07948207 15.36178919 13.875 21.25 C14.40802734 22.35601562 14.94105469 23.46203125 15.49023438 24.6015625 C17.85825475 29.55802276 20.02850642 34.37968832 21.6875 39.625 C22.3475 39.625 23.0075 39.625 23.6875 39.625 C23.92082031 38.82191406 24.15414062 38.01882812 24.39453125 37.19140625 C26.00594786 32.74662268 28.13777572 28.71960587 30.375 24.5625 C31.28019538 22.87643492 32.18514212 21.19023632 33.08984375 19.50390625 C33.53312012 18.67906738 33.97639648 17.85422852 34.43310547 17.00439453 C35.5619916 14.86307023 36.6387534 12.70687149 37.69140625 10.52734375 C38.26761719 9.36332031 38.84382813 8.19929687 39.4375 7 C39.92734375 5.97648437 40.4171875 4.95296875 40.921875 3.8984375 C42.6875 1.625 42.6875 1.625 45.765625 0.6640625 C46.72984375 0.65117188 47.6940625 0.63828125 48.6875 0.625 C49.3475 1.285 50.0075 1.945 50.6875 2.625 C50.48013711 8.30522323 47.77221512 12.83727438 45.1796875 17.75 C44.26649556 19.52581983 43.35374853 21.3018685 42.44140625 23.078125 C41.00107561 25.85938525 39.55577879 28.63782669 38.10205078 31.41210938 C36.697163 34.10104461 35.31236378 36.79959252 33.9296875 39.5 C33.49018768 40.32516113 33.05068787 41.15032227 32.59786987 42.00048828 C30.79009558 45.55453579 29.66448756 47.84392374 29.78344727 51.8815918 C30.6750963 54.58736015 31.6541799 57.08732039 32.91015625 59.64453125 C33.36293945 60.57652344 33.81572266 61.50851563 34.28222656 62.46875 C34.7665918 63.4484375 35.25095703 64.428125 35.75 65.4375 C36.24081055 66.45199219 36.73162109 67.46648437 37.23730469 68.51171875 C39.53040522 73.25009695 41.85627476 77.96973314 44.23046875 82.66796875 C44.79399048 83.80625122 44.79399048 83.80625122 45.36889648 84.9675293 C46.06024742 86.36334108 46.76593048 87.75218397 47.48852539 89.13208008 C49.72574704 93.68435505 49.82654446 96.71445279 48.6875 101.625 C46.7075 102.12 46.7075 102.12 44.6875 102.625 C41.12072323 98.55118143 38.87809103 94.32504507 36.578125 89.48046875 C36.02061554 88.3257885 36.02061554 88.3257885 35.45184326 87.14778137 C34.27435756 84.70553886 33.10582077 82.25913795 31.9375 79.8125 C31.13730738 78.1488053 30.33653219 76.48539066 29.53515625 74.82226562 C27.57918026 70.75972076 25.63121478 66.69342453 23.6875 62.625 C23.4041127 63.16398926 23.1207254 63.70297852 22.82875061 64.25830078 C22.08184467 65.67877865 21.33478731 67.09917691 20.58764648 68.51953125 C19.68978396 70.2264369 18.79216347 71.93346987 17.89477539 73.640625 C15.62536335 77.95494466 13.34951993 82.26554684 11.0546875 86.56640625 C10.64532959 87.33476807 10.23597168 88.10312988 9.81420898 88.89477539 C9.03439413 90.35722842 8.2527196 91.81869166 7.46899414 93.27905273 C5.9994659 96.0374874 4.67796548 98.65360357 3.6875 101.625 C1.875 102.5 1.875 102.5 -0.3125 102.625 C-2.75091029 101.30129156 -4.01548042 100.38049778 -5.04016113 97.77412415 C-5.38735817 95.03426718 -4.76579218 93.85596263 -3.48242188 91.42651367 C-3.05868286 90.60853806 -2.63494385 89.79056244 -2.19836426 88.94779968 C-1.73071655 88.07170547 -1.26306885 87.19561127 -0.78125 86.29296875 C0.18388412 84.42397804 1.14871852 82.55483253 2.11328125 80.68554688 C3.64807677 77.74635207 5.18862727 74.8103633 6.73583984 71.87768555 C8.22486111 69.04473324 9.69145508 66.20100397 11.15625 63.35546875 C11.62389771 62.48544724 12.09154541 61.61542572 12.57336426 60.71903992 C15.19704974 55.5957883 16.35264354 52.39987825 14.6875 46.625 C13.74027597 44.07254506 13.74027597 44.07254506 12.46484375 41.7265625 C12.01214111 40.84282959 11.55943848 39.95909668 11.09301758 39.04858398 C10.60857178 38.12505127 10.12412598 37.20151855 9.625 36.25 C8.62627268 34.29625298 7.62889157 32.34181725 6.6328125 30.38671875 C6.1368457 29.41911621 5.64087891 28.45151367 5.12988281 27.45458984 C3.03628955 23.34748999 0.99699701 19.21732599 -1 15.0625 C-1.33845947 14.37945801 -1.67691895 13.69641602 -2.02563477 12.99267578 C-3.72524025 9.43352308 -4.92179245 6.588985 -4.3125 2.625 C-2.3125 0.625 -2.3125 0.625 0 0 Z " fill="#476FFE" transform="translate(169.3125,120.375)"/><path d="M0 0 C3.0625 -0.25 3.0625 -0.25 6 0 C6.495 0.495 6.495 0.495 7 1 C6.54050623 6.19812623 5.18115718 10.82896927 3.359375 15.68359375 C3.08553986 16.42993073 2.81170471 17.1762677 2.52957153 17.94522095 C1.60998015 20.44526553 0.68013506 22.94136074 -0.25 25.4375 C-0.91824457 27.24585036 -1.58603756 29.05436765 -2.25341797 30.86303711 C-4.48992186 36.91331216 -6.7434103 42.95719218 -9 49 C-9.59669495 50.59841736 -9.59669495 50.59841736 -10.20544434 52.22912598 C-14.05129191 62.52783065 -17.90426071 72.82383981 -21.77807617 83.11206055 C-26.2647449 95.02896318 -30.7302093 106.95253757 -35.13719177 118.89909172 C-36.57727597 122.79927234 -38.02320429 126.69729057 -39.46928787 130.59525013 C-40.62684817 133.71723342 -41.77896389 136.84099426 -42.9241333 139.96755981 C-44.19084721 143.42482656 -45.4708891 146.87688175 -46.75390625 150.328125 C-47.1259166 151.35455612 -47.49792694 152.38098724 -47.88121033 153.43852234 C-48.2343782 154.38081192 -48.58754608 155.3231015 -48.95141602 156.29394531 C-49.25225601 157.11098938 -49.55309601 157.92803345 -49.86305237 158.76983643 C-51.21630741 161.42429475 -52.70773061 163.10430203 -55 165 C-57.75 164.75 -57.75 164.75 -60 164 C-61.24005652 160.47744699 -60.76460021 158.5410351 -59.46484375 155.0859375 C-59.07997803 154.04751709 -58.6951123 153.00909668 -58.29858398 151.93920898 C-57.84942627 150.76302002 -57.40026855 149.58683105 -56.9375 148.375 C-56.44846554 147.0707065 -55.96030548 145.7660849 -55.47290039 144.46118164 C-54.00689069 140.54829343 -52.52456268 136.64173321 -51.03955078 132.73602295 C-49.93550741 129.83026014 -48.83460359 126.92332257 -47.734375 124.01611328 C-44.20895245 114.70148558 -40.68038509 105.38807173 -37.1394043 96.0793457 C-31.98923101 82.53861203 -26.86109467 68.98998426 -21.77104378 55.42651939 C-20.86884473 53.02263623 -19.96616793 50.61893301 -19.06333923 48.21528625 C-18.46742866 46.628635 -17.87152713 45.04198035 -17.27563477 43.45532227 C-16.98260814 42.67509862 -16.68958151 41.89487497 -16.38767529 41.09100819 C-14.63831986 36.43192575 -12.89239759 31.77157314 -11.14873028 27.11035919 C-10.06139424 24.20602767 -8.9709551 21.30286836 -7.87970543 18.40000534 C-7.37071437 17.04392838 -6.86308102 15.68734095 -6.3568821 14.33021927 C-5.66296275 12.47022317 -4.96393652 10.6121347 -4.26464844 8.75415039 C-3.87355896 7.70997452 -3.48246948 6.66579865 -3.07952881 5.58998108 C-2 3 -2 3 0 0 Z " fill="#476FFF" transform="translate(312,91)"/><path d="M0 0 C4.53699226 2.66937382 7.27843424 6.11259843 9.875 10.6875 C11.72681524 17.92641413 10.76904925 23.51505824 7.1953125 30.0703125 C3.98132945 34.60679575 -0.1878162 37.6251054 -5.4375 39.375 C-13.46878564 40.10511688 -18.97572284 38.77161496 -25.6875 34.125 C-30.46032338 29.35217662 -31.59875993 25.37610139 -31.8125 18.8125 C-31.62372504 12.81273919 -30.10218544 9.31713302 -26.1875 4.75 C-18.42822659 -1.95119067 -9.84291674 -4.43676929 0 0 Z M-18.4375 9.375 C-21.5338277 12.4713277 -23.22205067 14.9582888 -23.4375 19.375 C-22.38679185 24.41839911 -20.28044895 27.01241967 -16.4375 30.375 C-13.24151935 31.97299033 -9.91427244 31.74273555 -6.4375 31.375 C-2.27113661 29.61586879 -0.19663121 27.54136339 1.5625 23.375 C2.09024616 18.62528456 2.03786881 16.38278188 0 12.0625 C-3.03201443 8.71950973 -5.18733917 7.79172028 -9.4375 6.375 C-12.75783455 6.375 -15.59072984 7.78004618 -18.4375 9.375 Z " fill="#476FFF" transform="translate(271.4375,337.625)"/><path d="M0 0 C2.5 0.25 2.5 0.25 4.5 2.25 C4.7041922 5.27717176 4.78312926 8.21323217 4.7746582 11.24194336 C4.77976913 12.17375931 4.78488007 13.10557526 4.79014587 14.06562805 C4.80408758 17.15709796 4.80308166 20.24834607 4.80078125 23.33984375 C4.80466569 25.48214298 4.80899984 27.62444144 4.81376648 29.76673889 C4.82123857 34.26175429 4.82093028 38.75669117 4.81567383 43.25170898 C4.80987823 49.02016171 4.82680774 54.78829345 4.8500185 60.55669308 C4.8647301 64.98240548 4.86563105 69.40804014 4.86250877 73.83377266 C4.86302329 75.96089883 4.86828538 78.0880292 4.87832069 80.21513176 C4.89061776 83.18652242 4.88393386 86.15728202 4.87231445 89.12866211 C4.87995819 90.01240509 4.88760193 90.89614807 4.89547729 91.80667114 C4.88846298 92.6156636 4.88144867 93.42465607 4.8742218 94.25816345 C4.87438954 94.96073745 4.87455729 95.66331144 4.87473011 96.38717556 C4.3813277 98.83993303 3.47917409 99.76033577 1.5 101.25 C-2.92105263 100.82894737 -2.92105263 100.82894737 -4.5 99.25 C-4.60595867 96.24723307 -4.64677554 93.26734104 -4.64526367 90.26391602 C-4.64862228 89.32088623 -4.6519809 88.37785645 -4.65544128 87.40625 C-4.66498225 84.27212222 -4.66689596 81.13804767 -4.66796875 78.00390625 C-4.6711791 75.83536252 -4.674543 73.66681902 -4.67805481 71.49827576 C-4.68405393 66.94602964 -4.6858939 62.39380253 -4.68530273 57.84155273 C-4.68520106 51.99569817 -4.6988556 46.14996492 -4.71607494 40.30413914 C-4.72716928 35.82357722 -4.72922274 31.34304487 -4.72869301 26.86247063 C-4.72987692 24.70660929 -4.73432152 22.55074727 -4.74202538 20.39489937 C-4.75177381 17.38500489 -4.7489677 14.37537687 -4.74291992 11.36547852 C-4.74853943 10.46721848 -4.75415894 9.56895844 -4.75994873 8.64347839 C-4.71801972 0.47180197 -4.71801972 0.47180197 0 0 Z " fill="#466EFF" transform="translate(438.5,121.75)"/></svg>