<?xml version="1.0" encoding="utf-8"?>
<svg version="1.1" xmlns="http://www.w3.org/2000/svg" width="512" height="512" xmlns:bx="https://boxy-svg.com" viewBox="0 0 512 512"><defs><bx:export><bx:file format="svg" path="Bez nazwy.svg"/></bx:export></defs><path d="M0 0 C1.90153131 -0.01403992 1.90153131 -0.01403992 3.84147739 -0.02836347 C7.3260176 -0.05320027 10.8095604 -0.04112955 14.29410219 -0.02244616 C18.06518277 -0.00878898 21.83609985 -0.02986494 25.60714722 -0.04632568 C32.98108943 -0.07292447 40.35466402 -0.06727922 47.72862029 -0.04984984 C53.72463848 -0.0362674 59.72055407 -0.03447566 65.71658325 -0.04099274 C66.57185468 -0.04191214 67.42712611 -0.04283153 68.30831486 -0.04377879 C70.04609771 -0.04569726 71.78388052 -0.04764254 73.52166331 -0.04961434 C89.79470187 -0.06669987 106.06753721 -0.04708904 122.34054244 -0.01481214 C136.28596789 0.01199233 150.23109362 0.00733552 164.17651367 -0.02032471 C180.39361341 -0.05247593 196.61053531 -0.06505213 212.82766247 -0.04665112 C214.55884486 -0.04473995 216.29002727 -0.04285372 218.02120972 -0.04099274 C219.29867839 -0.03960426 219.29867839 -0.03960426 220.60195452 -0.03818773 C226.58674094 -0.03301978 232.571414 -0.04172421 238.55618286 -0.05587006 C245.85549005 -0.07274471 253.1544104 -0.06804711 260.4536736 -0.03618559 C264.17384949 -0.02047899 267.8933818 -0.01413372 271.61355209 -0.03408051 C275.65551938 -0.055424 279.69587949 -0.02984338 283.73779297 0 C284.90084741 -0.01338433 286.06390184 -0.02676866 287.26220036 -0.04055858 C296.20923204 0.08712898 304.01458937 2.54023641 310.87351131 8.50526357 C317.91566659 15.89474134 320.00234243 25.30581875 319.98242188 35.22625732 C319.98234634 36.48711151 319.98227081 37.7479657 319.98219299 39.04702759 C319.97708757 40.40771525 319.9718716 41.76840251 319.96655273 43.12908936 C319.9646856 44.53298899 319.96326309 45.93688928 319.96226501 47.34078979 C319.95846306 51.01997708 319.94865281 54.69912433 319.93756104 58.3782959 C319.92729679 62.13897154 319.92275669 65.89965371 319.91772461 69.66033936 C319.90702828 77.02754502 319.88998 84.39471781 319.86889648 91.76190186 C320.54017578 91.75301941 321.21145508 91.74413696 321.90307617 91.73498535 C328.91129004 91.64625691 335.91934343 91.58606155 342.92797852 91.54217529 C345.54100022 91.52210252 348.15397723 91.49483828 350.7668457 91.46014404 C354.5301417 91.41143751 358.29284197 91.38888875 362.05639648 91.37127686 C363.21816406 91.35063171 364.37993164 91.32998657 365.5769043 91.30871582 C373.70543329 91.30648434 379.05069875 92.42855463 385.32983398 97.91033936 C386.27729492 99.01248779 386.27729492 99.01248779 387.24389648 100.13690186 C387.89100586 100.86651123 388.53811523 101.59612061 389.20483398 102.34783936 C393.50621264 108.58786755 393.15911372 115.05834292 393.14305115 122.34973145 C393.14828783 123.52386542 393.1535245 124.69799939 393.15891987 125.90771317 C393.17131299 129.15854254 393.17476378 132.40923771 393.17432296 135.66008615 C393.17597401 139.16942722 393.18904585 142.67872916 393.20051575 146.18804932 C393.22334225 153.85754181 393.23128375 161.52700658 393.23634219 169.19652843 C393.23960179 173.98775582 393.24612585 178.7789752 393.25334358 183.57019806 C393.27290606 196.842856 393.28931246 210.1155065 393.29222012 223.38817978 C393.29240769 224.23712547 393.29259526 225.08607117 393.29278851 225.96074249 C393.29315475 227.68166367 393.29351845 229.40258486 393.29387962 231.12350604 C393.29406243 231.97774111 393.29424524 232.83197618 393.29443359 233.71209717 C393.29470442 234.99501858 393.29470442 234.99501858 393.29498071 236.30385759 C393.29852202 250.16102299 393.32554322 264.01803295 393.36293148 277.87514445 C393.40103423 292.11128724 393.42037773 306.34735293 393.42067963 320.58354783 C393.42126374 328.57296534 393.42972577 336.56219738 393.45867729 344.55156708 C393.48321749 351.35474069 393.49045635 358.1576612 393.47542977 364.96086714 C393.46827163 368.42958937 393.4690699 371.89781207 393.49184036 375.36647797 C393.51227028 379.13346618 393.50176451 382.89916575 393.48362732 386.6661377 C393.50342727 388.29719566 393.50342727 388.29719566 393.52362722 389.96120429 C393.4361181 397.93440478 391.6114729 404.67771073 386.11348528 410.6775434 C380.38661932 416.05883488 374.35558924 418.13992113 366.57325745 418.12266541 C365.87307257 418.12522868 365.1728877 418.12779195 364.4514851 418.1304329 C362.12366655 418.13534349 359.796508 418.11892389 357.46875 418.10247803 C355.79286209 418.10163116 354.11697308 418.10210806 352.44108582 418.10380554 C347.90435679 418.1046646 343.36786679 418.08705335 338.83119321 418.06608367 C334.08530474 418.04730195 329.3394105 418.04556525 324.5934906 418.04200745 C315.61218169 418.03269138 306.63098263 418.00808351 297.64972204 417.97795898 C287.4224421 417.94440134 277.19515685 417.92792553 266.96783555 417.91287267 C245.93478098 417.88153356 224.90187694 417.82652694 203.86889648 417.76190186 C203.86889648 428.32190186 203.86889648 438.88190186 203.86889648 449.76190186 C206.54499023 449.69229248 209.22108398 449.62268311 211.97827148 449.55096436 C214.60957587 449.5039893 217.24083113 449.46766241 219.87231445 449.43231201 C221.6821022 449.40239019 223.49174812 449.36163635 225.30102539 449.30926514 C237.42964415 448.96733061 247.52462467 449.18951641 257.08032227 457.74090576 C267.21122392 468.12625539 267.06009649 480.785754 267.11889648 494.44940186 C267.14983398 496.26407959 267.14983398 496.26407959 267.18139648 498.11541748 C267.18655273 499.28137451 267.19170898 500.44733154 267.19702148 501.64862061 C267.20636719 502.7026709 267.21571289 503.75672119 267.2253418 504.8427124 C266.7847639 508.45092464 266.28787691 510.0125126 263.86889648 512.76190186 C260.71094966 513.54034704 257.57886356 513.42690415 254.34106445 513.38336182 C253.3523982 513.38975064 252.36373196 513.39613946 251.34510612 513.40272188 C248.01669273 513.41803951 244.6894568 513.3974651 241.36108398 513.37713623 C238.98129887 513.38063538 236.60151608 513.38629161 234.22174072 513.39395142 C228.41970594 513.40675329 222.61805344 513.39622759 216.81605101 513.37483817 C210.06282809 513.35085379 203.30968567 513.35254095 196.55642962 513.35514408 C184.50881987 513.35883621 172.46137495 513.33799201 160.41381836 513.30389404 C148.71716139 513.27080139 137.02067745 513.2566355 125.32397461 513.26287842 C112.59433069 513.26963921 99.86475931 513.26719108 87.13512611 513.24751902 C86.46226952 513.24647953 85.78941292 513.24544004 85.09616673 513.24436906 C83.74467946 513.24227813 82.39319222 513.24016715 81.04170501 513.23803589 C76.33173197 513.23113408 71.62178124 513.23047201 66.9118042 513.23191833 C60.57527814 513.23279503 54.23895995 513.21863907 47.90248871 513.1926918 C45.57199867 513.18550816 43.24148655 513.18345687 40.91098785 513.18680954 C37.73933991 513.19050303 34.56830578 513.1758509 31.39672852 513.15631104 C30.46590391 513.16163896 29.53507931 513.16696689 28.5760479 513.17245626 C27.72894312 513.16339962 26.88183834 513.15434299 26.00906372 513.1450119 C25.27669054 513.1434407 24.54431736 513.1418695 23.78975105 513.14025068 C21.27925562 512.64576088 20.39353691 511.79011606 18.86889648 509.76190186 C18.57011679 507.2074294 18.44830174 504.90187481 18.47045898 502.34783936 C18.46758881 501.61876373 18.46471863 500.88968811 18.46176147 500.13851929 C18.45972028 498.59353867 18.46525413 497.04853224 18.4777832 495.50360107 C18.49369894 493.16591668 18.47801047 490.8299979 18.45874023 488.49237061 C18.44290088 477.00968607 19.44721775 467.38663762 27.84545898 458.72283936 C35.18500983 451.78683769 41.7850814 449.26816107 51.74389648 449.46893311 C52.55383057 449.47317795 53.36376465 449.47742279 54.19824219 449.48179626 C56.75548209 449.49843241 59.31189953 449.53605414 61.86889648 449.57440186 C63.61497876 449.58946825 65.36107353 449.60315322 67.10717773 449.61541748 C71.36164674 449.64571997 75.61436383 449.70446566 79.86889648 449.76190186 C79.86889648 439.20190186 79.86889648 428.64190186 79.86889648 417.76190186 C74.77145996 417.78808594 69.67402344 417.81427002 64.42211914 417.84124756 C47.57855742 417.92410336 30.73498767 417.97958341 13.89127541 418.02096272 C3.67912008 418.0467186 -6.53284186 418.08181912 -16.74487305 418.13909912 C-25.64812211 418.18901417 -34.55123108 418.22121187 -43.45461619 418.23234433 C-48.16675262 418.23884938 -52.87848835 418.25408338 -57.59049606 418.29055214 C-62.03107284 418.32463978 -66.47108611 418.33492921 -70.91178131 418.32744026 C-72.536295 418.32880913 -74.16082869 418.33866552 -75.78522873 418.35792923 C-85.67846925 418.46943936 -94.36791343 418.09409893 -102.02860069 411.00630665 C-108.86828291 403.81397297 -109.5711444 396.57881526 -109.51878357 387.04708862 C-109.52416911 385.87139466 -109.52955464 384.6957007 -109.53510338 383.48437965 C-109.54690989 380.23380835 -109.54532326 376.98356699 -109.53793657 373.73299289 C-109.53319935 370.22232115 -109.54571967 366.71170396 -109.55595398 363.2010498 C-109.57313686 356.32817544 -109.57398301 349.45539252 -109.56874108 342.58250226 C-109.56469697 336.99492204 -109.5661458 331.40736882 -109.57148933 325.81978989 C-109.57261197 324.62615423 -109.57261197 324.62615423 -109.57375728 323.40840473 C-109.57528879 321.79173104 -109.57682713 320.17505736 -109.57837225 318.55838369 C-109.5920956 303.40240278 -109.5866609 288.24647351 -109.57518703 273.09049378 C-109.56525619 259.23273479 -109.57819303 245.37510935 -109.60212123 231.51737095 C-109.62651914 217.28006575 -109.63611832 203.04282273 -109.6294685 188.80549705 C-109.62597764 180.81560564 -109.62819946 172.8258169 -109.64571953 164.83594131 C-109.66045023 158.03387542 -109.66106576 151.2319845 -109.64364862 144.429922 C-109.63514302 140.96139239 -109.63297782 137.49317524 -109.64830017 134.02466202 C-109.66148287 130.25970731 -109.64998482 126.49560062 -109.63230896 122.73068237 C-109.64191397 121.64107967 -109.65151897 120.55147698 -109.66141504 119.42885602 C-109.58552372 111.56605112 -108.1324848 105.27872608 -102.94750977 99.20330811 C-102.2037207 98.58326904 -101.45993164 97.96322998 -100.69360352 97.32440186 C-99.95239258 96.68631592 -99.21118164 96.04822998 -98.44750977 95.39080811 C-94.22867708 92.42410789 -90.64100289 91.51128163 -85.51464844 91.53485107 C-84.41388474 91.53500214 -83.31312103 91.5351532 -82.17900085 91.53530884 C-80.4131237 91.55079269 -80.4131237 91.55079269 -78.61157227 91.56658936 C-76.79101067 91.5708342 -76.79101067 91.5708342 -74.93367004 91.57516479 C-71.0618804 91.58634877 -67.1903231 91.61145055 -63.31860352 91.63690186 C-60.69165373 91.64693394 -58.06470032 91.65605939 -55.43774414 91.66424561 C-49.00211815 91.68628231 -42.56662744 91.71974245 -36.13110352 91.76190186 C-36.13998596 90.98897293 -36.14886841 90.21604401 -36.15802002 89.41969299 C-36.23868282 82.08042171 -36.29932734 74.74137 -36.3383522 67.40176868 C-36.35909086 63.62977259 -36.38715149 59.85814744 -36.43286133 56.08636475 C-36.47681679 52.4358584 -36.50034332 48.78570533 -36.51061249 45.13495445 C-36.51791599 43.7528904 -36.53217352 42.37084228 -36.55402374 40.98893166 C-36.71646097 30.27441112 -35.95403106 19.10218054 -29.13110352 10.32440186 C-20.75465713 2.18067585 -11.36005242 -0.1307305 0 0 Z M-16.94360352 17.38690186 C-17.48629883 17.83291748 -18.02899414 18.27893311 -18.58813477 18.73846436 C-23.62520742 25.34404318 -23.54086503 32.54254221 -23.42407227 40.48065186 C-23.41982742 41.57913452 -23.41558258 42.67761719 -23.41120911 43.80938721 C-23.39451012 47.29381546 -23.35687348 50.77765047 -23.31860352 54.26190186 C-23.30354536 56.63428929 -23.28985894 59.00668586 -23.27758789 61.37908936 C-23.24463539 67.17356021 -23.19452386 72.96768863 -23.13110352 78.76190186 C-7.67571477 79.06636382 7.7794481 79.29520331 23.23713398 79.43546009 C30.4156229 79.5023342 37.59224273 79.59339679 44.76953125 79.74261475 C51.02969021 79.87270261 57.28849534 79.95617475 63.54996842 79.98505229 C66.86268781 80.0019228 70.17066036 80.04811878 73.48235512 80.13639259 C88.01063429 81.21447781 88.01063429 81.21447781 100.88336182 75.91998291 C103.79125749 72.82564167 105.80683551 69.45924694 107.86889648 65.76190186 C108.95961931 64.41605126 110.07721397 63.08999094 111.25170898 61.81658936 C111.7111792 61.28364258 112.17064941 60.7506958 112.64404297 60.20159912 C113.08949463 59.68524902 113.53494629 59.16889893 113.99389648 58.63690186 C117.4875582 54.57606169 120.93339581 50.48669701 124.30639648 46.32440186 C127.88734543 41.91308794 131.57522586 37.60827847 135.30639648 33.32440186 C139.46893459 28.54291032 143.61012228 23.74649922 147.68139648 18.88690186 C148.4922168 17.92010498 149.30303711 16.95330811 150.13842773 15.95721436 C151.97207233 14.0969004 151.97207233 14.0969004 151.86889648 12.76190186 C131.53681477 12.71514988 111.20474398 12.67989733 90.87261963 12.65827751 C81.4317444 12.64797157 71.9909026 12.63392426 62.55004883 12.61102295 C54.31995846 12.59106821 46.0898923 12.57818046 37.8597784 12.57372487 C33.50332071 12.57112102 29.14693229 12.56501502 24.79049683 12.55044174 C20.68656704 12.53682492 16.58273479 12.53268749 12.47878456 12.53568649 C10.97601096 12.53513816 9.47323396 12.53118519 7.97047997 12.52349091 C-5.29697776 11.99774114 -5.29697776 11.99774114 -16.94360352 17.38690186 Z M159.6547699 22.57997131 C158.77076256 24.15502693 158.77076256 24.15502693 157.86889648 25.76190186 C156.77770481 27.10737235 155.66001731 28.43329494 154.48608398 29.70721436 C154.02661377 30.24016113 153.56714355 30.77310791 153.09375 31.32220459 C152.42557251 32.09672974 152.42557251 32.09672974 151.74389648 32.88690186 C148.25023477 36.94774202 144.80439715 41.0371067 141.43139648 45.19940186 C137.85044754 49.61071577 134.16256711 53.91552524 130.43139648 58.19940186 C126.26885838 62.9808934 122.12767069 67.77730449 118.05639648 72.63690186 C116.84016602 74.08709717 116.84016602 74.08709717 115.59936523 75.56658936 C113.76572063 77.42690331 113.76572063 77.42690331 113.86889648 78.76190186 C177.55889648 78.76190186 241.24889648 78.76190186 306.86889648 78.76190186 C310.37738126 51.87777429 310.37738126 51.87777429 302.32592773 18.73846436 C301.78323242 18.29244873 301.24053711 17.84643311 300.68139648 17.38690186 C300.1515918 16.92541748 299.62178711 16.46393311 299.07592773 15.98846436 C292.31051056 12.22856879 284.64286967 12.42107188 277.11962891 12.32855225 C275.96570145 12.30737839 274.81177399 12.28620453 273.62287903 12.26438904 C263.03102039 12.08412342 252.43681507 11.99022341 241.8436079 11.92408085 C234.03043041 11.87461194 226.22042798 11.78180657 218.40854758 11.63016897 C212.89321278 11.52678384 207.37873262 11.47386608 201.86246186 11.45741075 C198.57682717 11.44625353 195.29568474 11.40692942 192.01091576 11.32628059 C172.87147832 10.47321 172.87147832 10.47321 159.6547699 22.57997131 Z M-23.13110352 90.76190186 C-23.19297852 124.42190186 -23.25485352 158.08190186 -23.31860352 192.76190186 C-23.34591553 203.39151123 -23.37322754 214.02112061 -23.40136719 224.97283936 C-23.41140027 234.49822852 -23.41140027 234.49822852 -23.41743469 244.02362061 C-23.42023048 248.26748354 -23.43147634 252.51123397 -23.4478302 256.75506592 C-23.46842044 262.17004206 -23.47457455 267.58485482 -23.47032034 272.99986649 C-23.47120982 274.98609964 -23.47715104 276.97233856 -23.48874891 278.95853806 C-23.50370572 281.64498866 -23.50006118 284.33080734 -23.49186707 287.01727295 C-23.50060506 287.79139023 -23.50934305 288.56550751 -23.51834583 289.36308289 C-23.4647243 295.91918451 -22.06477848 301.34480815 -17.88110352 306.57440186 C-10.8808959 312.14274882 -4.60741289 312.19359627 4.05273438 312.14285278 C5.89189596 312.14987274 5.89189596 312.14987274 7.76821232 312.15703452 C11.15953166 312.16691202 14.55035075 312.16338188 17.94163942 312.15407586 C21.60359681 312.14727897 25.26551096 312.15776976 28.92745972 312.16601562 C36.09645073 312.17934834 43.26534746 312.17647729 50.43434215 312.1677777 C56.26125915 312.16099975 62.08814976 312.16008492 67.91506958 312.16334915 C68.74470846 312.16380885 69.57434734 312.16426855 70.4291268 312.16474218 C72.11457595 312.16570137 73.80002509 312.16667401 75.48547423 312.16765995 C91.28615654 312.17621249 107.08678661 312.16638185 122.88746035 312.15025885 C136.44217095 312.13685579 149.99680447 312.13918392 163.55151367 312.15301514 C179.29604963 312.16907335 195.04053982 312.17538853 210.78508282 312.16617835 C212.46429633 312.16522271 214.14350986 312.1642796 215.82272339 312.16334915 C217.06199816 312.16265491 217.06199816 312.16265491 218.32630879 312.16194665 C224.14553906 312.15935748 229.96474029 312.16372617 235.78396606 312.17078781 C242.87665324 312.17920568 249.96924081 312.17691665 257.06191659 312.16094558 C260.68001425 312.1530667 264.29794593 312.14996464 267.91604233 312.15989304 C271.83914142 312.1704955 275.76196928 312.15782696 279.68505859 312.14285278 C280.82717835 312.14954495 281.96929811 312.15623711 283.14602757 312.16313207 C290.63798881 312.10755721 295.62218575 311.34451267 301.61889648 306.57440186 C306.43353429 300.55610459 307.31361729 294.45522359 307.22966003 287.01727295 C307.23351212 285.75435677 307.23351212 285.75435677 307.23744202 284.46592712 C307.24238009 281.65553311 307.2258829 278.84568378 307.20947266 276.03533936 C307.20855306 273.98184221 307.20895514 271.92834413 307.21056843 269.87484741 C307.21124436 264.38686136 307.19388523 258.89907244 307.17273712 253.41113281 C307.15562385 248.25721633 307.15484622 243.10334724 307.15270996 237.94940186 C307.13698204 222.88687585 307.09509845 207.82438635 307.05639648 192.76190186 C306.99452148 159.10190186 306.93264648 125.44190186 306.86889648 90.76190186 C197.96889648 90.76190186 89.06889648 90.76190186 -23.13110352 90.76190186 Z M-93.13110352 107.76190186 C-96.52960219 113.00444006 -96.54987563 117.48751737 -96.49186707 123.51882935 C-96.49443034 124.49584136 -96.49699361 125.47285337 -96.49963456 126.4794718 C-96.50457211 129.75005309 -96.48807965 133.02017176 -96.47167969 136.29071045 C-96.47083341 138.63639312 -96.47130857 140.98207658 -96.4730072 143.32775879 C-96.47386855 149.69503856 -96.45621994 156.06214907 -96.43528533 162.42938948 C-96.41844092 168.40962453 -96.41541596 174.38985978 -96.41232971 180.37011404 C-96.40576804 192.21314425 -96.38581459 204.05611238 -96.35742188 215.89910889 C-96.32987395 227.4017099 -96.30864396 238.90429403 -96.29589844 250.40692139 C-96.29511027 251.11624999 -96.2943221 251.8255786 -96.29351004 252.55640201 C-96.28959486 256.11498706 -96.28580375 259.67357222 -96.28207433 263.23215747 C-96.25098727 292.74211233 -96.19793578 322.252006 -96.13110352 351.76190186 C-90.52110352 351.76190186 -84.91110352 351.76190186 -79.13110352 351.76190186 C-79.12871516 350.60507747 -79.12632681 349.44825308 -79.12386608 348.25637341 C-79.06653943 320.81222161 -78.99383262 293.36814645 -78.90211723 265.92408703 C-78.89084871 262.54816695 -78.87971031 259.17224646 -78.86865234 255.79632568 C-78.86644866 255.12422429 -78.86424498 254.4521229 -78.86197452 253.7596548 C-78.82657625 242.86882974 -78.80172642 231.97800475 -78.7807565 221.08714344 C-78.75901455 209.91691368 -78.72575586 198.74675121 -78.68240196 187.57658225 C-78.65840992 181.30043367 -78.6397204 175.02436811 -78.63348961 168.74817467 C-78.62746575 162.84586929 -78.60756417 156.94377653 -78.576828 151.04154968 C-78.56800431 148.8707101 -78.56433408 146.69984278 -78.56609535 144.52898598 C-78.56773648 141.57392017 -78.55114851 138.61951155 -78.52983093 135.66453552 C-78.53467851 134.79781068 -78.53952608 133.93108584 -78.54452056 133.03809661 C-78.47488961 127.22305865 -78.47488961 127.22305865 -76.85209686 125.04623443 C-73.8013052 122.76950795 -69.97727007 123.27818413 -66.30688477 123.25018311 C-65.44548386 123.2322319 -64.58408295 123.2142807 -63.69657898 123.19578552 C-60.94563694 123.14160888 -58.19486911 123.10776362 -55.44360352 123.07440186 C-53.57834486 123.04123523 -51.71310921 123.00674618 -49.84790039 122.97088623 C-45.27560868 122.88338799 -40.70411551 122.82338417 -36.13110352 122.76190186 C-36.13110352 116.82190186 -36.13110352 110.88190186 -36.13110352 104.76190186 C-43.44512718 104.68772312 -50.75893165 104.63328535 -58.07324219 104.59710693 C-60.56123672 104.58202425 -63.04920469 104.56155532 -65.53710938 104.5355835 C-69.11408039 104.49917848 -72.69069973 104.48217002 -76.26782227 104.46893311 C-77.37945236 104.45344925 -78.49108246 104.43796539 -79.63639832 104.42201233 C-80.67709976 104.42178574 -81.71780121 104.42155914 -82.79003906 104.42132568 C-83.70271042 104.41466385 -84.61538177 104.40800201 -85.55570984 104.40113831 C-88.81305726 104.85743057 -90.54424847 105.7245466 -93.13110352 107.76190186 Z M319.86889648 104.76190186 C319.86889648 110.70190186 319.86889648 116.64190186 319.86889648 122.76190186 C323.93137695 122.83537842 323.93137695 122.83537842 328.07592773 122.91033936 C330.69715938 122.96433978 333.31829915 123.02165093 335.93945312 123.07928467 C337.76197473 123.1175818 339.58457211 123.1524334 341.40722656 123.18377686 C344.0262359 123.22941165 346.64472323 123.28740808 349.26342773 123.34783936 C350.07914749 123.35939056 350.89486725 123.37094177 351.73530579 123.38284302 C355.60254153 123.48387459 357.58049433 123.56963376 360.86889648 125.76190186 C362.1837851 129.7065677 362.02243147 133.47579115 362.02711487 137.58860779 C362.03452183 138.95840096 362.03452183 138.95840096 362.04207844 140.35586673 C362.05748641 143.42830299 362.065823 146.50071831 362.07421875 149.57318115 C362.08379468 151.77064194 362.09380459 153.96810088 362.10421753 156.16555786 C362.13130355 162.1424505 362.15229309 168.11935106 362.17221951 174.09627128 C362.19405628 180.33832994 362.22145625 186.58036407 362.24827576 192.82240295 C362.29255287 203.3029573 362.33338284 213.78352109 362.37158203 224.26409912 C362.41093876 235.05968203 362.45236541 245.85525372 362.49658203 256.65081787 C362.4993063 257.31612971 362.50203058 257.98144156 362.5048374 258.66691437 C362.51851691 262.00455049 362.5322394 265.34218644 362.54597771 268.67982233 C362.6598457 296.37382605 362.76647622 324.06785363 362.86889648 351.76190186 C368.47889648 351.76190186 374.08889648 351.76190186 379.86889648 351.76190186 C379.93733162 321.54425775 379.99042415 291.32661761 380.02209247 261.1089135 C380.0258446 257.54158267 380.02972757 253.97425199 380.03369141 250.40692139 C380.0348718 249.34163271 380.0348718 249.34163271 380.03607605 248.25482304 C380.0491306 236.75490198 380.07278472 225.2550259 380.10035487 213.75513153 C380.12840769 201.95551588 380.14507248 190.15592379 380.15116197 178.35627615 C380.15490924 171.72844978 380.16429537 165.10070712 380.18608665 158.47291183 C380.20642497 152.23660032 380.2127356 146.00043302 380.20821953 139.76409149 C380.20904591 137.47354728 380.21502723 135.18299832 380.22651291 132.89248276 C380.24141519 129.76775368 380.23785806 126.64357078 380.22966003 123.51882935 C380.24276782 122.15597638 380.24276782 122.15597638 380.25614041 120.76559103 C380.22004487 115.68348689 379.7164146 112.15449516 376.86889648 107.76190186 C373.41639753 105.04278279 370.87384172 104.38960299 366.52783203 104.42132568 C365.48713058 104.42155228 364.44642914 104.42177887 363.37419128 104.42201233 C361.70674614 104.44523811 361.70674614 104.44523811 360.00561523 104.46893311 C358.85849564 104.47317795 357.71137604 104.47742279 356.52949524 104.48179626 C352.87155527 104.49856702 349.21416949 104.5362175 345.55639648 104.57440186 C343.07398257 104.58945071 340.59156002 104.60313876 338.10913086 104.61541748 C332.02883973 104.6484655 325.94896202 104.7002379 319.86889648 104.76190186 Z M-66.13110352 135.76190186 C-66.13110352 207.04190186 -66.13110352 278.32190186 -66.13110352 351.76190186 C71.14889648 351.76190186 208.42889648 351.76190186 349.86889648 351.76190186 C349.86889648 280.48190186 349.86889648 209.20190186 349.86889648 135.76190186 C339.96889648 135.76190186 330.06889648 135.76190186 319.86889648 135.76190186 C319.84907715 140.59193848 319.82925781 145.4219751 319.80883789 150.39837646 C319.74193431 166.35595536 319.66439359 182.31346947 319.5813694 198.27097225 C319.53129121 207.94607405 319.48484777 217.62116758 319.44702148 227.29632568 C319.41403497 235.731196 319.37416708 244.16600123 319.32610643 252.60079962 C319.30090758 257.065126 319.27910689 261.52940958 319.26555252 265.99378777 C319.25267198 270.20036822 319.23055357 274.40680136 319.20151329 278.61330032 C319.19248418 280.15272104 319.18675825 281.69216545 319.18468285 283.23161125 C319.16524834 295.46342443 318.80017519 305.92575648 310.37280273 315.45330811 C302.22324088 323.25109031 291.87197714 324.35406917 281.07910156 324.26983643 C279.8360642 324.27607639 278.59302683 324.28231635 277.31232166 324.2887454 C273.89201799 324.30186174 270.47260338 324.29724811 267.05235529 324.28480053 C263.35220566 324.2757028 259.65213042 324.28974303 255.95199585 324.30072021 C248.71534473 324.31845993 241.47886003 324.31468583 234.24220252 324.30306965 C228.35820134 324.29401763 222.47424663 324.29281896 216.59024048 324.29716492 C215.751197 324.29777785 214.91215353 324.29839078 214.04768449 324.29902229 C212.3429164 324.30030125 210.63814831 324.30159811 208.93338025 324.30291265 C192.96658486 324.31430513 176.99988149 324.3012257 161.0331012 324.27971119 C147.34778638 324.26184141 133.6626073 324.26494589 119.97729492 324.28338623 C104.06567877 324.30481653 88.15414318 324.31320661 72.24251461 324.30093718 C70.54419392 324.29966305 68.84587321 324.29840556 67.14755249 324.29716492 C65.89430726 324.29623926 65.89430726 324.29623926 64.61574394 324.29529491 C58.7422328 324.29184848 52.86877297 324.29765507 46.99526978 324.30708313 C39.8324981 324.31832852 32.66990166 324.31520988 25.50714993 324.29396015 C21.85608231 324.28348373 18.20530632 324.27926915 14.55424118 324.29255676 C10.58889481 324.30676937 6.62402075 324.28974211 2.65869141 324.26983643 C0.94373584 324.28322076 0.94373584 324.28322076 -0.80586529 324.29687548 C-10.91760398 324.19867384 -19.93652143 321.95488064 -27.40844727 314.82049561 C-33.64427619 307.36860934 -35.23740541 299.43632607 -35.2893219 289.92819214 C-35.29425988 289.26561366 -35.29919785 288.60303518 -35.30428547 287.92037857 C-35.31956706 285.71407229 -35.32799555 283.5077949 -35.33642578 281.30145264 C-35.34601166 279.71437835 -35.35602216 278.12730657 -35.36642456 276.54023743 C-35.39340276 272.24115919 -35.41445058 267.94207006 -35.43442655 263.64295435 C-35.45632991 259.14660322 -35.48369728 254.6502854 -35.51048279 250.15396118 C-35.56035092 241.64372231 -35.60531152 233.13346489 -35.64850515 224.62318981 C-35.69792783 214.93276564 -35.75282728 205.24237492 -35.80818474 195.55198312 C-35.92191452 175.62198573 -36.02805016 155.69195751 -36.13110352 135.76190186 C-46.03110352 135.76190186 -55.93110352 135.76190186 -66.13110352 135.76190186 Z M-96.13110352 364.76190186 C-98.83045971 387.64012763 -98.83045971 387.64012763 -91.63110352 402.51190186 C-88.12521213 405.43347801 -83.92377437 404.90381894 -79.62317085 404.89332962 C-78.46031281 404.89640857 -78.46031281 404.89640857 -77.27396268 404.89954972 C-74.65480423 404.90524126 -72.035698 404.90375983 -69.41653442 404.90234375 C-67.52834954 404.90492614 -65.64016519 404.90793895 -63.75198162 404.91134715 C-58.5464892 404.91943503 -53.34101055 404.92120771 -48.13551259 404.92194462 C-42.52805157 404.92379204 -36.92059775 404.93133775 -31.31314087 404.93807983 C-19.04477999 404.95167582 -6.77642237 404.95768969 5.49194479 404.96209049 C13.14736215 404.96485047 20.80277823 404.96908734 28.45819473 404.97359467 C49.63999039 404.9857884 70.82178497 404.99612329 92.00358391 404.99946976 C93.37358672 404.99969139 94.74358953 404.99991317 96.11359233 405.00013511 C97.4869303 405.00035575 98.86026826 405.00057623 100.23360622 405.00079656 C102.98882667 405.00123911 105.74404713 405.00168623 108.49926758 405.00213623 C109.18240308 405.00224562 109.86553858 405.00235501 110.56937515 405.00246772 C132.7282209 405.00609967 154.88703396 405.02202499 177.04586718 405.04532659 C200.46503812 405.06990859 223.88418515 405.08363508 247.30337155 405.08483768 C260.07300233 405.08575577 272.8425903 405.09154199 285.61220932 405.10965729 C296.48338648 405.12502474 307.35450761 405.13019859 318.22569357 405.12191918 C323.77560634 405.11800091 329.32540616 405.1189995 334.87530518 405.13297653 C339.95184033 405.14564493 345.02817683 405.14458049 350.10471143 405.13238582 C351.94521186 405.13041652 353.78572602 405.1335636 355.6262071 405.14223018 C358.12080935 405.15323702 360.61469986 405.14589609 363.10928154 405.13383865 C364.19047794 405.14523144 364.19047794 405.14523144 365.2935167 405.15685439 C370.61342044 405.10103616 373.64673754 403.66660953 377.61889648 400.26190186 C384.69629474 391.76902395 379.86889648 366.62064767 379.86889648 364.76190186 C222.78889648 364.76190186 65.70889648 364.76190186 -96.13110352 364.76190186 Z M92.86889648 417.76190186 C92.86889648 428.32190186 92.86889648 438.88190186 92.86889648 449.76190186 C125.20889648 449.76190186 157.54889648 449.76190186 190.86889648 449.76190186 C190.86889648 439.20190186 190.86889648 428.64190186 190.86889648 417.76190186 C158.52889648 417.76190186 126.18889648 417.76190186 92.86889648 417.76190186 Z M35.86889648 468.76190186 C30.0800421 478.84889863 30.0800421 478.84889863 31.86889648 500.76190186 C105.12889648 500.76190186 178.38889648 500.76190186 253.86889648 500.76190186 C255.17692093 483.80368928 255.17692093 483.80368928 249.16967773 468.68768311 C242.79109999 462.50961075 235.61444846 461.45184566 226.9753418 461.50793457 C226.22277729 461.50481459 225.47021278 461.50169461 224.69484329 461.49848008 C222.19548756 461.4905594 219.69637864 461.49680035 217.19702148 461.50311279 C215.39603535 461.50040029 213.59505032 461.49683791 211.79406738 461.49249268 C206.9180986 461.48339724 202.04221472 461.48690119 197.16624451 461.49325085 C192.055733 461.49832557 186.9452286 461.4936153 181.8347168 461.49047852 C173.25364888 461.48684317 164.67261542 461.49162667 156.09155273 461.50115967 C146.18040327 461.51204338 136.2693361 461.5085175 126.35818863 461.49750686 C117.83822044 461.48842171 109.31827698 461.48715472 100.79830551 461.4923842 C95.71427817 461.49549714 90.63028948 461.49593181 85.54626465 461.48931122 C80.76589621 461.48352054 75.98563354 461.48756616 71.20527649 461.49909973 C69.45416947 461.50173711 67.7030535 461.50099703 65.95195007 461.4965744 C63.55533152 461.49108096 61.15904855 461.49799876 58.76245117 461.50793457 C58.07527637 461.50347313 57.38810158 461.49901168 56.6801033 461.49441504 C48.48098776 461.56000769 42.0290546 463.31253121 35.86889648 468.76190186 Z " transform="translate(114.131103515625,-0.76190185546875)" style="fill: rgb(71, 111, 255);"/><path d="M0 0 C2.99842767 5.99685533 -0.7348481 15.62807614 -2.41748047 21.77197266 C-2.66330368 22.69429184 -2.90912689 23.61661102 -3.16239929 24.56687927 C-3.97319253 27.60133209 -4.79507271 30.63265926 -5.6171875 33.6640625 C-6.19540092 35.81821609 -6.77295312 37.97254725 -7.34988403 40.12704468 C-8.87414444 45.81155259 -10.40797293 51.49343705 -11.94366455 57.17486572 C-13.46347483 62.80500635 -14.97335164 68.43780864 -16.484375 74.0703125 C-19.12766369 83.91851351 -21.78897648 93.76172187 -24.46004868 103.60242081 C-26.13223407 109.77064083 -27.78515568 115.9435625 -29.41942406 122.12193489 C-30.4152956 125.88020988 -31.42153768 129.63565851 -32.42987442 133.39060593 C-32.89340751 135.12675394 -33.35222551 136.86416865 -33.80599594 138.60289383 C-34.42490349 140.97231882 -35.06024883 143.33673626 -35.69970703 145.70068359 C-35.87478413 146.38853313 -36.04986122 147.07638268 -36.23024368 147.78507614 C-37.35508307 151.8598513 -38.6204939 154.40693157 -42 157 C-45.17235276 157.45319325 -47.06487736 157.52990283 -49.875 155.9375 C-52.10528544 152.09645286 -51.13422442 147.65749762 -50.27919006 143.46911621 C-49.76986183 141.5923822 -49.76986183 141.5923822 -49.25024414 139.67773438 C-49.062644 138.97691207 -48.87504387 138.27608976 -48.68175888 137.55403042 C-48.05784669 135.23161095 -47.42153115 132.9127826 -46.78515625 130.59375 C-46.33717377 128.93588266 -45.88998235 127.27780139 -45.44352722 125.61952209 C-44.24219954 121.16598228 -43.03020082 116.71541263 -41.81599426 112.26536942 C-40.55800352 107.64846747 -39.30914397 103.02909785 -38.05957031 98.40991211 C-36.53613399 92.78085439 -35.01154065 87.15211858 -33.48226929 81.52464294 C-30.44218913 70.33709873 -27.42369206 59.14411707 -24.43379021 47.94305801 C-23.2594507 43.54504742 -22.08203678 39.14785871 -20.90489674 34.750597 C-19.98826234 31.32555064 -19.07328093 27.90008 -18.16189575 24.47363281 C-17.16091331 20.71124416 -16.15116907 16.95123862 -15.140625 13.19140625 C-14.84890915 12.08910172 -14.5571933 10.98679718 -14.25663757 9.85108948 C-13.98664444 8.85165817 -13.71665131 7.85222687 -13.43847656 6.82250977 C-13.20727112 5.95731216 -12.97606567 5.09211456 -12.737854 4.20069885 C-12 2 -12 2 -10 -1 C-6.02972626 -2.32342458 -3.88343142 -1.36639254 0 0 Z " transform="translate(281,123)" style="fill: rgb(71, 111, 255);"/><path d="M0 0 C2.25436683 1.62783595 4.21375769 3.20176386 6.25 5.0625 C7.39747476 6.07270919 8.54592093 7.081816 9.6953125 8.08984375 C10.25637695 8.58726074 10.81744141 9.08467773 11.39550781 9.59716797 C13.58392623 11.51053562 15.84506458 13.32217567 18.125 15.125 C22.89232092 18.90834589 27.60943198 22.74921646 32.31152344 26.61328125 C34.2714745 28.22295766 36.23351491 29.83007463 38.1953125 31.4375 C39.69280246 32.66655199 41.19019827 33.8957187 42.6875 35.125 C43.73852905 35.98569092 43.73852905 35.98569092 44.81079102 36.86376953 C46.1873123 37.99535647 47.55953205 39.13219774 48.92724609 40.27441406 C50.36092471 41.46796418 51.80753036 42.64609395 53.26416016 43.81152344 C53.98780762 44.40739258 54.71145508 45.00326172 55.45703125 45.6171875 C56.11292236 46.14683105 56.76881348 46.67647461 57.44458008 47.22216797 C59.40256789 49.46013175 59.7499993 51.0615393 60 54 C58.17036883 58.14208168 55.52107918 60.48636227 52 63.25 C51.0203125 64.02859375 50.040625 64.8071875 49.03125 65.609375 C47.53078125 66.79273438 47.53078125 66.79273438 46 68 C44.163453 69.49606357 42.33004873 70.99599443 40.5 72.5 C39.58605469 73.24765625 38.67210937 73.9953125 37.73046875 74.765625 C35.96177205 76.21297051 34.19351457 77.66085301 32.42578125 79.109375 C25.54829559 84.74295069 18.66739024 90.37249389 11.75 95.95703125 C9.53860069 97.74303413 7.35530362 99.54709651 5.1875 101.38671875 C-0.16692832 105.84572747 -0.16692832 105.84572747 -4.375 106.625 C-7.28805975 105.93141435 -8.32818455 105.46372804 -10 103 C-10.875 101.125 -10.875 101.125 -11 99 C-8.74909886 94.2787958 -5.38342747 91.45095409 -1.4375 88.1875 C-0.49161011 87.39158447 -0.49161011 87.39158447 0.47338867 86.57958984 C4.65447106 83.07521136 8.8905189 79.64285594 13.171875 76.26171875 C17.00449905 73.19667824 20.78065125 70.06482939 24.5625 66.9375 C30.30220311 62.19502321 36.06492341 57.49780733 42 53 C36.60103116 47.96179175 31.08654834 43.20459421 25.25 38.6875 C19.6847067 34.37991731 14.31148627 29.89628623 8.99169922 25.29003906 C3.42354491 20.47664736 -2.20173676 15.68624966 -8.21484375 11.43359375 C-10 10 -10 10 -10.9375 7.625 C-11.01828215 4.23214991 -10.01224965 2.68299954 -8 0 C-4.97994227 -1.51002886 -3.23245788 -0.86997969 0 0 Z " transform="translate(311,148)" style="fill: rgb(71, 111, 255);"/><path d="M0 0 C2 2 2 2 2.4375 5.3125 C1.66625468 11.81299623 -4.36894251 15.27712006 -9.1875 19.3125 C-9.75774902 19.79251465 -10.32799805 20.2725293 -10.91552734 20.76708984 C-15.07760761 24.25820503 -19.2960888 27.67306244 -23.55078125 31.05078125 C-32.51796414 38.18734307 -41.27129578 45.57574442 -50 53 C-49.33355469 53.54527344 -48.66710937 54.09054688 -47.98046875 54.65234375 C-33.5 66.5 -33.5 66.5 -30.7265625 68.76953125 C-28.97182216 70.20499935 -27.21664845 71.63993796 -25.4609375 73.07421875 C-22.63876922 75.38055265 -19.81863527 77.68935102 -17 80 C-16.30406738 80.57041016 -15.60813477 81.14082031 -14.89111328 81.72851562 C-12.57220345 83.63024879 -10.25470145 85.53368574 -7.9375 87.4375 C-7.18645996 88.05326904 -6.43541992 88.66903809 -5.66162109 89.3034668 C-4.95730957 89.88265869 -4.25299805 90.46185059 -3.52734375 91.05859375 C-2.89562256 91.57736084 -2.26390137 92.09612793 -1.61303711 92.63061523 C1.97023916 95.67263076 1.97023916 95.67263076 2.3125 99.4375 C2 103 2 103 0.875 104.9375 C-1.88459552 106.50127079 -3.86517321 106.29196916 -7 106 C-9.4296875 104.48828125 -9.4296875 104.48828125 -11.875 102.3125 C-13.29425781 101.08466797 -13.29425781 101.08466797 -14.7421875 99.83203125 C-15.2587793 99.37908691 -15.77537109 98.92614258 -16.30761719 98.45947266 C-19.47430856 95.72858964 -22.74580275 93.12534096 -26 90.5 C-27.3793636 89.38077174 -28.75827684 88.26098821 -30.13671875 87.140625 C-30.79591309 86.60501953 -31.45510742 86.06941406 -32.13427734 85.51757812 C-36.43146524 82.02224707 -40.71548038 78.5108355 -45 75 C-46.83321648 73.49985719 -48.66655146 71.99985918 -50.5 70.5 C-51.39460938 69.76136719 -52.28921875 69.02273437 -53.2109375 68.26171875 C-55.14870845 66.69033306 -57.1147377 65.15341709 -59.1015625 63.64453125 C-60.59816406 62.49017578 -60.59816406 62.49017578 -62.125 61.3125 C-63.03507813 60.62800781 -63.94515625 59.94351563 -64.8828125 59.23828125 C-67.50288089 56.46835655 -67.91432687 54.77969708 -68 51 C-64.30810963 45.29435124 -58.99467619 41.49575476 -53.65991211 37.3996582 C-49.31633556 34.06422041 -45.12978506 30.59595183 -41 27 C-35.8308002 22.51187231 -30.54449163 18.22137995 -25.13574219 14.02587891 C-20.09332169 10.10606195 -15.19988772 6.02771232 -10.328125 1.8984375 C-6.47899083 -1.240286 -4.81659713 -1.10380351 0 0 Z " transform="translate(209,148)" style="fill: rgb(71, 111, 255);"/><path d="M0 0 C0.88471985 -0.00845947 1.7694397 -0.01691895 2.68096924 -0.02563477 C3.64886887 -0.01956207 4.61676849 -0.01348938 5.61399841 -0.00723267 C6.63534882 -0.01248962 7.65669922 -0.01774658 8.70899963 -0.02316284 C12.09211931 -0.03638961 15.47477027 -0.02761572 18.8578949 -0.01748657 C21.20294282 -0.01950637 23.54799013 -0.02241703 25.89303589 -0.02618408 C30.81001256 -0.03061095 35.72682586 -0.024164 40.64378357 -0.01016235 C46.95824193 0.00693897 53.27231806 -0.00291563 59.58676243 -0.02087975 C64.4293508 -0.03169968 69.27184795 -0.02827962 74.11443901 -0.02049637 C76.44334394 -0.01848989 78.77225705 -0.02096922 81.10115242 -0.02793503 C84.35045065 -0.035521 87.59912209 -0.02398552 90.84837341 -0.00723267 C92.3032592 -0.01634171 92.3032592 -0.01634171 93.78753662 -0.02563477 C95.11038666 -0.01294556 95.11038666 -0.01294556 96.45996094 0 C97.61281003 0.00169662 97.61281003 0.00169662 98.78894901 0.00342751 C100.66648865 0.38095093 100.66648865 0.38095093 102.66648865 3.38095093 C103.00606427 7.45585845 102.97981351 8.91096364 100.66648865 12.38095093 C98.78894901 12.75847435 98.78894901 12.75847435 96.45996094 12.76190186 C95.57806091 12.77036133 94.69616089 12.7788208 93.78753662 12.78753662 C92.81761276 12.78146393 91.8476889 12.77539124 90.84837341 12.76913452 C89.82877533 12.77439148 88.80917725 12.77964844 87.75868225 12.7850647 C84.37493243 12.7983112 80.99164984 12.78950936 77.6078949 12.77938843 C75.26381337 12.78140798 72.91973245 12.78431842 70.57565308 12.78808594 C65.65689629 12.79251573 60.73830268 12.78605765 55.81956482 12.77206421 C49.50629705 12.75498154 43.1934121 12.76480382 36.88015842 12.7827816 C32.0375275 12.79360969 27.19498768 12.79017738 22.35235405 12.78239822 C20.02427564 12.78039304 17.69618903 12.7828666 15.36812019 12.78983688 C12.11652267 12.79743414 8.86554931 12.78587047 5.61399841 12.76913452 C4.64609879 12.77520721 3.67819916 12.78127991 2.68096924 12.78753662 C1.79624939 12.77907715 0.91152954 12.77061768 0 12.76190186 C-0.76894309 12.76077078 -1.53788618 12.7596397 -2.33013058 12.75847435 C-4.89235975 12.27563976 -5.77913248 11.44547259 -7.33351135 9.38095093 C-7.97672245 4.23526211 -7.97672245 4.23526211 -6.08091831 1.71726036 C-3.8921731 0.04344256 -2.73630945 0.00402497 0 0 Z " transform="translate(296.33351135253906,38.619049072265625)" style="fill: rgb(71, 111, 255);"/><path d="M0 0 C0.79341797 0.01869141 1.58683594 0.03738281 2.40429688 0.05664062 C6.1780511 0.23724851 8.21632739 0.36607247 11.30078125 2.67578125 C14.68389474 7.45759799 13.99622458 12.63594521 14 18.25 C14.01224609 19.20455078 14.02449219 20.15910156 14.03710938 21.14257812 C14.03904297 22.06361328 14.04097656 22.98464844 14.04296875 23.93359375 C14.04707764 24.7733374 14.05118652 25.61308105 14.05541992 26.47827148 C13.78551917 29.07175999 13.22184638 30.62588662 11.8125 32.8125 C7.05255468 35.98579688 1.97076653 35.140692 -3.625 35.125 C-5.34299805 35.14916992 -5.34299805 35.14916992 -7.09570312 35.17382812 C-8.74795898 35.17479492 -8.74795898 35.17479492 -10.43359375 35.17578125 C-11.44091553 35.17876221 -12.4482373 35.18174316 -13.48608398 35.18481445 C-16.60461551 34.75501232 -17.95120453 33.9987794 -20.1875 31.8125 C-21.75591077 27.1072677 -21.49589195 22.36649567 -21.5625 17.4375 C-21.59988281 16.3959375 -21.63726562 15.354375 -21.67578125 14.28125 C-21.7631975 6.68574902 -21.7631975 6.68574902 -19.1015625 2.6484375 C-13.25395212 -1.03571381 -6.66468951 -0.32416874 0 0 Z M-8.1875 13.8125 C-8.1875 16.4525 -8.1875 19.0925 -8.1875 21.8125 C-5.2175 21.8125 -2.2475 21.8125 0.8125 21.8125 C0.8125 19.1725 0.8125 16.5325 0.8125 13.8125 C-2.1575 13.8125 -5.1275 13.8125 -8.1875 13.8125 Z " transform="translate(200.1875,27.1875)" style="fill: rgb(71, 111, 255);"/><path d="M0 0 C1.18348022 0.032146 1.18348022 0.032146 2.39086914 0.06494141 C6.12329951 0.2779041 8.12169334 0.4490857 11.16796875 2.7421875 C14.54927116 7.48818008 13.90730069 12.66312843 13.9375 18.25 C13.958125 19.19617188 13.97875 20.14234375 14 21.1171875 C14.04939373 29.90927099 14.04939373 29.90927099 10.6875 33.875 C6.47412345 35.98168827 0.94173467 35.1043798 -3.6875 35.125 C-5.41226563 35.1559375 -5.41226563 35.1559375 -7.171875 35.1875 C-8.27789062 35.19265625 -9.38390625 35.1978125 -10.5234375 35.203125 C-12.04396729 35.21714355 -12.04396729 35.21714355 -13.59521484 35.23144531 C-16.75512934 34.81693721 -18.08781514 34.13736973 -20.3125 31.875 C-22.06738751 27.38376637 -21.53658783 22.18914328 -21.5625 17.4375 C-21.583125 16.49583984 -21.60375 15.55417969 -21.625 14.58398438 C-21.67533291 5.66876802 -21.67533291 5.66876802 -18.3125 1.875 C-12.26661021 -0.45850132 -6.38842312 -0.24126526 0 0 Z M-8.3125 13.875 C-8.3125 16.515 -8.3125 19.155 -8.3125 21.875 C-5.3425 21.875 -2.3725 21.875 0.6875 21.875 C0.6875 19.235 0.6875 16.595 0.6875 13.875 C-2.2825 13.875 -5.2525 13.875 -8.3125 13.875 Z " transform="translate(158.3125,27.125)" style="fill: rgb(71, 111, 255);"/><path d="M0 0 C1.18348022 0.032146 1.18348022 0.032146 2.39086914 0.06494141 C6.12329951 0.2779041 8.12169334 0.4490857 11.16796875 2.7421875 C14.54927116 7.48818008 13.90730069 12.66312843 13.9375 18.25 C13.958125 19.19617188 13.97875 20.14234375 14 21.1171875 C14.04939373 29.90927099 14.04939373 29.90927099 10.6875 33.875 C6.47412345 35.98168827 0.94173467 35.1043798 -3.6875 35.125 C-5.41226563 35.1559375 -5.41226563 35.1559375 -7.171875 35.1875 C-8.27789062 35.19265625 -9.38390625 35.1978125 -10.5234375 35.203125 C-12.04396729 35.21714355 -12.04396729 35.21714355 -13.59521484 35.23144531 C-16.75512934 34.81693721 -18.08781514 34.13736973 -20.3125 31.875 C-22.06738751 27.38376637 -21.53658783 22.18914328 -21.5625 17.4375 C-21.583125 16.49583984 -21.60375 15.55417969 -21.625 14.58398438 C-21.67533291 5.66876802 -21.67533291 5.66876802 -18.3125 1.875 C-12.26661021 -0.45850132 -6.38842312 -0.24126526 0 0 Z M-8.3125 13.875 C-8.3125 16.515 -8.3125 19.155 -8.3125 21.875 C-5.3425 21.875 -2.3725 21.875 0.6875 21.875 C0.6875 19.235 0.6875 16.595 0.6875 13.875 C-2.2825 13.875 -5.2525 13.875 -8.3125 13.875 Z " transform="translate(116.3125,27.125)" style="fill: rgb(71, 111, 255);"/><path d="M0 0 C0.67671753 -0.00287018 1.35343506 -0.00574036 2.05065918 -0.00869751 C3.47958209 -0.01073647 4.90853302 -0.00521819 6.33740234 0.00732422 C8.52374725 0.02338239 10.70824379 0.00747216 12.89453125 -0.01171875 C14.28385824 -0.00973629 15.67318409 -0.00589254 17.0625 0 C18.32642578 0.00338379 19.59035156 0.00676758 20.89257812 0.01025391 C24.03125 0.3984375 24.03125 0.3984375 25.93945312 1.73974609 C27.68377881 4.38977935 27.47188502 6.31399235 27.03125 9.3984375 C24.82842209 12.34475312 23.64683016 13.2972685 19.97851562 13.90014648 C18.80998047 13.89829346 17.64144531 13.89644043 16.4375 13.89453125 C14.52130859 13.89549805 14.52130859 13.89549805 12.56640625 13.89648438 C11.57278076 13.88089478 11.57278076 13.88089478 10.55908203 13.86499023 C8.53725102 13.83602348 6.51804328 13.84438815 4.49609375 13.85742188 C-5.24864788 13.79350581 -5.24864788 13.79350581 -8.35351562 12.09008789 C-9.96875 10.3984375 -9.96875 10.3984375 -10.40625 6.8984375 C-9.96875 3.3984375 -9.96875 3.3984375 -8.87695312 1.70458984 C-5.97229184 -0.28363148 -3.48613118 0.00933309 0 0 Z " transform="translate(193.96875,377.6015625)" style="fill: rgb(71, 111, 255);"/><path d="M0 0 C0.67671753 -0.00287018 1.35343506 -0.00574036 2.05065918 -0.00869751 C3.47958209 -0.01073647 4.90853302 -0.00521819 6.33740234 0.00732422 C8.52374725 0.02338239 10.70824379 0.00747216 12.89453125 -0.01171875 C14.28385824 -0.00973629 15.67318409 -0.00589254 17.0625 0 C18.32642578 0.00338379 19.59035156 0.00676758 20.89257812 0.01025391 C24.03125 0.3984375 24.03125 0.3984375 25.93945312 1.73974609 C27.68377881 4.38977935 27.47188502 6.31399235 27.03125 9.3984375 C24.82957635 12.34021427 23.6387637 13.29543614 19.97851562 13.91601562 C18.80998047 13.92052734 17.64144531 13.92503906 16.4375 13.9296875 C15.16003906 13.93484375 13.88257813 13.94 12.56640625 13.9453125 C11.90398926 13.93693359 11.24157227 13.92855469 10.55908203 13.91992188 C8.53686552 13.898497 6.51820039 13.91973489 4.49609375 13.9453125 C3.21863281 13.94015625 1.94117188 13.935 0.625 13.9296875 C-0.54353516 13.92517578 -1.71207031 13.92066406 -2.91601562 13.91601562 C-6.5762637 13.29543614 -7.76707635 12.34021427 -9.96875 9.3984375 C-10.40938502 6.31399235 -10.62127881 4.38977935 -8.87695312 1.73974609 C-5.97847098 -0.29764655 -3.50742766 0.0093901 0 0 Z " transform="translate(300.96875,377.6015625)" style="fill: rgb(71, 111, 255);"/><path d="M 247.728 377.734 C 248.43 377.732 249.133 377.731 249.857 377.729 C 251.343 377.727 252.829 377.731 254.316 377.739 C 256.594 377.75 258.871 377.739 261.15 377.727 C 262.592 377.728 264.035 377.73 265.478 377.734 C 266.795 377.737 268.113 377.739 269.47 377.741 C 272.603 378 272.603 378 274.603 380 C 275.144 385.683 275.144 385.683 274.603 388 C 269.71 392.777 263.063 391.513 256.665 391.5 C 255.39 391.528 254.114 391.557 252.8 391.586 C 242.369 391.608 242.369 391.608 239.22 388.668 C 237.603 386 237.603 386 237.665 382.813 C 239.547 377.167 242.263 377.744 247.728 377.734 Z" style="fill: rgb(71, 111, 255);"/></svg>